solid MakerBeamCrossFork2
   facet normal -1.000000e+000 0.000000e+000 1.264902e-016
      outer loop
         vertex 3.550000e+000 1.000000e+000 8.615943e+000
         vertex 3.550000e+000 1.000000e+000 2.000000e+000
         vertex 3.550000e+000 0.000000e+000 8.615943e+000
      endloop
   endfacet
   facet normal -1.000000e+000 0.000000e+000 1.264902e-016
      outer loop
         vertex 3.550000e+000 0.000000e+000 8.615943e+000
         vertex 3.550000e+000 1.000000e+000 2.000000e+000
         vertex 3.550000e+000 0.000000e+000 2.000000e+000
      endloop
   endfacet
   facet normal 1.000000e+000 0.000000e+000 1.264902e-016
      outer loop
         vertex 6.450000e+000 1.000000e+000 9.384057e+000
         vertex 6.450000e+000 1.000000e+000 1.400000e+001
         vertex 6.450000e+000 0.000000e+000 9.384057e+000
      endloop
   endfacet
   facet normal 1.000000e+000 0.000000e+000 1.264902e-016
      outer loop
         vertex 6.450000e+000 0.000000e+000 9.384057e+000
         vertex 6.450000e+000 1.000000e+000 1.400000e+001
         vertex 6.450000e+000 0.000000e+000 1.400000e+001
      endloop
   endfacet
   facet normal 0.000000e+000 -1.000000e+000 0.000000e+000
      outer loop
         vertex 4.739528e+000 0.000000e+000 7.522789e+000
         vertex 4.486969e+000 0.000000e+000 7.590462e+000
         vertex 3.550000e+000 0.000000e+000 2.000000e+000
      endloop
   endfacet
   facet normal 0.000000e+000 -1.000000e+000 0.000000e+000
      outer loop
         vertex 4.486969e+000 0.000000e+000 7.590462e+000
         vertex 4.250000e+000 0.000000e+000 7.700962e+000
         vertex 3.550000e+000 0.000000e+000 2.000000e+000
      endloop
   endfacet
   facet normal 0.000000e+000 -1.000000e+000 0.000000e+000
      outer loop
         vertex 3.550000e+000 0.000000e+000 2.000000e+000
         vertex 4.250000e+000 0.000000e+000 7.700962e+000
         vertex 4.035819e+000 0.000000e+000 7.850934e+000
      endloop
   endfacet
   facet normal 0.000000e+000 -1.000000e+000 0.000000e+000
      outer loop
         vertex 3.550000e+000 0.000000e+000 2.000000e+000
         vertex 4.035819e+000 0.000000e+000 7.850934e+000
         vertex 3.850933e+000 0.000000e+000 8.035819e+000
      endloop
   endfacet
   facet normal 0.000000e+000 -1.000000e+000 0.000000e+000
      outer loop
         vertex 6.149066e+000 0.000000e+000 8.035819e+000
         vertex 5.964181e+000 0.000000e+000 7.850934e+000
         vertex 6.450000e+000 0.000000e+000 2.000000e+000
      endloop
   endfacet
   facet normal 0.000000e+000 -1.000000e+000 0.000000e+000
      outer loop
         vertex 6.450000e+000 0.000000e+000 2.000000e+000
         vertex 5.964181e+000 0.000000e+000 7.850934e+000
         vertex 5.750000e+000 0.000000e+000 7.700962e+000
      endloop
   endfacet
   facet normal 0.000000e+000 -1.000000e+000 0.000000e+000
      outer loop
         vertex 6.450000e+000 0.000000e+000 8.615943e+000
         vertex 6.409539e+000 0.000000e+000 8.486970e+000
         vertex 6.450000e+000 0.000000e+000 2.000000e+000
      endloop
   endfacet
   facet normal 0.000000e+000 -1.000000e+000 0.000000e+000
      outer loop
         vertex 6.450000e+000 0.000000e+000 2.000000e+000
         vertex 6.409539e+000 0.000000e+000 8.486970e+000
         vertex 6.299038e+000 0.000000e+000 8.250000e+000
      endloop
   endfacet
   facet normal 0.000000e+000 -1.000000e+000 0.000000e+000
      outer loop
         vertex 6.450000e+000 0.000000e+000 2.000000e+000
         vertex 6.299038e+000 0.000000e+000 8.250000e+000
         vertex 6.149066e+000 0.000000e+000 8.035819e+000
      endloop
   endfacet
   facet normal 0.000000e+000 -1.000000e+000 0.000000e+000
      outer loop
         vertex 5.750000e+000 0.000000e+000 7.700962e+000
         vertex 5.513030e+000 0.000000e+000 7.590462e+000
         vertex 6.450000e+000 0.000000e+000 2.000000e+000
      endloop
   endfacet
   facet normal 0.000000e+000 -1.000000e+000 0.000000e+000
      outer loop
         vertex 6.450000e+000 0.000000e+000 2.000000e+000
         vertex 5.513030e+000 0.000000e+000 7.590462e+000
         vertex 5.260472e+000 0.000000e+000 7.522789e+000
      endloop
   endfacet
   facet normal 0.000000e+000 -1.000000e+000 0.000000e+000
      outer loop
         vertex 6.450000e+000 0.000000e+000 2.000000e+000
         vertex 5.260472e+000 0.000000e+000 7.522789e+000
         vertex 3.550000e+000 0.000000e+000 2.000000e+000
      endloop
   endfacet
   facet normal 0.000000e+000 -1.000000e+000 0.000000e+000
      outer loop
         vertex 3.550000e+000 0.000000e+000 2.000000e+000
         vertex 5.260472e+000 0.000000e+000 7.522789e+000
         vertex 5.000000e+000 0.000000e+000 7.500000e+000
      endloop
   endfacet
   facet normal 0.000000e+000 -1.000000e+000 0.000000e+000
      outer loop
         vertex 3.550000e+000 0.000000e+000 2.000000e+000
         vertex 5.000000e+000 0.000000e+000 7.500000e+000
         vertex 4.739528e+000 0.000000e+000 7.522789e+000
      endloop
   endfacet
   facet normal 0.000000e+000 -1.000000e+000 0.000000e+000
      outer loop
         vertex 3.850933e+000 0.000000e+000 8.035819e+000
         vertex 3.700962e+000 0.000000e+000 8.250000e+000
         vertex 3.550000e+000 0.000000e+000 2.000000e+000
      endloop
   endfacet
   facet normal 0.000000e+000 -1.000000e+000 0.000000e+000
      outer loop
         vertex 3.550000e+000 0.000000e+000 2.000000e+000
         vertex 3.700962e+000 0.000000e+000 8.250000e+000
         vertex 3.590461e+000 0.000000e+000 8.486970e+000
      endloop
   endfacet
   facet normal 0.000000e+000 -1.000000e+000 0.000000e+000
      outer loop
         vertex 3.550000e+000 0.000000e+000 2.000000e+000
         vertex 3.590461e+000 0.000000e+000 8.486970e+000
         vertex 3.550000e+000 0.000000e+000 8.615943e+000
      endloop
   endfacet
   facet normal 0.000000e+000 -1.000000e+000 0.000000e+000
      outer loop
         vertex 3.500000e+000 1.000000e+000 9.000001e+000
         vertex 0.000000e+000 1.000000e+000 1.400000e+001
         vertex 3.522788e+000 1.000000e+000 8.739529e+000
      endloop
   endfacet
   facet normal 0.000000e+000 -1.000000e+000 0.000000e+000
      outer loop
         vertex 3.522788e+000 1.000000e+000 8.739529e+000
         vertex 0.000000e+000 1.000000e+000 1.400000e+001
         vertex 0.000000e+000 1.000000e+000 2.000000e+000
      endloop
   endfacet
   facet normal 0.000000e+000 -1.000000e+000 0.000000e+000
      outer loop
         vertex 3.522788e+000 1.000000e+000 8.739529e+000
         vertex 0.000000e+000 1.000000e+000 2.000000e+000
         vertex 3.550000e+000 1.000000e+000 8.615943e+000
      endloop
   endfacet
   facet normal 0.000000e+000 -1.000000e+000 0.000000e+000
      outer loop
         vertex 3.550000e+000 1.000000e+000 8.615943e+000
         vertex 0.000000e+000 1.000000e+000 2.000000e+000
         vertex 3.550000e+000 1.000000e+000 2.000000e+000
      endloop
   endfacet
   facet normal 0.000000e+000 -1.000000e+000 0.000000e+000
      outer loop
         vertex 3.500000e+000 1.000000e+000 9.000001e+000
         vertex 3.522788e+000 1.000000e+000 9.260472e+000
         vertex 0.000000e+000 1.000000e+000 1.400000e+001
      endloop
   endfacet
   facet normal 0.000000e+000 -1.000000e+000 0.000000e+000
      outer loop
         vertex 0.000000e+000 1.000000e+000 1.400000e+001
         vertex 3.522788e+000 1.000000e+000 9.260472e+000
         vertex 3.550000e+000 1.000000e+000 9.384057e+000
      endloop
   endfacet
   facet normal 0.000000e+000 -1.000000e+000 0.000000e+000
      outer loop
         vertex 0.000000e+000 1.000000e+000 1.400000e+001
         vertex 3.550000e+000 1.000000e+000 9.384057e+000
         vertex 3.550000e+000 1.000000e+000 1.400000e+001
      endloop
   endfacet
   facet normal 0.000000e+000 -1.000000e+000 0.000000e+000
      outer loop
         vertex 6.450000e+000 1.000000e+000 8.615943e+000
         vertex 6.450000e+000 1.000000e+000 2.000000e+000
         vertex 1.000000e+001 1.000000e+000 2.000000e+000
      endloop
   endfacet
   facet normal 0.000000e+000 -1.000000e+000 0.000000e+000
      outer loop
         vertex 1.000000e+001 1.000000e+000 1.400000e+001
         vertex 6.450000e+000 1.000000e+000 1.400000e+001
         vertex 6.450000e+000 1.000000e+000 9.384057e+000
      endloop
   endfacet
   facet normal 0.000000e+000 -1.000000e+000 0.000000e+000
      outer loop
         vertex 6.450000e+000 1.000000e+000 9.384057e+000
         vertex 6.477211e+000 1.000000e+000 9.260472e+000
         vertex 1.000000e+001 1.000000e+000 1.400000e+001
      endloop
   endfacet
   facet normal 0.000000e+000 -1.000000e+000 0.000000e+000
      outer loop
         vertex 1.000000e+001 1.000000e+000 1.400000e+001
         vertex 6.477211e+000 1.000000e+000 9.260472e+000
         vertex 6.500000e+000 1.000000e+000 9.000001e+000
      endloop
   endfacet
   facet normal 0.000000e+000 -1.000000e+000 0.000000e+000
      outer loop
         vertex 1.000000e+001 1.000000e+000 1.400000e+001
         vertex 6.500000e+000 1.000000e+000 9.000001e+000
         vertex 1.000000e+001 1.000000e+000 2.000000e+000
      endloop
   endfacet
   facet normal 0.000000e+000 -1.000000e+000 0.000000e+000
      outer loop
         vertex 1.000000e+001 1.000000e+000 2.000000e+000
         vertex 6.500000e+000 1.000000e+000 9.000001e+000
         vertex 6.477211e+000 1.000000e+000 8.739529e+000
      endloop
   endfacet
   facet normal 0.000000e+000 -1.000000e+000 0.000000e+000
      outer loop
         vertex 1.000000e+001 1.000000e+000 2.000000e+000
         vertex 6.477211e+000 1.000000e+000 8.739529e+000
         vertex 6.450000e+000 1.000000e+000 8.615943e+000
      endloop
   endfacet
   facet normal 0.000000e+000 -1.000000e+000 0.000000e+000
      outer loop
         vertex 3.550000e+000 1.000000e+000 0.000000e+000
         vertex 6.450000e+000 1.000000e+000 0.000000e+000
         vertex 3.550000e+000 1.000000e+000 2.000000e+000
      endloop
   endfacet
   facet normal 0.000000e+000 -1.000000e+000 0.000000e+000
      outer loop
         vertex 3.550000e+000 1.000000e+000 2.000000e+000
         vertex 6.450000e+000 1.000000e+000 0.000000e+000
         vertex 6.450000e+000 1.000000e+000 2.000000e+000
      endloop
   endfacet
   facet normal 0.000000e+000 0.000000e+000 1.000000e+000
      outer loop
         vertex 0.000000e+000 8.000000e+000 1.400000e+001
         vertex 0.000000e+000 1.000000e+000 1.400000e+001
         vertex 1.000000e+001 8.000000e+000 1.400000e+001
      endloop
   endfacet
   facet normal 0.000000e+000 0.000000e+000 1.000000e+000
      outer loop
         vertex 1.000000e+001 8.000000e+000 1.400000e+001
         vertex 0.000000e+000 1.000000e+000 1.400000e+001
         vertex 3.550000e+000 1.000000e+000 1.400000e+001
      endloop
   endfacet
   facet normal 0.000000e+000 0.000000e+000 1.000000e+000
      outer loop
         vertex 1.000000e+001 1.000000e+000 1.400000e+001
         vertex 1.000000e+001 8.000000e+000 1.400000e+001
         vertex 6.450000e+000 1.000000e+000 1.400000e+001
      endloop
   endfacet
   facet normal 0.000000e+000 0.000000e+000 1.000000e+000
      outer loop
         vertex 6.450000e+000 1.000000e+000 1.400000e+001
         vertex 1.000000e+001 8.000000e+000 1.400000e+001
         vertex 3.550000e+000 1.000000e+000 1.400000e+001
      endloop
   endfacet
   facet normal 0.000000e+000 0.000000e+000 1.000000e+000
      outer loop
         vertex 6.450000e+000 1.000000e+000 1.400000e+001
         vertex 3.550000e+000 1.000000e+000 1.400000e+001
         vertex 6.450000e+000 0.000000e+000 1.400000e+001
      endloop
   endfacet
   facet normal 0.000000e+000 0.000000e+000 1.000000e+000
      outer loop
         vertex 6.450000e+000 0.000000e+000 1.400000e+001
         vertex 3.550000e+000 1.000000e+000 1.400000e+001
         vertex 3.550000e+000 0.000000e+000 1.400000e+001
      endloop
   endfacet
   facet normal 0.000000e+000 0.000000e+000 -1.000000e+000
      outer loop
         vertex 1.100000e+000 9.000000e+000 2.000000e+000
         vertex 1.100000e+000 7.450000e+000 2.000000e+000
         vertex 0.000000e+000 7.450000e+000 2.000000e+000
      endloop
   endfacet
   facet normal 0.000000e+000 0.000000e+000 -1.000000e+000
      outer loop
         vertex 0.000000e+000 4.550000e+000 2.000000e+000
         vertex 1.100000e+000 4.550000e+000 2.000000e+000
         vertex 0.000000e+000 1.000000e+000 2.000000e+000
      endloop
   endfacet
   facet normal 0.000000e+000 0.000000e+000 -1.000000e+000
      outer loop
         vertex 0.000000e+000 1.000000e+000 2.000000e+000
         vertex 1.100000e+000 4.550000e+000 2.000000e+000
         vertex 1.100000e+000 3.000000e+000 2.000000e+000
      endloop
   endfacet
   facet normal 0.000000e+000 0.000000e+000 -1.000000e+000
      outer loop
         vertex 8.000000e+000 9.900000e+000 2.000000e+000
         vertex 6.450000e+000 9.900000e+000 2.000000e+000
         vertex 6.450000e+000 1.100000e+001 2.000000e+000
      endloop
   endfacet
   facet normal 0.000000e+000 0.000000e+000 -1.000000e+000
      outer loop
         vertex 3.550000e+000 1.100000e+001 2.000000e+000
         vertex 3.550000e+000 9.900000e+000 2.000000e+000
         vertex 0.000000e+000 1.100000e+001 2.000000e+000
      endloop
   endfacet
   facet normal 0.000000e+000 0.000000e+000 -1.000000e+000
      outer loop
         vertex 0.000000e+000 1.100000e+001 2.000000e+000
         vertex 3.550000e+000 9.900000e+000 2.000000e+000
         vertex 2.000000e+000 9.900000e+000 2.000000e+000
      endloop
   endfacet
   facet normal 0.000000e+000 0.000000e+000 -1.000000e+000
      outer loop
         vertex 8.900000e+000 3.000000e+000 2.000000e+000
         vertex 8.900000e+000 4.550000e+000 2.000000e+000
         vertex 1.000000e+001 4.550000e+000 2.000000e+000
      endloop
   endfacet
   facet normal 0.000000e+000 0.000000e+000 -1.000000e+000
      outer loop
         vertex 1.000000e+001 7.450000e+000 2.000000e+000
         vertex 8.900000e+000 7.450000e+000 2.000000e+000
         vertex 1.000000e+001 1.100000e+001 2.000000e+000
      endloop
   endfacet
   facet normal 0.000000e+000 0.000000e+000 -1.000000e+000
      outer loop
         vertex 1.000000e+001 1.100000e+001 2.000000e+000
         vertex 8.900000e+000 7.450000e+000 2.000000e+000
         vertex 8.900000e+000 9.000000e+000 2.000000e+000
      endloop
   endfacet
   facet normal 0.000000e+000 0.000000e+000 -1.000000e+000
      outer loop
         vertex 2.000000e+000 2.100000e+000 2.000000e+000
         vertex 3.550000e+000 2.100000e+000 2.000000e+000
         vertex 3.550000e+000 1.000000e+000 2.000000e+000
      endloop
   endfacet
   facet normal 0.000000e+000 0.000000e+000 -1.000000e+000
      outer loop
         vertex 6.450000e+000 1.000000e+000 2.000000e+000
         vertex 6.450000e+000 2.100000e+000 2.000000e+000
         vertex 1.000000e+001 1.000000e+000 2.000000e+000
      endloop
   endfacet
   facet normal 0.000000e+000 0.000000e+000 -1.000000e+000
      outer loop
         vertex 1.000000e+001 1.000000e+000 2.000000e+000
         vertex 6.450000e+000 2.100000e+000 2.000000e+000
         vertex 8.000000e+000 2.100000e+000 2.000000e+000
      endloop
   endfacet
   facet normal 0.000000e+000 0.000000e+000 -1.000000e+000
      outer loop
         vertex 7.100000e+000 6.950000e+000 2.000000e+000
         vertex 7.100000e+000 5.050000e+000 2.000000e+000
         vertex 4.050000e+000 3.900000e+000 2.000000e+000
      endloop
   endfacet
   facet normal 0.000000e+000 0.000000e+000 -1.000000e+000
      outer loop
         vertex 6.450000e+000 1.100000e+001 2.000000e+000
         vertex 1.000000e+001 1.100000e+001 2.000000e+000
         vertex 8.000000e+000 9.900000e+000 2.000000e+000
      endloop
   endfacet
   facet normal 0.000000e+000 0.000000e+000 -1.000000e+000
      outer loop
         vertex 8.000000e+000 9.900000e+000 2.000000e+000
         vertex 1.000000e+001 1.100000e+001 2.000000e+000
         vertex 8.900000e+000 9.000000e+000 2.000000e+000
      endloop
   endfacet
   facet normal 0.000000e+000 0.000000e+000 -1.000000e+000
      outer loop
         vertex 8.000000e+000 9.900000e+000 2.000000e+000
         vertex 8.900000e+000 9.000000e+000 2.000000e+000
         vertex 5.950000e+000 8.100000e+000 2.000000e+000
      endloop
   endfacet
   facet normal 0.000000e+000 0.000000e+000 -1.000000e+000
      outer loop
         vertex 5.950000e+000 8.100000e+000 2.000000e+000
         vertex 8.900000e+000 9.000000e+000 2.000000e+000
         vertex 7.100000e+000 6.950000e+000 2.000000e+000
      endloop
   endfacet
   facet normal 0.000000e+000 0.000000e+000 -1.000000e+000
      outer loop
         vertex 5.950000e+000 8.100000e+000 2.000000e+000
         vertex 7.100000e+000 6.950000e+000 2.000000e+000
         vertex 4.050000e+000 8.100000e+000 2.000000e+000
      endloop
   endfacet
   facet normal 0.000000e+000 0.000000e+000 -1.000000e+000
      outer loop
         vertex 4.050000e+000 8.100000e+000 2.000000e+000
         vertex 7.100000e+000 6.950000e+000 2.000000e+000
         vertex 4.050000e+000 3.900000e+000 2.000000e+000
      endloop
   endfacet
   facet normal 0.000000e+000 0.000000e+000 -1.000000e+000
      outer loop
         vertex 0.000000e+000 7.450000e+000 2.000000e+000
         vertex 0.000000e+000 1.100000e+001 2.000000e+000
         vertex 1.100000e+000 9.000000e+000 2.000000e+000
      endloop
   endfacet
   facet normal 0.000000e+000 0.000000e+000 -1.000000e+000
      outer loop
         vertex 1.100000e+000 9.000000e+000 2.000000e+000
         vertex 0.000000e+000 1.100000e+001 2.000000e+000
         vertex 2.000000e+000 9.900000e+000 2.000000e+000
      endloop
   endfacet
   facet normal 0.000000e+000 0.000000e+000 -1.000000e+000
      outer loop
         vertex 1.100000e+000 9.000000e+000 2.000000e+000
         vertex 2.000000e+000 9.900000e+000 2.000000e+000
         vertex 2.900000e+000 6.950000e+000 2.000000e+000
      endloop
   endfacet
   facet normal 0.000000e+000 0.000000e+000 -1.000000e+000
      outer loop
         vertex 2.900000e+000 6.950000e+000 2.000000e+000
         vertex 2.000000e+000 9.900000e+000 2.000000e+000
         vertex 4.050000e+000 8.100000e+000 2.000000e+000
      endloop
   endfacet
   facet normal 0.000000e+000 0.000000e+000 -1.000000e+000
      outer loop
         vertex 2.900000e+000 6.950000e+000 2.000000e+000
         vertex 4.050000e+000 8.100000e+000 2.000000e+000
         vertex 2.900000e+000 5.050000e+000 2.000000e+000
      endloop
   endfacet
   facet normal 0.000000e+000 0.000000e+000 -1.000000e+000
      outer loop
         vertex 2.900000e+000 5.050000e+000 2.000000e+000
         vertex 4.050000e+000 8.100000e+000 2.000000e+000
         vertex 4.050000e+000 3.900000e+000 2.000000e+000
      endloop
   endfacet
   facet normal 0.000000e+000 0.000000e+000 -1.000000e+000
      outer loop
         vertex 2.900000e+000 5.050000e+000 2.000000e+000
         vertex 4.050000e+000 3.900000e+000 2.000000e+000
         vertex 1.100000e+000 3.000000e+000 2.000000e+000
      endloop
   endfacet
   facet normal 0.000000e+000 0.000000e+000 -1.000000e+000
      outer loop
         vertex 1.100000e+000 3.000000e+000 2.000000e+000
         vertex 4.050000e+000 3.900000e+000 2.000000e+000
         vertex 2.000000e+000 2.100000e+000 2.000000e+000
      endloop
   endfacet
   facet normal 0.000000e+000 0.000000e+000 -1.000000e+000
      outer loop
         vertex 1.100000e+000 3.000000e+000 2.000000e+000
         vertex 2.000000e+000 2.100000e+000 2.000000e+000
         vertex 0.000000e+000 1.000000e+000 2.000000e+000
      endloop
   endfacet
   facet normal 0.000000e+000 0.000000e+000 -1.000000e+000
      outer loop
         vertex 0.000000e+000 1.000000e+000 2.000000e+000
         vertex 2.000000e+000 2.100000e+000 2.000000e+000
         vertex 3.550000e+000 1.000000e+000 2.000000e+000
      endloop
   endfacet
   facet normal 0.000000e+000 0.000000e+000 -1.000000e+000
      outer loop
         vertex 1.000000e+001 4.550000e+000 2.000000e+000
         vertex 1.000000e+001 1.000000e+000 2.000000e+000
         vertex 8.900000e+000 3.000000e+000 2.000000e+000
      endloop
   endfacet
   facet normal 0.000000e+000 0.000000e+000 -1.000000e+000
      outer loop
         vertex 8.900000e+000 3.000000e+000 2.000000e+000
         vertex 1.000000e+001 1.000000e+000 2.000000e+000
         vertex 8.000000e+000 2.100000e+000 2.000000e+000
      endloop
   endfacet
   facet normal 0.000000e+000 0.000000e+000 -1.000000e+000
      outer loop
         vertex 8.900000e+000 3.000000e+000 2.000000e+000
         vertex 8.000000e+000 2.100000e+000 2.000000e+000
         vertex 7.100000e+000 5.050000e+000 2.000000e+000
      endloop
   endfacet
   facet normal 0.000000e+000 0.000000e+000 -1.000000e+000
      outer loop
         vertex 7.100000e+000 5.050000e+000 2.000000e+000
         vertex 8.000000e+000 2.100000e+000 2.000000e+000
         vertex 5.950000e+000 3.900000e+000 2.000000e+000
      endloop
   endfacet
   facet normal 0.000000e+000 0.000000e+000 -1.000000e+000
      outer loop
         vertex 7.100000e+000 5.050000e+000 2.000000e+000
         vertex 5.950000e+000 3.900000e+000 2.000000e+000
         vertex 4.050000e+000 3.900000e+000 2.000000e+000
      endloop
   endfacet
   facet normal 1.000000e+000 0.000000e+000 0.000000e+000
      outer loop
         vertex 1.000000e+001 1.100000e+001 2.000000e+000
         vertex 1.000000e+001 1.100000e+001 4.000000e+000
         vertex 1.000000e+001 7.450000e+000 2.000000e+000
      endloop
   endfacet
   facet normal 1.000000e+000 0.000000e+000 0.000000e+000
      outer loop
         vertex 1.000000e+001 7.450000e+000 2.000000e+000
         vertex 1.000000e+001 1.100000e+001 4.000000e+000
         vertex 1.000000e+001 8.000000e+000 4.000000e+000
      endloop
   endfacet
   facet normal 1.000000e+000 0.000000e+000 0.000000e+000
      outer loop
         vertex 1.000000e+001 1.000000e+000 1.400000e+001
         vertex 1.000000e+001 1.000000e+000 2.000000e+000
         vertex 1.000000e+001 4.550000e+000 2.000000e+000
      endloop
   endfacet
   facet normal 1.000000e+000 0.000000e+000 0.000000e+000
      outer loop
         vertex 1.000000e+001 7.450000e+000 0.000000e+000
         vertex 1.000000e+001 7.450000e+000 2.000000e+000
         vertex 1.000000e+001 4.550000e+000 0.000000e+000
      endloop
   endfacet
   facet normal 1.000000e+000 0.000000e+000 0.000000e+000
      outer loop
         vertex 1.000000e+001 4.550000e+000 0.000000e+000
         vertex 1.000000e+001 7.450000e+000 2.000000e+000
         vertex 1.000000e+001 8.000000e+000 4.000000e+000
      endloop
   endfacet
   facet normal 1.000000e+000 0.000000e+000 0.000000e+000
      outer loop
         vertex 1.000000e+001 4.550000e+000 0.000000e+000
         vertex 1.000000e+001 8.000000e+000 4.000000e+000
         vertex 1.000000e+001 4.550000e+000 2.000000e+000
      endloop
   endfacet
   facet normal 1.000000e+000 0.000000e+000 0.000000e+000
      outer loop
         vertex 1.000000e+001 4.550000e+000 2.000000e+000
         vertex 1.000000e+001 8.000000e+000 4.000000e+000
         vertex 1.000000e+001 8.000000e+000 1.400000e+001
      endloop
   endfacet
   facet normal 1.000000e+000 0.000000e+000 0.000000e+000
      outer loop
         vertex 1.000000e+001 4.550000e+000 2.000000e+000
         vertex 1.000000e+001 8.000000e+000 1.400000e+001
         vertex 1.000000e+001 1.000000e+000 1.400000e+001
      endloop
   endfacet
   facet normal 0.000000e+000 1.000000e+000 0.000000e+000
      outer loop
         vertex 0.000000e+000 1.100000e+001 4.000000e+000
         vertex 1.000000e+001 1.100000e+001 4.000000e+000
         vertex 6.450000e+000 1.100000e+001 2.000000e+000
      endloop
   endfacet
   facet normal 0.000000e+000 1.000000e+000 0.000000e+000
      outer loop
         vertex 6.450000e+000 1.100000e+001 2.000000e+000
         vertex 1.000000e+001 1.100000e+001 4.000000e+000
         vertex 1.000000e+001 1.100000e+001 2.000000e+000
      endloop
   endfacet
   facet normal 0.000000e+000 1.000000e+000 0.000000e+000
      outer loop
         vertex 0.000000e+000 1.100000e+001 2.000000e+000
         vertex 0.000000e+000 1.100000e+001 4.000000e+000
         vertex 3.550000e+000 1.100000e+001 2.000000e+000
      endloop
   endfacet
   facet normal 0.000000e+000 1.000000e+000 0.000000e+000
      outer loop
         vertex 3.550000e+000 1.100000e+001 2.000000e+000
         vertex 0.000000e+000 1.100000e+001 4.000000e+000
         vertex 6.450000e+000 1.100000e+001 2.000000e+000
      endloop
   endfacet
   facet normal 0.000000e+000 1.000000e+000 0.000000e+000
      outer loop
         vertex 3.550000e+000 1.100000e+001 2.000000e+000
         vertex 6.450000e+000 1.100000e+001 2.000000e+000
         vertex 3.550000e+000 1.100000e+001 0.000000e+000
      endloop
   endfacet
   facet normal 0.000000e+000 1.000000e+000 0.000000e+000
      outer loop
         vertex 3.550000e+000 1.100000e+001 0.000000e+000
         vertex 6.450000e+000 1.100000e+001 2.000000e+000
         vertex 6.450000e+000 1.100000e+001 0.000000e+000
      endloop
   endfacet
   facet normal -1.000000e+000 0.000000e+000 0.000000e+000
      outer loop
         vertex 0.000000e+000 1.000000e+000 1.400000e+001
         vertex 0.000000e+000 8.000000e+000 1.400000e+001
         vertex 0.000000e+000 8.000000e+000 4.000000e+000
      endloop
   endfacet
   facet normal -1.000000e+000 0.000000e+000 0.000000e+000
      outer loop
         vertex 0.000000e+000 1.100000e+001 4.000000e+000
         vertex 0.000000e+000 1.100000e+001 2.000000e+000
         vertex 0.000000e+000 8.000000e+000 4.000000e+000
      endloop
   endfacet
   facet normal -1.000000e+000 0.000000e+000 0.000000e+000
      outer loop
         vertex 0.000000e+000 8.000000e+000 4.000000e+000
         vertex 0.000000e+000 1.100000e+001 2.000000e+000
         vertex 0.000000e+000 7.450000e+000 2.000000e+000
      endloop
   endfacet
   facet normal -1.000000e+000 0.000000e+000 0.000000e+000
      outer loop
         vertex 0.000000e+000 1.000000e+000 2.000000e+000
         vertex 0.000000e+000 1.000000e+000 1.400000e+001
         vertex 0.000000e+000 4.550000e+000 2.000000e+000
      endloop
   endfacet
   facet normal -1.000000e+000 0.000000e+000 0.000000e+000
      outer loop
         vertex 0.000000e+000 4.550000e+000 2.000000e+000
         vertex 0.000000e+000 1.000000e+000 1.400000e+001
         vertex 0.000000e+000 8.000000e+000 4.000000e+000
      endloop
   endfacet
   facet normal -1.000000e+000 0.000000e+000 0.000000e+000
      outer loop
         vertex 0.000000e+000 4.550000e+000 2.000000e+000
         vertex 0.000000e+000 8.000000e+000 4.000000e+000
         vertex 0.000000e+000 4.550000e+000 0.000000e+000
      endloop
   endfacet
   facet normal -1.000000e+000 0.000000e+000 0.000000e+000
      outer loop
         vertex 0.000000e+000 4.550000e+000 0.000000e+000
         vertex 0.000000e+000 8.000000e+000 4.000000e+000
         vertex 0.000000e+000 7.450000e+000 2.000000e+000
      endloop
   endfacet
   facet normal -1.000000e+000 0.000000e+000 0.000000e+000
      outer loop
         vertex 0.000000e+000 4.550000e+000 0.000000e+000
         vertex 0.000000e+000 7.450000e+000 2.000000e+000
         vertex 0.000000e+000 7.450000e+000 0.000000e+000
      endloop
   endfacet
   facet normal -1.971277e-016 -1.000000e+000 0.000000e+000
      outer loop
         vertex 8.900000e+000 4.550000e+000 0.000000e+000
         vertex 1.000000e+001 4.550000e+000 0.000000e+000
         vertex 8.900000e+000 4.550000e+000 2.000000e+000
      endloop
   endfacet
   facet normal -1.971277e-016 -1.000000e+000 0.000000e+000
      outer loop
         vertex 8.900000e+000 4.550000e+000 2.000000e+000
         vertex 1.000000e+001 4.550000e+000 0.000000e+000
         vertex 1.000000e+001 4.550000e+000 2.000000e+000
      endloop
   endfacet
   facet normal 1.000000e+000 0.000000e+000 0.000000e+000
      outer loop
         vertex 8.900000e+000 3.000000e+000 0.000000e+000
         vertex 8.900000e+000 4.550000e+000 0.000000e+000
         vertex 8.900000e+000 3.000000e+000 2.000000e+000
      endloop
   endfacet
   facet normal 1.000000e+000 0.000000e+000 0.000000e+000
      outer loop
         vertex 8.900000e+000 3.000000e+000 2.000000e+000
         vertex 8.900000e+000 4.550000e+000 0.000000e+000
         vertex 8.900000e+000 4.550000e+000 2.000000e+000
      endloop
   endfacet
   facet normal -7.514402e-001 -6.598012e-001 0.000000e+000
      outer loop
         vertex 7.100000e+000 5.050000e+000 0.000000e+000
         vertex 8.900000e+000 3.000000e+000 0.000000e+000
         vertex 7.100000e+000 5.050000e+000 2.000000e+000
      endloop
   endfacet
   facet normal -7.514402e-001 -6.598012e-001 0.000000e+000
      outer loop
         vertex 7.100000e+000 5.050000e+000 2.000000e+000
         vertex 8.900000e+000 3.000000e+000 0.000000e+000
         vertex 8.900000e+000 3.000000e+000 2.000000e+000
      endloop
   endfacet
   facet normal -1.000000e+000 0.000000e+000 0.000000e+000
      outer loop
         vertex 7.100000e+000 6.950000e+000 0.000000e+000
         vertex 7.100000e+000 5.050000e+000 0.000000e+000
         vertex 7.100000e+000 6.950000e+000 2.000000e+000
      endloop
   endfacet
   facet normal -1.000000e+000 0.000000e+000 0.000000e+000
      outer loop
         vertex 7.100000e+000 6.950000e+000 2.000000e+000
         vertex 7.100000e+000 5.050000e+000 0.000000e+000
         vertex 7.100000e+000 5.050000e+000 2.000000e+000
      endloop
   endfacet
   facet normal -7.514402e-001 6.598012e-001 0.000000e+000
      outer loop
         vertex 8.900000e+000 9.000000e+000 0.000000e+000
         vertex 7.100000e+000 6.950000e+000 0.000000e+000
         vertex 8.900000e+000 9.000000e+000 2.000000e+000
      endloop
   endfacet
   facet normal -7.514402e-001 6.598012e-001 0.000000e+000
      outer loop
         vertex 8.900000e+000 9.000000e+000 2.000000e+000
         vertex 7.100000e+000 6.950000e+000 0.000000e+000
         vertex 7.100000e+000 6.950000e+000 2.000000e+000
      endloop
   endfacet
   facet normal 1.000000e+000 0.000000e+000 0.000000e+000
      outer loop
         vertex 8.900000e+000 7.450000e+000 0.000000e+000
         vertex 8.900000e+000 9.000000e+000 0.000000e+000
         vertex 8.900000e+000 7.450000e+000 2.000000e+000
      endloop
   endfacet
   facet normal 1.000000e+000 0.000000e+000 0.000000e+000
      outer loop
         vertex 8.900000e+000 7.450000e+000 2.000000e+000
         vertex 8.900000e+000 9.000000e+000 0.000000e+000
         vertex 8.900000e+000 9.000000e+000 2.000000e+000
      endloop
   endfacet
   facet normal 0.000000e+000 1.000000e+000 0.000000e+000
      outer loop
         vertex 1.000000e+001 7.450000e+000 0.000000e+000
         vertex 8.900000e+000 7.450000e+000 0.000000e+000
         vertex 1.000000e+001 7.450000e+000 2.000000e+000
      endloop
   endfacet
   facet normal 0.000000e+000 1.000000e+000 0.000000e+000
      outer loop
         vertex 1.000000e+001 7.450000e+000 2.000000e+000
         vertex 8.900000e+000 7.450000e+000 0.000000e+000
         vertex 8.900000e+000 7.450000e+000 2.000000e+000
      endloop
   endfacet
   facet normal 0.000000e+000 0.000000e+000 -1.000000e+000
      outer loop
         vertex 8.900000e+000 4.550000e+000 0.000000e+000
         vertex 8.900000e+000 3.000000e+000 0.000000e+000
         vertex 7.100000e+000 5.050000e+000 0.000000e+000
      endloop
   endfacet
   facet normal 0.000000e+000 0.000000e+000 -1.000000e+000
      outer loop
         vertex 7.100000e+000 6.950000e+000 0.000000e+000
         vertex 8.900000e+000 9.000000e+000 0.000000e+000
         vertex 8.900000e+000 7.450000e+000 0.000000e+000
      endloop
   endfacet
   facet normal 0.000000e+000 0.000000e+000 -1.000000e+000
      outer loop
         vertex 1.000000e+001 7.450000e+000 0.000000e+000
         vertex 1.000000e+001 4.550000e+000 0.000000e+000
         vertex 8.900000e+000 7.450000e+000 0.000000e+000
      endloop
   endfacet
   facet normal 0.000000e+000 0.000000e+000 -1.000000e+000
      outer loop
         vertex 8.900000e+000 7.450000e+000 0.000000e+000
         vertex 1.000000e+001 4.550000e+000 0.000000e+000
         vertex 8.900000e+000 4.550000e+000 0.000000e+000
      endloop
   endfacet
   facet normal 0.000000e+000 0.000000e+000 -1.000000e+000
      outer loop
         vertex 8.900000e+000 7.450000e+000 0.000000e+000
         vertex 8.900000e+000 4.550000e+000 0.000000e+000
         vertex 7.100000e+000 6.950000e+000 0.000000e+000
      endloop
   endfacet
   facet normal 0.000000e+000 0.000000e+000 -1.000000e+000
      outer loop
         vertex 7.100000e+000 6.950000e+000 0.000000e+000
         vertex 8.900000e+000 4.550000e+000 0.000000e+000
         vertex 7.100000e+000 5.050000e+000 0.000000e+000
      endloop
   endfacet
   facet normal 1.000000e+000 3.294354e-015 0.000000e+000
      outer loop
         vertex 6.450000e+000 9.900000e+000 0.000000e+000
         vertex 6.450000e+000 1.100000e+001 0.000000e+000
         vertex 6.450000e+000 9.900000e+000 2.000000e+000
      endloop
   endfacet
   facet normal 1.000000e+000 3.294354e-015 0.000000e+000
      outer loop
         vertex 6.450000e+000 9.900000e+000 2.000000e+000
         vertex 6.450000e+000 1.100000e+001 0.000000e+000
         vertex 6.450000e+000 1.100000e+001 2.000000e+000
      endloop
   endfacet
   facet normal -3.491481e-015 1.000000e+000 0.000000e+000
      outer loop
         vertex 8.000000e+000 9.900000e+000 0.000000e+000
         vertex 6.450000e+000 9.900000e+000 0.000000e+000
         vertex 8.000000e+000 9.900000e+000 2.000000e+000
      endloop
   endfacet
   facet normal -3.491481e-015 1.000000e+000 0.000000e+000
      outer loop
         vertex 8.000000e+000 9.900000e+000 2.000000e+000
         vertex 6.450000e+000 9.900000e+000 0.000000e+000
         vertex 6.450000e+000 9.900000e+000 2.000000e+000
      endloop
   endfacet
   facet normal 6.598012e-001 -7.514402e-001 0.000000e+000
      outer loop
         vertex 5.950000e+000 8.100000e+000 0.000000e+000
         vertex 8.000000e+000 9.900000e+000 0.000000e+000
         vertex 5.950000e+000 8.100000e+000 2.000000e+000
      endloop
   endfacet
   facet normal 6.598012e-001 -7.514402e-001 0.000000e+000
      outer loop
         vertex 5.950000e+000 8.100000e+000 2.000000e+000
         vertex 8.000000e+000 9.900000e+000 0.000000e+000
         vertex 8.000000e+000 9.900000e+000 2.000000e+000
      endloop
   endfacet
   facet normal 3.491481e-015 -1.000000e+000 0.000000e+000
      outer loop
         vertex 4.050000e+000 8.100000e+000 0.000000e+000
         vertex 5.950000e+000 8.100000e+000 0.000000e+000
         vertex 4.050000e+000 8.100000e+000 2.000000e+000
      endloop
   endfacet
   facet normal 3.491481e-015 -1.000000e+000 0.000000e+000
      outer loop
         vertex 4.050000e+000 8.100000e+000 2.000000e+000
         vertex 5.950000e+000 8.100000e+000 0.000000e+000
         vertex 5.950000e+000 8.100000e+000 2.000000e+000
      endloop
   endfacet
   facet normal -6.598012e-001 -7.514402e-001 0.000000e+000
      outer loop
         vertex 2.000000e+000 9.900000e+000 0.000000e+000
         vertex 4.050000e+000 8.100000e+000 0.000000e+000
         vertex 2.000000e+000 9.900000e+000 2.000000e+000
      endloop
   endfacet
   facet normal -6.598012e-001 -7.514402e-001 0.000000e+000
      outer loop
         vertex 2.000000e+000 9.900000e+000 2.000000e+000
         vertex 4.050000e+000 8.100000e+000 0.000000e+000
         vertex 4.050000e+000 8.100000e+000 2.000000e+000
      endloop
   endfacet
   facet normal -3.491481e-015 1.000000e+000 0.000000e+000
      outer loop
         vertex 3.550000e+000 9.900000e+000 0.000000e+000
         vertex 2.000000e+000 9.900000e+000 0.000000e+000
         vertex 3.550000e+000 9.900000e+000 2.000000e+000
      endloop
   endfacet
   facet normal -3.491481e-015 1.000000e+000 0.000000e+000
      outer loop
         vertex 3.550000e+000 9.900000e+000 2.000000e+000
         vertex 2.000000e+000 9.900000e+000 0.000000e+000
         vertex 2.000000e+000 9.900000e+000 2.000000e+000
      endloop
   endfacet
   facet normal -1.000000e+000 -3.491481e-015 0.000000e+000
      outer loop
         vertex 3.550000e+000 1.100000e+001 0.000000e+000
         vertex 3.550000e+000 9.900000e+000 0.000000e+000
         vertex 3.550000e+000 1.100000e+001 2.000000e+000
      endloop
   endfacet
   facet normal -1.000000e+000 -3.491481e-015 0.000000e+000
      outer loop
         vertex 3.550000e+000 1.100000e+001 2.000000e+000
         vertex 3.550000e+000 9.900000e+000 0.000000e+000
         vertex 3.550000e+000 9.900000e+000 2.000000e+000
      endloop
   endfacet
   facet normal 0.000000e+000 0.000000e+000 -1.000000e+000
      outer loop
         vertex 6.450000e+000 9.900000e+000 0.000000e+000
         vertex 8.000000e+000 9.900000e+000 0.000000e+000
         vertex 5.950000e+000 8.100000e+000 0.000000e+000
      endloop
   endfacet
   facet normal 0.000000e+000 0.000000e+000 -1.000000e+000
      outer loop
         vertex 4.050000e+000 8.100000e+000 0.000000e+000
         vertex 2.000000e+000 9.900000e+000 0.000000e+000
         vertex 3.550000e+000 9.900000e+000 0.000000e+000
      endloop
   endfacet
   facet normal 0.000000e+000 0.000000e+000 -1.000000e+000
      outer loop
         vertex 3.550000e+000 1.100000e+001 0.000000e+000
         vertex 6.450000e+000 1.100000e+001 0.000000e+000
         vertex 3.550000e+000 9.900000e+000 0.000000e+000
      endloop
   endfacet
   facet normal 0.000000e+000 0.000000e+000 -1.000000e+000
      outer loop
         vertex 3.550000e+000 9.900000e+000 0.000000e+000
         vertex 6.450000e+000 1.100000e+001 0.000000e+000
         vertex 6.450000e+000 9.900000e+000 0.000000e+000
      endloop
   endfacet
   facet normal 0.000000e+000 0.000000e+000 -1.000000e+000
      outer loop
         vertex 3.550000e+000 9.900000e+000 0.000000e+000
         vertex 6.450000e+000 9.900000e+000 0.000000e+000
         vertex 4.050000e+000 8.100000e+000 0.000000e+000
      endloop
   endfacet
   facet normal 0.000000e+000 0.000000e+000 -1.000000e+000
      outer loop
         vertex 4.050000e+000 8.100000e+000 0.000000e+000
         vertex 6.450000e+000 9.900000e+000 0.000000e+000
         vertex 5.950000e+000 8.100000e+000 0.000000e+000
      endloop
   endfacet
   facet normal 1.971277e-016 1.000000e+000 0.000000e+000
      outer loop
         vertex 1.100000e+000 7.450000e+000 0.000000e+000
         vertex 0.000000e+000 7.450000e+000 0.000000e+000
         vertex 1.100000e+000 7.450000e+000 2.000000e+000
      endloop
   endfacet
   facet normal 1.971277e-016 1.000000e+000 0.000000e+000
      outer loop
         vertex 1.100000e+000 7.450000e+000 2.000000e+000
         vertex 0.000000e+000 7.450000e+000 0.000000e+000
         vertex 0.000000e+000 7.450000e+000 2.000000e+000
      endloop
   endfacet
   facet normal -1.000000e+000 0.000000e+000 0.000000e+000
      outer loop
         vertex 1.100000e+000 9.000000e+000 0.000000e+000
         vertex 1.100000e+000 7.450000e+000 0.000000e+000
         vertex 1.100000e+000 9.000000e+000 2.000000e+000
      endloop
   endfacet
   facet normal -1.000000e+000 0.000000e+000 0.000000e+000
      outer loop
         vertex 1.100000e+000 9.000000e+000 2.000000e+000
         vertex 1.100000e+000 7.450000e+000 0.000000e+000
         vertex 1.100000e+000 7.450000e+000 2.000000e+000
      endloop
   endfacet
   facet normal 7.514402e-001 6.598012e-001 0.000000e+000
      outer loop
         vertex 2.900000e+000 6.950000e+000 0.000000e+000
         vertex 1.100000e+000 9.000000e+000 0.000000e+000
         vertex 2.900000e+000 6.950000e+000 2.000000e+000
      endloop
   endfacet
   facet normal 7.514402e-001 6.598012e-001 0.000000e+000
      outer loop
         vertex 2.900000e+000 6.950000e+000 2.000000e+000
         vertex 1.100000e+000 9.000000e+000 0.000000e+000
         vertex 1.100000e+000 9.000000e+000 2.000000e+000
      endloop
   endfacet
   facet normal 1.000000e+000 0.000000e+000 0.000000e+000
      outer loop
         vertex 2.900000e+000 5.050000e+000 0.000000e+000
         vertex 2.900000e+000 6.950000e+000 0.000000e+000
         vertex 2.900000e+000 5.050000e+000 2.000000e+000
      endloop
   endfacet
   facet normal 1.000000e+000 0.000000e+000 0.000000e+000
      outer loop
         vertex 2.900000e+000 5.050000e+000 2.000000e+000
         vertex 2.900000e+000 6.950000e+000 0.000000e+000
         vertex 2.900000e+000 6.950000e+000 2.000000e+000
      endloop
   endfacet
   facet normal 7.514402e-001 -6.598012e-001 0.000000e+000
      outer loop
         vertex 1.100000e+000 3.000000e+000 0.000000e+000
         vertex 2.900000e+000 5.050000e+000 0.000000e+000
         vertex 1.100000e+000 3.000000e+000 2.000000e+000
      endloop
   endfacet
   facet normal 7.514402e-001 -6.598012e-001 0.000000e+000
      outer loop
         vertex 1.100000e+000 3.000000e+000 2.000000e+000
         vertex 2.900000e+000 5.050000e+000 0.000000e+000
         vertex 2.900000e+000 5.050000e+000 2.000000e+000
      endloop
   endfacet
   facet normal -1.000000e+000 0.000000e+000 0.000000e+000
      outer loop
         vertex 1.100000e+000 4.550000e+000 0.000000e+000
         vertex 1.100000e+000 3.000000e+000 0.000000e+000
         vertex 1.100000e+000 4.550000e+000 2.000000e+000
      endloop
   endfacet
   facet normal -1.000000e+000 0.000000e+000 0.000000e+000
      outer loop
         vertex 1.100000e+000 4.550000e+000 2.000000e+000
         vertex 1.100000e+000 3.000000e+000 0.000000e+000
         vertex 1.100000e+000 3.000000e+000 2.000000e+000
      endloop
   endfacet
   facet normal 0.000000e+000 -1.000000e+000 0.000000e+000
      outer loop
         vertex 0.000000e+000 4.550000e+000 0.000000e+000
         vertex 1.100000e+000 4.550000e+000 0.000000e+000
         vertex 0.000000e+000 4.550000e+000 2.000000e+000
      endloop
   endfacet
   facet normal 0.000000e+000 -1.000000e+000 0.000000e+000
      outer loop
         vertex 0.000000e+000 4.550000e+000 2.000000e+000
         vertex 1.100000e+000 4.550000e+000 0.000000e+000
         vertex 1.100000e+000 4.550000e+000 2.000000e+000
      endloop
   endfacet
   facet normal 0.000000e+000 0.000000e+000 -1.000000e+000
      outer loop
         vertex 1.100000e+000 7.450000e+000 0.000000e+000
         vertex 1.100000e+000 9.000000e+000 0.000000e+000
         vertex 2.900000e+000 6.950000e+000 0.000000e+000
      endloop
   endfacet
   facet normal 0.000000e+000 0.000000e+000 -1.000000e+000
      outer loop
         vertex 2.900000e+000 5.050000e+000 0.000000e+000
         vertex 1.100000e+000 3.000000e+000 0.000000e+000
         vertex 1.100000e+000 4.550000e+000 0.000000e+000
      endloop
   endfacet
   facet normal 0.000000e+000 0.000000e+000 -1.000000e+000
      outer loop
         vertex 0.000000e+000 4.550000e+000 0.000000e+000
         vertex 0.000000e+000 7.450000e+000 0.000000e+000
         vertex 1.100000e+000 4.550000e+000 0.000000e+000
      endloop
   endfacet
   facet normal 0.000000e+000 0.000000e+000 -1.000000e+000
      outer loop
         vertex 1.100000e+000 4.550000e+000 0.000000e+000
         vertex 0.000000e+000 7.450000e+000 0.000000e+000
         vertex 1.100000e+000 7.450000e+000 0.000000e+000
      endloop
   endfacet
   facet normal 0.000000e+000 0.000000e+000 -1.000000e+000
      outer loop
         vertex 1.100000e+000 4.550000e+000 0.000000e+000
         vertex 1.100000e+000 7.450000e+000 0.000000e+000
         vertex 2.900000e+000 5.050000e+000 0.000000e+000
      endloop
   endfacet
   facet normal 0.000000e+000 0.000000e+000 -1.000000e+000
      outer loop
         vertex 2.900000e+000 5.050000e+000 0.000000e+000
         vertex 1.100000e+000 7.450000e+000 0.000000e+000
         vertex 2.900000e+000 6.950000e+000 0.000000e+000
      endloop
   endfacet
   facet normal -1.000000e+000 -1.027732e-014 0.000000e+000
      outer loop
         vertex 3.550000e+000 2.100000e+000 0.000000e+000
         vertex 3.550000e+000 1.000000e+000 0.000000e+000
         vertex 3.550000e+000 2.100000e+000 2.000000e+000
      endloop
   endfacet
   facet normal -1.000000e+000 -1.027732e-014 0.000000e+000
      outer loop
         vertex 3.550000e+000 2.100000e+000 2.000000e+000
         vertex 3.550000e+000 1.000000e+000 0.000000e+000
         vertex 3.550000e+000 1.000000e+000 2.000000e+000
      endloop
   endfacet
   facet normal 1.047444e-014 -1.000000e+000 0.000000e+000
      outer loop
         vertex 2.000000e+000 2.100000e+000 0.000000e+000
         vertex 3.550000e+000 2.100000e+000 0.000000e+000
         vertex 2.000000e+000 2.100000e+000 2.000000e+000
      endloop
   endfacet
   facet normal 1.047444e-014 -1.000000e+000 0.000000e+000
      outer loop
         vertex 2.000000e+000 2.100000e+000 2.000000e+000
         vertex 3.550000e+000 2.100000e+000 0.000000e+000
         vertex 3.550000e+000 2.100000e+000 2.000000e+000
      endloop
   endfacet
   facet normal -6.598012e-001 7.514402e-001 0.000000e+000
      outer loop
         vertex 4.050000e+000 3.900000e+000 0.000000e+000
         vertex 2.000000e+000 2.100000e+000 0.000000e+000
         vertex 4.050000e+000 3.900000e+000 2.000000e+000
      endloop
   endfacet
   facet normal -6.598012e-001 7.514402e-001 0.000000e+000
      outer loop
         vertex 4.050000e+000 3.900000e+000 2.000000e+000
         vertex 2.000000e+000 2.100000e+000 0.000000e+000
         vertex 2.000000e+000 2.100000e+000 2.000000e+000
      endloop
   endfacet
   facet normal -1.047444e-014 1.000000e+000 0.000000e+000
      outer loop
         vertex 5.950000e+000 3.900000e+000 0.000000e+000
         vertex 4.050000e+000 3.900000e+000 0.000000e+000
         vertex 5.950000e+000 3.900000e+000 2.000000e+000
      endloop
   endfacet
   facet normal -1.047444e-014 1.000000e+000 0.000000e+000
      outer loop
         vertex 5.950000e+000 3.900000e+000 2.000000e+000
         vertex 4.050000e+000 3.900000e+000 0.000000e+000
         vertex 4.050000e+000 3.900000e+000 2.000000e+000
      endloop
   endfacet
   facet normal 6.598012e-001 7.514402e-001 0.000000e+000
      outer loop
         vertex 8.000000e+000 2.100000e+000 0.000000e+000
         vertex 5.950000e+000 3.900000e+000 0.000000e+000
         vertex 8.000000e+000 2.100000e+000 2.000000e+000
      endloop
   endfacet
   facet normal 6.598012e-001 7.514402e-001 0.000000e+000
      outer loop
         vertex 8.000000e+000 2.100000e+000 2.000000e+000
         vertex 5.950000e+000 3.900000e+000 0.000000e+000
         vertex 5.950000e+000 3.900000e+000 2.000000e+000
      endloop
   endfacet
   facet normal 1.047444e-014 -1.000000e+000 0.000000e+000
      outer loop
         vertex 6.450000e+000 2.100000e+000 0.000000e+000
         vertex 8.000000e+000 2.100000e+000 0.000000e+000
         vertex 6.450000e+000 2.100000e+000 2.000000e+000
      endloop
   endfacet
   facet normal 1.047444e-014 -1.000000e+000 0.000000e+000
      outer loop
         vertex 6.450000e+000 2.100000e+000 2.000000e+000
         vertex 8.000000e+000 2.100000e+000 0.000000e+000
         vertex 8.000000e+000 2.100000e+000 2.000000e+000
      endloop
   endfacet
   facet normal 1.000000e+000 1.047444e-014 0.000000e+000
      outer loop
         vertex 6.450000e+000 1.000000e+000 0.000000e+000
         vertex 6.450000e+000 2.100000e+000 0.000000e+000
         vertex 6.450000e+000 1.000000e+000 2.000000e+000
      endloop
   endfacet
   facet normal 1.000000e+000 1.047444e-014 0.000000e+000
      outer loop
         vertex 6.450000e+000 1.000000e+000 2.000000e+000
         vertex 6.450000e+000 2.100000e+000 0.000000e+000
         vertex 6.450000e+000 2.100000e+000 2.000000e+000
      endloop
   endfacet
   facet normal 0.000000e+000 0.000000e+000 -1.000000e+000
      outer loop
         vertex 3.550000e+000 2.100000e+000 0.000000e+000
         vertex 2.000000e+000 2.100000e+000 0.000000e+000
         vertex 4.050000e+000 3.900000e+000 0.000000e+000
      endloop
   endfacet
   facet normal 0.000000e+000 0.000000e+000 -1.000000e+000
      outer loop
         vertex 5.950000e+000 3.900000e+000 0.000000e+000
         vertex 8.000000e+000 2.100000e+000 0.000000e+000
         vertex 6.450000e+000 2.100000e+000 0.000000e+000
      endloop
   endfacet
   facet normal 0.000000e+000 0.000000e+000 -1.000000e+000
      outer loop
         vertex 6.450000e+000 1.000000e+000 0.000000e+000
         vertex 3.550000e+000 1.000000e+000 0.000000e+000
         vertex 6.450000e+000 2.100000e+000 0.000000e+000
      endloop
   endfacet
   facet normal 0.000000e+000 0.000000e+000 -1.000000e+000
      outer loop
         vertex 6.450000e+000 2.100000e+000 0.000000e+000
         vertex 3.550000e+000 1.000000e+000 0.000000e+000
         vertex 3.550000e+000 2.100000e+000 0.000000e+000
      endloop
   endfacet
   facet normal 0.000000e+000 0.000000e+000 -1.000000e+000
      outer loop
         vertex 6.450000e+000 2.100000e+000 0.000000e+000
         vertex 3.550000e+000 2.100000e+000 0.000000e+000
         vertex 5.950000e+000 3.900000e+000 0.000000e+000
      endloop
   endfacet
   facet normal 0.000000e+000 0.000000e+000 -1.000000e+000
      outer loop
         vertex 5.950000e+000 3.900000e+000 0.000000e+000
         vertex 3.550000e+000 2.100000e+000 0.000000e+000
         vertex 4.050000e+000 3.900000e+000 0.000000e+000
      endloop
   endfacet
   facet normal 1.734723e-016 0.000000e+000 1.000000e+000
      outer loop
         vertex 0.000000e+000 8.000000e+000 4.000000e+000
         vertex 1.000000e+001 8.000000e+000 4.000000e+000
         vertex 0.000000e+000 1.100000e+001 4.000000e+000
      endloop
   endfacet
   facet normal 1.734723e-016 0.000000e+000 1.000000e+000
      outer loop
         vertex 0.000000e+000 1.100000e+001 4.000000e+000
         vertex 1.000000e+001 8.000000e+000 4.000000e+000
         vertex 1.000000e+001 1.100000e+001 4.000000e+000
      endloop
   endfacet
   facet normal 0.000000e+000 1.000000e+000 0.000000e+000
      outer loop
         vertex 4.739528e+000 8.000000e+000 1.047721e+001
         vertex 4.486969e+000 8.000000e+000 1.040954e+001
         vertex 0.000000e+000 8.000000e+000 1.400000e+001
      endloop
   endfacet
   facet normal 0.000000e+000 1.000000e+000 0.000000e+000
      outer loop
         vertex 0.000000e+000 8.000000e+000 1.400000e+001
         vertex 4.486969e+000 8.000000e+000 1.040954e+001
         vertex 4.250000e+000 8.000000e+000 1.029904e+001
      endloop
   endfacet
   facet normal 0.000000e+000 1.000000e+000 0.000000e+000
      outer loop
         vertex 1.000000e+001 8.000000e+000 1.400000e+001
         vertex 5.260472e+000 8.000000e+000 1.047721e+001
         vertex 0.000000e+000 8.000000e+000 1.400000e+001
      endloop
   endfacet
   facet normal 0.000000e+000 1.000000e+000 0.000000e+000
      outer loop
         vertex 0.000000e+000 8.000000e+000 1.400000e+001
         vertex 5.260472e+000 8.000000e+000 1.047721e+001
         vertex 5.000000e+000 8.000000e+000 1.050000e+001
      endloop
   endfacet
   facet normal 0.000000e+000 1.000000e+000 0.000000e+000
      outer loop
         vertex 0.000000e+000 8.000000e+000 1.400000e+001
         vertex 5.000000e+000 8.000000e+000 1.050000e+001
         vertex 4.739528e+000 8.000000e+000 1.047721e+001
      endloop
   endfacet
   facet normal 0.000000e+000 1.000000e+000 0.000000e+000
      outer loop
         vertex 5.964181e+000 8.000000e+000 1.014907e+001
         vertex 5.750000e+000 8.000000e+000 1.029904e+001
         vertex 1.000000e+001 8.000000e+000 1.400000e+001
      endloop
   endfacet
   facet normal 0.000000e+000 1.000000e+000 0.000000e+000
      outer loop
         vertex 1.000000e+001 8.000000e+000 1.400000e+001
         vertex 5.750000e+000 8.000000e+000 1.029904e+001
         vertex 5.513030e+000 8.000000e+000 1.040954e+001
      endloop
   endfacet
   facet normal 0.000000e+000 1.000000e+000 0.000000e+000
      outer loop
         vertex 1.000000e+001 8.000000e+000 1.400000e+001
         vertex 5.513030e+000 8.000000e+000 1.040954e+001
         vertex 5.260472e+000 8.000000e+000 1.047721e+001
      endloop
   endfacet
   facet normal 0.000000e+000 1.000000e+000 0.000000e+000
      outer loop
         vertex 4.486969e+000 8.000000e+000 7.590462e+000
         vertex 0.000000e+000 8.000000e+000 4.000000e+000
         vertex 4.250000e+000 8.000000e+000 7.700962e+000
      endloop
   endfacet
   facet normal 0.000000e+000 1.000000e+000 0.000000e+000
      outer loop
         vertex 4.250000e+000 8.000000e+000 7.700962e+000
         vertex 0.000000e+000 8.000000e+000 4.000000e+000
         vertex 4.035819e+000 8.000000e+000 7.850934e+000
      endloop
   endfacet
   facet normal 0.000000e+000 1.000000e+000 0.000000e+000
      outer loop
         vertex 4.250000e+000 8.000000e+000 1.029904e+001
         vertex 4.035819e+000 8.000000e+000 1.014907e+001
         vertex 0.000000e+000 8.000000e+000 1.400000e+001
      endloop
   endfacet
   facet normal 0.000000e+000 1.000000e+000 0.000000e+000
      outer loop
         vertex 0.000000e+000 8.000000e+000 1.400000e+001
         vertex 4.035819e+000 8.000000e+000 1.014907e+001
         vertex 3.850933e+000 8.000000e+000 9.964182e+000
      endloop
   endfacet
   facet normal 0.000000e+000 1.000000e+000 0.000000e+000
      outer loop
         vertex 0.000000e+000 8.000000e+000 1.400000e+001
         vertex 3.850933e+000 8.000000e+000 9.964182e+000
         vertex 3.700962e+000 8.000000e+000 9.750000e+000
      endloop
   endfacet
   facet normal 0.000000e+000 1.000000e+000 0.000000e+000
      outer loop
         vertex 3.522788e+000 8.000000e+000 8.739529e+000
         vertex 3.590461e+000 8.000000e+000 8.486970e+000
         vertex 0.000000e+000 8.000000e+000 4.000000e+000
      endloop
   endfacet
   facet normal 0.000000e+000 1.000000e+000 0.000000e+000
      outer loop
         vertex 3.700962e+000 8.000000e+000 9.750000e+000
         vertex 3.590461e+000 8.000000e+000 9.513031e+000
         vertex 0.000000e+000 8.000000e+000 1.400000e+001
      endloop
   endfacet
   facet normal 0.000000e+000 1.000000e+000 0.000000e+000
      outer loop
         vertex 0.000000e+000 8.000000e+000 1.400000e+001
         vertex 3.590461e+000 8.000000e+000 9.513031e+000
         vertex 3.522788e+000 8.000000e+000 9.260472e+000
      endloop
   endfacet
   facet normal 0.000000e+000 1.000000e+000 0.000000e+000
      outer loop
         vertex 0.000000e+000 8.000000e+000 1.400000e+001
         vertex 3.522788e+000 8.000000e+000 9.260472e+000
         vertex 0.000000e+000 8.000000e+000 4.000000e+000
      endloop
   endfacet
   facet normal 0.000000e+000 1.000000e+000 0.000000e+000
      outer loop
         vertex 0.000000e+000 8.000000e+000 4.000000e+000
         vertex 3.522788e+000 8.000000e+000 9.260472e+000
         vertex 3.500000e+000 8.000000e+000 9.000001e+000
      endloop
   endfacet
   facet normal 0.000000e+000 1.000000e+000 0.000000e+000
      outer loop
         vertex 0.000000e+000 8.000000e+000 4.000000e+000
         vertex 3.500000e+000 8.000000e+000 9.000001e+000
         vertex 3.522788e+000 8.000000e+000 8.739529e+000
      endloop
   endfacet
   facet normal 0.000000e+000 1.000000e+000 0.000000e+000
      outer loop
         vertex 3.590461e+000 8.000000e+000 8.486970e+000
         vertex 3.700962e+000 8.000000e+000 8.250000e+000
         vertex 0.000000e+000 8.000000e+000 4.000000e+000
      endloop
   endfacet
   facet normal 0.000000e+000 1.000000e+000 0.000000e+000
      outer loop
         vertex 0.000000e+000 8.000000e+000 4.000000e+000
         vertex 3.700962e+000 8.000000e+000 8.250000e+000
         vertex 3.850933e+000 8.000000e+000 8.035819e+000
      endloop
   endfacet
   facet normal 0.000000e+000 1.000000e+000 0.000000e+000
      outer loop
         vertex 0.000000e+000 8.000000e+000 4.000000e+000
         vertex 3.850933e+000 8.000000e+000 8.035819e+000
         vertex 4.035819e+000 8.000000e+000 7.850934e+000
      endloop
   endfacet
   facet normal 0.000000e+000 1.000000e+000 0.000000e+000
      outer loop
         vertex 4.486969e+000 8.000000e+000 7.590462e+000
         vertex 4.739528e+000 8.000000e+000 7.522789e+000
         vertex 0.000000e+000 8.000000e+000 4.000000e+000
      endloop
   endfacet
   facet normal 0.000000e+000 1.000000e+000 0.000000e+000
      outer loop
         vertex 0.000000e+000 8.000000e+000 4.000000e+000
         vertex 4.739528e+000 8.000000e+000 7.522789e+000
         vertex 5.000000e+000 8.000000e+000 7.500000e+000
      endloop
   endfacet
   facet normal 0.000000e+000 1.000000e+000 0.000000e+000
      outer loop
         vertex 0.000000e+000 8.000000e+000 4.000000e+000
         vertex 5.000000e+000 8.000000e+000 7.500000e+000
         vertex 1.000000e+001 8.000000e+000 4.000000e+000
      endloop
   endfacet
   facet normal 0.000000e+000 1.000000e+000 0.000000e+000
      outer loop
         vertex 1.000000e+001 8.000000e+000 4.000000e+000
         vertex 5.000000e+000 8.000000e+000 7.500000e+000
         vertex 5.260472e+000 8.000000e+000 7.522789e+000
      endloop
   endfacet
   facet normal 0.000000e+000 1.000000e+000 0.000000e+000
      outer loop
         vertex 1.000000e+001 8.000000e+000 4.000000e+000
         vertex 5.260472e+000 8.000000e+000 7.522789e+000
         vertex 5.513030e+000 8.000000e+000 7.590462e+000
      endloop
   endfacet
   facet normal 0.000000e+000 1.000000e+000 0.000000e+000
      outer loop
         vertex 5.513030e+000 8.000000e+000 7.590462e+000
         vertex 5.750000e+000 8.000000e+000 7.700962e+000
         vertex 1.000000e+001 8.000000e+000 4.000000e+000
      endloop
   endfacet
   facet normal 0.000000e+000 1.000000e+000 0.000000e+000
      outer loop
         vertex 1.000000e+001 8.000000e+000 4.000000e+000
         vertex 5.750000e+000 8.000000e+000 7.700962e+000
         vertex 5.964181e+000 8.000000e+000 7.850934e+000
      endloop
   endfacet
   facet normal 0.000000e+000 1.000000e+000 0.000000e+000
      outer loop
         vertex 1.000000e+001 8.000000e+000 4.000000e+000
         vertex 5.964181e+000 8.000000e+000 7.850934e+000
         vertex 6.149066e+000 8.000000e+000 8.035819e+000
      endloop
   endfacet
   facet normal 0.000000e+000 1.000000e+000 0.000000e+000
      outer loop
         vertex 1.000000e+001 8.000000e+000 1.400000e+001
         vertex 1.000000e+001 8.000000e+000 4.000000e+000
         vertex 6.477211e+000 8.000000e+000 8.739529e+000
      endloop
   endfacet
   facet normal 0.000000e+000 1.000000e+000 0.000000e+000
      outer loop
         vertex 6.149066e+000 8.000000e+000 8.035819e+000
         vertex 6.299038e+000 8.000000e+000 8.250000e+000
         vertex 1.000000e+001 8.000000e+000 4.000000e+000
      endloop
   endfacet
   facet normal 0.000000e+000 1.000000e+000 0.000000e+000
      outer loop
         vertex 1.000000e+001 8.000000e+000 4.000000e+000
         vertex 6.299038e+000 8.000000e+000 8.250000e+000
         vertex 6.409539e+000 8.000000e+000 8.486970e+000
      endloop
   endfacet
   facet normal 0.000000e+000 1.000000e+000 0.000000e+000
      outer loop
         vertex 1.000000e+001 8.000000e+000 4.000000e+000
         vertex 6.409539e+000 8.000000e+000 8.486970e+000
         vertex 6.477211e+000 8.000000e+000 8.739529e+000
      endloop
   endfacet
   facet normal 0.000000e+000 1.000000e+000 0.000000e+000
      outer loop
         vertex 6.477211e+000 8.000000e+000 8.739529e+000
         vertex 6.500000e+000 8.000000e+000 9.000001e+000
         vertex 1.000000e+001 8.000000e+000 1.400000e+001
      endloop
   endfacet
   facet normal 0.000000e+000 1.000000e+000 0.000000e+000
      outer loop
         vertex 1.000000e+001 8.000000e+000 1.400000e+001
         vertex 6.500000e+000 8.000000e+000 9.000001e+000
         vertex 6.477211e+000 8.000000e+000 9.260472e+000
      endloop
   endfacet
   facet normal 0.000000e+000 1.000000e+000 0.000000e+000
      outer loop
         vertex 1.000000e+001 8.000000e+000 1.400000e+001
         vertex 6.477211e+000 8.000000e+000 9.260472e+000
         vertex 6.409539e+000 8.000000e+000 9.513031e+000
      endloop
   endfacet
   facet normal 0.000000e+000 1.000000e+000 0.000000e+000
      outer loop
         vertex 6.409539e+000 8.000000e+000 9.513031e+000
         vertex 6.299038e+000 8.000000e+000 9.750000e+000
         vertex 1.000000e+001 8.000000e+000 1.400000e+001
      endloop
   endfacet
   facet normal 0.000000e+000 1.000000e+000 0.000000e+000
      outer loop
         vertex 1.000000e+001 8.000000e+000 1.400000e+001
         vertex 6.299038e+000 8.000000e+000 9.750000e+000
         vertex 6.149066e+000 8.000000e+000 9.964182e+000
      endloop
   endfacet
   facet normal 0.000000e+000 1.000000e+000 0.000000e+000
      outer loop
         vertex 1.000000e+001 8.000000e+000 1.400000e+001
         vertex 6.149066e+000 8.000000e+000 9.964182e+000
         vertex 5.964181e+000 8.000000e+000 1.014907e+001
      endloop
   endfacet
   facet normal -1.000000e+000 0.000000e+000 1.264902e-016
      outer loop
         vertex 3.550000e+000 0.000000e+000 9.384057e+000
         vertex 3.550000e+000 0.000000e+000 1.400000e+001
         vertex 3.550000e+000 1.000000e+000 9.384057e+000
      endloop
   endfacet
   facet normal -1.000000e+000 0.000000e+000 1.264902e-016
      outer loop
         vertex 3.550000e+000 1.000000e+000 9.384057e+000
         vertex 3.550000e+000 0.000000e+000 1.400000e+001
         vertex 3.550000e+000 1.000000e+000 1.400000e+001
      endloop
   endfacet
   facet normal 0.000000e+000 0.000000e+000 -1.000000e+000
      outer loop
         vertex 6.450000e+000 0.000000e+000 2.000000e+000
         vertex 3.550000e+000 0.000000e+000 2.000000e+000
         vertex 6.450000e+000 1.000000e+000 2.000000e+000
      endloop
   endfacet
   facet normal 0.000000e+000 0.000000e+000 -1.000000e+000
      outer loop
         vertex 6.450000e+000 1.000000e+000 2.000000e+000
         vertex 3.550000e+000 0.000000e+000 2.000000e+000
         vertex 3.550000e+000 1.000000e+000 2.000000e+000
      endloop
   endfacet
   facet normal 1.000000e+000 0.000000e+000 1.264902e-016
      outer loop
         vertex 6.450000e+000 0.000000e+000 8.615943e+000
         vertex 6.450000e+000 0.000000e+000 2.000000e+000
         vertex 6.450000e+000 1.000000e+000 8.615943e+000
      endloop
   endfacet
   facet normal 1.000000e+000 0.000000e+000 1.264902e-016
      outer loop
         vertex 6.450000e+000 1.000000e+000 8.615943e+000
         vertex 6.450000e+000 0.000000e+000 2.000000e+000
         vertex 6.450000e+000 1.000000e+000 2.000000e+000
      endloop
   endfacet
   facet normal 0.000000e+000 -1.000000e+000 0.000000e+000
      outer loop
         vertex 3.850933e+000 0.000000e+000 9.964182e+000
         vertex 4.035819e+000 0.000000e+000 1.014907e+001
         vertex 3.550000e+000 0.000000e+000 1.400000e+001
      endloop
   endfacet
   facet normal 0.000000e+000 -1.000000e+000 0.000000e+000
      outer loop
         vertex 3.550000e+000 0.000000e+000 1.400000e+001
         vertex 4.035819e+000 0.000000e+000 1.014907e+001
         vertex 4.250000e+000 0.000000e+000 1.029904e+001
      endloop
   endfacet
   facet normal 0.000000e+000 -1.000000e+000 0.000000e+000
      outer loop
         vertex 3.550000e+000 0.000000e+000 1.400000e+001
         vertex 4.250000e+000 0.000000e+000 1.029904e+001
         vertex 4.486969e+000 0.000000e+000 1.040954e+001
      endloop
   endfacet
   facet normal 0.000000e+000 -1.000000e+000 0.000000e+000
      outer loop
         vertex 3.550000e+000 0.000000e+000 9.384057e+000
         vertex 3.590461e+000 0.000000e+000 9.513031e+000
         vertex 3.550000e+000 0.000000e+000 1.400000e+001
      endloop
   endfacet
   facet normal 0.000000e+000 -1.000000e+000 0.000000e+000
      outer loop
         vertex 3.550000e+000 0.000000e+000 1.400000e+001
         vertex 3.590461e+000 0.000000e+000 9.513031e+000
         vertex 3.700962e+000 0.000000e+000 9.750000e+000
      endloop
   endfacet
   facet normal 0.000000e+000 -1.000000e+000 0.000000e+000
      outer loop
         vertex 3.550000e+000 0.000000e+000 1.400000e+001
         vertex 3.700962e+000 0.000000e+000 9.750000e+000
         vertex 3.850933e+000 0.000000e+000 9.964182e+000
      endloop
   endfacet
   facet normal 0.000000e+000 -1.000000e+000 0.000000e+000
      outer loop
         vertex 4.486969e+000 0.000000e+000 1.040954e+001
         vertex 4.739528e+000 0.000000e+000 1.047721e+001
         vertex 3.550000e+000 0.000000e+000 1.400000e+001
      endloop
   endfacet
   facet normal 0.000000e+000 -1.000000e+000 0.000000e+000
      outer loop
         vertex 3.550000e+000 0.000000e+000 1.400000e+001
         vertex 4.739528e+000 0.000000e+000 1.047721e+001
         vertex 5.000000e+000 0.000000e+000 1.050000e+001
      endloop
   endfacet
   facet normal 0.000000e+000 -1.000000e+000 0.000000e+000
      outer loop
         vertex 3.550000e+000 0.000000e+000 1.400000e+001
         vertex 5.000000e+000 0.000000e+000 1.050000e+001
         vertex 6.450000e+000 0.000000e+000 1.400000e+001
      endloop
   endfacet
   facet normal 0.000000e+000 -1.000000e+000 0.000000e+000
      outer loop
         vertex 6.450000e+000 0.000000e+000 1.400000e+001
         vertex 5.000000e+000 0.000000e+000 1.050000e+001
         vertex 5.260472e+000 0.000000e+000 1.047721e+001
      endloop
   endfacet
   facet normal 0.000000e+000 -1.000000e+000 0.000000e+000
      outer loop
         vertex 6.450000e+000 0.000000e+000 1.400000e+001
         vertex 5.260472e+000 0.000000e+000 1.047721e+001
         vertex 5.513030e+000 0.000000e+000 1.040954e+001
      endloop
   endfacet
   facet normal 0.000000e+000 -1.000000e+000 0.000000e+000
      outer loop
         vertex 5.513030e+000 0.000000e+000 1.040954e+001
         vertex 5.750000e+000 0.000000e+000 1.029904e+001
         vertex 6.450000e+000 0.000000e+000 1.400000e+001
      endloop
   endfacet
   facet normal 0.000000e+000 -1.000000e+000 0.000000e+000
      outer loop
         vertex 6.450000e+000 0.000000e+000 1.400000e+001
         vertex 5.750000e+000 0.000000e+000 1.029904e+001
         vertex 5.964181e+000 0.000000e+000 1.014907e+001
      endloop
   endfacet
   facet normal 0.000000e+000 -1.000000e+000 0.000000e+000
      outer loop
         vertex 6.450000e+000 0.000000e+000 1.400000e+001
         vertex 5.964181e+000 0.000000e+000 1.014907e+001
         vertex 6.149066e+000 0.000000e+000 9.964182e+000
      endloop
   endfacet
   facet normal 0.000000e+000 -1.000000e+000 0.000000e+000
      outer loop
         vertex 6.149066e+000 0.000000e+000 9.964182e+000
         vertex 6.299038e+000 0.000000e+000 9.750000e+000
         vertex 6.450000e+000 0.000000e+000 1.400000e+001
      endloop
   endfacet
   facet normal 0.000000e+000 -1.000000e+000 0.000000e+000
      outer loop
         vertex 6.450000e+000 0.000000e+000 1.400000e+001
         vertex 6.299038e+000 0.000000e+000 9.750000e+000
         vertex 6.409539e+000 0.000000e+000 9.513031e+000
      endloop
   endfacet
   facet normal 0.000000e+000 -1.000000e+000 0.000000e+000
      outer loop
         vertex 6.450000e+000 0.000000e+000 1.400000e+001
         vertex 6.409539e+000 0.000000e+000 9.513031e+000
         vertex 6.450000e+000 0.000000e+000 9.384057e+000
      endloop
   endfacet
   facet normal -9.585406e-001 0.000000e+000 -2.849561e-001
      outer loop
         vertex 6.450000e+000 1.000000e+000 9.384057e+000
         vertex 6.450000e+000 0.000000e+000 9.384057e+000
         vertex 6.409539e+000 0.000000e+000 9.513031e+000
      endloop
   endfacet
   facet normal 9.585406e-001 0.000000e+000 2.849561e-001
      outer loop
         vertex 3.550000e+000 1.000000e+000 8.615943e+000
         vertex 3.550000e+000 0.000000e+000 8.615943e+000
         vertex 3.590461e+000 0.000000e+000 8.486970e+000
      endloop
   endfacet
   facet normal 9.661743e-001 0.000000e+000 -2.578900e-001
      outer loop
         vertex 3.590461e+000 8.000000e+000 9.513031e+000
         vertex 3.550000e+000 1.000000e+000 9.384057e+000
         vertex 3.522788e+000 8.000000e+000 9.260472e+000
      endloop
   endfacet
   facet normal 9.795356e-001 0.000000e+000 -2.012707e-001
      outer loop
         vertex 3.522788e+000 8.000000e+000 9.260472e+000
         vertex 3.550000e+000 1.000000e+000 9.384057e+000
         vertex 3.522788e+000 1.000000e+000 9.260472e+000
      endloop
   endfacet
   facet normal 9.932307e-001 0.000000e+000 -1.161583e-001
      outer loop
         vertex 3.522788e+000 8.000000e+000 9.260472e+000
         vertex 3.522788e+000 1.000000e+000 9.260472e+000
         vertex 3.500000e+000 8.000000e+000 9.000001e+000
      endloop
   endfacet
   facet normal 9.983119e-001 0.000000e+000 -5.807913e-002
      outer loop
         vertex 3.500000e+000 8.000000e+000 9.000001e+000
         vertex 3.522788e+000 1.000000e+000 9.260472e+000
         vertex 3.500000e+000 1.000000e+000 9.000001e+000
      endloop
   endfacet
   facet normal 9.983119e-001 0.000000e+000 5.807913e-002
      outer loop
         vertex 3.500000e+000 8.000000e+000 9.000001e+000
         vertex 3.500000e+000 1.000000e+000 9.000001e+000
         vertex 3.522788e+000 8.000000e+000 8.739529e+000
      endloop
   endfacet
   facet normal 9.932307e-001 0.000000e+000 1.161583e-001
      outer loop
         vertex 3.522788e+000 8.000000e+000 8.739529e+000
         vertex 3.500000e+000 1.000000e+000 9.000001e+000
         vertex 3.522788e+000 1.000000e+000 8.739529e+000
      endloop
   endfacet
   facet normal 9.730600e-001 0.000000e+000 2.305519e-001
      outer loop
         vertex 3.522788e+000 8.000000e+000 8.739529e+000
         vertex 3.522788e+000 1.000000e+000 8.739529e+000
         vertex 3.590461e+000 8.000000e+000 8.486970e+000
      endloop
   endfacet
   facet normal -9.661743e-001 0.000000e+000 2.578900e-001
      outer loop
         vertex 6.409539e+000 8.000000e+000 8.486970e+000
         vertex 6.450000e+000 1.000000e+000 8.615943e+000
         vertex 6.477211e+000 8.000000e+000 8.739529e+000
      endloop
   endfacet
   facet normal -9.795356e-001 0.000000e+000 2.012707e-001
      outer loop
         vertex 6.477211e+000 8.000000e+000 8.739529e+000
         vertex 6.450000e+000 1.000000e+000 8.615943e+000
         vertex 6.477211e+000 1.000000e+000 8.739529e+000
      endloop
   endfacet
   facet normal -9.932307e-001 0.000000e+000 1.161583e-001
      outer loop
         vertex 6.477211e+000 8.000000e+000 8.739529e+000
         vertex 6.477211e+000 1.000000e+000 8.739529e+000
         vertex 6.500000e+000 8.000000e+000 9.000001e+000
      endloop
   endfacet
   facet normal -9.983119e-001 0.000000e+000 5.807913e-002
      outer loop
         vertex 6.500000e+000 8.000000e+000 9.000001e+000
         vertex 6.477211e+000 1.000000e+000 8.739529e+000
         vertex 6.500000e+000 1.000000e+000 9.000001e+000
      endloop
   endfacet
   facet normal -9.983119e-001 0.000000e+000 -5.807913e-002
      outer loop
         vertex 6.500000e+000 8.000000e+000 9.000001e+000
         vertex 6.500000e+000 1.000000e+000 9.000001e+000
         vertex 6.477211e+000 8.000000e+000 9.260472e+000
      endloop
   endfacet
   facet normal -9.932307e-001 0.000000e+000 -1.161583e-001
      outer loop
         vertex 6.477211e+000 8.000000e+000 9.260472e+000
         vertex 6.500000e+000 1.000000e+000 9.000001e+000
         vertex 6.477211e+000 1.000000e+000 9.260472e+000
      endloop
   endfacet
   facet normal -9.730600e-001 0.000000e+000 -2.305519e-001
      outer loop
         vertex 6.477211e+000 8.000000e+000 9.260472e+000
         vertex 6.477211e+000 1.000000e+000 9.260472e+000
         vertex 6.409539e+000 8.000000e+000 9.513031e+000
      endloop
   endfacet
   facet normal -9.585406e-001 0.000000e+000 2.849561e-001
      outer loop
         vertex 6.450000e+000 0.000000e+000 8.615943e+000
         vertex 6.450000e+000 1.000000e+000 8.615943e+000
         vertex 6.409539e+000 0.000000e+000 8.486970e+000
      endloop
   endfacet
   facet normal -9.495411e-001 0.000000e+000 3.136426e-001
      outer loop
         vertex 6.409539e+000 0.000000e+000 8.486970e+000
         vertex 6.450000e+000 1.000000e+000 8.615943e+000
         vertex 6.409539e+000 8.000000e+000 8.486970e+000
      endloop
   endfacet
   facet normal -9.182422e-001 0.000000e+000 3.960194e-001
      outer loop
         vertex 6.409539e+000 0.000000e+000 8.486970e+000
         vertex 6.409539e+000 8.000000e+000 8.486970e+000
         vertex 6.299038e+000 0.000000e+000 8.250000e+000
      endloop
   endfacet
   facet normal -8.936031e-001 0.000000e+000 4.488580e-001
      outer loop
         vertex 6.299038e+000 0.000000e+000 8.250000e+000
         vertex 6.409539e+000 8.000000e+000 8.486970e+000
         vertex 6.299038e+000 8.000000e+000 8.250000e+000
      endloop
   endfacet
   facet normal -8.355240e-001 0.000000e+000 5.494540e-001
      outer loop
         vertex 6.299038e+000 0.000000e+000 8.250000e+000
         vertex 6.299038e+000 8.000000e+000 8.250000e+000
         vertex 6.149066e+000 0.000000e+000 8.035819e+000
      endloop
   endfacet
   facet normal -8.020838e-001 0.000000e+000 5.972114e-001
      outer loop
         vertex 6.149066e+000 0.000000e+000 8.035819e+000
         vertex 6.299038e+000 8.000000e+000 8.250000e+000
         vertex 6.149066e+000 8.000000e+000 8.035819e+000
      endloop
   endfacet
   facet normal -7.274188e-001 0.000000e+000 6.861938e-001
      outer loop
         vertex 6.149066e+000 0.000000e+000 8.035819e+000
         vertex 6.149066e+000 8.000000e+000 8.035819e+000
         vertex 5.964181e+000 0.000000e+000 7.850934e+000
      endloop
   endfacet
   facet normal -6.861938e-001 0.000000e+000 7.274188e-001
      outer loop
         vertex 5.964181e+000 0.000000e+000 7.850934e+000
         vertex 6.149066e+000 8.000000e+000 8.035819e+000
         vertex 5.964181e+000 8.000000e+000 7.850934e+000
      endloop
   endfacet
   facet normal -5.972114e-001 0.000000e+000 8.020838e-001
      outer loop
         vertex 5.964181e+000 0.000000e+000 7.850934e+000
         vertex 5.964181e+000 8.000000e+000 7.850934e+000
         vertex 5.750000e+000 0.000000e+000 7.700962e+000
      endloop
   endfacet
   facet normal -5.494540e-001 0.000000e+000 8.355240e-001
      outer loop
         vertex 5.750000e+000 0.000000e+000 7.700962e+000
         vertex 5.964181e+000 8.000000e+000 7.850934e+000
         vertex 5.750000e+000 8.000000e+000 7.700962e+000
      endloop
   endfacet
   facet normal -4.488580e-001 0.000000e+000 8.936031e-001
      outer loop
         vertex 5.750000e+000 0.000000e+000 7.700962e+000
         vertex 5.750000e+000 8.000000e+000 7.700962e+000
         vertex 5.513030e+000 0.000000e+000 7.590462e+000
      endloop
   endfacet
   facet normal -3.960194e-001 0.000000e+000 9.182422e-001
      outer loop
         vertex 5.513030e+000 0.000000e+000 7.590462e+000
         vertex 5.750000e+000 8.000000e+000 7.700962e+000
         vertex 5.513030e+000 8.000000e+000 7.590462e+000
      endloop
   endfacet
   facet normal -2.868663e-001 0.000000e+000 9.579706e-001
      outer loop
         vertex 5.513030e+000 0.000000e+000 7.590462e+000
         vertex 5.513030e+000 8.000000e+000 7.590462e+000
         vertex 5.260472e+000 0.000000e+000 7.522789e+000
      endloop
   endfacet
   facet normal -2.305519e-001 0.000000e+000 9.730600e-001
      outer loop
         vertex 5.260472e+000 0.000000e+000 7.522789e+000
         vertex 5.513030e+000 8.000000e+000 7.590462e+000
         vertex 5.260472e+000 8.000000e+000 7.522789e+000
      endloop
   endfacet
   facet normal -1.161583e-001 0.000000e+000 9.932307e-001
      outer loop
         vertex 5.260472e+000 0.000000e+000 7.522789e+000
         vertex 5.260472e+000 8.000000e+000 7.522789e+000
         vertex 5.000000e+000 0.000000e+000 7.500000e+000
      endloop
   endfacet
   facet normal -5.807913e-002 0.000000e+000 9.983119e-001
      outer loop
         vertex 5.000000e+000 0.000000e+000 7.500000e+000
         vertex 5.260472e+000 8.000000e+000 7.522789e+000
         vertex 5.000000e+000 8.000000e+000 7.500000e+000
      endloop
   endfacet
   facet normal 5.807913e-002 0.000000e+000 9.983119e-001
      outer loop
         vertex 5.000000e+000 0.000000e+000 7.500000e+000
         vertex 5.000000e+000 8.000000e+000 7.500000e+000
         vertex 4.739528e+000 0.000000e+000 7.522789e+000
      endloop
   endfacet
   facet normal 1.161583e-001 0.000000e+000 9.932307e-001
      outer loop
         vertex 4.739528e+000 0.000000e+000 7.522789e+000
         vertex 5.000000e+000 8.000000e+000 7.500000e+000
         vertex 4.739528e+000 8.000000e+000 7.522789e+000
      endloop
   endfacet
   facet normal 2.305519e-001 0.000000e+000 9.730600e-001
      outer loop
         vertex 4.739528e+000 0.000000e+000 7.522789e+000
         vertex 4.739528e+000 8.000000e+000 7.522789e+000
         vertex 4.486969e+000 0.000000e+000 7.590462e+000
      endloop
   endfacet
   facet normal 2.868663e-001 0.000000e+000 9.579706e-001
      outer loop
         vertex 4.486969e+000 0.000000e+000 7.590462e+000
         vertex 4.739528e+000 8.000000e+000 7.522789e+000
         vertex 4.486969e+000 8.000000e+000 7.590462e+000
      endloop
   endfacet
   facet normal 3.960194e-001 0.000000e+000 9.182422e-001
      outer loop
         vertex 4.486969e+000 0.000000e+000 7.590462e+000
         vertex 4.486969e+000 8.000000e+000 7.590462e+000
         vertex 4.250000e+000 0.000000e+000 7.700962e+000
      endloop
   endfacet
   facet normal 4.488580e-001 0.000000e+000 8.936031e-001
      outer loop
         vertex 4.250000e+000 0.000000e+000 7.700962e+000
         vertex 4.486969e+000 8.000000e+000 7.590462e+000
         vertex 4.250000e+000 8.000000e+000 7.700962e+000
      endloop
   endfacet
   facet normal 5.494540e-001 0.000000e+000 8.355240e-001
      outer loop
         vertex 4.250000e+000 0.000000e+000 7.700962e+000
         vertex 4.250000e+000 8.000000e+000 7.700962e+000
         vertex 4.035819e+000 0.000000e+000 7.850934e+000
      endloop
   endfacet
   facet normal 5.972114e-001 0.000000e+000 8.020838e-001
      outer loop
         vertex 4.035819e+000 0.000000e+000 7.850934e+000
         vertex 4.250000e+000 8.000000e+000 7.700962e+000
         vertex 4.035819e+000 8.000000e+000 7.850934e+000
      endloop
   endfacet
   facet normal 6.861938e-001 0.000000e+000 7.274188e-001
      outer loop
         vertex 4.035819e+000 0.000000e+000 7.850934e+000
         vertex 4.035819e+000 8.000000e+000 7.850934e+000
         vertex 3.850933e+000 0.000000e+000 8.035819e+000
      endloop
   endfacet
   facet normal 7.274188e-001 0.000000e+000 6.861938e-001
      outer loop
         vertex 3.850933e+000 0.000000e+000 8.035819e+000
         vertex 4.035819e+000 8.000000e+000 7.850934e+000
         vertex 3.850933e+000 8.000000e+000 8.035819e+000
      endloop
   endfacet
   facet normal 8.020838e-001 0.000000e+000 5.972114e-001
      outer loop
         vertex 3.850933e+000 0.000000e+000 8.035819e+000
         vertex 3.850933e+000 8.000000e+000 8.035819e+000
         vertex 3.700962e+000 0.000000e+000 8.250000e+000
      endloop
   endfacet
   facet normal 8.355240e-001 0.000000e+000 5.494540e-001
      outer loop
         vertex 3.700962e+000 0.000000e+000 8.250000e+000
         vertex 3.850933e+000 8.000000e+000 8.035819e+000
         vertex 3.700962e+000 8.000000e+000 8.250000e+000
      endloop
   endfacet
   facet normal 8.936031e-001 0.000000e+000 4.488580e-001
      outer loop
         vertex 3.700962e+000 0.000000e+000 8.250000e+000
         vertex 3.700962e+000 8.000000e+000 8.250000e+000
         vertex 3.590461e+000 0.000000e+000 8.486970e+000
      endloop
   endfacet
   facet normal 9.182422e-001 0.000000e+000 3.960194e-001
      outer loop
         vertex 3.590461e+000 0.000000e+000 8.486970e+000
         vertex 3.700962e+000 8.000000e+000 8.250000e+000
         vertex 3.590461e+000 8.000000e+000 8.486970e+000
      endloop
   endfacet
   facet normal 9.495411e-001 0.000000e+000 3.136426e-001
      outer loop
         vertex 3.590461e+000 0.000000e+000 8.486970e+000
         vertex 3.590461e+000 8.000000e+000 8.486970e+000
         vertex 3.550000e+000 1.000000e+000 8.615943e+000
      endloop
   endfacet
   facet normal 9.661743e-001 0.000000e+000 2.578900e-001
      outer loop
         vertex 3.550000e+000 1.000000e+000 8.615943e+000
         vertex 3.590461e+000 8.000000e+000 8.486970e+000
         vertex 3.522788e+000 1.000000e+000 8.739529e+000
      endloop
   endfacet
   facet normal 9.585406e-001 0.000000e+000 -2.849561e-001
      outer loop
         vertex 3.550000e+000 0.000000e+000 9.384057e+000
         vertex 3.550000e+000 1.000000e+000 9.384057e+000
         vertex 3.590461e+000 0.000000e+000 9.513031e+000
      endloop
   endfacet
   facet normal 9.495411e-001 0.000000e+000 -3.136426e-001
      outer loop
         vertex 3.590461e+000 0.000000e+000 9.513031e+000
         vertex 3.550000e+000 1.000000e+000 9.384057e+000
         vertex 3.590461e+000 8.000000e+000 9.513031e+000
      endloop
   endfacet
   facet normal 9.182422e-001 0.000000e+000 -3.960194e-001
      outer loop
         vertex 3.590461e+000 0.000000e+000 9.513031e+000
         vertex 3.590461e+000 8.000000e+000 9.513031e+000
         vertex 3.700962e+000 0.000000e+000 9.750000e+000
      endloop
   endfacet
   facet normal 8.936031e-001 0.000000e+000 -4.488580e-001
      outer loop
         vertex 3.700962e+000 0.000000e+000 9.750000e+000
         vertex 3.590461e+000 8.000000e+000 9.513031e+000
         vertex 3.700962e+000 8.000000e+000 9.750000e+000
      endloop
   endfacet
   facet normal 8.355240e-001 0.000000e+000 -5.494540e-001
      outer loop
         vertex 3.700962e+000 0.000000e+000 9.750000e+000
         vertex 3.700962e+000 8.000000e+000 9.750000e+000
         vertex 3.850933e+000 0.000000e+000 9.964182e+000
      endloop
   endfacet
   facet normal 8.020838e-001 0.000000e+000 -5.972114e-001
      outer loop
         vertex 3.850933e+000 0.000000e+000 9.964182e+000
         vertex 3.700962e+000 8.000000e+000 9.750000e+000
         vertex 3.850933e+000 8.000000e+000 9.964182e+000
      endloop
   endfacet
   facet normal 7.274188e-001 0.000000e+000 -6.861938e-001
      outer loop
         vertex 3.850933e+000 0.000000e+000 9.964182e+000
         vertex 3.850933e+000 8.000000e+000 9.964182e+000
         vertex 4.035819e+000 0.000000e+000 1.014907e+001
      endloop
   endfacet
   facet normal 6.861938e-001 0.000000e+000 -7.274188e-001
      outer loop
         vertex 4.035819e+000 0.000000e+000 1.014907e+001
         vertex 3.850933e+000 8.000000e+000 9.964182e+000
         vertex 4.035819e+000 8.000000e+000 1.014907e+001
      endloop
   endfacet
   facet normal 5.972114e-001 0.000000e+000 -8.020838e-001
      outer loop
         vertex 4.035819e+000 0.000000e+000 1.014907e+001
         vertex 4.035819e+000 8.000000e+000 1.014907e+001
         vertex 4.250000e+000 0.000000e+000 1.029904e+001
      endloop
   endfacet
   facet normal 5.494540e-001 0.000000e+000 -8.355240e-001
      outer loop
         vertex 4.250000e+000 0.000000e+000 1.029904e+001
         vertex 4.035819e+000 8.000000e+000 1.014907e+001
         vertex 4.250000e+000 8.000000e+000 1.029904e+001
      endloop
   endfacet
   facet normal 4.488580e-001 0.000000e+000 -8.936031e-001
      outer loop
         vertex 4.250000e+000 0.000000e+000 1.029904e+001
         vertex 4.250000e+000 8.000000e+000 1.029904e+001
         vertex 4.486969e+000 0.000000e+000 1.040954e+001
      endloop
   endfacet
   facet normal 3.960194e-001 0.000000e+000 -9.182422e-001
      outer loop
         vertex 4.486969e+000 0.000000e+000 1.040954e+001
         vertex 4.250000e+000 8.000000e+000 1.029904e+001
         vertex 4.486969e+000 8.000000e+000 1.040954e+001
      endloop
   endfacet
   facet normal 2.868663e-001 0.000000e+000 -9.579706e-001
      outer loop
         vertex 4.486969e+000 0.000000e+000 1.040954e+001
         vertex 4.486969e+000 8.000000e+000 1.040954e+001
         vertex 4.739528e+000 0.000000e+000 1.047721e+001
      endloop
   endfacet
   facet normal 2.305519e-001 0.000000e+000 -9.730600e-001
      outer loop
         vertex 4.739528e+000 0.000000e+000 1.047721e+001
         vertex 4.486969e+000 8.000000e+000 1.040954e+001
         vertex 4.739528e+000 8.000000e+000 1.047721e+001
      endloop
   endfacet
   facet normal 1.161583e-001 0.000000e+000 -9.932307e-001
      outer loop
         vertex 4.739528e+000 0.000000e+000 1.047721e+001
         vertex 4.739528e+000 8.000000e+000 1.047721e+001
         vertex 5.000000e+000 0.000000e+000 1.050000e+001
      endloop
   endfacet
   facet normal 5.807913e-002 0.000000e+000 -9.983119e-001
      outer loop
         vertex 5.000000e+000 0.000000e+000 1.050000e+001
         vertex 4.739528e+000 8.000000e+000 1.047721e+001
         vertex 5.000000e+000 8.000000e+000 1.050000e+001
      endloop
   endfacet
   facet normal -5.807913e-002 0.000000e+000 -9.983119e-001
      outer loop
         vertex 5.000000e+000 0.000000e+000 1.050000e+001
         vertex 5.000000e+000 8.000000e+000 1.050000e+001
         vertex 5.260472e+000 0.000000e+000 1.047721e+001
      endloop
   endfacet
   facet normal -1.161583e-001 0.000000e+000 -9.932307e-001
      outer loop
         vertex 5.260472e+000 0.000000e+000 1.047721e+001
         vertex 5.000000e+000 8.000000e+000 1.050000e+001
         vertex 5.260472e+000 8.000000e+000 1.047721e+001
      endloop
   endfacet
   facet normal -2.305519e-001 0.000000e+000 -9.730600e-001
      outer loop
         vertex 5.260472e+000 0.000000e+000 1.047721e+001
         vertex 5.260472e+000 8.000000e+000 1.047721e+001
         vertex 5.513030e+000 0.000000e+000 1.040954e+001
      endloop
   endfacet
   facet normal -2.868663e-001 0.000000e+000 -9.579706e-001
      outer loop
         vertex 5.513030e+000 0.000000e+000 1.040954e+001
         vertex 5.260472e+000 8.000000e+000 1.047721e+001
         vertex 5.513030e+000 8.000000e+000 1.040954e+001
      endloop
   endfacet
   facet normal -3.960194e-001 0.000000e+000 -9.182422e-001
      outer loop
         vertex 5.513030e+000 0.000000e+000 1.040954e+001
         vertex 5.513030e+000 8.000000e+000 1.040954e+001
         vertex 5.750000e+000 0.000000e+000 1.029904e+001
      endloop
   endfacet
   facet normal -4.488580e-001 0.000000e+000 -8.936031e-001
      outer loop
         vertex 5.750000e+000 0.000000e+000 1.029904e+001
         vertex 5.513030e+000 8.000000e+000 1.040954e+001
         vertex 5.750000e+000 8.000000e+000 1.029904e+001
      endloop
   endfacet
   facet normal -5.494540e-001 0.000000e+000 -8.355240e-001
      outer loop
         vertex 5.750000e+000 0.000000e+000 1.029904e+001
         vertex 5.750000e+000 8.000000e+000 1.029904e+001
         vertex 5.964181e+000 0.000000e+000 1.014907e+001
      endloop
   endfacet
   facet normal -5.972114e-001 0.000000e+000 -8.020838e-001
      outer loop
         vertex 5.964181e+000 0.000000e+000 1.014907e+001
         vertex 5.750000e+000 8.000000e+000 1.029904e+001
         vertex 5.964181e+000 8.000000e+000 1.014907e+001
      endloop
   endfacet
   facet normal -6.861938e-001 0.000000e+000 -7.274188e-001
      outer loop
         vertex 5.964181e+000 0.000000e+000 1.014907e+001
         vertex 5.964181e+000 8.000000e+000 1.014907e+001
         vertex 6.149066e+000 0.000000e+000 9.964182e+000
      endloop
   endfacet
   facet normal -7.274188e-001 0.000000e+000 -6.861938e-001
      outer loop
         vertex 6.149066e+000 0.000000e+000 9.964182e+000
         vertex 5.964181e+000 8.000000e+000 1.014907e+001
         vertex 6.149066e+000 8.000000e+000 9.964182e+000
      endloop
   endfacet
   facet normal -8.020838e-001 0.000000e+000 -5.972114e-001
      outer loop
         vertex 6.149066e+000 0.000000e+000 9.964182e+000
         vertex 6.149066e+000 8.000000e+000 9.964182e+000
         vertex 6.299038e+000 0.000000e+000 9.750000e+000
      endloop
   endfacet
   facet normal -8.355240e-001 0.000000e+000 -5.494540e-001
      outer loop
         vertex 6.299038e+000 0.000000e+000 9.750000e+000
         vertex 6.149066e+000 8.000000e+000 9.964182e+000
         vertex 6.299038e+000 8.000000e+000 9.750000e+000
      endloop
   endfacet
   facet normal -8.936031e-001 0.000000e+000 -4.488580e-001
      outer loop
         vertex 6.299038e+000 0.000000e+000 9.750000e+000
         vertex 6.299038e+000 8.000000e+000 9.750000e+000
         vertex 6.409539e+000 0.000000e+000 9.513031e+000
      endloop
   endfacet
   facet normal -9.182422e-001 0.000000e+000 -3.960194e-001
      outer loop
         vertex 6.409539e+000 0.000000e+000 9.513031e+000
         vertex 6.299038e+000 8.000000e+000 9.750000e+000
         vertex 6.409539e+000 8.000000e+000 9.513031e+000
      endloop
   endfacet
   facet normal -9.495411e-001 0.000000e+000 -3.136426e-001
      outer loop
         vertex 6.409539e+000 0.000000e+000 9.513031e+000
         vertex 6.409539e+000 8.000000e+000 9.513031e+000
         vertex 6.450000e+000 1.000000e+000 9.384057e+000
      endloop
   endfacet
   facet normal -9.661743e-001 0.000000e+000 -2.578900e-001
      outer loop
         vertex 6.450000e+000 1.000000e+000 9.384057e+000
         vertex 6.409539e+000 8.000000e+000 9.513031e+000
         vertex 6.477211e+000 1.000000e+000 9.260472e+000
      endloop
   endfacet
endsolid