solid MakerBeamBlocker45deg_x2
   facet normal 1.084202e-016 -1.000000e+000 0.000000e+000
      outer loop
         vertex 5.500000e+000 5.000000e+000 1.086603e+001
         vertex 5.707107e+000 5.000000e+000 1.070711e+001
         vertex 1.000000e+001 5.000000e+000 1.500000e+001
      endloop
   endfacet
   facet normal 1.084202e-016 -1.000000e+000 0.000000e+000
      outer loop
         vertex 5.500000e+000 5.000000e+000 1.086603e+001
         vertex 1.000000e+001 5.000000e+000 1.500000e+001
         vertex 5.258819e+000 5.000000e+000 1.096593e+001
      endloop
   endfacet
   facet normal 1.084202e-016 -1.000000e+000 0.000000e+000
      outer loop
         vertex 5.707107e+000 5.000000e+000 1.070711e+001
         vertex 5.866025e+000 5.000000e+000 1.050000e+001
         vertex 1.000000e+001 5.000000e+000 1.500000e+001
      endloop
   endfacet
   facet normal 1.084202e-016 -1.000000e+000 0.000000e+000
      outer loop
         vertex 1.000000e+001 5.000000e+000 1.500000e+001
         vertex 5.866025e+000 5.000000e+000 1.050000e+001
         vertex 5.965926e+000 5.000000e+000 1.025882e+001
      endloop
   endfacet
   facet normal 1.084202e-016 -1.000000e+000 0.000000e+000
      outer loop
         vertex 1.000000e+001 5.000000e+000 1.500000e+001
         vertex 5.965926e+000 5.000000e+000 1.025882e+001
         vertex 1.000000e+001 5.000000e+000 6.000000e+000
      endloop
   endfacet
   facet normal 1.084202e-016 -1.000000e+000 0.000000e+000
      outer loop
         vertex 1.000000e+001 5.000000e+000 6.000000e+000
         vertex 5.965926e+000 5.000000e+000 1.025882e+001
         vertex 6.000000e+000 5.000000e+000 1.000000e+001
      endloop
   endfacet
   facet normal 1.084202e-016 -1.000000e+000 0.000000e+000
      outer loop
         vertex 1.000000e+001 5.000000e+000 6.000000e+000
         vertex 6.000000e+000 5.000000e+000 1.000000e+001
         vertex 5.965926e+000 5.000000e+000 9.741180e+000
      endloop
   endfacet
   facet normal 1.084202e-016 -1.000000e+000 0.000000e+000
      outer loop
         vertex 5.965926e+000 5.000000e+000 9.741180e+000
         vertex 5.866025e+000 5.000000e+000 9.500000e+000
         vertex 1.000000e+001 5.000000e+000 6.000000e+000
      endloop
   endfacet
   facet normal 1.084202e-016 -1.000000e+000 0.000000e+000
      outer loop
         vertex 1.000000e+001 5.000000e+000 6.000000e+000
         vertex 5.866025e+000 5.000000e+000 9.500000e+000
         vertex 5.707107e+000 5.000000e+000 9.292893e+000
      endloop
   endfacet
   facet normal 1.084202e-016 -1.000000e+000 0.000000e+000
      outer loop
         vertex 1.000000e+001 5.000000e+000 6.000000e+000
         vertex 5.707107e+000 5.000000e+000 9.292893e+000
         vertex 5.500000e+000 5.000000e+000 9.133975e+000
      endloop
   endfacet
   facet normal 1.084202e-016 -1.000000e+000 0.000000e+000
      outer loop
         vertex 0.000000e+000 5.000000e+000 1.500000e+001
         vertex 4.741181e+000 5.000000e+000 1.096593e+001
         vertex 1.000000e+001 5.000000e+000 1.500000e+001
      endloop
   endfacet
   facet normal 1.084202e-016 -1.000000e+000 0.000000e+000
      outer loop
         vertex 1.000000e+001 5.000000e+000 1.500000e+001
         vertex 4.741181e+000 5.000000e+000 1.096593e+001
         vertex 5.000000e+000 5.000000e+000 1.100000e+001
      endloop
   endfacet
   facet normal 1.084202e-016 -1.000000e+000 0.000000e+000
      outer loop
         vertex 1.000000e+001 5.000000e+000 1.500000e+001
         vertex 5.000000e+000 5.000000e+000 1.100000e+001
         vertex 5.258819e+000 5.000000e+000 1.096593e+001
      endloop
   endfacet
   facet normal 1.084202e-016 -1.000000e+000 0.000000e+000
      outer loop
         vertex 4.292893e+000 5.000000e+000 9.292893e+000
         vertex 4.133975e+000 5.000000e+000 9.500000e+000
         vertex 0.000000e+000 5.000000e+000 6.000000e+000
      endloop
   endfacet
   facet normal 1.084202e-016 -1.000000e+000 0.000000e+000
      outer loop
         vertex 4.292893e+000 5.000000e+000 9.292893e+000
         vertex 0.000000e+000 5.000000e+000 6.000000e+000
         vertex 4.500000e+000 5.000000e+000 9.133975e+000
      endloop
   endfacet
   facet normal 1.084202e-016 -1.000000e+000 0.000000e+000
      outer loop
         vertex 5.500000e+000 5.000000e+000 9.133975e+000
         vertex 5.258819e+000 5.000000e+000 9.034074e+000
         vertex 1.000000e+001 5.000000e+000 6.000000e+000
      endloop
   endfacet
   facet normal 1.084202e-016 -1.000000e+000 0.000000e+000
      outer loop
         vertex 1.000000e+001 5.000000e+000 6.000000e+000
         vertex 5.258819e+000 5.000000e+000 9.034074e+000
         vertex 5.000000e+000 5.000000e+000 9.000000e+000
      endloop
   endfacet
   facet normal 1.084202e-016 -1.000000e+000 0.000000e+000
      outer loop
         vertex 1.000000e+001 5.000000e+000 6.000000e+000
         vertex 5.000000e+000 5.000000e+000 9.000000e+000
         vertex 0.000000e+000 5.000000e+000 6.000000e+000
      endloop
   endfacet
   facet normal 1.084202e-016 -1.000000e+000 0.000000e+000
      outer loop
         vertex 0.000000e+000 5.000000e+000 6.000000e+000
         vertex 5.000000e+000 5.000000e+000 9.000000e+000
         vertex 4.741181e+000 5.000000e+000 9.034074e+000
      endloop
   endfacet
   facet normal 1.084202e-016 -1.000000e+000 0.000000e+000
      outer loop
         vertex 0.000000e+000 5.000000e+000 6.000000e+000
         vertex 4.741181e+000 5.000000e+000 9.034074e+000
         vertex 4.500000e+000 5.000000e+000 9.133975e+000
      endloop
   endfacet
   facet normal 1.084202e-016 -1.000000e+000 0.000000e+000
      outer loop
         vertex 4.133975e+000 5.000000e+000 9.500000e+000
         vertex 4.034074e+000 5.000000e+000 9.741180e+000
         vertex 0.000000e+000 5.000000e+000 6.000000e+000
      endloop
   endfacet
   facet normal 1.084202e-016 -1.000000e+000 0.000000e+000
      outer loop
         vertex 0.000000e+000 5.000000e+000 6.000000e+000
         vertex 4.034074e+000 5.000000e+000 9.741180e+000
         vertex 4.000000e+000 5.000000e+000 1.000000e+001
      endloop
   endfacet
   facet normal 1.084202e-016 -1.000000e+000 0.000000e+000
      outer loop
         vertex 0.000000e+000 5.000000e+000 6.000000e+000
         vertex 4.000000e+000 5.000000e+000 1.000000e+001
         vertex 0.000000e+000 5.000000e+000 1.500000e+001
      endloop
   endfacet
   facet normal 1.084202e-016 -1.000000e+000 0.000000e+000
      outer loop
         vertex 0.000000e+000 5.000000e+000 1.500000e+001
         vertex 4.000000e+000 5.000000e+000 1.000000e+001
         vertex 4.034074e+000 5.000000e+000 1.025882e+001
      endloop
   endfacet
   facet normal 1.084202e-016 -1.000000e+000 0.000000e+000
      outer loop
         vertex 0.000000e+000 5.000000e+000 1.500000e+001
         vertex 4.034074e+000 5.000000e+000 1.025882e+001
         vertex 4.133975e+000 5.000000e+000 1.050000e+001
      endloop
   endfacet
   facet normal 1.084202e-016 -1.000000e+000 0.000000e+000
      outer loop
         vertex 4.133975e+000 5.000000e+000 1.050000e+001
         vertex 4.292893e+000 5.000000e+000 1.070711e+001
         vertex 0.000000e+000 5.000000e+000 1.500000e+001
      endloop
   endfacet
   facet normal 1.084202e-016 -1.000000e+000 0.000000e+000
      outer loop
         vertex 0.000000e+000 5.000000e+000 1.500000e+001
         vertex 4.292893e+000 5.000000e+000 1.070711e+001
         vertex 4.500000e+000 5.000000e+000 1.086603e+001
      endloop
   endfacet
   facet normal 1.084202e-016 -1.000000e+000 0.000000e+000
      outer loop
         vertex 0.000000e+000 5.000000e+000 1.500000e+001
         vertex 4.500000e+000 5.000000e+000 1.086603e+001
         vertex 4.741181e+000 5.000000e+000 1.096593e+001
      endloop
   endfacet
   facet normal 0.000000e+000 0.000000e+000 -1.000000e+000
      outer loop
         vertex 0.000000e+000 0.000000e+000 0.000000e+000
         vertex 0.000000e+000 8.000000e+000 0.000000e+000
         vertex 9.999997e-001 0.000000e+000 0.000000e+000
      endloop
   endfacet
   facet normal 0.000000e+000 0.000000e+000 -1.000000e+000
      outer loop
         vertex 9.999997e-001 0.000000e+000 0.000000e+000
         vertex 0.000000e+000 8.000000e+000 0.000000e+000
         vertex 9.999997e-001 8.000000e+000 0.000000e+000
      endloop
   endfacet
   facet normal 1.000000e+000 -5.782412e-016 0.000000e+000
      outer loop
         vertex 1.000000e+001 4.965926e+000 5.741181e+000
         vertex 1.000000e+001 4.866025e+000 5.500000e+000
         vertex 1.000000e+001 8.000000e+000 0.000000e+000
      endloop
   endfacet
   facet normal 1.000000e+000 -5.782412e-016 0.000000e+000
      outer loop
         vertex 1.000000e+001 8.000000e+000 0.000000e+000
         vertex 1.000000e+001 4.866025e+000 5.500000e+000
         vertex 1.000000e+001 4.707107e+000 5.292893e+000
      endloop
   endfacet
   facet normal 1.000000e+000 -5.782412e-016 0.000000e+000
      outer loop
         vertex 1.000000e+001 8.000000e+000 0.000000e+000
         vertex 1.000000e+001 4.707107e+000 5.292893e+000
         vertex 1.000000e+001 4.500000e+000 5.133975e+000
      endloop
   endfacet
   facet normal 1.000000e+000 -5.782412e-016 0.000000e+000
      outer loop
         vertex 1.000000e+001 0.000000e+000 5.000000e+000
         vertex 1.000000e+001 0.000000e+000 0.000000e+000
         vertex 1.000000e+001 4.000000e+000 5.000000e+000
      endloop
   endfacet
   facet normal 1.000000e+000 -5.782412e-016 0.000000e+000
      outer loop
         vertex 1.000000e+001 4.000000e+000 5.000000e+000
         vertex 1.000000e+001 0.000000e+000 0.000000e+000
         vertex 1.000000e+001 8.000000e+000 0.000000e+000
      endloop
   endfacet
   facet normal 1.000000e+000 -5.782412e-016 0.000000e+000
      outer loop
         vertex 1.000000e+001 4.000000e+000 5.000000e+000
         vertex 1.000000e+001 8.000000e+000 0.000000e+000
         vertex 1.000000e+001 4.258819e+000 5.034074e+000
      endloop
   endfacet
   facet normal 1.000000e+000 -5.782412e-016 0.000000e+000
      outer loop
         vertex 1.000000e+001 4.258819e+000 5.034074e+000
         vertex 1.000000e+001 8.000000e+000 0.000000e+000
         vertex 1.000000e+001 4.500000e+000 5.133975e+000
      endloop
   endfacet
   facet normal 1.000000e+000 -5.782412e-016 0.000000e+000
      outer loop
         vertex 1.000000e+001 8.000000e+000 1.500000e+001
         vertex 1.000000e+001 5.000000e+000 1.500000e+001
         vertex 1.000000e+001 8.000000e+000 0.000000e+000
      endloop
   endfacet
   facet normal 1.000000e+000 -5.782412e-016 0.000000e+000
      outer loop
         vertex 1.000000e+001 8.000000e+000 0.000000e+000
         vertex 1.000000e+001 5.000000e+000 1.500000e+001
         vertex 1.000000e+001 5.000000e+000 6.000000e+000
      endloop
   endfacet
   facet normal 1.000000e+000 -5.782412e-016 0.000000e+000
      outer loop
         vertex 1.000000e+001 8.000000e+000 0.000000e+000
         vertex 1.000000e+001 5.000000e+000 6.000000e+000
         vertex 1.000000e+001 4.965926e+000 5.741181e+000
      endloop
   endfacet
   facet normal -6.108181e-016 1.000000e+000 0.000000e+000
      outer loop
         vertex 6.450000e+000 8.000000e+000 2.550000e+000
         vertex 6.450000e+000 8.000000e+000 1.500000e+001
         vertex 9.000000e+000 8.000000e+000 3.469447e-015
      endloop
   endfacet
   facet normal -6.108181e-016 1.000000e+000 0.000000e+000
      outer loop
         vertex 9.000000e+000 8.000000e+000 3.469447e-015
         vertex 6.450000e+000 8.000000e+000 1.500000e+001
         vertex 1.000000e+001 8.000000e+000 1.500000e+001
      endloop
   endfacet
   facet normal -6.108181e-016 1.000000e+000 0.000000e+000
      outer loop
         vertex 9.000000e+000 8.000000e+000 3.469447e-015
         vertex 1.000000e+001 8.000000e+000 1.500000e+001
         vertex 1.000000e+001 8.000000e+000 3.469447e-015
      endloop
   endfacet
   facet normal 1.000000e+000 1.301043e-015 0.000000e+000
      outer loop
         vertex 6.450000e+000 9.000000e+000 2.550000e+000
         vertex 6.450000e+000 9.000000e+000 1.500000e+001
         vertex 6.450000e+000 8.000000e+000 2.550000e+000
      endloop
   endfacet
   facet normal 1.000000e+000 1.301043e-015 0.000000e+000
      outer loop
         vertex 6.450000e+000 8.000000e+000 2.550000e+000
         vertex 6.450000e+000 9.000000e+000 1.500000e+001
         vertex 6.450000e+000 8.000000e+000 1.500000e+001
      endloop
   endfacet
   facet normal -2.990902e-016 1.000000e+000 0.000000e+000
      outer loop
         vertex 5.258819e+000 9.000000e+000 1.096593e+001
         vertex 5.000000e+000 9.000000e+000 1.100000e+001
         vertex 6.450000e+000 9.000000e+000 1.500000e+001
      endloop
   endfacet
   facet normal -2.990902e-016 1.000000e+000 0.000000e+000
      outer loop
         vertex 4.500000e+000 9.000000e+000 9.133975e+000
         vertex 5.000000e+000 9.000000e+000 4.000000e+000
         vertex 4.292893e+000 9.000000e+000 9.292893e+000
      endloop
   endfacet
   facet normal -2.990902e-016 1.000000e+000 0.000000e+000
      outer loop
         vertex 4.292893e+000 9.000000e+000 9.292893e+000
         vertex 5.000000e+000 9.000000e+000 4.000000e+000
         vertex 3.550000e+000 9.000000e+000 2.550000e+000
      endloop
   endfacet
   facet normal -2.990902e-016 1.000000e+000 0.000000e+000
      outer loop
         vertex 4.292893e+000 9.000000e+000 9.292893e+000
         vertex 3.550000e+000 9.000000e+000 2.550000e+000
         vertex 4.133975e+000 9.000000e+000 9.500000e+000
      endloop
   endfacet
   facet normal -2.990902e-016 1.000000e+000 0.000000e+000
      outer loop
         vertex 6.450000e+000 9.000000e+000 1.500000e+001
         vertex 5.000000e+000 9.000000e+000 1.100000e+001
         vertex 3.550000e+000 9.000000e+000 1.500000e+001
      endloop
   endfacet
   facet normal -2.990902e-016 1.000000e+000 0.000000e+000
      outer loop
         vertex 5.000000e+000 9.000000e+000 1.100000e+001
         vertex 4.741181e+000 9.000000e+000 1.096593e+001
         vertex 3.550000e+000 9.000000e+000 1.500000e+001
      endloop
   endfacet
   facet normal -2.990902e-016 1.000000e+000 0.000000e+000
      outer loop
         vertex 3.550000e+000 9.000000e+000 1.500000e+001
         vertex 4.741181e+000 9.000000e+000 1.096593e+001
         vertex 4.500000e+000 9.000000e+000 1.086603e+001
      endloop
   endfacet
   facet normal -2.990902e-016 1.000000e+000 0.000000e+000
      outer loop
         vertex 3.550000e+000 9.000000e+000 1.500000e+001
         vertex 4.500000e+000 9.000000e+000 1.086603e+001
         vertex 4.292893e+000 9.000000e+000 1.070711e+001
      endloop
   endfacet
   facet normal -2.990902e-016 1.000000e+000 0.000000e+000
      outer loop
         vertex 3.550000e+000 9.000000e+000 1.500000e+001
         vertex 4.000000e+000 9.000000e+000 1.000000e+001
         vertex 3.550000e+000 9.000000e+000 2.550000e+000
      endloop
   endfacet
   facet normal -2.990902e-016 1.000000e+000 0.000000e+000
      outer loop
         vertex 3.550000e+000 9.000000e+000 2.550000e+000
         vertex 4.000000e+000 9.000000e+000 1.000000e+001
         vertex 4.034074e+000 9.000000e+000 9.741180e+000
      endloop
   endfacet
   facet normal -2.990902e-016 1.000000e+000 0.000000e+000
      outer loop
         vertex 3.550000e+000 9.000000e+000 2.550000e+000
         vertex 4.034074e+000 9.000000e+000 9.741180e+000
         vertex 4.133975e+000 9.000000e+000 9.500000e+000
      endloop
   endfacet
   facet normal -2.990902e-016 1.000000e+000 0.000000e+000
      outer loop
         vertex 4.500000e+000 9.000000e+000 9.133975e+000
         vertex 4.741181e+000 9.000000e+000 9.034074e+000
         vertex 5.000000e+000 9.000000e+000 4.000000e+000
      endloop
   endfacet
   facet normal -2.990902e-016 1.000000e+000 0.000000e+000
      outer loop
         vertex 5.000000e+000 9.000000e+000 4.000000e+000
         vertex 4.741181e+000 9.000000e+000 9.034074e+000
         vertex 5.000000e+000 9.000000e+000 9.000000e+000
      endloop
   endfacet
   facet normal -2.990902e-016 1.000000e+000 0.000000e+000
      outer loop
         vertex 5.000000e+000 9.000000e+000 4.000000e+000
         vertex 5.000000e+000 9.000000e+000 9.000000e+000
         vertex 6.450000e+000 9.000000e+000 2.550000e+000
      endloop
   endfacet
   facet normal -2.990902e-016 1.000000e+000 0.000000e+000
      outer loop
         vertex 6.450000e+000 9.000000e+000 2.550000e+000
         vertex 5.000000e+000 9.000000e+000 9.000000e+000
         vertex 5.258819e+000 9.000000e+000 9.034074e+000
      endloop
   endfacet
   facet normal -2.990902e-016 1.000000e+000 0.000000e+000
      outer loop
         vertex 4.292893e+000 9.000000e+000 1.070711e+001
         vertex 4.133975e+000 9.000000e+000 1.050000e+001
         vertex 3.550000e+000 9.000000e+000 1.500000e+001
      endloop
   endfacet
   facet normal -2.990902e-016 1.000000e+000 0.000000e+000
      outer loop
         vertex 3.550000e+000 9.000000e+000 1.500000e+001
         vertex 4.133975e+000 9.000000e+000 1.050000e+001
         vertex 4.034074e+000 9.000000e+000 1.025882e+001
      endloop
   endfacet
   facet normal -2.990902e-016 1.000000e+000 0.000000e+000
      outer loop
         vertex 3.550000e+000 9.000000e+000 1.500000e+001
         vertex 4.034074e+000 9.000000e+000 1.025882e+001
         vertex 4.000000e+000 9.000000e+000 1.000000e+001
      endloop
   endfacet
   facet normal -2.990902e-016 1.000000e+000 0.000000e+000
      outer loop
         vertex 5.258819e+000 9.000000e+000 9.034074e+000
         vertex 5.500000e+000 9.000000e+000 9.133975e+000
         vertex 6.450000e+000 9.000000e+000 2.550000e+000
      endloop
   endfacet
   facet normal -2.990902e-016 1.000000e+000 0.000000e+000
      outer loop
         vertex 6.450000e+000 9.000000e+000 2.550000e+000
         vertex 5.500000e+000 9.000000e+000 9.133975e+000
         vertex 5.707107e+000 9.000000e+000 9.292893e+000
      endloop
   endfacet
   facet normal -2.990902e-016 1.000000e+000 0.000000e+000
      outer loop
         vertex 6.450000e+000 9.000000e+000 2.550000e+000
         vertex 5.707107e+000 9.000000e+000 9.292893e+000
         vertex 5.866025e+000 9.000000e+000 9.500000e+000
      endloop
   endfacet
   facet normal -2.990902e-016 1.000000e+000 0.000000e+000
      outer loop
         vertex 5.866025e+000 9.000000e+000 1.050000e+001
         vertex 5.707107e+000 9.000000e+000 1.070711e+001
         vertex 6.450000e+000 9.000000e+000 1.500000e+001
      endloop
   endfacet
   facet normal -2.990902e-016 1.000000e+000 0.000000e+000
      outer loop
         vertex 6.450000e+000 9.000000e+000 1.500000e+001
         vertex 5.707107e+000 9.000000e+000 1.070711e+001
         vertex 5.500000e+000 9.000000e+000 1.086603e+001
      endloop
   endfacet
   facet normal -2.990902e-016 1.000000e+000 0.000000e+000
      outer loop
         vertex 6.450000e+000 9.000000e+000 1.500000e+001
         vertex 5.500000e+000 9.000000e+000 1.086603e+001
         vertex 5.258819e+000 9.000000e+000 1.096593e+001
      endloop
   endfacet
   facet normal -2.990902e-016 1.000000e+000 0.000000e+000
      outer loop
         vertex 5.866025e+000 9.000000e+000 9.500000e+000
         vertex 5.965926e+000 9.000000e+000 9.741180e+000
         vertex 6.450000e+000 9.000000e+000 2.550000e+000
      endloop
   endfacet
   facet normal -2.990902e-016 1.000000e+000 0.000000e+000
      outer loop
         vertex 6.450000e+000 9.000000e+000 2.550000e+000
         vertex 5.965926e+000 9.000000e+000 9.741180e+000
         vertex 6.000000e+000 9.000000e+000 1.000000e+001
      endloop
   endfacet
   facet normal -2.990902e-016 1.000000e+000 0.000000e+000
      outer loop
         vertex 6.450000e+000 9.000000e+000 2.550000e+000
         vertex 6.000000e+000 9.000000e+000 1.000000e+001
         vertex 6.450000e+000 9.000000e+000 1.500000e+001
      endloop
   endfacet
   facet normal -2.990902e-016 1.000000e+000 0.000000e+000
      outer loop
         vertex 6.450000e+000 9.000000e+000 1.500000e+001
         vertex 6.000000e+000 9.000000e+000 1.000000e+001
         vertex 5.965926e+000 9.000000e+000 1.025882e+001
      endloop
   endfacet
   facet normal -2.990902e-016 1.000000e+000 0.000000e+000
      outer loop
         vertex 6.450000e+000 9.000000e+000 1.500000e+001
         vertex 5.965926e+000 9.000000e+000 1.025882e+001
         vertex 5.866025e+000 9.000000e+000 1.050000e+001
      endloop
   endfacet
   facet normal -1.000000e+000 0.000000e+000 0.000000e+000
      outer loop
         vertex 3.550000e+000 8.000000e+000 2.550000e+000
         vertex 3.550000e+000 8.000000e+000 1.500000e+001
         vertex 3.550000e+000 9.000000e+000 2.550000e+000
      endloop
   endfacet
   facet normal -1.000000e+000 0.000000e+000 0.000000e+000
      outer loop
         vertex 3.550000e+000 9.000000e+000 2.550000e+000
         vertex 3.550000e+000 8.000000e+000 1.500000e+001
         vertex 3.550000e+000 9.000000e+000 1.500000e+001
      endloop
   endfacet
   facet normal 0.000000e+000 1.000000e+000 0.000000e+000
      outer loop
         vertex 3.550000e+000 8.000000e+000 1.500000e+001
         vertex 3.550000e+000 8.000000e+000 2.550000e+000
         vertex 0.000000e+000 8.000000e+000 1.500000e+001
      endloop
   endfacet
   facet normal 0.000000e+000 1.000000e+000 0.000000e+000
      outer loop
         vertex 0.000000e+000 8.000000e+000 1.500000e+001
         vertex 3.550000e+000 8.000000e+000 2.550000e+000
         vertex 9.999997e-001 8.000000e+000 0.000000e+000
      endloop
   endfacet
   facet normal 0.000000e+000 1.000000e+000 0.000000e+000
      outer loop
         vertex 0.000000e+000 8.000000e+000 1.500000e+001
         vertex 9.999997e-001 8.000000e+000 0.000000e+000
         vertex 0.000000e+000 8.000000e+000 0.000000e+000
      endloop
   endfacet
   facet normal -1.000000e+000 0.000000e+000 0.000000e+000
      outer loop
         vertex 0.000000e+000 4.258819e+000 5.034074e+000
         vertex 0.000000e+000 4.500000e+000 5.133975e+000
         vertex 0.000000e+000 8.000000e+000 0.000000e+000
      endloop
   endfacet
   facet normal -1.000000e+000 0.000000e+000 0.000000e+000
      outer loop
         vertex 0.000000e+000 8.000000e+000 0.000000e+000
         vertex 0.000000e+000 4.500000e+000 5.133975e+000
         vertex 0.000000e+000 4.707107e+000 5.292893e+000
      endloop
   endfacet
   facet normal -1.000000e+000 0.000000e+000 0.000000e+000
      outer loop
         vertex 0.000000e+000 8.000000e+000 0.000000e+000
         vertex 0.000000e+000 4.707107e+000 5.292893e+000
         vertex 0.000000e+000 4.866025e+000 5.500000e+000
      endloop
   endfacet
   facet normal -1.000000e+000 0.000000e+000 0.000000e+000
      outer loop
         vertex 0.000000e+000 0.000000e+000 0.000000e+000
         vertex 0.000000e+000 0.000000e+000 5.000000e+000
         vertex 0.000000e+000 8.000000e+000 0.000000e+000
      endloop
   endfacet
   facet normal -1.000000e+000 0.000000e+000 0.000000e+000
      outer loop
         vertex 0.000000e+000 8.000000e+000 0.000000e+000
         vertex 0.000000e+000 0.000000e+000 5.000000e+000
         vertex 0.000000e+000 4.000000e+000 5.000000e+000
      endloop
   endfacet
   facet normal -1.000000e+000 0.000000e+000 0.000000e+000
      outer loop
         vertex 0.000000e+000 8.000000e+000 0.000000e+000
         vertex 0.000000e+000 4.000000e+000 5.000000e+000
         vertex 0.000000e+000 4.258819e+000 5.034074e+000
      endloop
   endfacet
   facet normal -1.000000e+000 0.000000e+000 0.000000e+000
      outer loop
         vertex 0.000000e+000 5.000000e+000 1.500000e+001
         vertex 0.000000e+000 8.000000e+000 1.500000e+001
         vertex 0.000000e+000 5.000000e+000 6.000000e+000
      endloop
   endfacet
   facet normal -1.000000e+000 0.000000e+000 0.000000e+000
      outer loop
         vertex 0.000000e+000 5.000000e+000 6.000000e+000
         vertex 0.000000e+000 8.000000e+000 1.500000e+001
         vertex 0.000000e+000 8.000000e+000 0.000000e+000
      endloop
   endfacet
   facet normal -1.000000e+000 0.000000e+000 0.000000e+000
      outer loop
         vertex 0.000000e+000 5.000000e+000 6.000000e+000
         vertex 0.000000e+000 8.000000e+000 0.000000e+000
         vertex 0.000000e+000 4.965926e+000 5.741181e+000
      endloop
   endfacet
   facet normal -1.000000e+000 0.000000e+000 0.000000e+000
      outer loop
         vertex 0.000000e+000 4.965926e+000 5.741181e+000
         vertex 0.000000e+000 8.000000e+000 0.000000e+000
         vertex 0.000000e+000 4.866025e+000 5.500000e+000
      endloop
   endfacet
   facet normal 0.000000e+000 0.000000e+000 1.000000e+000
      outer loop
         vertex 3.550000e+000 8.000000e+000 1.500000e+001
         vertex 0.000000e+000 8.000000e+000 1.500000e+001
         vertex 0.000000e+000 5.000000e+000 1.500000e+001
      endloop
   endfacet
   facet normal 0.000000e+000 0.000000e+000 1.000000e+000
      outer loop
         vertex 1.000000e+001 5.000000e+000 1.500000e+001
         vertex 1.000000e+001 8.000000e+000 1.500000e+001
         vertex 6.450000e+000 8.000000e+000 1.500000e+001
      endloop
   endfacet
   facet normal 0.000000e+000 0.000000e+000 1.000000e+000
      outer loop
         vertex 6.450000e+000 9.000000e+000 1.500000e+001
         vertex 3.550000e+000 9.000000e+000 1.500000e+001
         vertex 6.450000e+000 8.000000e+000 1.500000e+001
      endloop
   endfacet
   facet normal 0.000000e+000 0.000000e+000 1.000000e+000
      outer loop
         vertex 6.450000e+000 8.000000e+000 1.500000e+001
         vertex 3.550000e+000 9.000000e+000 1.500000e+001
         vertex 3.550000e+000 8.000000e+000 1.500000e+001
      endloop
   endfacet
   facet normal 0.000000e+000 0.000000e+000 1.000000e+000
      outer loop
         vertex 6.450000e+000 8.000000e+000 1.500000e+001
         vertex 3.550000e+000 8.000000e+000 1.500000e+001
         vertex 1.000000e+001 5.000000e+000 1.500000e+001
      endloop
   endfacet
   facet normal 0.000000e+000 0.000000e+000 1.000000e+000
      outer loop
         vertex 1.000000e+001 5.000000e+000 1.500000e+001
         vertex 3.550000e+000 8.000000e+000 1.500000e+001
         vertex 0.000000e+000 5.000000e+000 1.500000e+001
      endloop
   endfacet
   facet normal 0.000000e+000 0.000000e+000 -1.000000e+000
      outer loop
         vertex 1.000000e+001 8.000000e+000 0.000000e+000
         vertex 1.000000e+001 0.000000e+000 0.000000e+000
         vertex 9.000000e+000 8.000000e+000 0.000000e+000
      endloop
   endfacet
   facet normal 0.000000e+000 0.000000e+000 -1.000000e+000
      outer loop
         vertex 9.000000e+000 8.000000e+000 0.000000e+000
         vertex 1.000000e+001 0.000000e+000 0.000000e+000
         vertex 9.000000e+000 0.000000e+000 0.000000e+000
      endloop
   endfacet
   facet normal -8.693379e-002 0.000000e+000 -9.962141e-001
      outer loop
         vertex 5.000000e+000 5.000000e+000 1.100000e+001
         vertex 5.000000e+000 9.000000e+000 1.100000e+001
         vertex 5.258819e+000 5.000000e+000 1.096593e+001
      endloop
   endfacet
   facet normal -1.738676e-001 0.000000e+000 -9.847691e-001
      outer loop
         vertex 5.258819e+000 5.000000e+000 1.096593e+001
         vertex 5.000000e+000 9.000000e+000 1.100000e+001
         vertex 5.258819e+000 9.000000e+000 1.096593e+001
      endloop
   endfacet
   facet normal -3.418108e-001 0.000000e+000 -9.397688e-001
      outer loop
         vertex 5.258819e+000 5.000000e+000 1.096593e+001
         vertex 5.258819e+000 9.000000e+000 1.096593e+001
         vertex 5.500000e+000 5.000000e+000 1.086603e+001
      endloop
   endfacet
   facet normal -4.228202e-001 0.000000e+000 -9.062136e-001
      outer loop
         vertex 5.500000e+000 5.000000e+000 1.086603e+001
         vertex 5.258819e+000 9.000000e+000 1.096593e+001
         vertex 5.500000e+000 9.000000e+000 1.086603e+001
      endloop
   endfacet
   facet normal -5.733939e-001 0.000000e+000 -8.192798e-001
      outer loop
         vertex 5.500000e+000 5.000000e+000 1.086603e+001
         vertex 5.500000e+000 9.000000e+000 1.086603e+001
         vertex 5.707107e+000 5.000000e+000 1.070711e+001
      endloop
   endfacet
   facet normal -6.429583e-001 0.000000e+000 -7.659011e-001
      outer loop
         vertex 5.707107e+000 5.000000e+000 1.070711e+001
         vertex 5.500000e+000 9.000000e+000 1.086603e+001
         vertex 5.707107e+000 9.000000e+000 1.070711e+001
      endloop
   endfacet
   facet normal -7.659012e-001 0.000000e+000 -6.429583e-001
      outer loop
         vertex 5.707107e+000 5.000000e+000 1.070711e+001
         vertex 5.707107e+000 9.000000e+000 1.070711e+001
         vertex 5.866025e+000 5.000000e+000 1.050000e+001
      endloop
   endfacet
   facet normal -8.192798e-001 0.000000e+000 -5.733939e-001
      outer loop
         vertex 5.866025e+000 5.000000e+000 1.050000e+001
         vertex 5.707107e+000 9.000000e+000 1.070711e+001
         vertex 5.866025e+000 9.000000e+000 1.050000e+001
      endloop
   endfacet
   facet normal -9.062136e-001 0.000000e+000 -4.228202e-001
      outer loop
         vertex 5.866025e+000 5.000000e+000 1.050000e+001
         vertex 5.866025e+000 9.000000e+000 1.050000e+001
         vertex 5.965926e+000 5.000000e+000 1.025882e+001
      endloop
   endfacet
   facet normal -9.397688e-001 0.000000e+000 -3.418108e-001
      outer loop
         vertex 5.965926e+000 5.000000e+000 1.025882e+001
         vertex 5.866025e+000 9.000000e+000 1.050000e+001
         vertex 5.965926e+000 9.000000e+000 1.025882e+001
      endloop
   endfacet
   facet normal -9.847691e-001 0.000000e+000 -1.738676e-001
      outer loop
         vertex 5.965926e+000 5.000000e+000 1.025882e+001
         vertex 5.965926e+000 9.000000e+000 1.025882e+001
         vertex 6.000000e+000 5.000000e+000 1.000000e+001
      endloop
   endfacet
   facet normal -9.962141e-001 0.000000e+000 -8.693379e-002
      outer loop
         vertex 6.000000e+000 5.000000e+000 1.000000e+001
         vertex 5.965926e+000 9.000000e+000 1.025882e+001
         vertex 6.000000e+000 9.000000e+000 1.000000e+001
      endloop
   endfacet
   facet normal -9.962141e-001 0.000000e+000 8.693379e-002
      outer loop
         vertex 6.000000e+000 5.000000e+000 1.000000e+001
         vertex 6.000000e+000 9.000000e+000 1.000000e+001
         vertex 5.965926e+000 5.000000e+000 9.741180e+000
      endloop
   endfacet
   facet normal -9.847691e-001 0.000000e+000 1.738676e-001
      outer loop
         vertex 5.965926e+000 5.000000e+000 9.741180e+000
         vertex 6.000000e+000 9.000000e+000 1.000000e+001
         vertex 5.965926e+000 9.000000e+000 9.741180e+000
      endloop
   endfacet
   facet normal -9.397688e-001 0.000000e+000 3.418108e-001
      outer loop
         vertex 5.965926e+000 5.000000e+000 9.741180e+000
         vertex 5.965926e+000 9.000000e+000 9.741180e+000
         vertex 5.866025e+000 5.000000e+000 9.500000e+000
      endloop
   endfacet
   facet normal -9.062136e-001 0.000000e+000 4.228202e-001
      outer loop
         vertex 5.866025e+000 5.000000e+000 9.500000e+000
         vertex 5.965926e+000 9.000000e+000 9.741180e+000
         vertex 5.866025e+000 9.000000e+000 9.500000e+000
      endloop
   endfacet
   facet normal -8.192798e-001 0.000000e+000 5.733939e-001
      outer loop
         vertex 5.866025e+000 5.000000e+000 9.500000e+000
         vertex 5.866025e+000 9.000000e+000 9.500000e+000
         vertex 5.707107e+000 5.000000e+000 9.292893e+000
      endloop
   endfacet
   facet normal -7.659011e-001 0.000000e+000 6.429583e-001
      outer loop
         vertex 5.707107e+000 5.000000e+000 9.292893e+000
         vertex 5.866025e+000 9.000000e+000 9.500000e+000
         vertex 5.707107e+000 9.000000e+000 9.292893e+000
      endloop
   endfacet
   facet normal -6.429583e-001 0.000000e+000 7.659012e-001
      outer loop
         vertex 5.707107e+000 5.000000e+000 9.292893e+000
         vertex 5.707107e+000 9.000000e+000 9.292893e+000
         vertex 5.500000e+000 5.000000e+000 9.133975e+000
      endloop
   endfacet
   facet normal -5.733939e-001 0.000000e+000 8.192798e-001
      outer loop
         vertex 5.500000e+000 5.000000e+000 9.133975e+000
         vertex 5.707107e+000 9.000000e+000 9.292893e+000
         vertex 5.500000e+000 9.000000e+000 9.133975e+000
      endloop
   endfacet
   facet normal -4.228202e-001 0.000000e+000 9.062136e-001
      outer loop
         vertex 5.500000e+000 5.000000e+000 9.133975e+000
         vertex 5.500000e+000 9.000000e+000 9.133975e+000
         vertex 5.258819e+000 5.000000e+000 9.034074e+000
      endloop
   endfacet
   facet normal -3.418108e-001 0.000000e+000 9.397688e-001
      outer loop
         vertex 5.258819e+000 5.000000e+000 9.034074e+000
         vertex 5.500000e+000 9.000000e+000 9.133975e+000
         vertex 5.258819e+000 9.000000e+000 9.034074e+000
      endloop
   endfacet
   facet normal -1.738676e-001 0.000000e+000 9.847691e-001
      outer loop
         vertex 5.258819e+000 5.000000e+000 9.034074e+000
         vertex 5.258819e+000 9.000000e+000 9.034074e+000
         vertex 5.000000e+000 5.000000e+000 9.000000e+000
      endloop
   endfacet
   facet normal -8.693379e-002 0.000000e+000 9.962141e-001
      outer loop
         vertex 5.000000e+000 5.000000e+000 9.000000e+000
         vertex 5.258819e+000 9.000000e+000 9.034074e+000
         vertex 5.000000e+000 9.000000e+000 9.000000e+000
      endloop
   endfacet
   facet normal 8.693379e-002 0.000000e+000 9.962141e-001
      outer loop
         vertex 5.000000e+000 5.000000e+000 9.000000e+000
         vertex 5.000000e+000 9.000000e+000 9.000000e+000
         vertex 4.741181e+000 5.000000e+000 9.034074e+000
      endloop
   endfacet
   facet normal 1.738676e-001 0.000000e+000 9.847691e-001
      outer loop
         vertex 4.741181e+000 5.000000e+000 9.034074e+000
         vertex 5.000000e+000 9.000000e+000 9.000000e+000
         vertex 4.741181e+000 9.000000e+000 9.034074e+000
      endloop
   endfacet
   facet normal 3.418108e-001 0.000000e+000 9.397688e-001
      outer loop
         vertex 4.741181e+000 5.000000e+000 9.034074e+000
         vertex 4.741181e+000 9.000000e+000 9.034074e+000
         vertex 4.500000e+000 5.000000e+000 9.133975e+000
      endloop
   endfacet
   facet normal 4.228202e-001 0.000000e+000 9.062136e-001
      outer loop
         vertex 4.500000e+000 5.000000e+000 9.133975e+000
         vertex 4.741181e+000 9.000000e+000 9.034074e+000
         vertex 4.500000e+000 9.000000e+000 9.133975e+000
      endloop
   endfacet
   facet normal 5.733939e-001 0.000000e+000 8.192798e-001
      outer loop
         vertex 4.500000e+000 5.000000e+000 9.133975e+000
         vertex 4.500000e+000 9.000000e+000 9.133975e+000
         vertex 4.292893e+000 5.000000e+000 9.292893e+000
      endloop
   endfacet
   facet normal 6.429583e-001 0.000000e+000 7.659011e-001
      outer loop
         vertex 4.292893e+000 5.000000e+000 9.292893e+000
         vertex 4.500000e+000 9.000000e+000 9.133975e+000
         vertex 4.292893e+000 9.000000e+000 9.292893e+000
      endloop
   endfacet
   facet normal 7.659012e-001 0.000000e+000 6.429583e-001
      outer loop
         vertex 4.292893e+000 5.000000e+000 9.292893e+000
         vertex 4.292893e+000 9.000000e+000 9.292893e+000
         vertex 4.133975e+000 5.000000e+000 9.500000e+000
      endloop
   endfacet
   facet normal 8.192798e-001 0.000000e+000 5.733939e-001
      outer loop
         vertex 4.133975e+000 5.000000e+000 9.500000e+000
         vertex 4.292893e+000 9.000000e+000 9.292893e+000
         vertex 4.133975e+000 9.000000e+000 9.500000e+000
      endloop
   endfacet
   facet normal 9.062136e-001 0.000000e+000 4.228202e-001
      outer loop
         vertex 4.133975e+000 5.000000e+000 9.500000e+000
         vertex 4.133975e+000 9.000000e+000 9.500000e+000
         vertex 4.034074e+000 5.000000e+000 9.741180e+000
      endloop
   endfacet
   facet normal 9.397688e-001 0.000000e+000 3.418108e-001
      outer loop
         vertex 4.034074e+000 5.000000e+000 9.741180e+000
         vertex 4.133975e+000 9.000000e+000 9.500000e+000
         vertex 4.034074e+000 9.000000e+000 9.741180e+000
      endloop
   endfacet
   facet normal 9.847691e-001 0.000000e+000 1.738676e-001
      outer loop
         vertex 4.034074e+000 5.000000e+000 9.741180e+000
         vertex 4.034074e+000 9.000000e+000 9.741180e+000
         vertex 4.000000e+000 5.000000e+000 1.000000e+001
      endloop
   endfacet
   facet normal 9.962141e-001 0.000000e+000 8.693379e-002
      outer loop
         vertex 4.000000e+000 5.000000e+000 1.000000e+001
         vertex 4.034074e+000 9.000000e+000 9.741180e+000
         vertex 4.000000e+000 9.000000e+000 1.000000e+001
      endloop
   endfacet
   facet normal 9.962141e-001 0.000000e+000 -8.693379e-002
      outer loop
         vertex 4.000000e+000 5.000000e+000 1.000000e+001
         vertex 4.000000e+000 9.000000e+000 1.000000e+001
         vertex 4.034074e+000 5.000000e+000 1.025882e+001
      endloop
   endfacet
   facet normal 9.847691e-001 0.000000e+000 -1.738676e-001
      outer loop
         vertex 4.034074e+000 5.000000e+000 1.025882e+001
         vertex 4.000000e+000 9.000000e+000 1.000000e+001
         vertex 4.034074e+000 9.000000e+000 1.025882e+001
      endloop
   endfacet
   facet normal 9.397688e-001 0.000000e+000 -3.418108e-001
      outer loop
         vertex 4.034074e+000 5.000000e+000 1.025882e+001
         vertex 4.034074e+000 9.000000e+000 1.025882e+001
         vertex 4.133975e+000 5.000000e+000 1.050000e+001
      endloop
   endfacet
   facet normal 9.062136e-001 0.000000e+000 -4.228202e-001
      outer loop
         vertex 4.133975e+000 5.000000e+000 1.050000e+001
         vertex 4.034074e+000 9.000000e+000 1.025882e+001
         vertex 4.133975e+000 9.000000e+000 1.050000e+001
      endloop
   endfacet
   facet normal 8.192798e-001 0.000000e+000 -5.733939e-001
      outer loop
         vertex 4.133975e+000 5.000000e+000 1.050000e+001
         vertex 4.133975e+000 9.000000e+000 1.050000e+001
         vertex 4.292893e+000 5.000000e+000 1.070711e+001
      endloop
   endfacet
   facet normal 7.659011e-001 0.000000e+000 -6.429583e-001
      outer loop
         vertex 4.292893e+000 5.000000e+000 1.070711e+001
         vertex 4.133975e+000 9.000000e+000 1.050000e+001
         vertex 4.292893e+000 9.000000e+000 1.070711e+001
      endloop
   endfacet
   facet normal 6.429583e-001 0.000000e+000 -7.659012e-001
      outer loop
         vertex 4.292893e+000 5.000000e+000 1.070711e+001
         vertex 4.292893e+000 9.000000e+000 1.070711e+001
         vertex 4.500000e+000 5.000000e+000 1.086603e+001
      endloop
   endfacet
   facet normal 5.733939e-001 0.000000e+000 -8.192798e-001
      outer loop
         vertex 4.500000e+000 5.000000e+000 1.086603e+001
         vertex 4.292893e+000 9.000000e+000 1.070711e+001
         vertex 4.500000e+000 9.000000e+000 1.086603e+001
      endloop
   endfacet
   facet normal 4.228202e-001 0.000000e+000 -9.062136e-001
      outer loop
         vertex 4.500000e+000 5.000000e+000 1.086603e+001
         vertex 4.500000e+000 9.000000e+000 1.086603e+001
         vertex 4.741181e+000 5.000000e+000 1.096593e+001
      endloop
   endfacet
   facet normal 3.418108e-001 0.000000e+000 -9.397688e-001
      outer loop
         vertex 4.741181e+000 5.000000e+000 1.096593e+001
         vertex 4.500000e+000 9.000000e+000 1.086603e+001
         vertex 4.741181e+000 9.000000e+000 1.096593e+001
      endloop
   endfacet
   facet normal 1.738676e-001 0.000000e+000 -9.847691e-001
      outer loop
         vertex 4.741181e+000 5.000000e+000 1.096593e+001
         vertex 4.741181e+000 9.000000e+000 1.096593e+001
         vertex 5.000000e+000 5.000000e+000 1.100000e+001
      endloop
   endfacet
   facet normal 8.693379e-002 0.000000e+000 -9.962141e-001
      outer loop
         vertex 5.000000e+000 5.000000e+000 1.100000e+001
         vertex 4.741181e+000 9.000000e+000 1.096593e+001
         vertex 5.000000e+000 9.000000e+000 1.100000e+001
      endloop
   endfacet
   facet normal 7.071068e-001 7.666467e-017 -7.071068e-001
      outer loop
         vertex 3.550000e+000 9.000000e+000 2.550000e+000
         vertex 5.000000e+000 9.000000e+000 4.000000e+000
         vertex 3.550000e+000 8.000000e+000 2.550000e+000
      endloop
   endfacet
   facet normal 7.071068e-001 7.666467e-017 -7.071068e-001
      outer loop
         vertex 3.550000e+000 8.000000e+000 2.550000e+000
         vertex 5.000000e+000 9.000000e+000 4.000000e+000
         vertex 5.000000e+000 0.000000e+000 4.000000e+000
      endloop
   endfacet
   facet normal 7.071068e-001 7.666467e-017 -7.071068e-001
      outer loop
         vertex 3.550000e+000 8.000000e+000 2.550000e+000
         vertex 5.000000e+000 0.000000e+000 4.000000e+000
         vertex 9.999997e-001 8.000000e+000 3.794708e-016
      endloop
   endfacet
   facet normal 7.071068e-001 7.666467e-017 -7.071068e-001
      outer loop
         vertex 9.999997e-001 8.000000e+000 3.794708e-016
         vertex 5.000000e+000 0.000000e+000 4.000000e+000
         vertex 9.999997e-001 0.000000e+000 -5.421011e-017
      endloop
   endfacet
   facet normal -7.071068e-001 -7.666467e-017 -7.071068e-001
      outer loop
         vertex 5.000000e+000 9.000000e+000 4.000000e+000
         vertex 6.450000e+000 9.000000e+000 2.550000e+000
         vertex 6.450000e+000 8.000000e+000 2.550000e+000
      endloop
   endfacet
   facet normal -7.071068e-001 -7.666467e-017 -7.071068e-001
      outer loop
         vertex 9.000000e+000 8.000000e+000 5.421011e-017
         vertex 9.000000e+000 0.000000e+000 -3.794708e-016
         vertex 6.450000e+000 8.000000e+000 2.550000e+000
      endloop
   endfacet
   facet normal -7.071068e-001 -7.666467e-017 -7.071068e-001
      outer loop
         vertex 6.450000e+000 8.000000e+000 2.550000e+000
         vertex 9.000000e+000 0.000000e+000 -3.794708e-016
         vertex 5.000000e+000 0.000000e+000 4.000000e+000
      endloop
   endfacet
   facet normal -7.071068e-001 -7.666467e-017 -7.071068e-001
      outer loop
         vertex 6.450000e+000 8.000000e+000 2.550000e+000
         vertex 5.000000e+000 0.000000e+000 4.000000e+000
         vertex 5.000000e+000 9.000000e+000 4.000000e+000
      endloop
   endfacet
   facet normal 0.000000e+000 0.000000e+000 1.000000e+000
      outer loop
         vertex 0.000000e+000 4.000000e+000 5.000000e+000
         vertex 0.000000e+000 0.000000e+000 5.000000e+000
         vertex 1.000000e+001 4.000000e+000 5.000000e+000
      endloop
   endfacet
   facet normal 0.000000e+000 0.000000e+000 1.000000e+000
      outer loop
         vertex 1.000000e+001 4.000000e+000 5.000000e+000
         vertex 0.000000e+000 0.000000e+000 5.000000e+000
         vertex 1.000000e+001 0.000000e+000 5.000000e+000
      endloop
   endfacet
   facet normal 1.084202e-016 -1.000000e+000 -2.256949e-033
      outer loop
         vertex 5.000000e+000 0.000000e+000 4.000000e+000
         vertex 9.000000e+000 0.000000e+000 0.000000e+000
         vertex 1.000000e+001 0.000000e+000 3.753958e-018
      endloop
   endfacet
   facet normal 1.084202e-016 -1.000000e+000 -2.256949e-033
      outer loop
         vertex 0.000000e+000 0.000000e+000 0.000000e+000
         vertex 9.999997e-001 0.000000e+000 1.084202e-016
         vertex 0.000000e+000 0.000000e+000 5.000000e+000
      endloop
   endfacet
   facet normal 1.084202e-016 -1.000000e+000 -2.256949e-033
      outer loop
         vertex 0.000000e+000 0.000000e+000 5.000000e+000
         vertex 9.999997e-001 0.000000e+000 1.084202e-016
         vertex 5.000000e+000 0.000000e+000 4.000000e+000
      endloop
   endfacet
   facet normal 1.084202e-016 -1.000000e+000 -2.256949e-033
      outer loop
         vertex 0.000000e+000 0.000000e+000 5.000000e+000
         vertex 5.000000e+000 0.000000e+000 4.000000e+000
         vertex 1.000000e+001 0.000000e+000 5.000000e+000
      endloop
   endfacet
   facet normal 1.084202e-016 -1.000000e+000 -2.256949e-033
      outer loop
         vertex 1.000000e+001 0.000000e+000 5.000000e+000
         vertex 5.000000e+000 0.000000e+000 4.000000e+000
         vertex 1.000000e+001 0.000000e+000 3.753958e-018
      endloop
   endfacet
   facet normal 9.425381e-018 -8.693379e-002 9.962141e-001
      outer loop
         vertex 0.000000e+000 4.000000e+000 5.000000e+000
         vertex 1.000000e+001 4.000000e+000 5.000000e+000
         vertex 0.000000e+000 4.258819e+000 5.034074e+000
      endloop
   endfacet
   facet normal 1.885076e-017 -1.738676e-001 9.847691e-001
      outer loop
         vertex 0.000000e+000 4.258819e+000 5.034074e+000
         vertex 1.000000e+001 4.000000e+000 5.000000e+000
         vertex 1.000000e+001 4.258819e+000 5.034074e+000
      endloop
   endfacet
   facet normal 3.705920e-017 -3.418108e-001 9.397688e-001
      outer loop
         vertex 0.000000e+000 4.258819e+000 5.034074e+000
         vertex 1.000000e+001 4.258819e+000 5.034074e+000
         vertex 0.000000e+000 4.500000e+000 5.133975e+000
      endloop
   endfacet
   facet normal 4.584225e-017 -4.228202e-001 9.062136e-001
      outer loop
         vertex 0.000000e+000 4.500000e+000 5.133975e+000
         vertex 1.000000e+001 4.258819e+000 5.034074e+000
         vertex 1.000000e+001 4.500000e+000 5.133975e+000
      endloop
   endfacet
   facet normal 6.216750e-017 -5.733939e-001 8.192798e-001
      outer loop
         vertex 0.000000e+000 4.500000e+000 5.133975e+000
         vertex 1.000000e+001 4.500000e+000 5.133975e+000
         vertex 0.000000e+000 4.707107e+000 5.292893e+000
      endloop
   endfacet
   facet normal 6.970968e-017 -6.429583e-001 7.659011e-001
      outer loop
         vertex 0.000000e+000 4.707107e+000 5.292893e+000
         vertex 1.000000e+001 4.500000e+000 5.133975e+000
         vertex 1.000000e+001 4.707107e+000 5.292893e+000
      endloop
   endfacet
   facet normal 8.303918e-017 -7.659012e-001 6.429583e-001
      outer loop
         vertex 0.000000e+000 4.707107e+000 5.292893e+000
         vertex 1.000000e+001 4.707107e+000 5.292893e+000
         vertex 0.000000e+000 4.866025e+000 5.500000e+000
      endloop
   endfacet
   facet normal 8.882651e-017 -8.192798e-001 5.733939e-001
      outer loop
         vertex 0.000000e+000 4.866025e+000 5.500000e+000
         vertex 1.000000e+001 4.707107e+000 5.292893e+000
         vertex 1.000000e+001 4.866025e+000 5.500000e+000
      endloop
   endfacet
   facet normal 9.825187e-017 -9.062136e-001 4.228202e-001
      outer loop
         vertex 0.000000e+000 4.866025e+000 5.500000e+000
         vertex 1.000000e+001 4.866025e+000 5.500000e+000
         vertex 0.000000e+000 4.965926e+000 5.741181e+000
      endloop
   endfacet
   facet normal 1.018899e-016 -9.397688e-001 3.418108e-001
      outer loop
         vertex 0.000000e+000 4.965926e+000 5.741181e+000
         vertex 1.000000e+001 4.866025e+000 5.500000e+000
         vertex 1.000000e+001 4.965926e+000 5.741181e+000
      endloop
   endfacet
   facet normal 1.067689e-016 -9.847691e-001 1.738676e-001
      outer loop
         vertex 0.000000e+000 4.965926e+000 5.741181e+000
         vertex 1.000000e+001 4.965926e+000 5.741181e+000
         vertex 0.000000e+000 5.000000e+000 6.000000e+000
      endloop
   endfacet
   facet normal 1.080098e-016 -9.962141e-001 8.693379e-002
      outer loop
         vertex 0.000000e+000 5.000000e+000 6.000000e+000
         vertex 1.000000e+001 4.965926e+000 5.741181e+000
         vertex 1.000000e+001 5.000000e+000 6.000000e+000
      endloop
   endfacet
   facet normal 1.084202e-016 -1.000000e+000 0.000000e+000
      outer loop
         vertex 5.000000e+000 2.000000e+001 1.100000e+001
         vertex 1.000000e+001 2.000000e+001 1.500000e+001
         vertex 4.741181e+000 2.000000e+001 1.096593e+001
      endloop
   endfacet
   facet normal 1.084202e-016 -1.000000e+000 0.000000e+000
      outer loop
         vertex 4.741181e+000 2.000000e+001 1.096593e+001
         vertex 1.000000e+001 2.000000e+001 1.500000e+001
         vertex 0.000000e+000 2.000000e+001 1.500000e+001
      endloop
   endfacet
   facet normal 1.084202e-016 -1.000000e+000 0.000000e+000
      outer loop
         vertex 5.000000e+000 2.000000e+001 1.100000e+001
         vertex 5.258819e+000 2.000000e+001 1.096593e+001
         vertex 1.000000e+001 2.000000e+001 1.500000e+001
      endloop
   endfacet
   facet normal 1.084202e-016 -1.000000e+000 0.000000e+000
      outer loop
         vertex 1.000000e+001 2.000000e+001 1.500000e+001
         vertex 5.258819e+000 2.000000e+001 1.096593e+001
         vertex 5.500000e+000 2.000000e+001 1.086603e+001
      endloop
   endfacet
   facet normal 1.084202e-016 -1.000000e+000 0.000000e+000
      outer loop
         vertex 1.000000e+001 2.000000e+001 1.500000e+001
         vertex 5.500000e+000 2.000000e+001 1.086603e+001
         vertex 5.707107e+000 2.000000e+001 1.070711e+001
      endloop
   endfacet
   facet normal 1.084202e-016 -1.000000e+000 0.000000e+000
      outer loop
         vertex 5.707107e+000 2.000000e+001 1.070711e+001
         vertex 5.866025e+000 2.000000e+001 1.050000e+001
         vertex 1.000000e+001 2.000000e+001 1.500000e+001
      endloop
   endfacet
   facet normal 1.084202e-016 -1.000000e+000 0.000000e+000
      outer loop
         vertex 1.000000e+001 2.000000e+001 1.500000e+001
         vertex 5.866025e+000 2.000000e+001 1.050000e+001
         vertex 5.965926e+000 2.000000e+001 1.025882e+001
      endloop
   endfacet
   facet normal 1.084202e-016 -1.000000e+000 0.000000e+000
      outer loop
         vertex 1.000000e+001 2.000000e+001 1.500000e+001
         vertex 5.965926e+000 2.000000e+001 1.025882e+001
         vertex 1.000000e+001 2.000000e+001 6.000000e+000
      endloop
   endfacet
   facet normal 1.084202e-016 -1.000000e+000 0.000000e+000
      outer loop
         vertex 1.000000e+001 2.000000e+001 6.000000e+000
         vertex 5.965926e+000 2.000000e+001 1.025882e+001
         vertex 6.000000e+000 2.000000e+001 1.000000e+001
      endloop
   endfacet
   facet normal 1.084202e-016 -1.000000e+000 0.000000e+000
      outer loop
         vertex 1.000000e+001 2.000000e+001 6.000000e+000
         vertex 6.000000e+000 2.000000e+001 1.000000e+001
         vertex 5.965926e+000 2.000000e+001 9.741180e+000
      endloop
   endfacet
   facet normal 1.084202e-016 -1.000000e+000 0.000000e+000
      outer loop
         vertex 5.965926e+000 2.000000e+001 9.741180e+000
         vertex 5.866025e+000 2.000000e+001 9.500000e+000
         vertex 1.000000e+001 2.000000e+001 6.000000e+000
      endloop
   endfacet
   facet normal 1.084202e-016 -1.000000e+000 0.000000e+000
      outer loop
         vertex 1.000000e+001 2.000000e+001 6.000000e+000
         vertex 5.866025e+000 2.000000e+001 9.500000e+000
         vertex 5.707107e+000 2.000000e+001 9.292893e+000
      endloop
   endfacet
   facet normal 1.084202e-016 -1.000000e+000 0.000000e+000
      outer loop
         vertex 1.000000e+001 2.000000e+001 6.000000e+000
         vertex 5.707107e+000 2.000000e+001 9.292893e+000
         vertex 5.500000e+000 2.000000e+001 9.133975e+000
      endloop
   endfacet
   facet normal 1.084202e-016 -1.000000e+000 0.000000e+000
      outer loop
         vertex 5.500000e+000 2.000000e+001 9.133975e+000
         vertex 5.258819e+000 2.000000e+001 9.034074e+000
         vertex 1.000000e+001 2.000000e+001 6.000000e+000
      endloop
   endfacet
   facet normal 1.084202e-016 -1.000000e+000 0.000000e+000
      outer loop
         vertex 1.000000e+001 2.000000e+001 6.000000e+000
         vertex 5.258819e+000 2.000000e+001 9.034074e+000
         vertex 5.000000e+000 2.000000e+001 9.000000e+000
      endloop
   endfacet
   facet normal 1.084202e-016 -1.000000e+000 0.000000e+000
      outer loop
         vertex 1.000000e+001 2.000000e+001 6.000000e+000
         vertex 5.000000e+000 2.000000e+001 9.000000e+000
         vertex 0.000000e+000 2.000000e+001 6.000000e+000
      endloop
   endfacet
   facet normal 1.084202e-016 -1.000000e+000 0.000000e+000
      outer loop
         vertex 0.000000e+000 2.000000e+001 6.000000e+000
         vertex 5.000000e+000 2.000000e+001 9.000000e+000
         vertex 4.741181e+000 2.000000e+001 9.034074e+000
      endloop
   endfacet
   facet normal 1.084202e-016 -1.000000e+000 0.000000e+000
      outer loop
         vertex 4.741181e+000 2.000000e+001 9.034074e+000
         vertex 4.500000e+000 2.000000e+001 9.133975e+000
         vertex 0.000000e+000 2.000000e+001 6.000000e+000
      endloop
   endfacet
   facet normal 1.084202e-016 -1.000000e+000 0.000000e+000
      outer loop
         vertex 0.000000e+000 2.000000e+001 6.000000e+000
         vertex 4.500000e+000 2.000000e+001 9.133975e+000
         vertex 4.292893e+000 2.000000e+001 9.292893e+000
      endloop
   endfacet
   facet normal 1.084202e-016 -1.000000e+000 0.000000e+000
      outer loop
         vertex 0.000000e+000 2.000000e+001 6.000000e+000
         vertex 4.292893e+000 2.000000e+001 9.292893e+000
         vertex 4.133975e+000 2.000000e+001 9.500000e+000
      endloop
   endfacet
   facet normal 1.084202e-016 -1.000000e+000 0.000000e+000
      outer loop
         vertex 4.133975e+000 2.000000e+001 9.500000e+000
         vertex 4.034074e+000 2.000000e+001 9.741180e+000
         vertex 0.000000e+000 2.000000e+001 6.000000e+000
      endloop
   endfacet
   facet normal 1.084202e-016 -1.000000e+000 0.000000e+000
      outer loop
         vertex 0.000000e+000 2.000000e+001 6.000000e+000
         vertex 4.034074e+000 2.000000e+001 9.741180e+000
         vertex 4.000000e+000 2.000000e+001 1.000000e+001
      endloop
   endfacet
   facet normal 1.084202e-016 -1.000000e+000 0.000000e+000
      outer loop
         vertex 0.000000e+000 2.000000e+001 6.000000e+000
         vertex 4.000000e+000 2.000000e+001 1.000000e+001
         vertex 0.000000e+000 2.000000e+001 1.500000e+001
      endloop
   endfacet
   facet normal 1.084202e-016 -1.000000e+000 0.000000e+000
      outer loop
         vertex 0.000000e+000 2.000000e+001 1.500000e+001
         vertex 4.000000e+000 2.000000e+001 1.000000e+001
         vertex 4.034074e+000 2.000000e+001 1.025882e+001
      endloop
   endfacet
   facet normal 1.084202e-016 -1.000000e+000 0.000000e+000
      outer loop
         vertex 0.000000e+000 2.000000e+001 1.500000e+001
         vertex 4.034074e+000 2.000000e+001 1.025882e+001
         vertex 4.133975e+000 2.000000e+001 1.050000e+001
      endloop
   endfacet
   facet normal 1.084202e-016 -1.000000e+000 0.000000e+000
      outer loop
         vertex 4.133975e+000 2.000000e+001 1.050000e+001
         vertex 4.292893e+000 2.000000e+001 1.070711e+001
         vertex 0.000000e+000 2.000000e+001 1.500000e+001
      endloop
   endfacet
   facet normal 1.084202e-016 -1.000000e+000 0.000000e+000
      outer loop
         vertex 0.000000e+000 2.000000e+001 1.500000e+001
         vertex 4.292893e+000 2.000000e+001 1.070711e+001
         vertex 4.500000e+000 2.000000e+001 1.086603e+001
      endloop
   endfacet
   facet normal 1.084202e-016 -1.000000e+000 0.000000e+000
      outer loop
         vertex 0.000000e+000 2.000000e+001 1.500000e+001
         vertex 4.500000e+000 2.000000e+001 1.086603e+001
         vertex 4.741181e+000 2.000000e+001 1.096593e+001
      endloop
   endfacet
   facet normal 0.000000e+000 0.000000e+000 -1.000000e+000
      outer loop
         vertex 0.000000e+000 1.500000e+001 0.000000e+000
         vertex 0.000000e+000 2.300000e+001 0.000000e+000
         vertex 9.999997e-001 1.500000e+001 0.000000e+000
      endloop
   endfacet
   facet normal 0.000000e+000 0.000000e+000 -1.000000e+000
      outer loop
         vertex 9.999997e-001 1.500000e+001 0.000000e+000
         vertex 0.000000e+000 2.300000e+001 0.000000e+000
         vertex 9.999997e-001 2.300000e+001 0.000000e+000
      endloop
   endfacet
   facet normal 1.000000e+000 -5.782412e-016 0.000000e+000
      outer loop
         vertex 1.000000e+001 1.996593e+001 5.741181e+000
         vertex 1.000000e+001 1.986603e+001 5.500000e+000
         vertex 1.000000e+001 2.300000e+001 0.000000e+000
      endloop
   endfacet
   facet normal 1.000000e+000 -5.782412e-016 0.000000e+000
      outer loop
         vertex 1.000000e+001 2.300000e+001 0.000000e+000
         vertex 1.000000e+001 1.986603e+001 5.500000e+000
         vertex 1.000000e+001 1.970711e+001 5.292893e+000
      endloop
   endfacet
   facet normal 1.000000e+000 -5.782412e-016 0.000000e+000
      outer loop
         vertex 1.000000e+001 2.300000e+001 0.000000e+000
         vertex 1.000000e+001 1.970711e+001 5.292893e+000
         vertex 1.000000e+001 1.950000e+001 5.133975e+000
      endloop
   endfacet
   facet normal 1.000000e+000 -5.782412e-016 0.000000e+000
      outer loop
         vertex 1.000000e+001 2.300000e+001 1.500000e+001
         vertex 1.000000e+001 2.000000e+001 1.500000e+001
         vertex 1.000000e+001 2.300000e+001 0.000000e+000
      endloop
   endfacet
   facet normal 1.000000e+000 -5.782412e-016 0.000000e+000
      outer loop
         vertex 1.000000e+001 2.300000e+001 0.000000e+000
         vertex 1.000000e+001 2.000000e+001 1.500000e+001
         vertex 1.000000e+001 2.000000e+001 6.000000e+000
      endloop
   endfacet
   facet normal 1.000000e+000 -5.782412e-016 0.000000e+000
      outer loop
         vertex 1.000000e+001 2.300000e+001 0.000000e+000
         vertex 1.000000e+001 2.000000e+001 6.000000e+000
         vertex 1.000000e+001 1.996593e+001 5.741181e+000
      endloop
   endfacet
   facet normal 1.000000e+000 -5.782412e-016 0.000000e+000
      outer loop
         vertex 1.000000e+001 1.500000e+001 5.000000e+000
         vertex 1.000000e+001 1.500000e+001 0.000000e+000
         vertex 1.000000e+001 1.900000e+001 5.000000e+000
      endloop
   endfacet
   facet normal 1.000000e+000 -5.782412e-016 0.000000e+000
      outer loop
         vertex 1.000000e+001 1.900000e+001 5.000000e+000
         vertex 1.000000e+001 1.500000e+001 0.000000e+000
         vertex 1.000000e+001 2.300000e+001 0.000000e+000
      endloop
   endfacet
   facet normal 1.000000e+000 -5.782412e-016 0.000000e+000
      outer loop
         vertex 1.000000e+001 1.900000e+001 5.000000e+000
         vertex 1.000000e+001 2.300000e+001 0.000000e+000
         vertex 1.000000e+001 1.925882e+001 5.034074e+000
      endloop
   endfacet
   facet normal 1.000000e+000 -5.782412e-016 0.000000e+000
      outer loop
         vertex 1.000000e+001 1.925882e+001 5.034074e+000
         vertex 1.000000e+001 2.300000e+001 0.000000e+000
         vertex 1.000000e+001 1.950000e+001 5.133975e+000
      endloop
   endfacet
   facet normal -6.108181e-016 1.000000e+000 0.000000e+000
      outer loop
         vertex 6.450000e+000 2.300000e+001 2.550000e+000
         vertex 6.450000e+000 2.300000e+001 1.500000e+001
         vertex 9.000000e+000 2.300000e+001 3.469447e-015
      endloop
   endfacet
   facet normal -6.108181e-016 1.000000e+000 0.000000e+000
      outer loop
         vertex 9.000000e+000 2.300000e+001 3.469447e-015
         vertex 6.450000e+000 2.300000e+001 1.500000e+001
         vertex 1.000000e+001 2.300000e+001 1.500000e+001
      endloop
   endfacet
   facet normal -6.108181e-016 1.000000e+000 0.000000e+000
      outer loop
         vertex 9.000000e+000 2.300000e+001 3.469447e-015
         vertex 1.000000e+001 2.300000e+001 1.500000e+001
         vertex 1.000000e+001 2.300000e+001 3.469447e-015
      endloop
   endfacet
   facet normal 1.000000e+000 1.301043e-015 0.000000e+000
      outer loop
         vertex 6.450000e+000 2.400000e+001 2.550000e+000
         vertex 6.450000e+000 2.400000e+001 1.500000e+001
         vertex 6.450000e+000 2.300000e+001 2.550000e+000
      endloop
   endfacet
   facet normal 1.000000e+000 1.301043e-015 0.000000e+000
      outer loop
         vertex 6.450000e+000 2.300000e+001 2.550000e+000
         vertex 6.450000e+000 2.400000e+001 1.500000e+001
         vertex 6.450000e+000 2.300000e+001 1.500000e+001
      endloop
   endfacet
   facet normal -2.990902e-016 1.000000e+000 0.000000e+000
      outer loop
         vertex 4.133975e+000 2.400000e+001 9.500000e+000
         vertex 4.292893e+000 2.400000e+001 9.292893e+000
         vertex 3.550000e+000 2.400000e+001 2.550000e+000
      endloop
   endfacet
   facet normal -2.990902e-016 1.000000e+000 0.000000e+000
      outer loop
         vertex 5.707107e+000 2.400000e+001 1.070711e+001
         vertex 5.500000e+000 2.400000e+001 1.086603e+001
         vertex 6.450000e+000 2.400000e+001 1.500000e+001
      endloop
   endfacet
   facet normal -2.990902e-016 1.000000e+000 0.000000e+000
      outer loop
         vertex 4.292893e+000 2.400000e+001 9.292893e+000
         vertex 4.500000e+000 2.400000e+001 9.133975e+000
         vertex 3.550000e+000 2.400000e+001 2.550000e+000
      endloop
   endfacet
   facet normal -2.990902e-016 1.000000e+000 0.000000e+000
      outer loop
         vertex 3.550000e+000 2.400000e+001 2.550000e+000
         vertex 4.500000e+000 2.400000e+001 9.133975e+000
         vertex 4.741181e+000 2.400000e+001 9.034074e+000
      endloop
   endfacet
   facet normal -2.990902e-016 1.000000e+000 0.000000e+000
      outer loop
         vertex 3.550000e+000 2.400000e+001 2.550000e+000
         vertex 4.741181e+000 2.400000e+001 9.034074e+000
         vertex 5.000000e+000 2.400000e+001 4.000000e+000
      endloop
   endfacet
   facet normal -2.990902e-016 1.000000e+000 0.000000e+000
      outer loop
         vertex 5.000000e+000 2.400000e+001 4.000000e+000
         vertex 4.741181e+000 2.400000e+001 9.034074e+000
         vertex 5.000000e+000 2.400000e+001 9.000000e+000
      endloop
   endfacet
   facet normal -2.990902e-016 1.000000e+000 0.000000e+000
      outer loop
         vertex 5.000000e+000 2.400000e+001 4.000000e+000
         vertex 5.000000e+000 2.400000e+001 9.000000e+000
         vertex 6.450000e+000 2.400000e+001 2.550000e+000
      endloop
   endfacet
   facet normal -2.990902e-016 1.000000e+000 0.000000e+000
      outer loop
         vertex 6.450000e+000 2.400000e+001 2.550000e+000
         vertex 5.000000e+000 2.400000e+001 9.000000e+000
         vertex 5.258819e+000 2.400000e+001 9.034074e+000
      endloop
   endfacet
   facet normal -2.990902e-016 1.000000e+000 0.000000e+000
      outer loop
         vertex 5.707107e+000 2.400000e+001 1.070711e+001
         vertex 6.450000e+000 2.400000e+001 1.500000e+001
         vertex 5.866025e+000 2.400000e+001 1.050000e+001
      endloop
   endfacet
   facet normal -2.990902e-016 1.000000e+000 0.000000e+000
      outer loop
         vertex 5.500000e+000 2.400000e+001 1.086603e+001
         vertex 5.258819e+000 2.400000e+001 1.096593e+001
         vertex 6.450000e+000 2.400000e+001 1.500000e+001
      endloop
   endfacet
   facet normal -2.990902e-016 1.000000e+000 0.000000e+000
      outer loop
         vertex 6.450000e+000 2.400000e+001 1.500000e+001
         vertex 5.258819e+000 2.400000e+001 1.096593e+001
         vertex 5.000000e+000 2.400000e+001 1.100000e+001
      endloop
   endfacet
   facet normal -2.990902e-016 1.000000e+000 0.000000e+000
      outer loop
         vertex 6.450000e+000 2.400000e+001 1.500000e+001
         vertex 5.000000e+000 2.400000e+001 1.100000e+001
         vertex 3.550000e+000 2.400000e+001 1.500000e+001
      endloop
   endfacet
   facet normal -2.990902e-016 1.000000e+000 0.000000e+000
      outer loop
         vertex 3.550000e+000 2.400000e+001 1.500000e+001
         vertex 5.000000e+000 2.400000e+001 1.100000e+001
         vertex 4.741181e+000 2.400000e+001 1.096593e+001
      endloop
   endfacet
   facet normal -2.990902e-016 1.000000e+000 0.000000e+000
      outer loop
         vertex 4.741181e+000 2.400000e+001 1.096593e+001
         vertex 4.500000e+000 2.400000e+001 1.086603e+001
         vertex 3.550000e+000 2.400000e+001 1.500000e+001
      endloop
   endfacet
   facet normal -2.990902e-016 1.000000e+000 0.000000e+000
      outer loop
         vertex 3.550000e+000 2.400000e+001 1.500000e+001
         vertex 4.500000e+000 2.400000e+001 1.086603e+001
         vertex 4.292893e+000 2.400000e+001 1.070711e+001
      endloop
   endfacet
   facet normal -2.990902e-016 1.000000e+000 0.000000e+000
      outer loop
         vertex 3.550000e+000 2.400000e+001 1.500000e+001
         vertex 4.292893e+000 2.400000e+001 1.070711e+001
         vertex 4.133975e+000 2.400000e+001 1.050000e+001
      endloop
   endfacet
   facet normal -2.990902e-016 1.000000e+000 0.000000e+000
      outer loop
         vertex 4.133975e+000 2.400000e+001 1.050000e+001
         vertex 4.034074e+000 2.400000e+001 1.025882e+001
         vertex 3.550000e+000 2.400000e+001 1.500000e+001
      endloop
   endfacet
   facet normal -2.990902e-016 1.000000e+000 0.000000e+000
      outer loop
         vertex 3.550000e+000 2.400000e+001 1.500000e+001
         vertex 4.034074e+000 2.400000e+001 1.025882e+001
         vertex 4.000000e+000 2.400000e+001 1.000000e+001
      endloop
   endfacet
   facet normal -2.990902e-016 1.000000e+000 0.000000e+000
      outer loop
         vertex 3.550000e+000 2.400000e+001 1.500000e+001
         vertex 4.000000e+000 2.400000e+001 1.000000e+001
         vertex 3.550000e+000 2.400000e+001 2.550000e+000
      endloop
   endfacet
   facet normal -2.990902e-016 1.000000e+000 0.000000e+000
      outer loop
         vertex 3.550000e+000 2.400000e+001 2.550000e+000
         vertex 4.000000e+000 2.400000e+001 1.000000e+001
         vertex 4.034074e+000 2.400000e+001 9.741180e+000
      endloop
   endfacet
   facet normal -2.990902e-016 1.000000e+000 0.000000e+000
      outer loop
         vertex 3.550000e+000 2.400000e+001 2.550000e+000
         vertex 4.034074e+000 2.400000e+001 9.741180e+000
         vertex 4.133975e+000 2.400000e+001 9.500000e+000
      endloop
   endfacet
   facet normal -2.990902e-016 1.000000e+000 0.000000e+000
      outer loop
         vertex 5.258819e+000 2.400000e+001 9.034074e+000
         vertex 5.500000e+000 2.400000e+001 9.133975e+000
         vertex 6.450000e+000 2.400000e+001 2.550000e+000
      endloop
   endfacet
   facet normal -2.990902e-016 1.000000e+000 0.000000e+000
      outer loop
         vertex 6.450000e+000 2.400000e+001 2.550000e+000
         vertex 5.500000e+000 2.400000e+001 9.133975e+000
         vertex 5.707107e+000 2.400000e+001 9.292893e+000
      endloop
   endfacet
   facet normal -2.990902e-016 1.000000e+000 0.000000e+000
      outer loop
         vertex 6.450000e+000 2.400000e+001 2.550000e+000
         vertex 5.707107e+000 2.400000e+001 9.292893e+000
         vertex 5.866025e+000 2.400000e+001 9.500000e+000
      endloop
   endfacet
   facet normal -2.990902e-016 1.000000e+000 0.000000e+000
      outer loop
         vertex 5.866025e+000 2.400000e+001 9.500000e+000
         vertex 5.965926e+000 2.400000e+001 9.741180e+000
         vertex 6.450000e+000 2.400000e+001 2.550000e+000
      endloop
   endfacet
   facet normal -2.990902e-016 1.000000e+000 0.000000e+000
      outer loop
         vertex 6.450000e+000 2.400000e+001 2.550000e+000
         vertex 5.965926e+000 2.400000e+001 9.741180e+000
         vertex 6.000000e+000 2.400000e+001 1.000000e+001
      endloop
   endfacet
   facet normal -2.990902e-016 1.000000e+000 0.000000e+000
      outer loop
         vertex 6.450000e+000 2.400000e+001 2.550000e+000
         vertex 6.000000e+000 2.400000e+001 1.000000e+001
         vertex 6.450000e+000 2.400000e+001 1.500000e+001
      endloop
   endfacet
   facet normal -2.990902e-016 1.000000e+000 0.000000e+000
      outer loop
         vertex 6.450000e+000 2.400000e+001 1.500000e+001
         vertex 6.000000e+000 2.400000e+001 1.000000e+001
         vertex 5.965926e+000 2.400000e+001 1.025882e+001
      endloop
   endfacet
   facet normal -2.990902e-016 1.000000e+000 0.000000e+000
      outer loop
         vertex 6.450000e+000 2.400000e+001 1.500000e+001
         vertex 5.965926e+000 2.400000e+001 1.025882e+001
         vertex 5.866025e+000 2.400000e+001 1.050000e+001
      endloop
   endfacet
   facet normal -1.000000e+000 0.000000e+000 0.000000e+000
      outer loop
         vertex 3.550000e+000 2.300000e+001 2.550000e+000
         vertex 3.550000e+000 2.300000e+001 1.500000e+001
         vertex 3.550000e+000 2.400000e+001 2.550000e+000
      endloop
   endfacet
   facet normal -1.000000e+000 0.000000e+000 0.000000e+000
      outer loop
         vertex 3.550000e+000 2.400000e+001 2.550000e+000
         vertex 3.550000e+000 2.300000e+001 1.500000e+001
         vertex 3.550000e+000 2.400000e+001 1.500000e+001
      endloop
   endfacet
   facet normal 0.000000e+000 1.000000e+000 0.000000e+000
      outer loop
         vertex 3.550000e+000 2.300000e+001 1.500000e+001
         vertex 3.550000e+000 2.300000e+001 2.550000e+000
         vertex 0.000000e+000 2.300000e+001 1.500000e+001
      endloop
   endfacet
   facet normal 0.000000e+000 1.000000e+000 0.000000e+000
      outer loop
         vertex 0.000000e+000 2.300000e+001 1.500000e+001
         vertex 3.550000e+000 2.300000e+001 2.550000e+000
         vertex 9.999997e-001 2.300000e+001 0.000000e+000
      endloop
   endfacet
   facet normal 0.000000e+000 1.000000e+000 0.000000e+000
      outer loop
         vertex 0.000000e+000 2.300000e+001 1.500000e+001
         vertex 9.999997e-001 2.300000e+001 0.000000e+000
         vertex 0.000000e+000 2.300000e+001 0.000000e+000
      endloop
   endfacet
   facet normal -1.000000e+000 0.000000e+000 0.000000e+000
      outer loop
         vertex 0.000000e+000 1.925882e+001 5.034074e+000
         vertex 0.000000e+000 1.950000e+001 5.133975e+000
         vertex 0.000000e+000 2.300000e+001 0.000000e+000
      endloop
   endfacet
   facet normal -1.000000e+000 0.000000e+000 0.000000e+000
      outer loop
         vertex 0.000000e+000 2.300000e+001 0.000000e+000
         vertex 0.000000e+000 1.950000e+001 5.133975e+000
         vertex 0.000000e+000 1.970711e+001 5.292893e+000
      endloop
   endfacet
   facet normal -1.000000e+000 0.000000e+000 0.000000e+000
      outer loop
         vertex 0.000000e+000 2.300000e+001 0.000000e+000
         vertex 0.000000e+000 1.970711e+001 5.292893e+000
         vertex 0.000000e+000 1.986603e+001 5.500000e+000
      endloop
   endfacet
   facet normal -1.000000e+000 0.000000e+000 0.000000e+000
      outer loop
         vertex 0.000000e+000 1.500000e+001 0.000000e+000
         vertex 0.000000e+000 1.500000e+001 5.000000e+000
         vertex 0.000000e+000 2.300000e+001 0.000000e+000
      endloop
   endfacet
   facet normal -1.000000e+000 0.000000e+000 0.000000e+000
      outer loop
         vertex 0.000000e+000 2.300000e+001 0.000000e+000
         vertex 0.000000e+000 1.500000e+001 5.000000e+000
         vertex 0.000000e+000 1.900000e+001 5.000000e+000
      endloop
   endfacet
   facet normal -1.000000e+000 0.000000e+000 0.000000e+000
      outer loop
         vertex 0.000000e+000 2.300000e+001 0.000000e+000
         vertex 0.000000e+000 1.900000e+001 5.000000e+000
         vertex 0.000000e+000 1.925882e+001 5.034074e+000
      endloop
   endfacet
   facet normal -1.000000e+000 0.000000e+000 0.000000e+000
      outer loop
         vertex 0.000000e+000 2.000000e+001 1.500000e+001
         vertex 0.000000e+000 2.300000e+001 1.500000e+001
         vertex 0.000000e+000 2.000000e+001 6.000000e+000
      endloop
   endfacet
   facet normal -1.000000e+000 0.000000e+000 0.000000e+000
      outer loop
         vertex 0.000000e+000 2.000000e+001 6.000000e+000
         vertex 0.000000e+000 2.300000e+001 1.500000e+001
         vertex 0.000000e+000 2.300000e+001 0.000000e+000
      endloop
   endfacet
   facet normal -1.000000e+000 0.000000e+000 0.000000e+000
      outer loop
         vertex 0.000000e+000 2.000000e+001 6.000000e+000
         vertex 0.000000e+000 2.300000e+001 0.000000e+000
         vertex 0.000000e+000 1.996593e+001 5.741181e+000
      endloop
   endfacet
   facet normal -1.000000e+000 0.000000e+000 0.000000e+000
      outer loop
         vertex 0.000000e+000 1.996593e+001 5.741181e+000
         vertex 0.000000e+000 2.300000e+001 0.000000e+000
         vertex 0.000000e+000 1.986603e+001 5.500000e+000
      endloop
   endfacet
   facet normal 0.000000e+000 0.000000e+000 1.000000e+000
      outer loop
         vertex 1.000000e+001 2.000000e+001 1.500000e+001
         vertex 1.000000e+001 2.300000e+001 1.500000e+001
         vertex 0.000000e+000 2.000000e+001 1.500000e+001
      endloop
   endfacet
   facet normal 0.000000e+000 0.000000e+000 1.000000e+000
      outer loop
         vertex 0.000000e+000 2.000000e+001 1.500000e+001
         vertex 1.000000e+001 2.300000e+001 1.500000e+001
         vertex 6.450000e+000 2.300000e+001 1.500000e+001
      endloop
   endfacet
   facet normal 0.000000e+000 0.000000e+000 1.000000e+000
      outer loop
         vertex 0.000000e+000 2.300000e+001 1.500000e+001
         vertex 0.000000e+000 2.000000e+001 1.500000e+001
         vertex 3.550000e+000 2.300000e+001 1.500000e+001
      endloop
   endfacet
   facet normal 0.000000e+000 0.000000e+000 1.000000e+000
      outer loop
         vertex 3.550000e+000 2.300000e+001 1.500000e+001
         vertex 0.000000e+000 2.000000e+001 1.500000e+001
         vertex 6.450000e+000 2.300000e+001 1.500000e+001
      endloop
   endfacet
   facet normal 0.000000e+000 0.000000e+000 1.000000e+000
      outer loop
         vertex 3.550000e+000 2.300000e+001 1.500000e+001
         vertex 6.450000e+000 2.300000e+001 1.500000e+001
         vertex 3.550000e+000 2.400000e+001 1.500000e+001
      endloop
   endfacet
   facet normal 0.000000e+000 0.000000e+000 1.000000e+000
      outer loop
         vertex 3.550000e+000 2.400000e+001 1.500000e+001
         vertex 6.450000e+000 2.300000e+001 1.500000e+001
         vertex 6.450000e+000 2.400000e+001 1.500000e+001
      endloop
   endfacet
   facet normal 0.000000e+000 0.000000e+000 -1.000000e+000
      outer loop
         vertex 1.000000e+001 2.300000e+001 0.000000e+000
         vertex 1.000000e+001 1.500000e+001 0.000000e+000
         vertex 9.000000e+000 2.300000e+001 0.000000e+000
      endloop
   endfacet
   facet normal 0.000000e+000 0.000000e+000 -1.000000e+000
      outer loop
         vertex 9.000000e+000 2.300000e+001 0.000000e+000
         vertex 1.000000e+001 1.500000e+001 0.000000e+000
         vertex 9.000000e+000 1.500000e+001 0.000000e+000
      endloop
   endfacet
   facet normal -8.693379e-002 0.000000e+000 -9.962141e-001
      outer loop
         vertex 5.000000e+000 2.000000e+001 1.100000e+001
         vertex 5.000000e+000 2.400000e+001 1.100000e+001
         vertex 5.258819e+000 2.000000e+001 1.096593e+001
      endloop
   endfacet
   facet normal -1.738676e-001 0.000000e+000 -9.847691e-001
      outer loop
         vertex 5.258819e+000 2.000000e+001 1.096593e+001
         vertex 5.000000e+000 2.400000e+001 1.100000e+001
         vertex 5.258819e+000 2.400000e+001 1.096593e+001
      endloop
   endfacet
   facet normal -3.418108e-001 0.000000e+000 -9.397688e-001
      outer loop
         vertex 5.258819e+000 2.000000e+001 1.096593e+001
         vertex 5.258819e+000 2.400000e+001 1.096593e+001
         vertex 5.500000e+000 2.000000e+001 1.086603e+001
      endloop
   endfacet
   facet normal -4.228202e-001 0.000000e+000 -9.062136e-001
      outer loop
         vertex 5.500000e+000 2.000000e+001 1.086603e+001
         vertex 5.258819e+000 2.400000e+001 1.096593e+001
         vertex 5.500000e+000 2.400000e+001 1.086603e+001
      endloop
   endfacet
   facet normal -5.733939e-001 0.000000e+000 -8.192798e-001
      outer loop
         vertex 5.500000e+000 2.000000e+001 1.086603e+001
         vertex 5.500000e+000 2.400000e+001 1.086603e+001
         vertex 5.707107e+000 2.000000e+001 1.070711e+001
      endloop
   endfacet
   facet normal -6.429583e-001 0.000000e+000 -7.659011e-001
      outer loop
         vertex 5.707107e+000 2.000000e+001 1.070711e+001
         vertex 5.500000e+000 2.400000e+001 1.086603e+001
         vertex 5.707107e+000 2.400000e+001 1.070711e+001
      endloop
   endfacet
   facet normal -7.659012e-001 0.000000e+000 -6.429583e-001
      outer loop
         vertex 5.707107e+000 2.000000e+001 1.070711e+001
         vertex 5.707107e+000 2.400000e+001 1.070711e+001
         vertex 5.866025e+000 2.000000e+001 1.050000e+001
      endloop
   endfacet
   facet normal -8.192798e-001 0.000000e+000 -5.733939e-001
      outer loop
         vertex 5.866025e+000 2.000000e+001 1.050000e+001
         vertex 5.707107e+000 2.400000e+001 1.070711e+001
         vertex 5.866025e+000 2.400000e+001 1.050000e+001
      endloop
   endfacet
   facet normal -9.062136e-001 0.000000e+000 -4.228202e-001
      outer loop
         vertex 5.866025e+000 2.000000e+001 1.050000e+001
         vertex 5.866025e+000 2.400000e+001 1.050000e+001
         vertex 5.965926e+000 2.000000e+001 1.025882e+001
      endloop
   endfacet
   facet normal -9.397688e-001 0.000000e+000 -3.418108e-001
      outer loop
         vertex 5.965926e+000 2.000000e+001 1.025882e+001
         vertex 5.866025e+000 2.400000e+001 1.050000e+001
         vertex 5.965926e+000 2.400000e+001 1.025882e+001
      endloop
   endfacet
   facet normal -9.847691e-001 0.000000e+000 -1.738676e-001
      outer loop
         vertex 5.965926e+000 2.000000e+001 1.025882e+001
         vertex 5.965926e+000 2.400000e+001 1.025882e+001
         vertex 6.000000e+000 2.000000e+001 1.000000e+001
      endloop
   endfacet
   facet normal -9.962141e-001 0.000000e+000 -8.693379e-002
      outer loop
         vertex 6.000000e+000 2.000000e+001 1.000000e+001
         vertex 5.965926e+000 2.400000e+001 1.025882e+001
         vertex 6.000000e+000 2.400000e+001 1.000000e+001
      endloop
   endfacet
   facet normal -9.962141e-001 0.000000e+000 8.693379e-002
      outer loop
         vertex 6.000000e+000 2.000000e+001 1.000000e+001
         vertex 6.000000e+000 2.400000e+001 1.000000e+001
         vertex 5.965926e+000 2.000000e+001 9.741180e+000
      endloop
   endfacet
   facet normal -9.847691e-001 0.000000e+000 1.738676e-001
      outer loop
         vertex 5.965926e+000 2.000000e+001 9.741180e+000
         vertex 6.000000e+000 2.400000e+001 1.000000e+001
         vertex 5.965926e+000 2.400000e+001 9.741180e+000
      endloop
   endfacet
   facet normal -9.397688e-001 0.000000e+000 3.418108e-001
      outer loop
         vertex 5.965926e+000 2.000000e+001 9.741180e+000
         vertex 5.965926e+000 2.400000e+001 9.741180e+000
         vertex 5.866025e+000 2.000000e+001 9.500000e+000
      endloop
   endfacet
   facet normal -9.062136e-001 0.000000e+000 4.228202e-001
      outer loop
         vertex 5.866025e+000 2.000000e+001 9.500000e+000
         vertex 5.965926e+000 2.400000e+001 9.741180e+000
         vertex 5.866025e+000 2.400000e+001 9.500000e+000
      endloop
   endfacet
   facet normal -8.192798e-001 0.000000e+000 5.733939e-001
      outer loop
         vertex 5.866025e+000 2.000000e+001 9.500000e+000
         vertex 5.866025e+000 2.400000e+001 9.500000e+000
         vertex 5.707107e+000 2.000000e+001 9.292893e+000
      endloop
   endfacet
   facet normal -7.659011e-001 0.000000e+000 6.429583e-001
      outer loop
         vertex 5.707107e+000 2.000000e+001 9.292893e+000
         vertex 5.866025e+000 2.400000e+001 9.500000e+000
         vertex 5.707107e+000 2.400000e+001 9.292893e+000
      endloop
   endfacet
   facet normal -6.429583e-001 0.000000e+000 7.659012e-001
      outer loop
         vertex 5.707107e+000 2.000000e+001 9.292893e+000
         vertex 5.707107e+000 2.400000e+001 9.292893e+000
         vertex 5.500000e+000 2.000000e+001 9.133975e+000
      endloop
   endfacet
   facet normal -5.733939e-001 0.000000e+000 8.192798e-001
      outer loop
         vertex 5.500000e+000 2.000000e+001 9.133975e+000
         vertex 5.707107e+000 2.400000e+001 9.292893e+000
         vertex 5.500000e+000 2.400000e+001 9.133975e+000
      endloop
   endfacet
   facet normal -4.228202e-001 0.000000e+000 9.062136e-001
      outer loop
         vertex 5.500000e+000 2.000000e+001 9.133975e+000
         vertex 5.500000e+000 2.400000e+001 9.133975e+000
         vertex 5.258819e+000 2.000000e+001 9.034074e+000
      endloop
   endfacet
   facet normal -3.418108e-001 0.000000e+000 9.397688e-001
      outer loop
         vertex 5.258819e+000 2.000000e+001 9.034074e+000
         vertex 5.500000e+000 2.400000e+001 9.133975e+000
         vertex 5.258819e+000 2.400000e+001 9.034074e+000
      endloop
   endfacet
   facet normal -1.738676e-001 0.000000e+000 9.847691e-001
      outer loop
         vertex 5.258819e+000 2.000000e+001 9.034074e+000
         vertex 5.258819e+000 2.400000e+001 9.034074e+000
         vertex 5.000000e+000 2.000000e+001 9.000000e+000
      endloop
   endfacet
   facet normal -8.693379e-002 0.000000e+000 9.962141e-001
      outer loop
         vertex 5.000000e+000 2.000000e+001 9.000000e+000
         vertex 5.258819e+000 2.400000e+001 9.034074e+000
         vertex 5.000000e+000 2.400000e+001 9.000000e+000
      endloop
   endfacet
   facet normal 8.693379e-002 0.000000e+000 9.962141e-001
      outer loop
         vertex 5.000000e+000 2.000000e+001 9.000000e+000
         vertex 5.000000e+000 2.400000e+001 9.000000e+000
         vertex 4.741181e+000 2.000000e+001 9.034074e+000
      endloop
   endfacet
   facet normal 1.738676e-001 0.000000e+000 9.847691e-001
      outer loop
         vertex 4.741181e+000 2.000000e+001 9.034074e+000
         vertex 5.000000e+000 2.400000e+001 9.000000e+000
         vertex 4.741181e+000 2.400000e+001 9.034074e+000
      endloop
   endfacet
   facet normal 3.418108e-001 0.000000e+000 9.397688e-001
      outer loop
         vertex 4.741181e+000 2.000000e+001 9.034074e+000
         vertex 4.741181e+000 2.400000e+001 9.034074e+000
         vertex 4.500000e+000 2.000000e+001 9.133975e+000
      endloop
   endfacet
   facet normal 4.228202e-001 0.000000e+000 9.062136e-001
      outer loop
         vertex 4.500000e+000 2.000000e+001 9.133975e+000
         vertex 4.741181e+000 2.400000e+001 9.034074e+000
         vertex 4.500000e+000 2.400000e+001 9.133975e+000
      endloop
   endfacet
   facet normal 5.733939e-001 0.000000e+000 8.192798e-001
      outer loop
         vertex 4.500000e+000 2.000000e+001 9.133975e+000
         vertex 4.500000e+000 2.400000e+001 9.133975e+000
         vertex 4.292893e+000 2.000000e+001 9.292893e+000
      endloop
   endfacet
   facet normal 6.429583e-001 0.000000e+000 7.659011e-001
      outer loop
         vertex 4.292893e+000 2.000000e+001 9.292893e+000
         vertex 4.500000e+000 2.400000e+001 9.133975e+000
         vertex 4.292893e+000 2.400000e+001 9.292893e+000
      endloop
   endfacet
   facet normal 7.659012e-001 0.000000e+000 6.429583e-001
      outer loop
         vertex 4.292893e+000 2.000000e+001 9.292893e+000
         vertex 4.292893e+000 2.400000e+001 9.292893e+000
         vertex 4.133975e+000 2.000000e+001 9.500000e+000
      endloop
   endfacet
   facet normal 8.192798e-001 0.000000e+000 5.733939e-001
      outer loop
         vertex 4.133975e+000 2.000000e+001 9.500000e+000
         vertex 4.292893e+000 2.400000e+001 9.292893e+000
         vertex 4.133975e+000 2.400000e+001 9.500000e+000
      endloop
   endfacet
   facet normal 9.062136e-001 0.000000e+000 4.228202e-001
      outer loop
         vertex 4.133975e+000 2.000000e+001 9.500000e+000
         vertex 4.133975e+000 2.400000e+001 9.500000e+000
         vertex 4.034074e+000 2.000000e+001 9.741180e+000
      endloop
   endfacet
   facet normal 9.397688e-001 0.000000e+000 3.418108e-001
      outer loop
         vertex 4.034074e+000 2.000000e+001 9.741180e+000
         vertex 4.133975e+000 2.400000e+001 9.500000e+000
         vertex 4.034074e+000 2.400000e+001 9.741180e+000
      endloop
   endfacet
   facet normal 9.847691e-001 0.000000e+000 1.738676e-001
      outer loop
         vertex 4.034074e+000 2.000000e+001 9.741180e+000
         vertex 4.034074e+000 2.400000e+001 9.741180e+000
         vertex 4.000000e+000 2.000000e+001 1.000000e+001
      endloop
   endfacet
   facet normal 9.962141e-001 0.000000e+000 8.693379e-002
      outer loop
         vertex 4.000000e+000 2.000000e+001 1.000000e+001
         vertex 4.034074e+000 2.400000e+001 9.741180e+000
         vertex 4.000000e+000 2.400000e+001 1.000000e+001
      endloop
   endfacet
   facet normal 9.962141e-001 0.000000e+000 -8.693379e-002
      outer loop
         vertex 4.000000e+000 2.000000e+001 1.000000e+001
         vertex 4.000000e+000 2.400000e+001 1.000000e+001
         vertex 4.034074e+000 2.000000e+001 1.025882e+001
      endloop
   endfacet
   facet normal 9.847691e-001 0.000000e+000 -1.738676e-001
      outer loop
         vertex 4.034074e+000 2.000000e+001 1.025882e+001
         vertex 4.000000e+000 2.400000e+001 1.000000e+001
         vertex 4.034074e+000 2.400000e+001 1.025882e+001
      endloop
   endfacet
   facet normal 9.397688e-001 0.000000e+000 -3.418108e-001
      outer loop
         vertex 4.034074e+000 2.000000e+001 1.025882e+001
         vertex 4.034074e+000 2.400000e+001 1.025882e+001
         vertex 4.133975e+000 2.000000e+001 1.050000e+001
      endloop
   endfacet
   facet normal 9.062136e-001 0.000000e+000 -4.228202e-001
      outer loop
         vertex 4.133975e+000 2.000000e+001 1.050000e+001
         vertex 4.034074e+000 2.400000e+001 1.025882e+001
         vertex 4.133975e+000 2.400000e+001 1.050000e+001
      endloop
   endfacet
   facet normal 8.192798e-001 0.000000e+000 -5.733939e-001
      outer loop
         vertex 4.133975e+000 2.000000e+001 1.050000e+001
         vertex 4.133975e+000 2.400000e+001 1.050000e+001
         vertex 4.292893e+000 2.000000e+001 1.070711e+001
      endloop
   endfacet
   facet normal 7.659011e-001 0.000000e+000 -6.429583e-001
      outer loop
         vertex 4.292893e+000 2.000000e+001 1.070711e+001
         vertex 4.133975e+000 2.400000e+001 1.050000e+001
         vertex 4.292893e+000 2.400000e+001 1.070711e+001
      endloop
   endfacet
   facet normal 6.429583e-001 0.000000e+000 -7.659012e-001
      outer loop
         vertex 4.292893e+000 2.000000e+001 1.070711e+001
         vertex 4.292893e+000 2.400000e+001 1.070711e+001
         vertex 4.500000e+000 2.000000e+001 1.086603e+001
      endloop
   endfacet
   facet normal 5.733939e-001 0.000000e+000 -8.192798e-001
      outer loop
         vertex 4.500000e+000 2.000000e+001 1.086603e+001
         vertex 4.292893e+000 2.400000e+001 1.070711e+001
         vertex 4.500000e+000 2.400000e+001 1.086603e+001
      endloop
   endfacet
   facet normal 4.228202e-001 0.000000e+000 -9.062136e-001
      outer loop
         vertex 4.500000e+000 2.000000e+001 1.086603e+001
         vertex 4.500000e+000 2.400000e+001 1.086603e+001
         vertex 4.741181e+000 2.000000e+001 1.096593e+001
      endloop
   endfacet
   facet normal 3.418108e-001 0.000000e+000 -9.397688e-001
      outer loop
         vertex 4.741181e+000 2.000000e+001 1.096593e+001
         vertex 4.500000e+000 2.400000e+001 1.086603e+001
         vertex 4.741181e+000 2.400000e+001 1.096593e+001
      endloop
   endfacet
   facet normal 1.738676e-001 0.000000e+000 -9.847691e-001
      outer loop
         vertex 4.741181e+000 2.000000e+001 1.096593e+001
         vertex 4.741181e+000 2.400000e+001 1.096593e+001
         vertex 5.000000e+000 2.000000e+001 1.100000e+001
      endloop
   endfacet
   facet normal 8.693379e-002 0.000000e+000 -9.962141e-001
      outer loop
         vertex 5.000000e+000 2.000000e+001 1.100000e+001
         vertex 4.741181e+000 2.400000e+001 1.096593e+001
         vertex 5.000000e+000 2.400000e+001 1.100000e+001
      endloop
   endfacet
   facet normal 7.071068e-001 7.666467e-017 -7.071068e-001
      outer loop
         vertex 3.550000e+000 2.400000e+001 2.550000e+000
         vertex 5.000000e+000 2.400000e+001 4.000000e+000
         vertex 3.550000e+000 2.300000e+001 2.550000e+000
      endloop
   endfacet
   facet normal 7.071068e-001 7.666467e-017 -7.071068e-001
      outer loop
         vertex 3.550000e+000 2.300000e+001 2.550000e+000
         vertex 5.000000e+000 2.400000e+001 4.000000e+000
         vertex 5.000000e+000 1.500000e+001 4.000000e+000
      endloop
   endfacet
   facet normal 7.071068e-001 7.666467e-017 -7.071068e-001
      outer loop
         vertex 3.550000e+000 2.300000e+001 2.550000e+000
         vertex 5.000000e+000 1.500000e+001 4.000000e+000
         vertex 9.999997e-001 2.300000e+001 3.794708e-016
      endloop
   endfacet
   facet normal 7.071068e-001 7.666467e-017 -7.071068e-001
      outer loop
         vertex 9.999997e-001 2.300000e+001 3.794708e-016
         vertex 5.000000e+000 1.500000e+001 4.000000e+000
         vertex 9.999997e-001 1.500000e+001 -5.421011e-017
      endloop
   endfacet
   facet normal -7.071068e-001 -7.666467e-017 -7.071068e-001
      outer loop
         vertex 5.000000e+000 2.400000e+001 4.000000e+000
         vertex 6.450000e+000 2.400000e+001 2.550000e+000
         vertex 6.450000e+000 2.300000e+001 2.550000e+000
      endloop
   endfacet
   facet normal -7.071068e-001 -7.666467e-017 -7.071068e-001
      outer loop
         vertex 9.000000e+000 2.300000e+001 5.421011e-017
         vertex 9.000000e+000 1.500000e+001 -3.794708e-016
         vertex 6.450000e+000 2.300000e+001 2.550000e+000
      endloop
   endfacet
   facet normal -7.071068e-001 -7.666467e-017 -7.071068e-001
      outer loop
         vertex 6.450000e+000 2.300000e+001 2.550000e+000
         vertex 9.000000e+000 1.500000e+001 -3.794708e-016
         vertex 5.000000e+000 1.500000e+001 4.000000e+000
      endloop
   endfacet
   facet normal -7.071068e-001 -7.666467e-017 -7.071068e-001
      outer loop
         vertex 6.450000e+000 2.300000e+001 2.550000e+000
         vertex 5.000000e+000 1.500000e+001 4.000000e+000
         vertex 5.000000e+000 2.400000e+001 4.000000e+000
      endloop
   endfacet
   facet normal 0.000000e+000 0.000000e+000 1.000000e+000
      outer loop
         vertex 0.000000e+000 1.900000e+001 5.000000e+000
         vertex 0.000000e+000 1.500000e+001 5.000000e+000
         vertex 1.000000e+001 1.900000e+001 5.000000e+000
      endloop
   endfacet
   facet normal 0.000000e+000 0.000000e+000 1.000000e+000
      outer loop
         vertex 1.000000e+001 1.900000e+001 5.000000e+000
         vertex 0.000000e+000 1.500000e+001 5.000000e+000
         vertex 1.000000e+001 1.500000e+001 5.000000e+000
      endloop
   endfacet
   facet normal 1.084202e-016 -1.000000e+000 -2.256949e-033
      outer loop
         vertex 5.000000e+000 1.500000e+001 4.000000e+000
         vertex 9.000000e+000 1.500000e+001 0.000000e+000
         vertex 1.000000e+001 1.500000e+001 3.753958e-018
      endloop
   endfacet
   facet normal 1.084202e-016 -1.000000e+000 -2.256949e-033
      outer loop
         vertex 0.000000e+000 1.500000e+001 0.000000e+000
         vertex 9.999997e-001 1.500000e+001 1.084202e-016
         vertex 0.000000e+000 1.500000e+001 5.000000e+000
      endloop
   endfacet
   facet normal 1.084202e-016 -1.000000e+000 -2.256949e-033
      outer loop
         vertex 0.000000e+000 1.500000e+001 5.000000e+000
         vertex 9.999997e-001 1.500000e+001 1.084202e-016
         vertex 5.000000e+000 1.500000e+001 4.000000e+000
      endloop
   endfacet
   facet normal 1.084202e-016 -1.000000e+000 -2.256949e-033
      outer loop
         vertex 0.000000e+000 1.500000e+001 5.000000e+000
         vertex 5.000000e+000 1.500000e+001 4.000000e+000
         vertex 1.000000e+001 1.500000e+001 5.000000e+000
      endloop
   endfacet
   facet normal 1.084202e-016 -1.000000e+000 -2.256949e-033
      outer loop
         vertex 1.000000e+001 1.500000e+001 5.000000e+000
         vertex 5.000000e+000 1.500000e+001 4.000000e+000
         vertex 1.000000e+001 1.500000e+001 3.753958e-018
      endloop
   endfacet
   facet normal 9.425381e-018 -8.693379e-002 9.962141e-001
      outer loop
         vertex 0.000000e+000 1.900000e+001 5.000000e+000
         vertex 1.000000e+001 1.900000e+001 5.000000e+000
         vertex 0.000000e+000 1.925882e+001 5.034074e+000
      endloop
   endfacet
   facet normal 1.885076e-017 -1.738676e-001 9.847691e-001
      outer loop
         vertex 0.000000e+000 1.925882e+001 5.034074e+000
         vertex 1.000000e+001 1.900000e+001 5.000000e+000
         vertex 1.000000e+001 1.925882e+001 5.034074e+000
      endloop
   endfacet
   facet normal 3.705920e-017 -3.418108e-001 9.397688e-001
      outer loop
         vertex 0.000000e+000 1.925882e+001 5.034074e+000
         vertex 1.000000e+001 1.925882e+001 5.034074e+000
         vertex 0.000000e+000 1.950000e+001 5.133975e+000
      endloop
   endfacet
   facet normal 4.584225e-017 -4.228202e-001 9.062136e-001
      outer loop
         vertex 0.000000e+000 1.950000e+001 5.133975e+000
         vertex 1.000000e+001 1.925882e+001 5.034074e+000
         vertex 1.000000e+001 1.950000e+001 5.133975e+000
      endloop
   endfacet
   facet normal 6.216750e-017 -5.733939e-001 8.192798e-001
      outer loop
         vertex 0.000000e+000 1.950000e+001 5.133975e+000
         vertex 1.000000e+001 1.950000e+001 5.133975e+000
         vertex 0.000000e+000 1.970711e+001 5.292893e+000
      endloop
   endfacet
   facet normal 6.970968e-017 -6.429583e-001 7.659011e-001
      outer loop
         vertex 0.000000e+000 1.970711e+001 5.292893e+000
         vertex 1.000000e+001 1.950000e+001 5.133975e+000
         vertex 1.000000e+001 1.970711e+001 5.292893e+000
      endloop
   endfacet
   facet normal 8.303918e-017 -7.659012e-001 6.429583e-001
      outer loop
         vertex 0.000000e+000 1.970711e+001 5.292893e+000
         vertex 1.000000e+001 1.970711e+001 5.292893e+000
         vertex 0.000000e+000 1.986603e+001 5.500000e+000
      endloop
   endfacet
   facet normal 8.882651e-017 -8.192798e-001 5.733939e-001
      outer loop
         vertex 0.000000e+000 1.986603e+001 5.500000e+000
         vertex 1.000000e+001 1.970711e+001 5.292893e+000
         vertex 1.000000e+001 1.986603e+001 5.500000e+000
      endloop
   endfacet
   facet normal 9.825187e-017 -9.062136e-001 4.228202e-001
      outer loop
         vertex 0.000000e+000 1.986603e+001 5.500000e+000
         vertex 1.000000e+001 1.986603e+001 5.500000e+000
         vertex 0.000000e+000 1.996593e+001 5.741181e+000
      endloop
   endfacet
   facet normal 1.018899e-016 -9.397688e-001 3.418108e-001
      outer loop
         vertex 0.000000e+000 1.996593e+001 5.741181e+000
         vertex 1.000000e+001 1.986603e+001 5.500000e+000
         vertex 1.000000e+001 1.996593e+001 5.741181e+000
      endloop
   endfacet
   facet normal 1.067689e-016 -9.847691e-001 1.738676e-001
      outer loop
         vertex 0.000000e+000 1.996593e+001 5.741181e+000
         vertex 1.000000e+001 1.996593e+001 5.741181e+000
         vertex 0.000000e+000 2.000000e+001 6.000000e+000
      endloop
   endfacet
   facet normal 1.080098e-016 -9.962141e-001 8.693379e-002
      outer loop
         vertex 0.000000e+000 2.000000e+001 6.000000e+000
         vertex 1.000000e+001 1.996593e+001 5.741181e+000
         vertex 1.000000e+001 2.000000e+001 6.000000e+000
      endloop
   endfacet
endsolid