solid MakerBeamBlocker45deg
   facet normal 1.084202e-016 -1.000000e+000 0.000000e+000
      outer loop
         vertex 6.575693e+000 5.000000e+000 9.722163e+000
         vertex 6.503508e+000 5.000000e+000 9.452767e+000
         vertex 1.000000e+001 5.000000e+000 6.000000e+000
      endloop
   endfacet
   facet normal 1.084202e-016 -1.000000e+000 0.000000e+000
      outer loop
         vertex 1.000000e+001 5.000000e+000 6.000000e+000
         vertex 6.503508e+000 5.000000e+000 9.452767e+000
         vertex 6.385641e+000 5.000000e+000 9.200000e+000
      endloop
   endfacet
   facet normal 1.084202e-016 -1.000000e+000 0.000000e+000
      outer loop
         vertex 1.000000e+001 5.000000e+000 6.000000e+000
         vertex 6.385641e+000 5.000000e+000 9.200000e+000
         vertex 6.225671e+000 5.000000e+000 8.971540e+000
      endloop
   endfacet
   facet normal 1.084202e-016 -1.000000e+000 0.000000e+000
      outer loop
         vertex 5.547232e+000 5.000000e+000 1.150351e+001
         vertex 5.800000e+000 5.000000e+000 1.138564e+001
         vertex 1.000000e+001 5.000000e+000 1.500000e+001
      endloop
   endfacet
   facet normal 1.084202e-016 -1.000000e+000 0.000000e+000
      outer loop
         vertex 6.225671e+000 5.000000e+000 8.971540e+000
         vertex 6.028461e+000 5.000000e+000 8.774329e+000
         vertex 1.000000e+001 5.000000e+000 6.000000e+000
      endloop
   endfacet
   facet normal 1.084202e-016 -1.000000e+000 0.000000e+000
      outer loop
         vertex 1.000000e+001 5.000000e+000 6.000000e+000
         vertex 6.028461e+000 5.000000e+000 8.774329e+000
         vertex 5.800000e+000 5.000000e+000 8.614360e+000
      endloop
   endfacet
   facet normal 1.084202e-016 -1.000000e+000 0.000000e+000
      outer loop
         vertex 1.000000e+001 5.000000e+000 6.000000e+000
         vertex 5.800000e+000 5.000000e+000 8.614360e+000
         vertex 5.547232e+000 5.000000e+000 8.496492e+000
      endloop
   endfacet
   facet normal 1.084202e-016 -1.000000e+000 0.000000e+000
      outer loop
         vertex 3.496492e+000 5.000000e+000 9.452767e+000
         vertex 0.000000e+000 5.000000e+000 6.000000e+000
         vertex 3.614359e+000 5.000000e+000 9.200000e+000
      endloop
   endfacet
   facet normal 1.084202e-016 -1.000000e+000 0.000000e+000
      outer loop
         vertex 3.614359e+000 5.000000e+000 9.200000e+000
         vertex 0.000000e+000 5.000000e+000 6.000000e+000
         vertex 3.774329e+000 5.000000e+000 8.971540e+000
      endloop
   endfacet
   facet normal 1.084202e-016 -1.000000e+000 0.000000e+000
      outer loop
         vertex 3.774329e+000 5.000000e+000 1.102846e+001
         vertex 0.000000e+000 5.000000e+000 1.500000e+001
         vertex 3.614359e+000 5.000000e+000 1.080000e+001
      endloop
   endfacet
   facet normal 1.084202e-016 -1.000000e+000 0.000000e+000
      outer loop
         vertex 3.614359e+000 5.000000e+000 1.080000e+001
         vertex 0.000000e+000 5.000000e+000 1.500000e+001
         vertex 3.496492e+000 5.000000e+000 1.054723e+001
      endloop
   endfacet
   facet normal 1.084202e-016 -1.000000e+000 0.000000e+000
      outer loop
         vertex 5.547232e+000 5.000000e+000 8.496492e+000
         vertex 5.277837e+000 5.000000e+000 8.424307e+000
         vertex 1.000000e+001 5.000000e+000 6.000000e+000
      endloop
   endfacet
   facet normal 1.084202e-016 -1.000000e+000 0.000000e+000
      outer loop
         vertex 1.000000e+001 5.000000e+000 6.000000e+000
         vertex 5.277837e+000 5.000000e+000 8.424307e+000
         vertex 5.000000e+000 5.000000e+000 8.400000e+000
      endloop
   endfacet
   facet normal 1.084202e-016 -1.000000e+000 0.000000e+000
      outer loop
         vertex 1.000000e+001 5.000000e+000 6.000000e+000
         vertex 5.000000e+000 5.000000e+000 8.400000e+000
         vertex 0.000000e+000 5.000000e+000 6.000000e+000
      endloop
   endfacet
   facet normal 1.084202e-016 -1.000000e+000 0.000000e+000
      outer loop
         vertex 0.000000e+000 5.000000e+000 6.000000e+000
         vertex 5.000000e+000 5.000000e+000 8.400000e+000
         vertex 4.722163e+000 5.000000e+000 8.424307e+000
      endloop
   endfacet
   facet normal 1.084202e-016 -1.000000e+000 0.000000e+000
      outer loop
         vertex 0.000000e+000 5.000000e+000 6.000000e+000
         vertex 4.722163e+000 5.000000e+000 8.424307e+000
         vertex 4.452768e+000 5.000000e+000 8.496492e+000
      endloop
   endfacet
   facet normal 1.084202e-016 -1.000000e+000 0.000000e+000
      outer loop
         vertex 4.452768e+000 5.000000e+000 8.496492e+000
         vertex 4.200000e+000 5.000000e+000 8.614360e+000
         vertex 0.000000e+000 5.000000e+000 6.000000e+000
      endloop
   endfacet
   facet normal 1.084202e-016 -1.000000e+000 0.000000e+000
      outer loop
         vertex 0.000000e+000 5.000000e+000 6.000000e+000
         vertex 4.200000e+000 5.000000e+000 8.614360e+000
         vertex 3.971539e+000 5.000000e+000 8.774329e+000
      endloop
   endfacet
   facet normal 1.084202e-016 -1.000000e+000 0.000000e+000
      outer loop
         vertex 0.000000e+000 5.000000e+000 6.000000e+000
         vertex 3.971539e+000 5.000000e+000 8.774329e+000
         vertex 3.774329e+000 5.000000e+000 8.971540e+000
      endloop
   endfacet
   facet normal 1.084202e-016 -1.000000e+000 0.000000e+000
      outer loop
         vertex 3.496492e+000 5.000000e+000 9.452767e+000
         vertex 3.424307e+000 5.000000e+000 9.722163e+000
         vertex 0.000000e+000 5.000000e+000 6.000000e+000
      endloop
   endfacet
   facet normal 1.084202e-016 -1.000000e+000 0.000000e+000
      outer loop
         vertex 0.000000e+000 5.000000e+000 6.000000e+000
         vertex 3.424307e+000 5.000000e+000 9.722163e+000
         vertex 3.400000e+000 5.000000e+000 1.000000e+001
      endloop
   endfacet
   facet normal 1.084202e-016 -1.000000e+000 0.000000e+000
      outer loop
         vertex 0.000000e+000 5.000000e+000 6.000000e+000
         vertex 3.400000e+000 5.000000e+000 1.000000e+001
         vertex 0.000000e+000 5.000000e+000 1.500000e+001
      endloop
   endfacet
   facet normal 1.084202e-016 -1.000000e+000 0.000000e+000
      outer loop
         vertex 0.000000e+000 5.000000e+000 1.500000e+001
         vertex 3.400000e+000 5.000000e+000 1.000000e+001
         vertex 3.424307e+000 5.000000e+000 1.027784e+001
      endloop
   endfacet
   facet normal 1.084202e-016 -1.000000e+000 0.000000e+000
      outer loop
         vertex 0.000000e+000 5.000000e+000 1.500000e+001
         vertex 3.424307e+000 5.000000e+000 1.027784e+001
         vertex 3.496492e+000 5.000000e+000 1.054723e+001
      endloop
   endfacet
   facet normal 1.084202e-016 -1.000000e+000 0.000000e+000
      outer loop
         vertex 3.774329e+000 5.000000e+000 1.102846e+001
         vertex 3.971539e+000 5.000000e+000 1.122567e+001
         vertex 0.000000e+000 5.000000e+000 1.500000e+001
      endloop
   endfacet
   facet normal 1.084202e-016 -1.000000e+000 0.000000e+000
      outer loop
         vertex 0.000000e+000 5.000000e+000 1.500000e+001
         vertex 3.971539e+000 5.000000e+000 1.122567e+001
         vertex 4.200000e+000 5.000000e+000 1.138564e+001
      endloop
   endfacet
   facet normal 1.084202e-016 -1.000000e+000 0.000000e+000
      outer loop
         vertex 0.000000e+000 5.000000e+000 1.500000e+001
         vertex 4.200000e+000 5.000000e+000 1.138564e+001
         vertex 4.452768e+000 5.000000e+000 1.150351e+001
      endloop
   endfacet
   facet normal 1.084202e-016 -1.000000e+000 0.000000e+000
      outer loop
         vertex 5.800000e+000 5.000000e+000 1.138564e+001
         vertex 6.028461e+000 5.000000e+000 1.122567e+001
         vertex 1.000000e+001 5.000000e+000 1.500000e+001
      endloop
   endfacet
   facet normal 1.084202e-016 -1.000000e+000 0.000000e+000
      outer loop
         vertex 1.000000e+001 5.000000e+000 1.500000e+001
         vertex 6.028461e+000 5.000000e+000 1.122567e+001
         vertex 6.225671e+000 5.000000e+000 1.102846e+001
      endloop
   endfacet
   facet normal 1.084202e-016 -1.000000e+000 0.000000e+000
      outer loop
         vertex 1.000000e+001 5.000000e+000 1.500000e+001
         vertex 6.225671e+000 5.000000e+000 1.102846e+001
         vertex 6.385641e+000 5.000000e+000 1.080000e+001
      endloop
   endfacet
   facet normal 1.084202e-016 -1.000000e+000 0.000000e+000
      outer loop
         vertex 6.385641e+000 5.000000e+000 1.080000e+001
         vertex 6.503508e+000 5.000000e+000 1.054723e+001
         vertex 1.000000e+001 5.000000e+000 1.500000e+001
      endloop
   endfacet
   facet normal 1.084202e-016 -1.000000e+000 0.000000e+000
      outer loop
         vertex 1.000000e+001 5.000000e+000 1.500000e+001
         vertex 6.503508e+000 5.000000e+000 1.054723e+001
         vertex 6.575693e+000 5.000000e+000 1.027784e+001
      endloop
   endfacet
   facet normal 1.084202e-016 -1.000000e+000 0.000000e+000
      outer loop
         vertex 1.000000e+001 5.000000e+000 1.500000e+001
         vertex 6.575693e+000 5.000000e+000 1.027784e+001
         vertex 1.000000e+001 5.000000e+000 6.000000e+000
      endloop
   endfacet
   facet normal 1.084202e-016 -1.000000e+000 0.000000e+000
      outer loop
         vertex 1.000000e+001 5.000000e+000 6.000000e+000
         vertex 6.575693e+000 5.000000e+000 1.027784e+001
         vertex 6.600000e+000 5.000000e+000 1.000000e+001
      endloop
   endfacet
   facet normal 1.084202e-016 -1.000000e+000 0.000000e+000
      outer loop
         vertex 1.000000e+001 5.000000e+000 6.000000e+000
         vertex 6.600000e+000 5.000000e+000 1.000000e+001
         vertex 6.575693e+000 5.000000e+000 9.722163e+000
      endloop
   endfacet
   facet normal 1.084202e-016 -1.000000e+000 0.000000e+000
      outer loop
         vertex 4.452768e+000 5.000000e+000 1.150351e+001
         vertex 4.722163e+000 5.000000e+000 1.157569e+001
         vertex 0.000000e+000 5.000000e+000 1.500000e+001
      endloop
   endfacet
   facet normal 1.084202e-016 -1.000000e+000 0.000000e+000
      outer loop
         vertex 0.000000e+000 5.000000e+000 1.500000e+001
         vertex 4.722163e+000 5.000000e+000 1.157569e+001
         vertex 5.000000e+000 5.000000e+000 1.160000e+001
      endloop
   endfacet
   facet normal 1.084202e-016 -1.000000e+000 0.000000e+000
      outer loop
         vertex 0.000000e+000 5.000000e+000 1.500000e+001
         vertex 5.000000e+000 5.000000e+000 1.160000e+001
         vertex 1.000000e+001 5.000000e+000 1.500000e+001
      endloop
   endfacet
   facet normal 1.084202e-016 -1.000000e+000 0.000000e+000
      outer loop
         vertex 1.000000e+001 5.000000e+000 1.500000e+001
         vertex 5.000000e+000 5.000000e+000 1.160000e+001
         vertex 5.277837e+000 5.000000e+000 1.157569e+001
      endloop
   endfacet
   facet normal 1.084202e-016 -1.000000e+000 0.000000e+000
      outer loop
         vertex 1.000000e+001 5.000000e+000 1.500000e+001
         vertex 5.277837e+000 5.000000e+000 1.157569e+001
         vertex 5.547232e+000 5.000000e+000 1.150351e+001
      endloop
   endfacet
   facet normal 0.000000e+000 0.000000e+000 -1.000000e+000
      outer loop
         vertex 0.000000e+000 0.000000e+000 0.000000e+000
         vertex 0.000000e+000 8.000000e+000 0.000000e+000
         vertex 9.999997e-001 0.000000e+000 0.000000e+000
      endloop
   endfacet
   facet normal 0.000000e+000 0.000000e+000 -1.000000e+000
      outer loop
         vertex 9.999997e-001 0.000000e+000 0.000000e+000
         vertex 0.000000e+000 8.000000e+000 0.000000e+000
         vertex 9.999997e-001 8.000000e+000 0.000000e+000
      endloop
   endfacet
   facet normal 1.000000e+000 1.301043e-015 0.000000e+000
      outer loop
         vertex 6.450000e+000 9.000000e+000 1.067639e+001
         vertex 6.450000e+000 9.000000e+000 1.500000e+001
         vertex 6.450000e+000 8.000000e+000 1.067639e+001
      endloop
   endfacet
   facet normal 1.000000e+000 1.301043e-015 0.000000e+000
      outer loop
         vertex 6.450000e+000 8.000000e+000 1.067639e+001
         vertex 6.450000e+000 9.000000e+000 1.500000e+001
         vertex 6.450000e+000 8.000000e+000 1.500000e+001
      endloop
   endfacet
   facet normal -2.990902e-016 1.000000e+000 0.000000e+000
      outer loop
         vertex 3.614359e+000 9.000000e+000 1.080000e+001
         vertex 3.550000e+000 9.000000e+000 1.067639e+001
         vertex 3.550000e+000 9.000000e+000 1.500000e+001
      endloop
   endfacet
   facet normal -2.990902e-016 1.000000e+000 0.000000e+000
      outer loop
         vertex 6.225671e+000 9.000000e+000 1.102846e+001
         vertex 6.450000e+000 9.000000e+000 1.500000e+001
         vertex 6.385641e+000 9.000000e+000 1.080000e+001
      endloop
   endfacet
   facet normal -2.990902e-016 1.000000e+000 0.000000e+000
      outer loop
         vertex 6.385641e+000 9.000000e+000 1.080000e+001
         vertex 6.450000e+000 9.000000e+000 1.500000e+001
         vertex 6.450000e+000 9.000000e+000 1.067639e+001
      endloop
   endfacet
   facet normal -2.990902e-016 1.000000e+000 0.000000e+000
      outer loop
         vertex 6.225671e+000 9.000000e+000 1.102846e+001
         vertex 6.028461e+000 9.000000e+000 1.122567e+001
         vertex 6.450000e+000 9.000000e+000 1.500000e+001
      endloop
   endfacet
   facet normal -2.990902e-016 1.000000e+000 0.000000e+000
      outer loop
         vertex 6.450000e+000 9.000000e+000 1.500000e+001
         vertex 6.028461e+000 9.000000e+000 1.122567e+001
         vertex 5.800000e+000 9.000000e+000 1.138564e+001
      endloop
   endfacet
   facet normal -2.990902e-016 1.000000e+000 0.000000e+000
      outer loop
         vertex 6.450000e+000 9.000000e+000 1.500000e+001
         vertex 5.800000e+000 9.000000e+000 1.138564e+001
         vertex 5.547232e+000 9.000000e+000 1.150351e+001
      endloop
   endfacet
   facet normal -2.990902e-016 1.000000e+000 0.000000e+000
      outer loop
         vertex 3.550000e+000 9.000000e+000 1.500000e+001
         vertex 4.452768e+000 9.000000e+000 1.150351e+001
         vertex 4.200000e+000 9.000000e+000 1.138564e+001
      endloop
   endfacet
   facet normal -2.990902e-016 1.000000e+000 0.000000e+000
      outer loop
         vertex 4.200000e+000 9.000000e+000 1.138564e+001
         vertex 3.971539e+000 9.000000e+000 1.122567e+001
         vertex 3.550000e+000 9.000000e+000 1.500000e+001
      endloop
   endfacet
   facet normal -2.990902e-016 1.000000e+000 0.000000e+000
      outer loop
         vertex 3.550000e+000 9.000000e+000 1.500000e+001
         vertex 3.971539e+000 9.000000e+000 1.122567e+001
         vertex 3.774329e+000 9.000000e+000 1.102846e+001
      endloop
   endfacet
   facet normal -2.990902e-016 1.000000e+000 0.000000e+000
      outer loop
         vertex 3.550000e+000 9.000000e+000 1.500000e+001
         vertex 3.774329e+000 9.000000e+000 1.102846e+001
         vertex 3.614359e+000 9.000000e+000 1.080000e+001
      endloop
   endfacet
   facet normal -2.990902e-016 1.000000e+000 0.000000e+000
      outer loop
         vertex 5.547232e+000 9.000000e+000 1.150351e+001
         vertex 5.277837e+000 9.000000e+000 1.157569e+001
         vertex 6.450000e+000 9.000000e+000 1.500000e+001
      endloop
   endfacet
   facet normal -2.990902e-016 1.000000e+000 0.000000e+000
      outer loop
         vertex 6.450000e+000 9.000000e+000 1.500000e+001
         vertex 5.277837e+000 9.000000e+000 1.157569e+001
         vertex 5.000000e+000 9.000000e+000 1.160000e+001
      endloop
   endfacet
   facet normal -2.990902e-016 1.000000e+000 0.000000e+000
      outer loop
         vertex 6.450000e+000 9.000000e+000 1.500000e+001
         vertex 5.000000e+000 9.000000e+000 1.160000e+001
         vertex 3.550000e+000 9.000000e+000 1.500000e+001
      endloop
   endfacet
   facet normal -2.990902e-016 1.000000e+000 0.000000e+000
      outer loop
         vertex 3.550000e+000 9.000000e+000 1.500000e+001
         vertex 5.000000e+000 9.000000e+000 1.160000e+001
         vertex 4.722163e+000 9.000000e+000 1.157569e+001
      endloop
   endfacet
   facet normal -2.990902e-016 1.000000e+000 0.000000e+000
      outer loop
         vertex 3.550000e+000 9.000000e+000 1.500000e+001
         vertex 4.722163e+000 9.000000e+000 1.157569e+001
         vertex 4.452768e+000 9.000000e+000 1.150351e+001
      endloop
   endfacet
   facet normal -1.000000e+000 0.000000e+000 0.000000e+000
      outer loop
         vertex 3.550000e+000 8.000000e+000 2.550000e+000
         vertex 3.550000e+000 8.000000e+000 9.323613e+000
         vertex 3.550000e+000 9.000000e+000 2.550000e+000
      endloop
   endfacet
   facet normal -1.000000e+000 0.000000e+000 0.000000e+000
      outer loop
         vertex 3.550000e+000 9.000000e+000 2.550000e+000
         vertex 3.550000e+000 8.000000e+000 9.323613e+000
         vertex 3.550000e+000 9.000000e+000 9.323613e+000
      endloop
   endfacet
   facet normal 1.000000e+000 -5.782412e-016 0.000000e+000
      outer loop
         vertex 1.000000e+001 4.939692e+000 5.657980e+000
         vertex 1.000000e+001 4.866025e+000 5.500000e+000
         vertex 1.000000e+001 8.000000e+000 0.000000e+000
      endloop
   endfacet
   facet normal 1.000000e+000 -5.782412e-016 0.000000e+000
      outer loop
         vertex 1.000000e+001 4.939692e+000 5.657980e+000
         vertex 1.000000e+001 8.000000e+000 0.000000e+000
         vertex 1.000000e+001 4.984807e+000 5.826352e+000
      endloop
   endfacet
   facet normal 1.000000e+000 -5.782412e-016 0.000000e+000
      outer loop
         vertex 1.000000e+001 8.000000e+000 0.000000e+000
         vertex 1.000000e+001 4.500000e+000 5.133975e+000
         vertex 1.000000e+001 4.342020e+000 5.060307e+000
      endloop
   endfacet
   facet normal 1.000000e+000 -5.782412e-016 0.000000e+000
      outer loop
         vertex 1.000000e+001 4.866025e+000 5.500000e+000
         vertex 1.000000e+001 4.766044e+000 5.357213e+000
         vertex 1.000000e+001 8.000000e+000 0.000000e+000
      endloop
   endfacet
   facet normal 1.000000e+000 -5.782412e-016 0.000000e+000
      outer loop
         vertex 1.000000e+001 8.000000e+000 0.000000e+000
         vertex 1.000000e+001 4.766044e+000 5.357213e+000
         vertex 1.000000e+001 4.642787e+000 5.233955e+000
      endloop
   endfacet
   facet normal 1.000000e+000 -5.782412e-016 0.000000e+000
      outer loop
         vertex 1.000000e+001 8.000000e+000 0.000000e+000
         vertex 1.000000e+001 4.642787e+000 5.233955e+000
         vertex 1.000000e+001 4.500000e+000 5.133975e+000
      endloop
   endfacet
   facet normal 1.000000e+000 -5.782412e-016 0.000000e+000
      outer loop
         vertex 1.000000e+001 0.000000e+000 5.000000e+000
         vertex 1.000000e+001 0.000000e+000 0.000000e+000
         vertex 1.000000e+001 4.000000e+000 5.000000e+000
      endloop
   endfacet
   facet normal 1.000000e+000 -5.782412e-016 0.000000e+000
      outer loop
         vertex 1.000000e+001 4.000000e+000 5.000000e+000
         vertex 1.000000e+001 0.000000e+000 0.000000e+000
         vertex 1.000000e+001 8.000000e+000 0.000000e+000
      endloop
   endfacet
   facet normal 1.000000e+000 -5.782412e-016 0.000000e+000
      outer loop
         vertex 1.000000e+001 4.000000e+000 5.000000e+000
         vertex 1.000000e+001 8.000000e+000 0.000000e+000
         vertex 1.000000e+001 4.173648e+000 5.015192e+000
      endloop
   endfacet
   facet normal 1.000000e+000 -5.782412e-016 0.000000e+000
      outer loop
         vertex 1.000000e+001 4.173648e+000 5.015192e+000
         vertex 1.000000e+001 8.000000e+000 0.000000e+000
         vertex 1.000000e+001 4.342020e+000 5.060307e+000
      endloop
   endfacet
   facet normal 1.000000e+000 -5.782412e-016 0.000000e+000
      outer loop
         vertex 1.000000e+001 8.000000e+000 1.500000e+001
         vertex 1.000000e+001 5.000000e+000 1.500000e+001
         vertex 1.000000e+001 8.000000e+000 0.000000e+000
      endloop
   endfacet
   facet normal 1.000000e+000 -5.782412e-016 0.000000e+000
      outer loop
         vertex 1.000000e+001 8.000000e+000 0.000000e+000
         vertex 1.000000e+001 5.000000e+000 1.500000e+001
         vertex 1.000000e+001 5.000000e+000 6.000000e+000
      endloop
   endfacet
   facet normal 1.000000e+000 -5.782412e-016 0.000000e+000
      outer loop
         vertex 1.000000e+001 8.000000e+000 0.000000e+000
         vertex 1.000000e+001 5.000000e+000 6.000000e+000
         vertex 1.000000e+001 4.984807e+000 5.826352e+000
      endloop
   endfacet
   facet normal -6.108181e-016 1.000000e+000 0.000000e+000
      outer loop
         vertex 6.450000e+000 8.000000e+000 1.067639e+001
         vertex 6.450000e+000 8.000000e+000 1.500000e+001
         vertex 6.503508e+000 8.000000e+000 1.054723e+001
      endloop
   endfacet
   facet normal -6.108181e-016 1.000000e+000 0.000000e+000
      outer loop
         vertex 6.503508e+000 8.000000e+000 1.054723e+001
         vertex 6.450000e+000 8.000000e+000 1.500000e+001
         vertex 1.000000e+001 8.000000e+000 1.500000e+001
      endloop
   endfacet
   facet normal -6.108181e-016 1.000000e+000 0.000000e+000
      outer loop
         vertex 6.503508e+000 8.000000e+000 1.054723e+001
         vertex 1.000000e+001 8.000000e+000 1.500000e+001
         vertex 6.575693e+000 8.000000e+000 1.027784e+001
      endloop
   endfacet
   facet normal -6.108181e-016 1.000000e+000 0.000000e+000
      outer loop
         vertex 6.575693e+000 8.000000e+000 1.027784e+001
         vertex 1.000000e+001 8.000000e+000 1.500000e+001
         vertex 6.600000e+000 8.000000e+000 1.000000e+001
      endloop
   endfacet
   facet normal -6.108181e-016 1.000000e+000 0.000000e+000
      outer loop
         vertex 6.600000e+000 8.000000e+000 1.000000e+001
         vertex 1.000000e+001 8.000000e+000 1.500000e+001
         vertex 6.575693e+000 8.000000e+000 9.722163e+000
      endloop
   endfacet
   facet normal -6.108181e-016 1.000000e+000 0.000000e+000
      outer loop
         vertex 6.575693e+000 8.000000e+000 9.722163e+000
         vertex 1.000000e+001 8.000000e+000 1.500000e+001
         vertex 1.000000e+001 8.000000e+000 3.469447e-015
      endloop
   endfacet
   facet normal -6.108181e-016 1.000000e+000 0.000000e+000
      outer loop
         vertex 6.575693e+000 8.000000e+000 9.722163e+000
         vertex 1.000000e+001 8.000000e+000 3.469447e-015
         vertex 6.503508e+000 8.000000e+000 9.452767e+000
      endloop
   endfacet
   facet normal -6.108181e-016 1.000000e+000 0.000000e+000
      outer loop
         vertex 9.000000e+000 8.000000e+000 3.469447e-015
         vertex 6.450000e+000 8.000000e+000 2.550000e+000
         vertex 1.000000e+001 8.000000e+000 3.469447e-015
      endloop
   endfacet
   facet normal -6.108181e-016 1.000000e+000 0.000000e+000
      outer loop
         vertex 1.000000e+001 8.000000e+000 3.469447e-015
         vertex 6.450000e+000 8.000000e+000 2.550000e+000
         vertex 6.450000e+000 8.000000e+000 9.323613e+000
      endloop
   endfacet
   facet normal -6.108181e-016 1.000000e+000 0.000000e+000
      outer loop
         vertex 1.000000e+001 8.000000e+000 3.469447e-015
         vertex 6.450000e+000 8.000000e+000 9.323613e+000
         vertex 6.503508e+000 8.000000e+000 9.452767e+000
      endloop
   endfacet
   facet normal 1.000000e+000 1.301043e-015 0.000000e+000
      outer loop
         vertex 6.450000e+000 9.000000e+000 2.550000e+000
         vertex 6.450000e+000 9.000000e+000 9.323613e+000
         vertex 6.450000e+000 8.000000e+000 2.550000e+000
      endloop
   endfacet
   facet normal 1.000000e+000 1.301043e-015 0.000000e+000
      outer loop
         vertex 6.450000e+000 8.000000e+000 2.550000e+000
         vertex 6.450000e+000 9.000000e+000 9.323613e+000
         vertex 6.450000e+000 8.000000e+000 9.323613e+000
      endloop
   endfacet
   facet normal -2.990902e-016 1.000000e+000 0.000000e+000
      outer loop
         vertex 6.450000e+000 9.000000e+000 9.323613e+000
         vertex 6.450000e+000 9.000000e+000 2.550000e+000
         vertex 6.385641e+000 9.000000e+000 9.200000e+000
      endloop
   endfacet
   facet normal -2.990902e-016 1.000000e+000 0.000000e+000
      outer loop
         vertex 6.385641e+000 9.000000e+000 9.200000e+000
         vertex 6.450000e+000 9.000000e+000 2.550000e+000
         vertex 6.225671e+000 9.000000e+000 8.971540e+000
      endloop
   endfacet
   facet normal -2.990902e-016 1.000000e+000 0.000000e+000
      outer loop
         vertex 3.550000e+000 9.000000e+000 9.323613e+000
         vertex 3.614359e+000 9.000000e+000 9.200000e+000
         vertex 3.550000e+000 9.000000e+000 2.550000e+000
      endloop
   endfacet
   facet normal -2.990902e-016 1.000000e+000 0.000000e+000
      outer loop
         vertex 3.550000e+000 9.000000e+000 2.550000e+000
         vertex 3.614359e+000 9.000000e+000 9.200000e+000
         vertex 3.774329e+000 9.000000e+000 8.971540e+000
      endloop
   endfacet
   facet normal -2.990902e-016 1.000000e+000 0.000000e+000
      outer loop
         vertex 3.550000e+000 9.000000e+000 2.550000e+000
         vertex 3.774329e+000 9.000000e+000 8.971540e+000
         vertex 3.971539e+000 9.000000e+000 8.774329e+000
      endloop
   endfacet
   facet normal -2.990902e-016 1.000000e+000 0.000000e+000
      outer loop
         vertex 3.550000e+000 9.000000e+000 2.550000e+000
         vertex 4.722163e+000 9.000000e+000 8.424307e+000
         vertex 5.000000e+000 9.000000e+000 4.000000e+000
      endloop
   endfacet
   facet normal -2.990902e-016 1.000000e+000 0.000000e+000
      outer loop
         vertex 5.000000e+000 9.000000e+000 4.000000e+000
         vertex 4.722163e+000 9.000000e+000 8.424307e+000
         vertex 5.000000e+000 9.000000e+000 8.400000e+000
      endloop
   endfacet
   facet normal -2.990902e-016 1.000000e+000 0.000000e+000
      outer loop
         vertex 5.000000e+000 9.000000e+000 4.000000e+000
         vertex 5.000000e+000 9.000000e+000 8.400000e+000
         vertex 6.450000e+000 9.000000e+000 2.550000e+000
      endloop
   endfacet
   facet normal -2.990902e-016 1.000000e+000 0.000000e+000
      outer loop
         vertex 6.450000e+000 9.000000e+000 2.550000e+000
         vertex 5.000000e+000 9.000000e+000 8.400000e+000
         vertex 5.277837e+000 9.000000e+000 8.424307e+000
      endloop
   endfacet
   facet normal -2.990902e-016 1.000000e+000 0.000000e+000
      outer loop
         vertex 6.450000e+000 9.000000e+000 2.550000e+000
         vertex 5.277837e+000 9.000000e+000 8.424307e+000
         vertex 5.547232e+000 9.000000e+000 8.496492e+000
      endloop
   endfacet
   facet normal -2.990902e-016 1.000000e+000 0.000000e+000
      outer loop
         vertex 5.547232e+000 9.000000e+000 8.496492e+000
         vertex 5.800000e+000 9.000000e+000 8.614360e+000
         vertex 6.450000e+000 9.000000e+000 2.550000e+000
      endloop
   endfacet
   facet normal -2.990902e-016 1.000000e+000 0.000000e+000
      outer loop
         vertex 6.450000e+000 9.000000e+000 2.550000e+000
         vertex 5.800000e+000 9.000000e+000 8.614360e+000
         vertex 6.028461e+000 9.000000e+000 8.774329e+000
      endloop
   endfacet
   facet normal -2.990902e-016 1.000000e+000 0.000000e+000
      outer loop
         vertex 6.450000e+000 9.000000e+000 2.550000e+000
         vertex 6.028461e+000 9.000000e+000 8.774329e+000
         vertex 6.225671e+000 9.000000e+000 8.971540e+000
      endloop
   endfacet
   facet normal -2.990902e-016 1.000000e+000 0.000000e+000
      outer loop
         vertex 3.971539e+000 9.000000e+000 8.774329e+000
         vertex 4.200000e+000 9.000000e+000 8.614360e+000
         vertex 3.550000e+000 9.000000e+000 2.550000e+000
      endloop
   endfacet
   facet normal -2.990902e-016 1.000000e+000 0.000000e+000
      outer loop
         vertex 3.550000e+000 9.000000e+000 2.550000e+000
         vertex 4.200000e+000 9.000000e+000 8.614360e+000
         vertex 4.452768e+000 9.000000e+000 8.496492e+000
      endloop
   endfacet
   facet normal -2.990902e-016 1.000000e+000 0.000000e+000
      outer loop
         vertex 3.550000e+000 9.000000e+000 2.550000e+000
         vertex 4.452768e+000 9.000000e+000 8.496492e+000
         vertex 4.722163e+000 9.000000e+000 8.424307e+000
      endloop
   endfacet
   facet normal -1.000000e+000 0.000000e+000 0.000000e+000
      outer loop
         vertex 3.550000e+000 8.000000e+000 1.067639e+001
         vertex 3.550000e+000 8.000000e+000 1.500000e+001
         vertex 3.550000e+000 9.000000e+000 1.067639e+001
      endloop
   endfacet
   facet normal -1.000000e+000 0.000000e+000 0.000000e+000
      outer loop
         vertex 3.550000e+000 9.000000e+000 1.067639e+001
         vertex 3.550000e+000 8.000000e+000 1.500000e+001
         vertex 3.550000e+000 9.000000e+000 1.500000e+001
      endloop
   endfacet
   facet normal 0.000000e+000 1.000000e+000 0.000000e+000
      outer loop
         vertex 3.424307e+000 8.000000e+000 9.722163e+000
         vertex 0.000000e+000 8.000000e+000 0.000000e+000
         vertex 3.400000e+000 8.000000e+000 1.000000e+001
      endloop
   endfacet
   facet normal 0.000000e+000 1.000000e+000 0.000000e+000
      outer loop
         vertex 3.400000e+000 8.000000e+000 1.000000e+001
         vertex 0.000000e+000 8.000000e+000 0.000000e+000
         vertex 0.000000e+000 8.000000e+000 1.500000e+001
      endloop
   endfacet
   facet normal 0.000000e+000 1.000000e+000 0.000000e+000
      outer loop
         vertex 3.400000e+000 8.000000e+000 1.000000e+001
         vertex 0.000000e+000 8.000000e+000 1.500000e+001
         vertex 3.424307e+000 8.000000e+000 1.027784e+001
      endloop
   endfacet
   facet normal 0.000000e+000 1.000000e+000 0.000000e+000
      outer loop
         vertex 3.550000e+000 8.000000e+000 1.500000e+001
         vertex 3.550000e+000 8.000000e+000 1.067639e+001
         vertex 0.000000e+000 8.000000e+000 1.500000e+001
      endloop
   endfacet
   facet normal 0.000000e+000 1.000000e+000 0.000000e+000
      outer loop
         vertex 0.000000e+000 8.000000e+000 1.500000e+001
         vertex 3.550000e+000 8.000000e+000 1.067639e+001
         vertex 3.496492e+000 8.000000e+000 1.054723e+001
      endloop
   endfacet
   facet normal 0.000000e+000 1.000000e+000 0.000000e+000
      outer loop
         vertex 0.000000e+000 8.000000e+000 1.500000e+001
         vertex 3.496492e+000 8.000000e+000 1.054723e+001
         vertex 3.424307e+000 8.000000e+000 1.027784e+001
      endloop
   endfacet
   facet normal 0.000000e+000 1.000000e+000 0.000000e+000
      outer loop
         vertex 3.550000e+000 8.000000e+000 2.550000e+000
         vertex 9.999997e-001 8.000000e+000 0.000000e+000
         vertex 3.550000e+000 8.000000e+000 9.323613e+000
      endloop
   endfacet
   facet normal 0.000000e+000 1.000000e+000 0.000000e+000
      outer loop
         vertex 3.550000e+000 8.000000e+000 9.323613e+000
         vertex 9.999997e-001 8.000000e+000 0.000000e+000
         vertex 0.000000e+000 8.000000e+000 0.000000e+000
      endloop
   endfacet
   facet normal 0.000000e+000 1.000000e+000 0.000000e+000
      outer loop
         vertex 3.550000e+000 8.000000e+000 9.323613e+000
         vertex 0.000000e+000 8.000000e+000 0.000000e+000
         vertex 3.496492e+000 8.000000e+000 9.452767e+000
      endloop
   endfacet
   facet normal 0.000000e+000 1.000000e+000 0.000000e+000
      outer loop
         vertex 3.496492e+000 8.000000e+000 9.452767e+000
         vertex 0.000000e+000 8.000000e+000 0.000000e+000
         vertex 3.424307e+000 8.000000e+000 9.722163e+000
      endloop
   endfacet
   facet normal -1.000000e+000 0.000000e+000 0.000000e+000
      outer loop
         vertex 0.000000e+000 4.173648e+000 5.015192e+000
         vertex 0.000000e+000 4.342020e+000 5.060307e+000
         vertex 0.000000e+000 8.000000e+000 0.000000e+000
      endloop
   endfacet
   facet normal -1.000000e+000 0.000000e+000 0.000000e+000
      outer loop
         vertex 0.000000e+000 8.000000e+000 0.000000e+000
         vertex 0.000000e+000 4.342020e+000 5.060307e+000
         vertex 0.000000e+000 4.500000e+000 5.133975e+000
      endloop
   endfacet
   facet normal -1.000000e+000 0.000000e+000 0.000000e+000
      outer loop
         vertex 0.000000e+000 8.000000e+000 0.000000e+000
         vertex 0.000000e+000 4.500000e+000 5.133975e+000
         vertex 0.000000e+000 4.642787e+000 5.233955e+000
      endloop
   endfacet
   facet normal -1.000000e+000 0.000000e+000 0.000000e+000
      outer loop
         vertex 0.000000e+000 0.000000e+000 0.000000e+000
         vertex 0.000000e+000 0.000000e+000 5.000000e+000
         vertex 0.000000e+000 8.000000e+000 0.000000e+000
      endloop
   endfacet
   facet normal -1.000000e+000 0.000000e+000 0.000000e+000
      outer loop
         vertex 0.000000e+000 8.000000e+000 0.000000e+000
         vertex 0.000000e+000 0.000000e+000 5.000000e+000
         vertex 0.000000e+000 4.000000e+000 5.000000e+000
      endloop
   endfacet
   facet normal -1.000000e+000 0.000000e+000 0.000000e+000
      outer loop
         vertex 0.000000e+000 8.000000e+000 0.000000e+000
         vertex 0.000000e+000 4.000000e+000 5.000000e+000
         vertex 0.000000e+000 4.173648e+000 5.015192e+000
      endloop
   endfacet
   facet normal -1.000000e+000 0.000000e+000 0.000000e+000
      outer loop
         vertex 0.000000e+000 4.642787e+000 5.233955e+000
         vertex 0.000000e+000 4.766044e+000 5.357213e+000
         vertex 0.000000e+000 8.000000e+000 0.000000e+000
      endloop
   endfacet
   facet normal -1.000000e+000 0.000000e+000 0.000000e+000
      outer loop
         vertex 0.000000e+000 8.000000e+000 0.000000e+000
         vertex 0.000000e+000 4.766044e+000 5.357213e+000
         vertex 0.000000e+000 4.866025e+000 5.500000e+000
      endloop
   endfacet
   facet normal -1.000000e+000 0.000000e+000 0.000000e+000
      outer loop
         vertex 0.000000e+000 8.000000e+000 0.000000e+000
         vertex 0.000000e+000 4.866025e+000 5.500000e+000
         vertex 0.000000e+000 4.939692e+000 5.657980e+000
      endloop
   endfacet
   facet normal -1.000000e+000 0.000000e+000 0.000000e+000
      outer loop
         vertex 0.000000e+000 5.000000e+000 1.500000e+001
         vertex 0.000000e+000 8.000000e+000 1.500000e+001
         vertex 0.000000e+000 5.000000e+000 6.000000e+000
      endloop
   endfacet
   facet normal -1.000000e+000 0.000000e+000 0.000000e+000
      outer loop
         vertex 0.000000e+000 5.000000e+000 6.000000e+000
         vertex 0.000000e+000 8.000000e+000 1.500000e+001
         vertex 0.000000e+000 8.000000e+000 0.000000e+000
      endloop
   endfacet
   facet normal -1.000000e+000 0.000000e+000 0.000000e+000
      outer loop
         vertex 0.000000e+000 5.000000e+000 6.000000e+000
         vertex 0.000000e+000 8.000000e+000 0.000000e+000
         vertex 0.000000e+000 4.984807e+000 5.826352e+000
      endloop
   endfacet
   facet normal -1.000000e+000 0.000000e+000 0.000000e+000
      outer loop
         vertex 0.000000e+000 4.984807e+000 5.826352e+000
         vertex 0.000000e+000 8.000000e+000 0.000000e+000
         vertex 0.000000e+000 4.939692e+000 5.657980e+000
      endloop
   endfacet
   facet normal 0.000000e+000 0.000000e+000 1.000000e+000
      outer loop
         vertex 3.550000e+000 8.000000e+000 1.500000e+001
         vertex 0.000000e+000 8.000000e+000 1.500000e+001
         vertex 0.000000e+000 5.000000e+000 1.500000e+001
      endloop
   endfacet
   facet normal 0.000000e+000 0.000000e+000 1.000000e+000
      outer loop
         vertex 1.000000e+001 5.000000e+000 1.500000e+001
         vertex 1.000000e+001 8.000000e+000 1.500000e+001
         vertex 6.450000e+000 8.000000e+000 1.500000e+001
      endloop
   endfacet
   facet normal 0.000000e+000 0.000000e+000 1.000000e+000
      outer loop
         vertex 6.450000e+000 9.000000e+000 1.500000e+001
         vertex 3.550000e+000 9.000000e+000 1.500000e+001
         vertex 6.450000e+000 8.000000e+000 1.500000e+001
      endloop
   endfacet
   facet normal 0.000000e+000 0.000000e+000 1.000000e+000
      outer loop
         vertex 6.450000e+000 8.000000e+000 1.500000e+001
         vertex 3.550000e+000 9.000000e+000 1.500000e+001
         vertex 3.550000e+000 8.000000e+000 1.500000e+001
      endloop
   endfacet
   facet normal 0.000000e+000 0.000000e+000 1.000000e+000
      outer loop
         vertex 6.450000e+000 8.000000e+000 1.500000e+001
         vertex 3.550000e+000 8.000000e+000 1.500000e+001
         vertex 1.000000e+001 5.000000e+000 1.500000e+001
      endloop
   endfacet
   facet normal 0.000000e+000 0.000000e+000 1.000000e+000
      outer loop
         vertex 1.000000e+001 5.000000e+000 1.500000e+001
         vertex 3.550000e+000 8.000000e+000 1.500000e+001
         vertex 0.000000e+000 5.000000e+000 1.500000e+001
      endloop
   endfacet
   facet normal 0.000000e+000 0.000000e+000 -1.000000e+000
      outer loop
         vertex 1.000000e+001 8.000000e+000 0.000000e+000
         vertex 1.000000e+001 0.000000e+000 0.000000e+000
         vertex 9.000000e+000 8.000000e+000 0.000000e+000
      endloop
   endfacet
   facet normal 0.000000e+000 0.000000e+000 -1.000000e+000
      outer loop
         vertex 9.000000e+000 8.000000e+000 0.000000e+000
         vertex 1.000000e+001 0.000000e+000 0.000000e+000
         vertex 9.000000e+000 0.000000e+000 0.000000e+000
      endloop
   endfacet
   facet normal -8.935954e-001 0.000000e+000 4.488733e-001
      outer loop
         vertex 6.450000e+000 8.000000e+000 9.323613e+000
         vertex 6.450000e+000 9.000000e+000 9.323613e+000
         vertex 6.385641e+000 9.000000e+000 9.200000e+000
      endloop
   endfacet
   facet normal 8.935954e-001 0.000000e+000 -4.488733e-001
      outer loop
         vertex 3.550000e+000 8.000000e+000 1.067639e+001
         vertex 3.550000e+000 9.000000e+000 1.067639e+001
         vertex 3.614359e+000 9.000000e+000 1.080000e+001
      endloop
   endfacet
   facet normal 9.062884e-001 0.000000e+000 4.226597e-001
      outer loop
         vertex 3.614359e+000 5.000000e+000 9.200000e+000
         vertex 3.550000e+000 8.000000e+000 9.323613e+000
         vertex 3.496492e+000 5.000000e+000 9.452767e+000
      endloop
   endfacet
   facet normal 9.293337e-001 0.000000e+000 3.692409e-001
      outer loop
         vertex 3.496492e+000 5.000000e+000 9.452767e+000
         vertex 3.550000e+000 8.000000e+000 9.323613e+000
         vertex 3.496492e+000 8.000000e+000 9.452767e+000
      endloop
   endfacet
   facet normal 9.579706e-001 0.000000e+000 2.868663e-001
      outer loop
         vertex 3.496492e+000 5.000000e+000 9.452767e+000
         vertex 3.496492e+000 8.000000e+000 9.452767e+000
         vertex 3.424307e+000 5.000000e+000 9.722163e+000
      endloop
   endfacet
   facet normal 9.730600e-001 0.000000e+000 2.305519e-001
      outer loop
         vertex 3.424307e+000 5.000000e+000 9.722163e+000
         vertex 3.496492e+000 8.000000e+000 9.452767e+000
         vertex 3.424307e+000 8.000000e+000 9.722163e+000
      endloop
   endfacet
   facet normal 9.932307e-001 0.000000e+000 1.161583e-001
      outer loop
         vertex 3.424307e+000 5.000000e+000 9.722163e+000
         vertex 3.424307e+000 8.000000e+000 9.722163e+000
         vertex 3.400000e+000 5.000000e+000 1.000000e+001
      endloop
   endfacet
   facet normal 9.983119e-001 0.000000e+000 5.807913e-002
      outer loop
         vertex 3.400000e+000 5.000000e+000 1.000000e+001
         vertex 3.424307e+000 8.000000e+000 9.722163e+000
         vertex 3.400000e+000 8.000000e+000 1.000000e+001
      endloop
   endfacet
   facet normal 9.983119e-001 0.000000e+000 -5.807913e-002
      outer loop
         vertex 3.400000e+000 5.000000e+000 1.000000e+001
         vertex 3.400000e+000 8.000000e+000 1.000000e+001
         vertex 3.424307e+000 5.000000e+000 1.027784e+001
      endloop
   endfacet
   facet normal 9.932307e-001 0.000000e+000 -1.161583e-001
      outer loop
         vertex 3.424307e+000 5.000000e+000 1.027784e+001
         vertex 3.400000e+000 8.000000e+000 1.000000e+001
         vertex 3.424307e+000 8.000000e+000 1.027784e+001
      endloop
   endfacet
   facet normal 9.730600e-001 0.000000e+000 -2.305519e-001
      outer loop
         vertex 3.424307e+000 5.000000e+000 1.027784e+001
         vertex 3.424307e+000 8.000000e+000 1.027784e+001
         vertex 3.496492e+000 5.000000e+000 1.054723e+001
      endloop
   endfacet
   facet normal 9.579706e-001 0.000000e+000 -2.868663e-001
      outer loop
         vertex 3.496492e+000 5.000000e+000 1.054723e+001
         vertex 3.424307e+000 8.000000e+000 1.027784e+001
         vertex 3.496492e+000 8.000000e+000 1.054723e+001
      endloop
   endfacet
   facet normal 9.182422e-001 0.000000e+000 -3.960194e-001
      outer loop
         vertex 3.496492e+000 5.000000e+000 1.054723e+001
         vertex 3.496492e+000 8.000000e+000 1.054723e+001
         vertex 3.614359e+000 5.000000e+000 1.080000e+001
      endloop
   endfacet
   facet normal -9.062884e-001 0.000000e+000 -4.226597e-001
      outer loop
         vertex 6.385641e+000 5.000000e+000 1.080000e+001
         vertex 6.450000e+000 8.000000e+000 1.067639e+001
         vertex 6.503508e+000 5.000000e+000 1.054723e+001
      endloop
   endfacet
   facet normal -9.293337e-001 0.000000e+000 -3.692409e-001
      outer loop
         vertex 6.503508e+000 5.000000e+000 1.054723e+001
         vertex 6.450000e+000 8.000000e+000 1.067639e+001
         vertex 6.503508e+000 8.000000e+000 1.054723e+001
      endloop
   endfacet
   facet normal -9.579706e-001 0.000000e+000 -2.868663e-001
      outer loop
         vertex 6.503508e+000 5.000000e+000 1.054723e+001
         vertex 6.503508e+000 8.000000e+000 1.054723e+001
         vertex 6.575693e+000 5.000000e+000 1.027784e+001
      endloop
   endfacet
   facet normal -9.730600e-001 0.000000e+000 -2.305519e-001
      outer loop
         vertex 6.575693e+000 5.000000e+000 1.027784e+001
         vertex 6.503508e+000 8.000000e+000 1.054723e+001
         vertex 6.575693e+000 8.000000e+000 1.027784e+001
      endloop
   endfacet
   facet normal -9.932307e-001 0.000000e+000 -1.161583e-001
      outer loop
         vertex 6.575693e+000 5.000000e+000 1.027784e+001
         vertex 6.575693e+000 8.000000e+000 1.027784e+001
         vertex 6.600000e+000 5.000000e+000 1.000000e+001
      endloop
   endfacet
   facet normal -9.983119e-001 0.000000e+000 -5.807913e-002
      outer loop
         vertex 6.600000e+000 5.000000e+000 1.000000e+001
         vertex 6.575693e+000 8.000000e+000 1.027784e+001
         vertex 6.600000e+000 8.000000e+000 1.000000e+001
      endloop
   endfacet
   facet normal -9.983119e-001 0.000000e+000 5.807913e-002
      outer loop
         vertex 6.600000e+000 5.000000e+000 1.000000e+001
         vertex 6.600000e+000 8.000000e+000 1.000000e+001
         vertex 6.575693e+000 5.000000e+000 9.722163e+000
      endloop
   endfacet
   facet normal -9.932307e-001 0.000000e+000 1.161583e-001
      outer loop
         vertex 6.575693e+000 5.000000e+000 9.722163e+000
         vertex 6.600000e+000 8.000000e+000 1.000000e+001
         vertex 6.575693e+000 8.000000e+000 9.722163e+000
      endloop
   endfacet
   facet normal -9.730600e-001 0.000000e+000 2.305519e-001
      outer loop
         vertex 6.575693e+000 5.000000e+000 9.722163e+000
         vertex 6.575693e+000 8.000000e+000 9.722163e+000
         vertex 6.503508e+000 5.000000e+000 9.452767e+000
      endloop
   endfacet
   facet normal -9.579706e-001 0.000000e+000 2.868663e-001
      outer loop
         vertex 6.503508e+000 5.000000e+000 9.452767e+000
         vertex 6.575693e+000 8.000000e+000 9.722163e+000
         vertex 6.503508e+000 8.000000e+000 9.452767e+000
      endloop
   endfacet
   facet normal -9.182422e-001 0.000000e+000 3.960194e-001
      outer loop
         vertex 6.503508e+000 5.000000e+000 9.452767e+000
         vertex 6.503508e+000 8.000000e+000 9.452767e+000
         vertex 6.385641e+000 5.000000e+000 9.200000e+000
      endloop
   endfacet
   facet normal -9.062884e-001 0.000000e+000 4.226597e-001
      outer loop
         vertex 6.503508e+000 8.000000e+000 9.452767e+000
         vertex 6.450000e+000 8.000000e+000 9.323613e+000
         vertex 6.385641e+000 5.000000e+000 9.200000e+000
      endloop
   endfacet
   facet normal -8.801759e-001 0.000000e+000 4.746476e-001
      outer loop
         vertex 6.385641e+000 5.000000e+000 9.200000e+000
         vertex 6.450000e+000 8.000000e+000 9.323613e+000
         vertex 6.385641e+000 9.000000e+000 9.200000e+000
      endloop
   endfacet
   facet normal -8.355240e-001 0.000000e+000 5.494540e-001
      outer loop
         vertex 6.385641e+000 5.000000e+000 9.200000e+000
         vertex 6.385641e+000 9.000000e+000 9.200000e+000
         vertex 6.225671e+000 5.000000e+000 8.971540e+000
      endloop
   endfacet
   facet normal -8.020838e-001 0.000000e+000 5.972114e-001
      outer loop
         vertex 6.225671e+000 5.000000e+000 8.971540e+000
         vertex 6.385641e+000 9.000000e+000 9.200000e+000
         vertex 6.225671e+000 9.000000e+000 8.971540e+000
      endloop
   endfacet
   facet normal -7.274188e-001 0.000000e+000 6.861938e-001
      outer loop
         vertex 6.225671e+000 5.000000e+000 8.971540e+000
         vertex 6.225671e+000 9.000000e+000 8.971540e+000
         vertex 6.028461e+000 5.000000e+000 8.774329e+000
      endloop
   endfacet
   facet normal -6.861938e-001 0.000000e+000 7.274188e-001
      outer loop
         vertex 6.028461e+000 5.000000e+000 8.774329e+000
         vertex 6.225671e+000 9.000000e+000 8.971540e+000
         vertex 6.028461e+000 9.000000e+000 8.774329e+000
      endloop
   endfacet
   facet normal -5.972114e-001 0.000000e+000 8.020838e-001
      outer loop
         vertex 6.028461e+000 5.000000e+000 8.774329e+000
         vertex 6.028461e+000 9.000000e+000 8.774329e+000
         vertex 5.800000e+000 5.000000e+000 8.614360e+000
      endloop
   endfacet
   facet normal -5.494540e-001 0.000000e+000 8.355240e-001
      outer loop
         vertex 5.800000e+000 5.000000e+000 8.614360e+000
         vertex 6.028461e+000 9.000000e+000 8.774329e+000
         vertex 5.800000e+000 9.000000e+000 8.614360e+000
      endloop
   endfacet
   facet normal -4.488580e-001 0.000000e+000 8.936031e-001
      outer loop
         vertex 5.800000e+000 5.000000e+000 8.614360e+000
         vertex 5.800000e+000 9.000000e+000 8.614360e+000
         vertex 5.547232e+000 5.000000e+000 8.496492e+000
      endloop
   endfacet
   facet normal -3.960194e-001 0.000000e+000 9.182422e-001
      outer loop
         vertex 5.547232e+000 5.000000e+000 8.496492e+000
         vertex 5.800000e+000 9.000000e+000 8.614360e+000
         vertex 5.547232e+000 9.000000e+000 8.496492e+000
      endloop
   endfacet
   facet normal -2.868663e-001 0.000000e+000 9.579706e-001
      outer loop
         vertex 5.547232e+000 5.000000e+000 8.496492e+000
         vertex 5.547232e+000 9.000000e+000 8.496492e+000
         vertex 5.277837e+000 5.000000e+000 8.424307e+000
      endloop
   endfacet
   facet normal -2.305519e-001 0.000000e+000 9.730600e-001
      outer loop
         vertex 5.277837e+000 5.000000e+000 8.424307e+000
         vertex 5.547232e+000 9.000000e+000 8.496492e+000
         vertex 5.277837e+000 9.000000e+000 8.424307e+000
      endloop
   endfacet
   facet normal -1.161583e-001 0.000000e+000 9.932307e-001
      outer loop
         vertex 5.277837e+000 5.000000e+000 8.424307e+000
         vertex 5.277837e+000 9.000000e+000 8.424307e+000
         vertex 5.000000e+000 5.000000e+000 8.400000e+000
      endloop
   endfacet
   facet normal -5.807913e-002 0.000000e+000 9.983119e-001
      outer loop
         vertex 5.000000e+000 5.000000e+000 8.400000e+000
         vertex 5.277837e+000 9.000000e+000 8.424307e+000
         vertex 5.000000e+000 9.000000e+000 8.400000e+000
      endloop
   endfacet
   facet normal 5.807913e-002 0.000000e+000 9.983119e-001
      outer loop
         vertex 5.000000e+000 5.000000e+000 8.400000e+000
         vertex 5.000000e+000 9.000000e+000 8.400000e+000
         vertex 4.722163e+000 5.000000e+000 8.424307e+000
      endloop
   endfacet
   facet normal 1.161583e-001 0.000000e+000 9.932307e-001
      outer loop
         vertex 4.722163e+000 5.000000e+000 8.424307e+000
         vertex 5.000000e+000 9.000000e+000 8.400000e+000
         vertex 4.722163e+000 9.000000e+000 8.424307e+000
      endloop
   endfacet
   facet normal 2.305519e-001 0.000000e+000 9.730600e-001
      outer loop
         vertex 4.722163e+000 5.000000e+000 8.424307e+000
         vertex 4.722163e+000 9.000000e+000 8.424307e+000
         vertex 4.452768e+000 5.000000e+000 8.496492e+000
      endloop
   endfacet
   facet normal 2.868663e-001 0.000000e+000 9.579706e-001
      outer loop
         vertex 4.452768e+000 5.000000e+000 8.496492e+000
         vertex 4.722163e+000 9.000000e+000 8.424307e+000
         vertex 4.452768e+000 9.000000e+000 8.496492e+000
      endloop
   endfacet
   facet normal 3.960194e-001 0.000000e+000 9.182422e-001
      outer loop
         vertex 4.452768e+000 5.000000e+000 8.496492e+000
         vertex 4.452768e+000 9.000000e+000 8.496492e+000
         vertex 4.200000e+000 5.000000e+000 8.614360e+000
      endloop
   endfacet
   facet normal 4.488580e-001 0.000000e+000 8.936031e-001
      outer loop
         vertex 4.200000e+000 5.000000e+000 8.614360e+000
         vertex 4.452768e+000 9.000000e+000 8.496492e+000
         vertex 4.200000e+000 9.000000e+000 8.614360e+000
      endloop
   endfacet
   facet normal 5.494540e-001 0.000000e+000 8.355240e-001
      outer loop
         vertex 4.200000e+000 5.000000e+000 8.614360e+000
         vertex 4.200000e+000 9.000000e+000 8.614360e+000
         vertex 3.971539e+000 5.000000e+000 8.774329e+000
      endloop
   endfacet
   facet normal 5.972114e-001 0.000000e+000 8.020838e-001
      outer loop
         vertex 3.971539e+000 5.000000e+000 8.774329e+000
         vertex 4.200000e+000 9.000000e+000 8.614360e+000
         vertex 3.971539e+000 9.000000e+000 8.774329e+000
      endloop
   endfacet
   facet normal 6.861938e-001 0.000000e+000 7.274188e-001
      outer loop
         vertex 3.971539e+000 5.000000e+000 8.774329e+000
         vertex 3.971539e+000 9.000000e+000 8.774329e+000
         vertex 3.774329e+000 5.000000e+000 8.971540e+000
      endloop
   endfacet
   facet normal 7.274188e-001 0.000000e+000 6.861938e-001
      outer loop
         vertex 3.774329e+000 5.000000e+000 8.971540e+000
         vertex 3.971539e+000 9.000000e+000 8.774329e+000
         vertex 3.774329e+000 9.000000e+000 8.971540e+000
      endloop
   endfacet
   facet normal 8.020838e-001 0.000000e+000 5.972114e-001
      outer loop
         vertex 3.774329e+000 5.000000e+000 8.971540e+000
         vertex 3.774329e+000 9.000000e+000 8.971540e+000
         vertex 3.614359e+000 5.000000e+000 9.200000e+000
      endloop
   endfacet
   facet normal 8.355240e-001 0.000000e+000 5.494540e-001
      outer loop
         vertex 3.614359e+000 5.000000e+000 9.200000e+000
         vertex 3.774329e+000 9.000000e+000 8.971540e+000
         vertex 3.614359e+000 9.000000e+000 9.200000e+000
      endloop
   endfacet
   facet normal 8.801759e-001 0.000000e+000 4.746476e-001
      outer loop
         vertex 3.614359e+000 5.000000e+000 9.200000e+000
         vertex 3.614359e+000 9.000000e+000 9.200000e+000
         vertex 3.550000e+000 8.000000e+000 9.323613e+000
      endloop
   endfacet
   facet normal 8.935954e-001 0.000000e+000 4.488733e-001
      outer loop
         vertex 3.550000e+000 8.000000e+000 9.323613e+000
         vertex 3.614359e+000 9.000000e+000 9.200000e+000
         vertex 3.550000e+000 9.000000e+000 9.323613e+000
      endloop
   endfacet
   facet normal 9.062884e-001 0.000000e+000 -4.226597e-001
      outer loop
         vertex 3.496492e+000 8.000000e+000 1.054723e+001
         vertex 3.550000e+000 8.000000e+000 1.067639e+001
         vertex 3.614359e+000 5.000000e+000 1.080000e+001
      endloop
   endfacet
   facet normal 8.801759e-001 0.000000e+000 -4.746476e-001
      outer loop
         vertex 3.614359e+000 5.000000e+000 1.080000e+001
         vertex 3.550000e+000 8.000000e+000 1.067639e+001
         vertex 3.614359e+000 9.000000e+000 1.080000e+001
      endloop
   endfacet
   facet normal 8.355240e-001 0.000000e+000 -5.494540e-001
      outer loop
         vertex 3.614359e+000 5.000000e+000 1.080000e+001
         vertex 3.614359e+000 9.000000e+000 1.080000e+001
         vertex 3.774329e+000 5.000000e+000 1.102846e+001
      endloop
   endfacet
   facet normal 8.020838e-001 0.000000e+000 -5.972114e-001
      outer loop
         vertex 3.774329e+000 5.000000e+000 1.102846e+001
         vertex 3.614359e+000 9.000000e+000 1.080000e+001
         vertex 3.774329e+000 9.000000e+000 1.102846e+001
      endloop
   endfacet
   facet normal 7.274188e-001 0.000000e+000 -6.861938e-001
      outer loop
         vertex 3.774329e+000 5.000000e+000 1.102846e+001
         vertex 3.774329e+000 9.000000e+000 1.102846e+001
         vertex 3.971539e+000 5.000000e+000 1.122567e+001
      endloop
   endfacet
   facet normal 6.861938e-001 0.000000e+000 -7.274188e-001
      outer loop
         vertex 3.971539e+000 5.000000e+000 1.122567e+001
         vertex 3.774329e+000 9.000000e+000 1.102846e+001
         vertex 3.971539e+000 9.000000e+000 1.122567e+001
      endloop
   endfacet
   facet normal 5.972114e-001 0.000000e+000 -8.020838e-001
      outer loop
         vertex 3.971539e+000 5.000000e+000 1.122567e+001
         vertex 3.971539e+000 9.000000e+000 1.122567e+001
         vertex 4.200000e+000 5.000000e+000 1.138564e+001
      endloop
   endfacet
   facet normal 5.494540e-001 0.000000e+000 -8.355240e-001
      outer loop
         vertex 4.200000e+000 5.000000e+000 1.138564e+001
         vertex 3.971539e+000 9.000000e+000 1.122567e+001
         vertex 4.200000e+000 9.000000e+000 1.138564e+001
      endloop
   endfacet
   facet normal 4.488580e-001 0.000000e+000 -8.936031e-001
      outer loop
         vertex 4.200000e+000 5.000000e+000 1.138564e+001
         vertex 4.200000e+000 9.000000e+000 1.138564e+001
         vertex 4.452768e+000 5.000000e+000 1.150351e+001
      endloop
   endfacet
   facet normal 3.960194e-001 0.000000e+000 -9.182422e-001
      outer loop
         vertex 4.452768e+000 5.000000e+000 1.150351e+001
         vertex 4.200000e+000 9.000000e+000 1.138564e+001
         vertex 4.452768e+000 9.000000e+000 1.150351e+001
      endloop
   endfacet
   facet normal 2.868663e-001 0.000000e+000 -9.579706e-001
      outer loop
         vertex 4.452768e+000 5.000000e+000 1.150351e+001
         vertex 4.452768e+000 9.000000e+000 1.150351e+001
         vertex 4.722163e+000 5.000000e+000 1.157569e+001
      endloop
   endfacet
   facet normal 2.305519e-001 0.000000e+000 -9.730600e-001
      outer loop
         vertex 4.722163e+000 5.000000e+000 1.157569e+001
         vertex 4.452768e+000 9.000000e+000 1.150351e+001
         vertex 4.722163e+000 9.000000e+000 1.157569e+001
      endloop
   endfacet
   facet normal 1.161583e-001 0.000000e+000 -9.932307e-001
      outer loop
         vertex 4.722163e+000 5.000000e+000 1.157569e+001
         vertex 4.722163e+000 9.000000e+000 1.157569e+001
         vertex 5.000000e+000 5.000000e+000 1.160000e+001
      endloop
   endfacet
   facet normal 5.807913e-002 0.000000e+000 -9.983119e-001
      outer loop
         vertex 5.000000e+000 5.000000e+000 1.160000e+001
         vertex 4.722163e+000 9.000000e+000 1.157569e+001
         vertex 5.000000e+000 9.000000e+000 1.160000e+001
      endloop
   endfacet
   facet normal -5.807913e-002 0.000000e+000 -9.983119e-001
      outer loop
         vertex 5.000000e+000 5.000000e+000 1.160000e+001
         vertex 5.000000e+000 9.000000e+000 1.160000e+001
         vertex 5.277837e+000 5.000000e+000 1.157569e+001
      endloop
   endfacet
   facet normal -1.161583e-001 0.000000e+000 -9.932307e-001
      outer loop
         vertex 5.277837e+000 5.000000e+000 1.157569e+001
         vertex 5.000000e+000 9.000000e+000 1.160000e+001
         vertex 5.277837e+000 9.000000e+000 1.157569e+001
      endloop
   endfacet
   facet normal -2.305519e-001 0.000000e+000 -9.730600e-001
      outer loop
         vertex 5.277837e+000 5.000000e+000 1.157569e+001
         vertex 5.277837e+000 9.000000e+000 1.157569e+001
         vertex 5.547232e+000 5.000000e+000 1.150351e+001
      endloop
   endfacet
   facet normal -2.868663e-001 0.000000e+000 -9.579706e-001
      outer loop
         vertex 5.547232e+000 5.000000e+000 1.150351e+001
         vertex 5.277837e+000 9.000000e+000 1.157569e+001
         vertex 5.547232e+000 9.000000e+000 1.150351e+001
      endloop
   endfacet
   facet normal -3.960194e-001 0.000000e+000 -9.182422e-001
      outer loop
         vertex 5.547232e+000 5.000000e+000 1.150351e+001
         vertex 5.547232e+000 9.000000e+000 1.150351e+001
         vertex 5.800000e+000 5.000000e+000 1.138564e+001
      endloop
   endfacet
   facet normal -4.488580e-001 0.000000e+000 -8.936031e-001
      outer loop
         vertex 5.800000e+000 5.000000e+000 1.138564e+001
         vertex 5.547232e+000 9.000000e+000 1.150351e+001
         vertex 5.800000e+000 9.000000e+000 1.138564e+001
      endloop
   endfacet
   facet normal -5.494540e-001 0.000000e+000 -8.355240e-001
      outer loop
         vertex 5.800000e+000 5.000000e+000 1.138564e+001
         vertex 5.800000e+000 9.000000e+000 1.138564e+001
         vertex 6.028461e+000 5.000000e+000 1.122567e+001
      endloop
   endfacet
   facet normal -5.972114e-001 0.000000e+000 -8.020838e-001
      outer loop
         vertex 6.028461e+000 5.000000e+000 1.122567e+001
         vertex 5.800000e+000 9.000000e+000 1.138564e+001
         vertex 6.028461e+000 9.000000e+000 1.122567e+001
      endloop
   endfacet
   facet normal -6.861938e-001 0.000000e+000 -7.274188e-001
      outer loop
         vertex 6.028461e+000 5.000000e+000 1.122567e+001
         vertex 6.028461e+000 9.000000e+000 1.122567e+001
         vertex 6.225671e+000 5.000000e+000 1.102846e+001
      endloop
   endfacet
   facet normal -7.274188e-001 0.000000e+000 -6.861938e-001
      outer loop
         vertex 6.225671e+000 5.000000e+000 1.102846e+001
         vertex 6.028461e+000 9.000000e+000 1.122567e+001
         vertex 6.225671e+000 9.000000e+000 1.102846e+001
      endloop
   endfacet
   facet normal -8.020838e-001 0.000000e+000 -5.972114e-001
      outer loop
         vertex 6.225671e+000 5.000000e+000 1.102846e+001
         vertex 6.225671e+000 9.000000e+000 1.102846e+001
         vertex 6.385641e+000 5.000000e+000 1.080000e+001
      endloop
   endfacet
   facet normal -8.355240e-001 0.000000e+000 -5.494540e-001
      outer loop
         vertex 6.385641e+000 5.000000e+000 1.080000e+001
         vertex 6.225671e+000 9.000000e+000 1.102846e+001
         vertex 6.385641e+000 9.000000e+000 1.080000e+001
      endloop
   endfacet
   facet normal -8.801759e-001 0.000000e+000 -4.746476e-001
      outer loop
         vertex 6.385641e+000 5.000000e+000 1.080000e+001
         vertex 6.385641e+000 9.000000e+000 1.080000e+001
         vertex 6.450000e+000 8.000000e+000 1.067639e+001
      endloop
   endfacet
   facet normal -8.935954e-001 0.000000e+000 -4.488733e-001
      outer loop
         vertex 6.450000e+000 8.000000e+000 1.067639e+001
         vertex 6.385641e+000 9.000000e+000 1.080000e+001
         vertex 6.450000e+000 9.000000e+000 1.067639e+001
      endloop
   endfacet
   facet normal 7.071068e-001 7.666467e-017 -7.071068e-001
      outer loop
         vertex 3.550000e+000 9.000000e+000 2.550000e+000
         vertex 5.000000e+000 9.000000e+000 4.000000e+000
         vertex 3.550000e+000 8.000000e+000 2.550000e+000
      endloop
   endfacet
   facet normal 7.071068e-001 7.666467e-017 -7.071068e-001
      outer loop
         vertex 3.550000e+000 8.000000e+000 2.550000e+000
         vertex 5.000000e+000 9.000000e+000 4.000000e+000
         vertex 5.000000e+000 0.000000e+000 4.000000e+000
      endloop
   endfacet
   facet normal 7.071068e-001 7.666467e-017 -7.071068e-001
      outer loop
         vertex 3.550000e+000 8.000000e+000 2.550000e+000
         vertex 5.000000e+000 0.000000e+000 4.000000e+000
         vertex 9.999997e-001 8.000000e+000 3.794708e-016
      endloop
   endfacet
   facet normal 7.071068e-001 7.666467e-017 -7.071068e-001
      outer loop
         vertex 9.999997e-001 8.000000e+000 3.794708e-016
         vertex 5.000000e+000 0.000000e+000 4.000000e+000
         vertex 9.999997e-001 0.000000e+000 -5.421011e-017
      endloop
   endfacet
   facet normal -7.071068e-001 -7.666467e-017 -7.071068e-001
      outer loop
         vertex 5.000000e+000 9.000000e+000 4.000000e+000
         vertex 6.450000e+000 9.000000e+000 2.550000e+000
         vertex 6.450000e+000 8.000000e+000 2.550000e+000
      endloop
   endfacet
   facet normal -7.071068e-001 -7.666467e-017 -7.071068e-001
      outer loop
         vertex 9.000000e+000 8.000000e+000 5.421011e-017
         vertex 9.000000e+000 0.000000e+000 -3.794708e-016
         vertex 6.450000e+000 8.000000e+000 2.550000e+000
      endloop
   endfacet
   facet normal -7.071068e-001 -7.666467e-017 -7.071068e-001
      outer loop
         vertex 6.450000e+000 8.000000e+000 2.550000e+000
         vertex 9.000000e+000 0.000000e+000 -3.794708e-016
         vertex 5.000000e+000 0.000000e+000 4.000000e+000
      endloop
   endfacet
   facet normal -7.071068e-001 -7.666467e-017 -7.071068e-001
      outer loop
         vertex 6.450000e+000 8.000000e+000 2.550000e+000
         vertex 5.000000e+000 0.000000e+000 4.000000e+000
         vertex 5.000000e+000 9.000000e+000 4.000000e+000
      endloop
   endfacet
   facet normal 0.000000e+000 0.000000e+000 1.000000e+000
      outer loop
         vertex 0.000000e+000 4.000000e+000 5.000000e+000
         vertex 0.000000e+000 0.000000e+000 5.000000e+000
         vertex 1.000000e+001 4.000000e+000 5.000000e+000
      endloop
   endfacet
   facet normal 0.000000e+000 0.000000e+000 1.000000e+000
      outer loop
         vertex 1.000000e+001 4.000000e+000 5.000000e+000
         vertex 0.000000e+000 0.000000e+000 5.000000e+000
         vertex 1.000000e+001 0.000000e+000 5.000000e+000
      endloop
   endfacet
   facet normal 1.084202e-016 -1.000000e+000 -2.256949e-033
      outer loop
         vertex 5.000000e+000 0.000000e+000 4.000000e+000
         vertex 9.000000e+000 0.000000e+000 0.000000e+000
         vertex 1.000000e+001 0.000000e+000 3.753958e-018
      endloop
   endfacet
   facet normal 1.084202e-016 -1.000000e+000 -2.256949e-033
      outer loop
         vertex 0.000000e+000 0.000000e+000 0.000000e+000
         vertex 9.999997e-001 0.000000e+000 1.084202e-016
         vertex 0.000000e+000 0.000000e+000 5.000000e+000
      endloop
   endfacet
   facet normal 1.084202e-016 -1.000000e+000 -2.256949e-033
      outer loop
         vertex 0.000000e+000 0.000000e+000 5.000000e+000
         vertex 9.999997e-001 0.000000e+000 1.084202e-016
         vertex 5.000000e+000 0.000000e+000 4.000000e+000
      endloop
   endfacet
   facet normal 1.084202e-016 -1.000000e+000 -2.256949e-033
      outer loop
         vertex 0.000000e+000 0.000000e+000 5.000000e+000
         vertex 5.000000e+000 0.000000e+000 4.000000e+000
         vertex 1.000000e+001 0.000000e+000 5.000000e+000
      endloop
   endfacet
   facet normal 1.084202e-016 -1.000000e+000 -2.256949e-033
      outer loop
         vertex 1.000000e+001 0.000000e+000 5.000000e+000
         vertex 5.000000e+000 0.000000e+000 4.000000e+000
         vertex 1.000000e+001 0.000000e+000 3.753958e-018
      endloop
   endfacet
   facet normal 6.296952e-018 -5.807913e-002 9.983119e-001
      outer loop
         vertex 0.000000e+000 4.000000e+000 5.000000e+000
         vertex 1.000000e+001 4.000000e+000 5.000000e+000
         vertex 0.000000e+000 4.173648e+000 5.015192e+000
      endloop
   endfacet
   facet normal 1.259391e-017 -1.161583e-001 9.932307e-001
      outer loop
         vertex 0.000000e+000 4.173648e+000 5.015192e+000
         vertex 1.000000e+001 4.000000e+000 5.000000e+000
         vertex 1.000000e+001 4.173648e+000 5.015192e+000
      endloop
   endfacet
   facet normal 2.499648e-017 -2.305519e-001 9.730600e-001
      outer loop
         vertex 0.000000e+000 4.173648e+000 5.015192e+000
         vertex 1.000000e+001 4.173648e+000 5.015192e+000
         vertex 0.000000e+000 4.342020e+000 5.060307e+000
      endloop
   endfacet
   facet normal 3.110210e-017 -2.868663e-001 9.579706e-001
      outer loop
         vertex 0.000000e+000 4.342020e+000 5.060307e+000
         vertex 1.000000e+001 4.173648e+000 5.015192e+000
         vertex 1.000000e+001 4.342020e+000 5.060307e+000
      endloop
   endfacet
   facet normal 4.293650e-017 -3.960194e-001 9.182422e-001
      outer loop
         vertex 0.000000e+000 4.342020e+000 5.060307e+000
         vertex 1.000000e+001 4.342020e+000 5.060307e+000
         vertex 0.000000e+000 4.500000e+000 5.133975e+000
      endloop
   endfacet
   facet normal 4.866528e-017 -4.488580e-001 8.936031e-001
      outer loop
         vertex 0.000000e+000 4.500000e+000 5.133975e+000
         vertex 1.000000e+001 4.342020e+000 5.060307e+000
         vertex 1.000000e+001 4.500000e+000 5.133975e+000
      endloop
   endfacet
   facet normal 5.957193e-017 -5.494540e-001 8.355240e-001
      outer loop
         vertex 0.000000e+000 4.500000e+000 5.133975e+000
         vertex 1.000000e+001 4.500000e+000 5.133975e+000
         vertex 0.000000e+000 4.642787e+000 5.233955e+000
      endloop
   endfacet
   facet normal 6.474978e-017 -5.972114e-001 8.020838e-001
      outer loop
         vertex 0.000000e+000 4.642787e+000 5.233955e+000
         vertex 1.000000e+001 4.500000e+000 5.133975e+000
         vertex 1.000000e+001 4.642787e+000 5.233955e+000
      endloop
   endfacet
   facet normal 7.439727e-017 -6.861938e-001 7.274188e-001
      outer loop
         vertex 0.000000e+000 4.642787e+000 5.233955e+000
         vertex 1.000000e+001 4.642787e+000 5.233955e+000
         vertex 0.000000e+000 4.766044e+000 5.357213e+000
      endloop
   endfacet
   facet normal 7.886690e-017 -7.274188e-001 6.861938e-001
      outer loop
         vertex 0.000000e+000 4.766044e+000 5.357213e+000
         vertex 1.000000e+001 4.642787e+000 5.233955e+000
         vertex 1.000000e+001 4.766044e+000 5.357213e+000
      endloop
   endfacet
   facet normal 8.696210e-017 -8.020838e-001 5.972114e-001
      outer loop
         vertex 0.000000e+000 4.766044e+000 5.357213e+000
         vertex 1.000000e+001 4.766044e+000 5.357213e+000
         vertex 0.000000e+000 4.866025e+000 5.500000e+000
      endloop
   endfacet
   facet normal 9.058769e-017 -8.355240e-001 5.494540e-001
      outer loop
         vertex 0.000000e+000 4.866025e+000 5.500000e+000
         vertex 1.000000e+001 4.766044e+000 5.357213e+000
         vertex 1.000000e+001 4.866025e+000 5.500000e+000
      endloop
   endfacet
   facet normal 9.688464e-017 -8.936031e-001 4.488580e-001
      outer loop
         vertex 0.000000e+000 4.866025e+000 5.500000e+000
         vertex 1.000000e+001 4.866025e+000 5.500000e+000
         vertex 0.000000e+000 4.939692e+000 5.657980e+000
      endloop
   endfacet
   facet normal 9.955602e-017 -9.182422e-001 3.960194e-001
      outer loop
         vertex 0.000000e+000 4.939692e+000 5.657980e+000
         vertex 1.000000e+001 4.866025e+000 5.500000e+000
         vertex 1.000000e+001 4.939692e+000 5.657980e+000
      endloop
   endfacet
   facet normal 1.038634e-016 -9.579706e-001 2.868663e-001
      outer loop
         vertex 0.000000e+000 4.939692e+000 5.657980e+000
         vertex 1.000000e+001 4.939692e+000 5.657980e+000
         vertex 0.000000e+000 4.984807e+000 5.826352e+000
      endloop
   endfacet
   facet normal 1.054994e-016 -9.730600e-001 2.305519e-001
      outer loop
         vertex 0.000000e+000 4.984807e+000 5.826352e+000
         vertex 1.000000e+001 4.939692e+000 5.657980e+000
         vertex 1.000000e+001 4.984807e+000 5.826352e+000
      endloop
   endfacet
   facet normal 1.076863e-016 -9.932307e-001 1.161583e-001
      outer loop
         vertex 0.000000e+000 4.984807e+000 5.826352e+000
         vertex 1.000000e+001 4.984807e+000 5.826352e+000
         vertex 0.000000e+000 5.000000e+000 6.000000e+000
      endloop
   endfacet
   facet normal 1.082372e-016 -9.983119e-001 5.807913e-002
      outer loop
         vertex 0.000000e+000 5.000000e+000 6.000000e+000
         vertex 1.000000e+001 4.984807e+000 5.826352e+000
         vertex 1.000000e+001 5.000000e+000 6.000000e+000
      endloop
   endfacet
endsolid