solid TracoPowerSpacer
   facet normal 0.000000e+000 -1.000000e+000 0.000000e+000
      outer loop
         vertex 3.000000e+000 0.000000e+000 1.500000e+001
         vertex 2.449294e-016 0.000000e+000 1.500000e+001
         vertex 3.000000e+000 0.000000e+000 0.000000e+000
      endloop
   endfacet
   facet normal 0.000000e+000 -1.000000e+000 0.000000e+000
      outer loop
         vertex 3.000000e+000 0.000000e+000 0.000000e+000
         vertex 2.449294e-016 0.000000e+000 1.500000e+001
         vertex 2.449294e-016 0.000000e+000 0.000000e+000
      endloop
   endfacet
   facet normal 1.000000e+000 0.000000e+000 0.000000e+000
      outer loop
         vertex 3.000000e+000 9.000000e+000 1.500000e+001
         vertex 3.000000e+000 0.000000e+000 1.500000e+001
         vertex 3.000000e+000 9.000000e+000 0.000000e+000
      endloop
   endfacet
   facet normal 1.000000e+000 0.000000e+000 0.000000e+000
      outer loop
         vertex 3.000000e+000 9.000000e+000 0.000000e+000
         vertex 3.000000e+000 0.000000e+000 1.500000e+001
         vertex 3.000000e+000 0.000000e+000 0.000000e+000
      endloop
   endfacet
   facet normal 0.000000e+000 -1.000000e+000 0.000000e+000
      outer loop
         vertex 1.600000e+001 9.000000e+000 1.500000e+001
         vertex 3.000000e+000 9.000000e+000 1.500000e+001
         vertex 1.600000e+001 9.000000e+000 0.000000e+000
      endloop
   endfacet
   facet normal 0.000000e+000 -1.000000e+000 0.000000e+000
      outer loop
         vertex 1.600000e+001 9.000000e+000 0.000000e+000
         vertex 3.000000e+000 9.000000e+000 1.500000e+001
         vertex 3.000000e+000 9.000000e+000 0.000000e+000
      endloop
   endfacet
   facet normal -1.000000e+000 0.000000e+000 0.000000e+000
      outer loop
         vertex 1.600000e+001 0.000000e+000 1.500000e+001
         vertex 1.600000e+001 9.000000e+000 1.500000e+001
         vertex 1.600000e+001 0.000000e+000 0.000000e+000
      endloop
   endfacet
   facet normal -1.000000e+000 0.000000e+000 0.000000e+000
      outer loop
         vertex 1.600000e+001 0.000000e+000 0.000000e+000
         vertex 1.600000e+001 9.000000e+000 1.500000e+001
         vertex 1.600000e+001 9.000000e+000 0.000000e+000
      endloop
   endfacet
   facet normal 0.000000e+000 -1.000000e+000 0.000000e+000
      outer loop
         vertex 2.200000e+001 0.000000e+000 1.500000e+001
         vertex 1.600000e+001 0.000000e+000 1.500000e+001
         vertex 2.200000e+001 0.000000e+000 0.000000e+000
      endloop
   endfacet
   facet normal 0.000000e+000 -1.000000e+000 0.000000e+000
      outer loop
         vertex 2.200000e+001 0.000000e+000 0.000000e+000
         vertex 1.600000e+001 0.000000e+000 1.500000e+001
         vertex 1.600000e+001 0.000000e+000 0.000000e+000
      endloop
   endfacet
   facet normal 1.000000e+000 0.000000e+000 0.000000e+000
      outer loop
         vertex 2.200000e+001 9.000000e+000 1.500000e+001
         vertex 2.200000e+001 0.000000e+000 1.500000e+001
         vertex 2.200000e+001 9.000000e+000 0.000000e+000
      endloop
   endfacet
   facet normal 1.000000e+000 0.000000e+000 0.000000e+000
      outer loop
         vertex 2.200000e+001 9.000000e+000 0.000000e+000
         vertex 2.200000e+001 0.000000e+000 1.500000e+001
         vertex 2.200000e+001 0.000000e+000 0.000000e+000
      endloop
   endfacet
   facet normal 0.000000e+000 -1.000000e+000 0.000000e+000
      outer loop
         vertex 3.500000e+001 9.000000e+000 1.500000e+001
         vertex 2.200000e+001 9.000000e+000 1.500000e+001
         vertex 3.500000e+001 9.000000e+000 0.000000e+000
      endloop
   endfacet
   facet normal 0.000000e+000 -1.000000e+000 0.000000e+000
      outer loop
         vertex 3.500000e+001 9.000000e+000 0.000000e+000
         vertex 2.200000e+001 9.000000e+000 1.500000e+001
         vertex 2.200000e+001 9.000000e+000 0.000000e+000
      endloop
   endfacet
   facet normal -1.000000e+000 0.000000e+000 0.000000e+000
      outer loop
         vertex 3.500000e+001 0.000000e+000 1.500000e+001
         vertex 3.500000e+001 9.000000e+000 1.500000e+001
         vertex 3.500000e+001 0.000000e+000 0.000000e+000
      endloop
   endfacet
   facet normal -1.000000e+000 0.000000e+000 0.000000e+000
      outer loop
         vertex 3.500000e+001 0.000000e+000 0.000000e+000
         vertex 3.500000e+001 9.000000e+000 1.500000e+001
         vertex 3.500000e+001 9.000000e+000 0.000000e+000
      endloop
   endfacet
   facet normal 0.000000e+000 -1.000000e+000 0.000000e+000
      outer loop
         vertex 4.100000e+001 0.000000e+000 1.500000e+001
         vertex 3.500000e+001 0.000000e+000 1.500000e+001
         vertex 4.100000e+001 0.000000e+000 0.000000e+000
      endloop
   endfacet
   facet normal 0.000000e+000 -1.000000e+000 0.000000e+000
      outer loop
         vertex 4.100000e+001 0.000000e+000 0.000000e+000
         vertex 3.500000e+001 0.000000e+000 1.500000e+001
         vertex 3.500000e+001 0.000000e+000 0.000000e+000
      endloop
   endfacet
   facet normal 1.000000e+000 0.000000e+000 0.000000e+000
      outer loop
         vertex 4.100000e+001 9.000000e+000 1.500000e+001
         vertex 4.100000e+001 0.000000e+000 1.500000e+001
         vertex 4.100000e+001 9.000000e+000 0.000000e+000
      endloop
   endfacet
   facet normal 1.000000e+000 0.000000e+000 0.000000e+000
      outer loop
         vertex 4.100000e+001 9.000000e+000 0.000000e+000
         vertex 4.100000e+001 0.000000e+000 1.500000e+001
         vertex 4.100000e+001 0.000000e+000 0.000000e+000
      endloop
   endfacet
   facet normal 0.000000e+000 -1.000000e+000 0.000000e+000
      outer loop
         vertex 5.400000e+001 9.000000e+000 1.500000e+001
         vertex 4.100000e+001 9.000000e+000 1.500000e+001
         vertex 5.400000e+001 9.000000e+000 0.000000e+000
      endloop
   endfacet
   facet normal 0.000000e+000 -1.000000e+000 0.000000e+000
      outer loop
         vertex 5.400000e+001 9.000000e+000 0.000000e+000
         vertex 4.100000e+001 9.000000e+000 1.500000e+001
         vertex 4.100000e+001 9.000000e+000 0.000000e+000
      endloop
   endfacet
   facet normal -1.000000e+000 0.000000e+000 0.000000e+000
      outer loop
         vertex 5.400000e+001 0.000000e+000 1.500000e+001
         vertex 5.400000e+001 9.000000e+000 1.500000e+001
         vertex 5.400000e+001 0.000000e+000 0.000000e+000
      endloop
   endfacet
   facet normal -1.000000e+000 0.000000e+000 0.000000e+000
      outer loop
         vertex 5.400000e+001 0.000000e+000 0.000000e+000
         vertex 5.400000e+001 9.000000e+000 1.500000e+001
         vertex 5.400000e+001 9.000000e+000 0.000000e+000
      endloop
   endfacet
   facet normal 0.000000e+000 -1.000000e+000 0.000000e+000
      outer loop
         vertex 6.000000e+001 0.000000e+000 1.500000e+001
         vertex 5.400000e+001 0.000000e+000 1.500000e+001
         vertex 6.000000e+001 0.000000e+000 0.000000e+000
      endloop
   endfacet
   facet normal 0.000000e+000 -1.000000e+000 0.000000e+000
      outer loop
         vertex 6.000000e+001 0.000000e+000 0.000000e+000
         vertex 5.400000e+001 0.000000e+000 1.500000e+001
         vertex 5.400000e+001 0.000000e+000 0.000000e+000
      endloop
   endfacet
   facet normal 1.000000e+000 0.000000e+000 0.000000e+000
      outer loop
         vertex 6.000000e+001 9.000000e+000 1.500000e+001
         vertex 6.000000e+001 0.000000e+000 1.500000e+001
         vertex 6.000000e+001 9.000000e+000 0.000000e+000
      endloop
   endfacet
   facet normal 1.000000e+000 0.000000e+000 0.000000e+000
      outer loop
         vertex 6.000000e+001 9.000000e+000 0.000000e+000
         vertex 6.000000e+001 0.000000e+000 1.500000e+001
         vertex 6.000000e+001 0.000000e+000 0.000000e+000
      endloop
   endfacet
   facet normal 0.000000e+000 -1.000000e+000 0.000000e+000
      outer loop
         vertex 7.300000e+001 9.000000e+000 1.500000e+001
         vertex 6.000000e+001 9.000000e+000 1.500000e+001
         vertex 7.300000e+001 9.000000e+000 0.000000e+000
      endloop
   endfacet
   facet normal 0.000000e+000 -1.000000e+000 0.000000e+000
      outer loop
         vertex 7.300000e+001 9.000000e+000 0.000000e+000
         vertex 6.000000e+001 9.000000e+000 1.500000e+001
         vertex 6.000000e+001 9.000000e+000 0.000000e+000
      endloop
   endfacet
   facet normal -1.000000e+000 0.000000e+000 0.000000e+000
      outer loop
         vertex 7.300000e+001 0.000000e+000 1.500000e+001
         vertex 7.300000e+001 9.000000e+000 1.500000e+001
         vertex 7.300000e+001 0.000000e+000 0.000000e+000
      endloop
   endfacet
   facet normal -1.000000e+000 0.000000e+000 0.000000e+000
      outer loop
         vertex 7.300000e+001 0.000000e+000 0.000000e+000
         vertex 7.300000e+001 9.000000e+000 1.500000e+001
         vertex 7.300000e+001 9.000000e+000 0.000000e+000
      endloop
   endfacet
   facet normal 0.000000e+000 -1.000000e+000 0.000000e+000
      outer loop
         vertex 7.600000e+001 0.000000e+000 1.500000e+001
         vertex 7.300000e+001 0.000000e+000 1.500000e+001
         vertex 7.600000e+001 0.000000e+000 0.000000e+000
      endloop
   endfacet
   facet normal 0.000000e+000 -1.000000e+000 0.000000e+000
      outer loop
         vertex 7.600000e+001 0.000000e+000 0.000000e+000
         vertex 7.300000e+001 0.000000e+000 1.500000e+001
         vertex 7.300000e+001 0.000000e+000 0.000000e+000
      endloop
   endfacet
   facet normal 1.000000e+000 0.000000e+000 0.000000e+000
      outer loop
         vertex 7.600000e+001 1.200000e+001 1.500000e+001
         vertex 7.600000e+001 0.000000e+000 1.500000e+001
         vertex 7.600000e+001 1.200000e+001 0.000000e+000
      endloop
   endfacet
   facet normal 1.000000e+000 0.000000e+000 0.000000e+000
      outer loop
         vertex 7.600000e+001 1.200000e+001 0.000000e+000
         vertex 7.600000e+001 0.000000e+000 1.500000e+001
         vertex 7.600000e+001 0.000000e+000 0.000000e+000
      endloop
   endfacet
   facet normal -1.141265e-016 1.000000e+000 0.000000e+000
      outer loop
         vertex 2.449294e-016 1.200000e+001 1.500000e+001
         vertex 7.600000e+001 1.200000e+001 1.500000e+001
         vertex 2.449294e-016 1.200000e+001 0.000000e+000
      endloop
   endfacet
   facet normal -1.141265e-016 1.000000e+000 0.000000e+000
      outer loop
         vertex 2.449294e-016 1.200000e+001 0.000000e+000
         vertex 7.600000e+001 1.200000e+001 1.500000e+001
         vertex 7.600000e+001 1.200000e+001 0.000000e+000
      endloop
   endfacet
   facet normal -1.000000e+000 -2.041078e-017 0.000000e+000
      outer loop
         vertex 2.449294e-016 0.000000e+000 1.500000e+001
         vertex 0.000000e+000 1.200000e+001 1.500000e+001
         vertex 2.449294e-016 0.000000e+000 0.000000e+000
      endloop
   endfacet
   facet normal -1.000000e+000 -2.041078e-017 0.000000e+000
      outer loop
         vertex 2.449294e-016 0.000000e+000 0.000000e+000
         vertex 0.000000e+000 1.200000e+001 1.500000e+001
         vertex 0.000000e+000 1.200000e+001 0.000000e+000
      endloop
   endfacet
   facet normal 0.000000e+000 0.000000e+000 1.000000e+000
      outer loop
         vertex 0.000000e+000 1.200000e+001 1.500000e+001
         vertex 2.449294e-016 0.000000e+000 1.500000e+001
         vertex 3.000000e+000 0.000000e+000 1.500000e+001
      endloop
   endfacet
   facet normal 0.000000e+000 0.000000e+000 1.000000e+000
      outer loop
         vertex 3.000000e+000 0.000000e+000 1.500000e+001
         vertex 3.000000e+000 9.000000e+000 1.500000e+001
         vertex 0.000000e+000 1.200000e+001 1.500000e+001
      endloop
   endfacet
   facet normal 0.000000e+000 0.000000e+000 1.000000e+000
      outer loop
         vertex 0.000000e+000 1.200000e+001 1.500000e+001
         vertex 3.000000e+000 9.000000e+000 1.500000e+001
         vertex 1.600000e+001 9.000000e+000 1.500000e+001
      endloop
   endfacet
   facet normal 0.000000e+000 0.000000e+000 1.000000e+000
      outer loop
         vertex 0.000000e+000 1.200000e+001 1.500000e+001
         vertex 1.600000e+001 9.000000e+000 1.500000e+001
         vertex 7.600000e+001 1.200000e+001 1.500000e+001
      endloop
   endfacet
   facet normal 0.000000e+000 0.000000e+000 1.000000e+000
      outer loop
         vertex 3.500000e+001 9.000000e+000 1.500000e+001
         vertex 3.500000e+001 0.000000e+000 1.500000e+001
         vertex 4.100000e+001 0.000000e+000 1.500000e+001
      endloop
   endfacet
   facet normal 0.000000e+000 0.000000e+000 1.000000e+000
      outer loop
         vertex 4.100000e+001 9.000000e+000 1.500000e+001
         vertex 5.400000e+001 9.000000e+000 1.500000e+001
         vertex 7.600000e+001 1.200000e+001 1.500000e+001
      endloop
   endfacet
   facet normal 0.000000e+000 0.000000e+000 1.000000e+000
      outer loop
         vertex 4.100000e+001 0.000000e+000 1.500000e+001
         vertex 4.100000e+001 9.000000e+000 1.500000e+001
         vertex 3.500000e+001 9.000000e+000 1.500000e+001
      endloop
   endfacet
   facet normal 0.000000e+000 0.000000e+000 1.000000e+000
      outer loop
         vertex 3.500000e+001 9.000000e+000 1.500000e+001
         vertex 4.100000e+001 9.000000e+000 1.500000e+001
         vertex 7.600000e+001 1.200000e+001 1.500000e+001
      endloop
   endfacet
   facet normal 0.000000e+000 0.000000e+000 1.000000e+000
      outer loop
         vertex 3.500000e+001 9.000000e+000 1.500000e+001
         vertex 7.600000e+001 1.200000e+001 1.500000e+001
         vertex 2.200000e+001 9.000000e+000 1.500000e+001
      endloop
   endfacet
   facet normal 0.000000e+000 0.000000e+000 1.000000e+000
      outer loop
         vertex 2.200000e+001 9.000000e+000 1.500000e+001
         vertex 7.600000e+001 1.200000e+001 1.500000e+001
         vertex 1.600000e+001 9.000000e+000 1.500000e+001
      endloop
   endfacet
   facet normal 0.000000e+000 0.000000e+000 1.000000e+000
      outer loop
         vertex 2.200000e+001 9.000000e+000 1.500000e+001
         vertex 1.600000e+001 9.000000e+000 1.500000e+001
         vertex 2.200000e+001 0.000000e+000 1.500000e+001
      endloop
   endfacet
   facet normal 0.000000e+000 0.000000e+000 1.000000e+000
      outer loop
         vertex 2.200000e+001 0.000000e+000 1.500000e+001
         vertex 1.600000e+001 9.000000e+000 1.500000e+001
         vertex 1.600000e+001 0.000000e+000 1.500000e+001
      endloop
   endfacet
   facet normal 0.000000e+000 0.000000e+000 1.000000e+000
      outer loop
         vertex 7.300000e+001 0.000000e+000 1.500000e+001
         vertex 7.600000e+001 0.000000e+000 1.500000e+001
         vertex 7.300000e+001 9.000000e+000 1.500000e+001
      endloop
   endfacet
   facet normal 0.000000e+000 0.000000e+000 1.000000e+000
      outer loop
         vertex 7.300000e+001 9.000000e+000 1.500000e+001
         vertex 7.600000e+001 0.000000e+000 1.500000e+001
         vertex 7.600000e+001 1.200000e+001 1.500000e+001
      endloop
   endfacet
   facet normal 0.000000e+000 0.000000e+000 1.000000e+000
      outer loop
         vertex 7.300000e+001 9.000000e+000 1.500000e+001
         vertex 7.600000e+001 1.200000e+001 1.500000e+001
         vertex 6.000000e+001 9.000000e+000 1.500000e+001
      endloop
   endfacet
   facet normal 0.000000e+000 0.000000e+000 1.000000e+000
      outer loop
         vertex 6.000000e+001 9.000000e+000 1.500000e+001
         vertex 7.600000e+001 1.200000e+001 1.500000e+001
         vertex 5.400000e+001 9.000000e+000 1.500000e+001
      endloop
   endfacet
   facet normal 0.000000e+000 0.000000e+000 1.000000e+000
      outer loop
         vertex 6.000000e+001 9.000000e+000 1.500000e+001
         vertex 5.400000e+001 9.000000e+000 1.500000e+001
         vertex 6.000000e+001 0.000000e+000 1.500000e+001
      endloop
   endfacet
   facet normal 0.000000e+000 0.000000e+000 1.000000e+000
      outer loop
         vertex 6.000000e+001 0.000000e+000 1.500000e+001
         vertex 5.400000e+001 9.000000e+000 1.500000e+001
         vertex 5.400000e+001 0.000000e+000 1.500000e+001
      endloop
   endfacet
   facet normal 0.000000e+000 0.000000e+000 -1.000000e+000
      outer loop
         vertex 7.600000e+001 1.200000e+001 0.000000e+000
         vertex 7.600000e+001 0.000000e+000 0.000000e+000
         vertex 7.300000e+001 0.000000e+000 0.000000e+000
      endloop
   endfacet
   facet normal 0.000000e+000 0.000000e+000 -1.000000e+000
      outer loop
         vertex 7.300000e+001 0.000000e+000 0.000000e+000
         vertex 7.300000e+001 9.000000e+000 0.000000e+000
         vertex 7.600000e+001 1.200000e+001 0.000000e+000
      endloop
   endfacet
   facet normal 0.000000e+000 0.000000e+000 -1.000000e+000
      outer loop
         vertex 7.600000e+001 1.200000e+001 0.000000e+000
         vertex 7.300000e+001 9.000000e+000 0.000000e+000
         vertex 6.000000e+001 9.000000e+000 0.000000e+000
      endloop
   endfacet
   facet normal 0.000000e+000 0.000000e+000 -1.000000e+000
      outer loop
         vertex 7.600000e+001 1.200000e+001 0.000000e+000
         vertex 6.000000e+001 9.000000e+000 0.000000e+000
         vertex 0.000000e+000 1.200000e+001 0.000000e+000
      endloop
   endfacet
   facet normal 0.000000e+000 0.000000e+000 -1.000000e+000
      outer loop
         vertex 4.100000e+001 9.000000e+000 0.000000e+000
         vertex 4.100000e+001 0.000000e+000 0.000000e+000
         vertex 3.500000e+001 0.000000e+000 0.000000e+000
      endloop
   endfacet
   facet normal 0.000000e+000 0.000000e+000 -1.000000e+000
      outer loop
         vertex 3.500000e+001 9.000000e+000 0.000000e+000
         vertex 2.200000e+001 9.000000e+000 0.000000e+000
         vertex 0.000000e+000 1.200000e+001 0.000000e+000
      endloop
   endfacet
   facet normal 0.000000e+000 0.000000e+000 -1.000000e+000
      outer loop
         vertex 3.500000e+001 0.000000e+000 0.000000e+000
         vertex 3.500000e+001 9.000000e+000 0.000000e+000
         vertex 4.100000e+001 9.000000e+000 0.000000e+000
      endloop
   endfacet
   facet normal 0.000000e+000 0.000000e+000 -1.000000e+000
      outer loop
         vertex 4.100000e+001 9.000000e+000 0.000000e+000
         vertex 3.500000e+001 9.000000e+000 0.000000e+000
         vertex 0.000000e+000 1.200000e+001 0.000000e+000
      endloop
   endfacet
   facet normal 0.000000e+000 0.000000e+000 -1.000000e+000
      outer loop
         vertex 4.100000e+001 9.000000e+000 0.000000e+000
         vertex 0.000000e+000 1.200000e+001 0.000000e+000
         vertex 5.400000e+001 9.000000e+000 0.000000e+000
      endloop
   endfacet
   facet normal 0.000000e+000 0.000000e+000 -1.000000e+000
      outer loop
         vertex 5.400000e+001 9.000000e+000 0.000000e+000
         vertex 0.000000e+000 1.200000e+001 0.000000e+000
         vertex 6.000000e+001 9.000000e+000 0.000000e+000
      endloop
   endfacet
   facet normal 0.000000e+000 0.000000e+000 -1.000000e+000
      outer loop
         vertex 5.400000e+001 9.000000e+000 0.000000e+000
         vertex 6.000000e+001 9.000000e+000 0.000000e+000
         vertex 5.400000e+001 0.000000e+000 0.000000e+000
      endloop
   endfacet
   facet normal 0.000000e+000 0.000000e+000 -1.000000e+000
      outer loop
         vertex 5.400000e+001 0.000000e+000 0.000000e+000
         vertex 6.000000e+001 9.000000e+000 0.000000e+000
         vertex 6.000000e+001 0.000000e+000 0.000000e+000
      endloop
   endfacet
   facet normal 0.000000e+000 0.000000e+000 -1.000000e+000
      outer loop
         vertex 3.000000e+000 0.000000e+000 0.000000e+000
         vertex 2.449294e-016 0.000000e+000 0.000000e+000
         vertex 3.000000e+000 9.000000e+000 0.000000e+000
      endloop
   endfacet
   facet normal 0.000000e+000 0.000000e+000 -1.000000e+000
      outer loop
         vertex 3.000000e+000 9.000000e+000 0.000000e+000
         vertex 2.449294e-016 0.000000e+000 0.000000e+000
         vertex 0.000000e+000 1.200000e+001 0.000000e+000
      endloop
   endfacet
   facet normal 0.000000e+000 0.000000e+000 -1.000000e+000
      outer loop
         vertex 3.000000e+000 9.000000e+000 0.000000e+000
         vertex 0.000000e+000 1.200000e+001 0.000000e+000
         vertex 1.600000e+001 9.000000e+000 0.000000e+000
      endloop
   endfacet
   facet normal 0.000000e+000 0.000000e+000 -1.000000e+000
      outer loop
         vertex 1.600000e+001 9.000000e+000 0.000000e+000
         vertex 0.000000e+000 1.200000e+001 0.000000e+000
         vertex 2.200000e+001 9.000000e+000 0.000000e+000
      endloop
   endfacet
   facet normal 0.000000e+000 0.000000e+000 -1.000000e+000
      outer loop
         vertex 1.600000e+001 9.000000e+000 0.000000e+000
         vertex 2.200000e+001 9.000000e+000 0.000000e+000
         vertex 1.600000e+001 0.000000e+000 0.000000e+000
      endloop
   endfacet
   facet normal 0.000000e+000 0.000000e+000 -1.000000e+000
      outer loop
         vertex 1.600000e+001 0.000000e+000 0.000000e+000
         vertex 2.200000e+001 9.000000e+000 0.000000e+000
         vertex 2.200000e+001 0.000000e+000 0.000000e+000
      endloop
   endfacet
endsolid