solid Support-BigRobot-Coders-Pivot-Opposite-MakerBeam-Right
   facet normal -1.000000e+000 -4.336809e-016 0.000000e+000
      outer loop
         vertex 3.000000e+001 1.000000e+001 2.200000e+001
         vertex 3.000000e+001 1.800000e+001 2.200000e+001
         vertex 3.000000e+001 1.000000e+001 1.414467e-015
      endloop
   endfacet
   facet normal -1.000000e+000 -4.336809e-016 0.000000e+000
      outer loop
         vertex 3.000000e+001 1.000000e+001 1.414467e-015
         vertex 3.000000e+001 1.800000e+001 2.200000e+001
         vertex 3.000000e+001 1.800000e+001 1.414467e-015
      endloop
   endfacet
   facet normal 0.000000e+000 1.000000e+000 0.000000e+000
      outer loop
         vertex 3.000000e+001 1.800000e+001 2.200000e+001
         vertex 4.000000e+001 1.800000e+001 2.200000e+001
         vertex 3.000000e+001 1.800000e+001 1.414467e-015
      endloop
   endfacet
   facet normal 0.000000e+000 1.000000e+000 0.000000e+000
      outer loop
         vertex 3.000000e+001 1.800000e+001 1.414467e-015
         vertex 4.000000e+001 1.800000e+001 2.200000e+001
         vertex 4.000000e+001 1.800000e+001 1.414467e-015
      endloop
   endfacet
   facet normal -1.000000e+000 0.000000e+000 0.000000e+000
      outer loop
         vertex 4.000000e+001 1.800000e+001 2.200000e+001
         vertex 4.000000e+001 2.400000e+001 2.200000e+001
         vertex 4.000000e+001 1.800000e+001 1.414467e-015
      endloop
   endfacet
   facet normal -1.000000e+000 0.000000e+000 0.000000e+000
      outer loop
         vertex 4.000000e+001 1.800000e+001 1.414467e-015
         vertex 4.000000e+001 2.400000e+001 2.200000e+001
         vertex 4.000000e+001 2.400000e+001 1.414467e-015
      endloop
   endfacet
   facet normal 0.000000e+000 1.000000e+000 0.000000e+000
      outer loop
         vertex 6.045443e+001 2.400000e+001 4.479055e+000
         vertex 6.050000e+001 2.400000e+001 5.000000e+000
         vertex 6.400000e+001 2.400000e+001 5.000000e+000
      endloop
   endfacet
   facet normal 0.000000e+000 1.000000e+000 0.000000e+000
      outer loop
         vertex 4.000000e+001 2.400000e+001 2.200000e+001
         vertex 4.600000e+001 2.400000e+001 2.200000e+001
         vertex 4.600000e+001 2.400000e+001 1.800000e+001
      endloop
   endfacet
   facet normal 0.000000e+000 1.000000e+000 0.000000e+000
      outer loop
         vertex 4.600000e+001 2.400000e+001 1.800000e+001
         vertex 4.604557e+001 2.400000e+001 1.747906e+001
         vertex 4.000000e+001 2.400000e+001 2.200000e+001
      endloop
   endfacet
   facet normal 0.000000e+000 1.000000e+000 0.000000e+000
      outer loop
         vertex 4.000000e+001 2.400000e+001 2.200000e+001
         vertex 4.604557e+001 2.400000e+001 1.747906e+001
         vertex 4.618092e+001 2.400000e+001 1.697394e+001
      endloop
   endfacet
   facet normal 0.000000e+000 1.000000e+000 0.000000e+000
      outer loop
         vertex 4.000000e+001 2.400000e+001 2.200000e+001
         vertex 4.618092e+001 2.400000e+001 1.697394e+001
         vertex 4.640192e+001 2.400000e+001 1.650000e+001
      endloop
   endfacet
   facet normal 0.000000e+000 1.000000e+000 0.000000e+000
      outer loop
         vertex 5.520187e+001 2.400000e+001 6.928363e+000
         vertex 5.490192e+001 2.400000e+001 6.500000e+000
         vertex 4.000000e+001 2.400000e+001 2.200000e+001
      endloop
   endfacet
   facet normal 0.000000e+000 1.000000e+000 0.000000e+000
      outer loop
         vertex 4.000000e+001 2.400000e+001 2.200000e+001
         vertex 5.490192e+001 2.400000e+001 6.500000e+000
         vertex 5.468092e+001 2.400000e+001 6.026060e+000
      endloop
   endfacet
   facet normal 0.000000e+000 1.000000e+000 0.000000e+000
      outer loop
         vertex 4.000000e+001 2.400000e+001 2.200000e+001
         vertex 5.468092e+001 2.400000e+001 6.026060e+000
         vertex 4.000000e+001 2.400000e+001 1.414467e-015
      endloop
   endfacet
   facet normal 0.000000e+000 1.000000e+000 0.000000e+000
      outer loop
         vertex 5.647394e+001 2.400000e+001 7.819078e+000
         vertex 5.600000e+001 2.400000e+001 7.598076e+000
         vertex 4.707164e+001 2.400000e+001 1.570187e+001
      endloop
   endfacet
   facet normal 0.000000e+000 1.000000e+000 0.000000e+000
      outer loop
         vertex 4.707164e+001 2.400000e+001 1.570187e+001
         vertex 5.600000e+001 2.400000e+001 7.598076e+000
         vertex 5.557164e+001 2.400000e+001 7.298133e+000
      endloop
   endfacet
   facet normal 0.000000e+000 1.000000e+000 0.000000e+000
      outer loop
         vertex 4.000000e+001 2.400000e+001 1.414467e-015
         vertex 5.520187e+001 2.400000e+001 3.071637e+000
         vertex 5.557164e+001 2.400000e+001 2.701867e+000
      endloop
   endfacet
   facet normal 0.000000e+000 1.000000e+000 0.000000e+000
      outer loop
         vertex 5.852606e+001 2.400000e+001 7.819078e+000
         vertex 5.802095e+001 2.400000e+001 7.954423e+000
         vertex 4.750000e+001 2.400000e+001 1.540192e+001
      endloop
   endfacet
   facet normal 0.000000e+000 1.000000e+000 0.000000e+000
      outer loop
         vertex 4.750000e+001 2.400000e+001 1.540192e+001
         vertex 5.802095e+001 2.400000e+001 7.954423e+000
         vertex 5.750000e+001 2.400000e+001 8.000000e+000
      endloop
   endfacet
   facet normal 0.000000e+000 1.000000e+000 0.000000e+000
      outer loop
         vertex 4.750000e+001 2.400000e+001 1.540192e+001
         vertex 5.750000e+001 2.400000e+001 8.000000e+000
         vertex 4.707164e+001 2.400000e+001 1.570187e+001
      endloop
   endfacet
   facet normal 0.000000e+000 1.000000e+000 0.000000e+000
      outer loop
         vertex 4.707164e+001 2.400000e+001 1.570187e+001
         vertex 5.750000e+001 2.400000e+001 8.000000e+000
         vertex 5.697906e+001 2.400000e+001 7.954423e+000
      endloop
   endfacet
   facet normal 0.000000e+000 1.000000e+000 0.000000e+000
      outer loop
         vertex 4.707164e+001 2.400000e+001 1.570187e+001
         vertex 5.697906e+001 2.400000e+001 7.954423e+000
         vertex 5.647394e+001 2.400000e+001 7.819078e+000
      endloop
   endfacet
   facet normal 0.000000e+000 1.000000e+000 0.000000e+000
      outer loop
         vertex 4.640192e+001 2.400000e+001 1.650000e+001
         vertex 4.670187e+001 2.400000e+001 1.607164e+001
         vertex 4.000000e+001 2.400000e+001 2.200000e+001
      endloop
   endfacet
   facet normal 0.000000e+000 1.000000e+000 0.000000e+000
      outer loop
         vertex 4.000000e+001 2.400000e+001 2.200000e+001
         vertex 4.670187e+001 2.400000e+001 1.607164e+001
         vertex 4.707164e+001 2.400000e+001 1.570187e+001
      endloop
   endfacet
   facet normal 0.000000e+000 1.000000e+000 0.000000e+000
      outer loop
         vertex 4.000000e+001 2.400000e+001 2.200000e+001
         vertex 4.707164e+001 2.400000e+001 1.570187e+001
         vertex 5.520187e+001 2.400000e+001 6.928363e+000
      endloop
   endfacet
   facet normal 0.000000e+000 1.000000e+000 0.000000e+000
      outer loop
         vertex 5.520187e+001 2.400000e+001 6.928363e+000
         vertex 4.707164e+001 2.400000e+001 1.570187e+001
         vertex 5.557164e+001 2.400000e+001 7.298133e+000
      endloop
   endfacet
   facet normal 0.000000e+000 1.000000e+000 0.000000e+000
      outer loop
         vertex 5.468092e+001 2.400000e+001 6.026060e+000
         vertex 5.454558e+001 2.400000e+001 5.520945e+000
         vertex 4.000000e+001 2.400000e+001 1.414467e-015
      endloop
   endfacet
   facet normal 0.000000e+000 1.000000e+000 0.000000e+000
      outer loop
         vertex 4.000000e+001 2.400000e+001 1.414467e-015
         vertex 5.454558e+001 2.400000e+001 5.520945e+000
         vertex 5.450000e+001 2.400000e+001 5.000000e+000
      endloop
   endfacet
   facet normal 0.000000e+000 1.000000e+000 0.000000e+000
      outer loop
         vertex 4.000000e+001 2.400000e+001 1.414467e-015
         vertex 5.450000e+001 2.400000e+001 5.000000e+000
         vertex 5.454558e+001 2.400000e+001 4.479055e+000
      endloop
   endfacet
   facet normal 0.000000e+000 1.000000e+000 0.000000e+000
      outer loop
         vertex 6.050000e+001 2.400000e+001 5.000000e+000
         vertex 6.045443e+001 2.400000e+001 5.520945e+000
         vertex 6.400000e+001 2.400000e+001 5.000000e+000
      endloop
   endfacet
   facet normal 0.000000e+000 1.000000e+000 0.000000e+000
      outer loop
         vertex 6.400000e+001 2.400000e+001 5.000000e+000
         vertex 6.045443e+001 2.400000e+001 5.520945e+000
         vertex 6.031908e+001 2.400000e+001 6.026060e+000
      endloop
   endfacet
   facet normal 0.000000e+000 1.000000e+000 0.000000e+000
      outer loop
         vertex 6.400000e+001 2.400000e+001 5.000000e+000
         vertex 6.031908e+001 2.400000e+001 6.026060e+000
         vertex 6.400000e+001 2.400000e+001 1.500000e+001
      endloop
   endfacet
   facet normal 0.000000e+000 1.000000e+000 0.000000e+000
      outer loop
         vertex 6.400000e+001 2.400000e+001 1.500000e+001
         vertex 6.031908e+001 2.400000e+001 6.026060e+000
         vertex 6.009808e+001 2.400000e+001 6.500000e+000
      endloop
   endfacet
   facet normal 0.000000e+000 1.000000e+000 0.000000e+000
      outer loop
         vertex 6.400000e+001 2.400000e+001 1.500000e+001
         vertex 6.009808e+001 2.400000e+001 6.500000e+000
         vertex 5.979813e+001 2.400000e+001 6.928363e+000
      endloop
   endfacet
   facet normal 0.000000e+000 1.000000e+000 0.000000e+000
      outer loop
         vertex 5.454558e+001 2.400000e+001 4.479055e+000
         vertex 5.468092e+001 2.400000e+001 3.973939e+000
         vertex 4.000000e+001 2.400000e+001 1.414467e-015
      endloop
   endfacet
   facet normal 0.000000e+000 1.000000e+000 0.000000e+000
      outer loop
         vertex 4.000000e+001 2.400000e+001 1.414467e-015
         vertex 5.468092e+001 2.400000e+001 3.973939e+000
         vertex 5.490192e+001 2.400000e+001 3.500000e+000
      endloop
   endfacet
   facet normal 0.000000e+000 1.000000e+000 0.000000e+000
      outer loop
         vertex 4.000000e+001 2.400000e+001 1.414467e-015
         vertex 5.490192e+001 2.400000e+001 3.500000e+000
         vertex 5.520187e+001 2.400000e+001 3.071637e+000
      endloop
   endfacet
   facet normal 0.000000e+000 1.000000e+000 0.000000e+000
      outer loop
         vertex 5.557164e+001 2.400000e+001 2.701867e+000
         vertex 5.600000e+001 2.400000e+001 2.401924e+000
         vertex 4.000000e+001 2.400000e+001 1.414467e-015
      endloop
   endfacet
   facet normal 0.000000e+000 1.000000e+000 0.000000e+000
      outer loop
         vertex 4.000000e+001 2.400000e+001 1.414467e-015
         vertex 5.600000e+001 2.400000e+001 2.401924e+000
         vertex 5.647394e+001 2.400000e+001 2.180922e+000
      endloop
   endfacet
   facet normal 0.000000e+000 1.000000e+000 0.000000e+000
      outer loop
         vertex 4.000000e+001 2.400000e+001 1.414467e-015
         vertex 5.647394e+001 2.400000e+001 2.180922e+000
         vertex 5.900000e+001 2.400000e+001 1.414467e-015
      endloop
   endfacet
   facet normal 0.000000e+000 1.000000e+000 0.000000e+000
      outer loop
         vertex 5.900000e+001 2.400000e+001 1.414467e-015
         vertex 5.647394e+001 2.400000e+001 2.180922e+000
         vertex 5.697906e+001 2.400000e+001 2.045577e+000
      endloop
   endfacet
   facet normal 0.000000e+000 1.000000e+000 0.000000e+000
      outer loop
         vertex 5.900000e+001 2.400000e+001 1.414467e-015
         vertex 5.697906e+001 2.400000e+001 2.045577e+000
         vertex 5.750000e+001 2.400000e+001 2.000000e+000
      endloop
   endfacet
   facet normal 0.000000e+000 1.000000e+000 0.000000e+000
      outer loop
         vertex 5.852606e+001 2.400000e+001 7.819078e+000
         vertex 4.750000e+001 2.400000e+001 1.540192e+001
         vertex 5.900000e+001 2.400000e+001 7.598076e+000
      endloop
   endfacet
   facet normal 0.000000e+000 1.000000e+000 0.000000e+000
      outer loop
         vertex 5.900000e+001 2.400000e+001 7.598076e+000
         vertex 4.750000e+001 2.400000e+001 1.540192e+001
         vertex 4.797394e+001 2.400000e+001 1.518092e+001
      endloop
   endfacet
   facet normal 0.000000e+000 1.000000e+000 0.000000e+000
      outer loop
         vertex 5.900000e+001 2.400000e+001 7.598076e+000
         vertex 4.797394e+001 2.400000e+001 1.518092e+001
         vertex 4.847905e+001 2.400000e+001 1.504558e+001
      endloop
   endfacet
   facet normal 0.000000e+000 1.000000e+000 0.000000e+000
      outer loop
         vertex 5.750000e+001 2.400000e+001 2.000000e+000
         vertex 5.802095e+001 2.400000e+001 2.045577e+000
         vertex 5.900000e+001 2.400000e+001 1.414467e-015
      endloop
   endfacet
   facet normal 0.000000e+000 1.000000e+000 0.000000e+000
      outer loop
         vertex 5.900000e+001 2.400000e+001 1.414467e-015
         vertex 5.802095e+001 2.400000e+001 2.045577e+000
         vertex 5.852606e+001 2.400000e+001 2.180922e+000
      endloop
   endfacet
   facet normal 0.000000e+000 1.000000e+000 0.000000e+000
      outer loop
         vertex 5.900000e+001 2.400000e+001 1.414467e-015
         vertex 5.852606e+001 2.400000e+001 2.180922e+000
         vertex 5.986824e+001 2.400000e+001 7.596124e-002
      endloop
   endfacet
   facet normal 0.000000e+000 1.000000e+000 0.000000e+000
      outer loop
         vertex 5.986824e+001 2.400000e+001 7.596124e-002
         vertex 5.852606e+001 2.400000e+001 2.180922e+000
         vertex 5.900000e+001 2.400000e+001 2.401924e+000
      endloop
   endfacet
   facet normal 0.000000e+000 1.000000e+000 0.000000e+000
      outer loop
         vertex 6.400000e+001 2.400000e+001 5.000000e+000
         vertex 6.392404e+001 2.400000e+001 4.131759e+000
         vertex 6.045443e+001 2.400000e+001 4.479055e+000
      endloop
   endfacet
   facet normal 0.000000e+000 1.000000e+000 0.000000e+000
      outer loop
         vertex 6.045443e+001 2.400000e+001 4.479055e+000
         vertex 6.392404e+001 2.400000e+001 4.131759e+000
         vertex 6.369846e+001 2.400000e+001 3.289899e+000
      endloop
   endfacet
   facet normal 0.000000e+000 1.000000e+000 0.000000e+000
      outer loop
         vertex 6.045443e+001 2.400000e+001 4.479055e+000
         vertex 6.369846e+001 2.400000e+001 3.289899e+000
         vertex 6.031908e+001 2.400000e+001 3.973939e+000
      endloop
   endfacet
   facet normal 0.000000e+000 1.000000e+000 0.000000e+000
      outer loop
         vertex 6.031908e+001 2.400000e+001 3.973939e+000
         vertex 6.369846e+001 2.400000e+001 3.289899e+000
         vertex 6.333013e+001 2.400000e+001 2.500000e+000
      endloop
   endfacet
   facet normal 0.000000e+000 1.000000e+000 0.000000e+000
      outer loop
         vertex 6.031908e+001 2.400000e+001 3.973939e+000
         vertex 6.333013e+001 2.400000e+001 2.500000e+000
         vertex 6.009808e+001 2.400000e+001 3.500000e+000
      endloop
   endfacet
   facet normal 0.000000e+000 1.000000e+000 0.000000e+000
      outer loop
         vertex 6.009808e+001 2.400000e+001 3.500000e+000
         vertex 6.333013e+001 2.400000e+001 2.500000e+000
         vertex 6.283022e+001 2.400000e+001 1.786062e+000
      endloop
   endfacet
   facet normal 0.000000e+000 1.000000e+000 0.000000e+000
      outer loop
         vertex 6.009808e+001 2.400000e+001 3.500000e+000
         vertex 6.283022e+001 2.400000e+001 1.786062e+000
         vertex 5.979813e+001 2.400000e+001 3.071637e+000
      endloop
   endfacet
   facet normal 0.000000e+000 1.000000e+000 0.000000e+000
      outer loop
         vertex 5.979813e+001 2.400000e+001 3.071637e+000
         vertex 6.283022e+001 2.400000e+001 1.786062e+000
         vertex 6.221394e+001 2.400000e+001 1.169778e+000
      endloop
   endfacet
   facet normal 0.000000e+000 1.000000e+000 0.000000e+000
      outer loop
         vertex 5.979813e+001 2.400000e+001 3.071637e+000
         vertex 6.221394e+001 2.400000e+001 1.169778e+000
         vertex 5.942836e+001 2.400000e+001 2.701867e+000
      endloop
   endfacet
   facet normal 0.000000e+000 1.000000e+000 0.000000e+000
      outer loop
         vertex 5.942836e+001 2.400000e+001 2.701867e+000
         vertex 6.221394e+001 2.400000e+001 1.169778e+000
         vertex 6.150000e+001 2.400000e+001 6.698730e-001
      endloop
   endfacet
   facet normal 0.000000e+000 1.000000e+000 0.000000e+000
      outer loop
         vertex 5.942836e+001 2.400000e+001 2.701867e+000
         vertex 6.150000e+001 2.400000e+001 6.698730e-001
         vertex 5.900000e+001 2.400000e+001 2.401924e+000
      endloop
   endfacet
   facet normal 0.000000e+000 1.000000e+000 0.000000e+000
      outer loop
         vertex 5.900000e+001 2.400000e+001 2.401924e+000
         vertex 6.150000e+001 2.400000e+001 6.698730e-001
         vertex 6.071010e+001 2.400000e+001 3.015369e-001
      endloop
   endfacet
   facet normal 0.000000e+000 1.000000e+000 0.000000e+000
      outer loop
         vertex 5.900000e+001 2.400000e+001 2.401924e+000
         vertex 6.071010e+001 2.400000e+001 3.015369e-001
         vertex 5.986824e+001 2.400000e+001 7.596124e-002
      endloop
   endfacet
   facet normal 0.000000e+000 1.000000e+000 0.000000e+000
      outer loop
         vertex 5.979813e+001 2.400000e+001 6.928363e+000
         vertex 5.942836e+001 2.400000e+001 7.298133e+000
         vertex 6.400000e+001 2.400000e+001 1.500000e+001
      endloop
   endfacet
   facet normal 0.000000e+000 1.000000e+000 0.000000e+000
      outer loop
         vertex 6.400000e+001 2.400000e+001 1.500000e+001
         vertex 5.942836e+001 2.400000e+001 7.298133e+000
         vertex 5.900000e+001 2.400000e+001 7.598076e+000
      endloop
   endfacet
   facet normal 0.000000e+000 1.000000e+000 0.000000e+000
      outer loop
         vertex 6.400000e+001 2.400000e+001 1.500000e+001
         vertex 5.900000e+001 2.400000e+001 7.598076e+000
         vertex 4.900000e+001 2.400000e+001 1.500000e+001
      endloop
   endfacet
   facet normal 0.000000e+000 1.000000e+000 0.000000e+000
      outer loop
         vertex 4.900000e+001 2.400000e+001 1.500000e+001
         vertex 5.900000e+001 2.400000e+001 7.598076e+000
         vertex 4.847905e+001 2.400000e+001 1.504558e+001
      endloop
   endfacet
   facet normal 1.000000e+000 0.000000e+000 0.000000e+000
      outer loop
         vertex 6.400000e+001 1.800000e+001 5.000000e+000
         vertex 6.400000e+001 2.400000e+001 5.000000e+000
         vertex 6.400000e+001 1.800000e+001 1.000000e+001
      endloop
   endfacet
   facet normal 1.000000e+000 0.000000e+000 0.000000e+000
      outer loop
         vertex 6.400000e+001 1.800000e+001 1.000000e+001
         vertex 6.400000e+001 2.400000e+001 5.000000e+000
         vertex 6.400000e+001 2.400000e+001 1.500000e+001
      endloop
   endfacet
   facet normal 1.000000e+000 0.000000e+000 0.000000e+000
      outer loop
         vertex 6.400000e+001 1.800000e+001 1.000000e+001
         vertex 6.400000e+001 2.400000e+001 1.500000e+001
         vertex 6.400000e+001 0.000000e+000 1.000000e+001
      endloop
   endfacet
   facet normal 1.000000e+000 0.000000e+000 0.000000e+000
      outer loop
         vertex 6.400000e+001 0.000000e+000 1.000000e+001
         vertex 6.400000e+001 2.400000e+001 1.500000e+001
         vertex 6.400000e+001 0.000000e+000 1.500000e+001
      endloop
   endfacet
   facet normal 5.782412e-016 -1.000000e+000 0.000000e+000
      outer loop
         vertex 4.600000e+001 0.000000e+000 1.800000e+001
         vertex 4.600000e+001 0.000000e+000 2.200000e+001
         vertex 4.000000e+001 0.000000e+000 2.200000e+001
      endloop
   endfacet
   facet normal 5.782412e-016 -1.000000e+000 0.000000e+000
      outer loop
         vertex 4.000000e+001 0.000000e+000 2.200000e+001
         vertex 4.000000e+001 0.000000e+000 1.414467e-015
         vertex 4.300000e+001 0.000000e+000 1.000000e+001
      endloop
   endfacet
   facet normal 5.782412e-016 -1.000000e+000 0.000000e+000
      outer loop
         vertex 4.300000e+001 0.000000e+000 1.000000e+001
         vertex 4.000000e+001 0.000000e+000 1.414467e-015
         vertex 4.300000e+001 0.000000e+000 1.414467e-015
      endloop
   endfacet
   facet normal 5.782412e-016 -1.000000e+000 0.000000e+000
      outer loop
         vertex 4.847905e+001 0.000000e+000 1.504558e+001
         vertex 4.797394e+001 0.000000e+000 1.518092e+001
         vertex 4.300000e+001 0.000000e+000 1.000000e+001
      endloop
   endfacet
   facet normal 5.782412e-016 -1.000000e+000 0.000000e+000
      outer loop
         vertex 4.797394e+001 0.000000e+000 1.518092e+001
         vertex 4.750000e+001 0.000000e+000 1.540192e+001
         vertex 4.300000e+001 0.000000e+000 1.000000e+001
      endloop
   endfacet
   facet normal 5.782412e-016 -1.000000e+000 0.000000e+000
      outer loop
         vertex 4.300000e+001 0.000000e+000 1.000000e+001
         vertex 4.750000e+001 0.000000e+000 1.540192e+001
         vertex 4.707164e+001 0.000000e+000 1.570187e+001
      endloop
   endfacet
   facet normal 5.782412e-016 -1.000000e+000 0.000000e+000
      outer loop
         vertex 4.300000e+001 0.000000e+000 1.000000e+001
         vertex 4.707164e+001 0.000000e+000 1.570187e+001
         vertex 4.670187e+001 0.000000e+000 1.607164e+001
      endloop
   endfacet
   facet normal 5.782412e-016 -1.000000e+000 0.000000e+000
      outer loop
         vertex 4.670187e+001 0.000000e+000 1.607164e+001
         vertex 4.640192e+001 0.000000e+000 1.650000e+001
         vertex 4.300000e+001 0.000000e+000 1.000000e+001
      endloop
   endfacet
   facet normal 5.782412e-016 -1.000000e+000 0.000000e+000
      outer loop
         vertex 4.300000e+001 0.000000e+000 1.000000e+001
         vertex 4.640192e+001 0.000000e+000 1.650000e+001
         vertex 4.618092e+001 0.000000e+000 1.697394e+001
      endloop
   endfacet
   facet normal 5.782412e-016 -1.000000e+000 0.000000e+000
      outer loop
         vertex 4.300000e+001 0.000000e+000 1.000000e+001
         vertex 4.618092e+001 0.000000e+000 1.697394e+001
         vertex 4.000000e+001 0.000000e+000 2.200000e+001
      endloop
   endfacet
   facet normal 5.782412e-016 -1.000000e+000 0.000000e+000
      outer loop
         vertex 4.000000e+001 0.000000e+000 2.200000e+001
         vertex 4.618092e+001 0.000000e+000 1.697394e+001
         vertex 4.604557e+001 0.000000e+000 1.747906e+001
      endloop
   endfacet
   facet normal 5.782412e-016 -1.000000e+000 0.000000e+000
      outer loop
         vertex 4.000000e+001 0.000000e+000 2.200000e+001
         vertex 4.604557e+001 0.000000e+000 1.747906e+001
         vertex 4.600000e+001 0.000000e+000 1.800000e+001
      endloop
   endfacet
   facet normal 5.782412e-016 -1.000000e+000 0.000000e+000
      outer loop
         vertex 6.400000e+001 0.000000e+000 1.000000e+001
         vertex 6.400000e+001 0.000000e+000 1.500000e+001
         vertex 4.300000e+001 0.000000e+000 1.000000e+001
      endloop
   endfacet
   facet normal 5.782412e-016 -1.000000e+000 0.000000e+000
      outer loop
         vertex 4.300000e+001 0.000000e+000 1.000000e+001
         vertex 6.400000e+001 0.000000e+000 1.500000e+001
         vertex 4.900000e+001 0.000000e+000 1.500000e+001
      endloop
   endfacet
   facet normal 5.782412e-016 -1.000000e+000 0.000000e+000
      outer loop
         vertex 4.300000e+001 0.000000e+000 1.000000e+001
         vertex 4.900000e+001 0.000000e+000 1.500000e+001
         vertex 4.847905e+001 0.000000e+000 1.504558e+001
      endloop
   endfacet
   facet normal -1.000000e+000 8.673617e-016 0.000000e+000
      outer loop
         vertex 4.000000e+001 0.000000e+000 2.200000e+001
         vertex 4.000000e+001 1.000000e+001 2.200000e+001
         vertex 4.000000e+001 0.000000e+000 1.414467e-015
      endloop
   endfacet
   facet normal -1.000000e+000 8.673617e-016 0.000000e+000
      outer loop
         vertex 4.000000e+001 0.000000e+000 1.414467e-015
         vertex 4.000000e+001 1.000000e+001 2.200000e+001
         vertex 4.000000e+001 1.000000e+001 1.414467e-015
      endloop
   endfacet
   facet normal -1.221636e-016 -1.000000e+000 0.000000e+000
      outer loop
         vertex 4.000000e+001 1.000000e+001 2.200000e+001
         vertex 3.645000e+001 1.000000e+001 2.200000e+001
         vertex 4.000000e+001 1.000000e+001 1.414467e-015
      endloop
   endfacet
   facet normal -1.221636e-016 -1.000000e+000 0.000000e+000
      outer loop
         vertex 4.000000e+001 1.000000e+001 1.414467e-015
         vertex 3.645000e+001 1.000000e+001 2.200000e+001
         vertex 3.645000e+001 1.000000e+001 1.414467e-015
      endloop
   endfacet
   facet normal 1.000000e+000 -5.204170e-015 0.000000e+000
      outer loop
         vertex 3.645000e+001 1.000000e+001 2.200000e+001
         vertex 3.645000e+001 9.000000e+000 2.200000e+001
         vertex 3.645000e+001 1.000000e+001 1.414467e-015
      endloop
   endfacet
   facet normal 1.000000e+000 -5.204170e-015 0.000000e+000
      outer loop
         vertex 3.645000e+001 1.000000e+001 1.414467e-015
         vertex 3.645000e+001 9.000000e+000 2.200000e+001
         vertex 3.645000e+001 9.000000e+000 1.414467e-015
      endloop
   endfacet
   facet normal -1.495451e-016 -1.000000e+000 0.000000e+000
      outer loop
         vertex 3.645000e+001 9.000000e+000 2.200000e+001
         vertex 3.355000e+001 9.000000e+000 2.200000e+001
         vertex 3.645000e+001 9.000000e+000 1.414467e-015
      endloop
   endfacet
   facet normal -1.495451e-016 -1.000000e+000 0.000000e+000
      outer loop
         vertex 3.645000e+001 9.000000e+000 1.414467e-015
         vertex 3.355000e+001 9.000000e+000 2.200000e+001
         vertex 3.355000e+001 9.000000e+000 1.414467e-015
      endloop
   endfacet
   facet normal -1.000000e+000 -6.938894e-015 0.000000e+000
      outer loop
         vertex 3.355000e+001 9.000000e+000 2.200000e+001
         vertex 3.355000e+001 1.000000e+001 2.200000e+001
         vertex 3.355000e+001 9.000000e+000 1.414467e-015
      endloop
   endfacet
   facet normal -1.000000e+000 -6.938894e-015 0.000000e+000
      outer loop
         vertex 3.355000e+001 9.000000e+000 1.414467e-015
         vertex 3.355000e+001 1.000000e+001 2.200000e+001
         vertex 3.355000e+001 1.000000e+001 1.414467e-015
      endloop
   endfacet
   facet normal 1.221636e-015 -1.000000e+000 0.000000e+000
      outer loop
         vertex 3.355000e+001 1.000000e+001 2.200000e+001
         vertex 3.000000e+001 1.000000e+001 2.200000e+001
         vertex 3.355000e+001 1.000000e+001 1.414467e-015
      endloop
   endfacet
   facet normal 1.221636e-015 -1.000000e+000 0.000000e+000
      outer loop
         vertex 3.355000e+001 1.000000e+001 1.414467e-015
         vertex 3.000000e+001 1.000000e+001 2.200000e+001
         vertex 3.000000e+001 1.000000e+001 1.414467e-015
      endloop
   endfacet
   facet normal 0.000000e+000 0.000000e+000 1.000000e+000
      outer loop
         vertex 4.000000e+001 1.000000e+001 2.200000e+001
         vertex 4.000000e+001 0.000000e+000 2.200000e+001
         vertex 4.600000e+001 0.000000e+000 2.200000e+001
      endloop
   endfacet
   facet normal 0.000000e+000 0.000000e+000 1.000000e+000
      outer loop
         vertex 3.645000e+001 1.000000e+001 2.200000e+001
         vertex 4.000000e+001 1.000000e+001 2.200000e+001
         vertex 4.000000e+001 1.800000e+001 2.200000e+001
      endloop
   endfacet
   facet normal 0.000000e+000 0.000000e+000 1.000000e+000
      outer loop
         vertex 4.000000e+001 1.800000e+001 2.200000e+001
         vertex 4.000000e+001 1.000000e+001 2.200000e+001
         vertex 4.600000e+001 0.000000e+000 2.200000e+001
      endloop
   endfacet
   facet normal 0.000000e+000 0.000000e+000 1.000000e+000
      outer loop
         vertex 4.000000e+001 1.800000e+001 2.200000e+001
         vertex 4.600000e+001 0.000000e+000 2.200000e+001
         vertex 4.000000e+001 2.400000e+001 2.200000e+001
      endloop
   endfacet
   facet normal 0.000000e+000 0.000000e+000 1.000000e+000
      outer loop
         vertex 4.000000e+001 2.400000e+001 2.200000e+001
         vertex 4.600000e+001 0.000000e+000 2.200000e+001
         vertex 4.600000e+001 2.400000e+001 2.200000e+001
      endloop
   endfacet
   facet normal 0.000000e+000 0.000000e+000 1.000000e+000
      outer loop
         vertex 3.000000e+001 1.800000e+001 2.200000e+001
         vertex 3.000000e+001 1.000000e+001 2.200000e+001
         vertex 3.355000e+001 1.000000e+001 2.200000e+001
      endloop
   endfacet
   facet normal 0.000000e+000 0.000000e+000 1.000000e+000
      outer loop
         vertex 3.355000e+001 9.000000e+000 2.200000e+001
         vertex 3.645000e+001 9.000000e+000 2.200000e+001
         vertex 3.355000e+001 1.000000e+001 2.200000e+001
      endloop
   endfacet
   facet normal 0.000000e+000 0.000000e+000 1.000000e+000
      outer loop
         vertex 3.355000e+001 1.000000e+001 2.200000e+001
         vertex 3.645000e+001 9.000000e+000 2.200000e+001
         vertex 3.645000e+001 1.000000e+001 2.200000e+001
      endloop
   endfacet
   facet normal 0.000000e+000 0.000000e+000 1.000000e+000
      outer loop
         vertex 3.355000e+001 1.000000e+001 2.200000e+001
         vertex 3.645000e+001 1.000000e+001 2.200000e+001
         vertex 3.000000e+001 1.800000e+001 2.200000e+001
      endloop
   endfacet
   facet normal 0.000000e+000 0.000000e+000 1.000000e+000
      outer loop
         vertex 3.000000e+001 1.800000e+001 2.200000e+001
         vertex 3.645000e+001 1.000000e+001 2.200000e+001
         vertex 4.000000e+001 1.800000e+001 2.200000e+001
      endloop
   endfacet
   facet normal 0.000000e+000 0.000000e+000 -1.000000e+000
      outer loop
         vertex 3.355000e+001 1.000000e+001 1.414467e-015
         vertex 3.000000e+001 1.000000e+001 1.414467e-015
         vertex 3.000000e+001 1.800000e+001 1.414467e-015
      endloop
   endfacet
   facet normal 0.000000e+000 0.000000e+000 -1.000000e+000
      outer loop
         vertex 4.300000e+001 1.000000e+001 1.414467e-015
         vertex 3.000000e+001 1.800000e+001 1.414467e-015
         vertex 4.000000e+001 1.800000e+001 1.414467e-015
      endloop
   endfacet
   facet normal 0.000000e+000 0.000000e+000 -1.000000e+000
      outer loop
         vertex 4.600000e+001 1.000000e+001 1.414467e-015
         vertex 4.300000e+001 1.000000e+001 1.414467e-015
         vertex 4.600000e+001 1.300000e+001 1.414467e-015
      endloop
   endfacet
   facet normal 0.000000e+000 0.000000e+000 -1.000000e+000
      outer loop
         vertex 4.600000e+001 1.300000e+001 1.414467e-015
         vertex 4.300000e+001 1.000000e+001 1.414467e-015
         vertex 4.000000e+001 1.800000e+001 1.414467e-015
      endloop
   endfacet
   facet normal 0.000000e+000 0.000000e+000 -1.000000e+000
      outer loop
         vertex 4.600000e+001 1.300000e+001 1.414467e-015
         vertex 4.000000e+001 1.800000e+001 1.414467e-015
         vertex 4.607596e+001 1.386824e+001 1.414467e-015
      endloop
   endfacet
   facet normal 0.000000e+000 0.000000e+000 -1.000000e+000
      outer loop
         vertex 4.607596e+001 1.386824e+001 1.414467e-015
         vertex 4.000000e+001 1.800000e+001 1.414467e-015
         vertex 4.630154e+001 1.471010e+001 1.414467e-015
      endloop
   endfacet
   facet normal 0.000000e+000 0.000000e+000 -1.000000e+000
      outer loop
         vertex 3.645000e+001 1.000000e+001 1.414467e-015
         vertex 3.645000e+001 9.000000e+000 1.414467e-015
         vertex 3.355000e+001 9.000000e+000 1.414467e-015
      endloop
   endfacet
   facet normal 0.000000e+000 0.000000e+000 -1.000000e+000
      outer loop
         vertex 3.355000e+001 9.000000e+000 1.414467e-015
         vertex 3.355000e+001 1.000000e+001 1.414467e-015
         vertex 3.645000e+001 1.000000e+001 1.414467e-015
      endloop
   endfacet
   facet normal 0.000000e+000 0.000000e+000 -1.000000e+000
      outer loop
         vertex 3.645000e+001 1.000000e+001 1.414467e-015
         vertex 3.355000e+001 1.000000e+001 1.414467e-015
         vertex 3.000000e+001 1.800000e+001 1.414467e-015
      endloop
   endfacet
   facet normal 0.000000e+000 0.000000e+000 -1.000000e+000
      outer loop
         vertex 3.645000e+001 1.000000e+001 1.414467e-015
         vertex 3.000000e+001 1.800000e+001 1.414467e-015
         vertex 4.000000e+001 1.000000e+001 1.414467e-015
      endloop
   endfacet
   facet normal 0.000000e+000 0.000000e+000 -1.000000e+000
      outer loop
         vertex 4.000000e+001 1.000000e+001 1.414467e-015
         vertex 3.000000e+001 1.800000e+001 1.414467e-015
         vertex 4.300000e+001 1.000000e+001 1.414467e-015
      endloop
   endfacet
   facet normal 0.000000e+000 0.000000e+000 -1.000000e+000
      outer loop
         vertex 4.000000e+001 1.000000e+001 1.414467e-015
         vertex 4.300000e+001 1.000000e+001 1.414467e-015
         vertex 4.000000e+001 0.000000e+000 1.414467e-015
      endloop
   endfacet
   facet normal 0.000000e+000 0.000000e+000 -1.000000e+000
      outer loop
         vertex 4.000000e+001 0.000000e+000 1.414467e-015
         vertex 4.300000e+001 1.000000e+001 1.414467e-015
         vertex 4.300000e+001 0.000000e+000 1.414467e-015
      endloop
   endfacet
   facet normal 0.000000e+000 0.000000e+000 -1.000000e+000
      outer loop
         vertex 5.900000e+001 2.400000e+001 1.414467e-015
         vertex 5.900000e+001 1.800000e+001 1.414467e-015
         vertex 5.100000e+001 1.800000e+001 1.414467e-015
      endloop
   endfacet
   facet normal 0.000000e+000 0.000000e+000 -1.000000e+000
      outer loop
         vertex 5.900000e+001 2.400000e+001 1.414467e-015
         vertex 5.100000e+001 1.800000e+001 1.414467e-015
         vertex 4.000000e+001 2.400000e+001 1.414467e-015
      endloop
   endfacet
   facet normal 0.000000e+000 0.000000e+000 -1.000000e+000
      outer loop
         vertex 5.100000e+001 1.800000e+001 1.414467e-015
         vertex 5.013176e+001 1.792404e+001 1.414467e-015
         vertex 4.000000e+001 2.400000e+001 1.414467e-015
      endloop
   endfacet
   facet normal 0.000000e+000 0.000000e+000 -1.000000e+000
      outer loop
         vertex 4.000000e+001 2.400000e+001 1.414467e-015
         vertex 5.013176e+001 1.792404e+001 1.414467e-015
         vertex 4.928990e+001 1.769846e+001 1.414467e-015
      endloop
   endfacet
   facet normal 0.000000e+000 0.000000e+000 -1.000000e+000
      outer loop
         vertex 4.000000e+001 2.400000e+001 1.414467e-015
         vertex 4.928990e+001 1.769846e+001 1.414467e-015
         vertex 4.850000e+001 1.733013e+001 1.414467e-015
      endloop
   endfacet
   facet normal 0.000000e+000 0.000000e+000 -1.000000e+000
      outer loop
         vertex 4.850000e+001 1.733013e+001 1.414467e-015
         vertex 4.778606e+001 1.683022e+001 1.414467e-015
         vertex 4.000000e+001 2.400000e+001 1.414467e-015
      endloop
   endfacet
   facet normal 0.000000e+000 0.000000e+000 -1.000000e+000
      outer loop
         vertex 4.000000e+001 2.400000e+001 1.414467e-015
         vertex 4.778606e+001 1.683022e+001 1.414467e-015
         vertex 4.716978e+001 1.621394e+001 1.414467e-015
      endloop
   endfacet
   facet normal 0.000000e+000 0.000000e+000 -1.000000e+000
      outer loop
         vertex 4.000000e+001 2.400000e+001 1.414467e-015
         vertex 4.716978e+001 1.621394e+001 1.414467e-015
         vertex 4.000000e+001 1.800000e+001 1.414467e-015
      endloop
   endfacet
   facet normal 0.000000e+000 0.000000e+000 -1.000000e+000
      outer loop
         vertex 4.000000e+001 1.800000e+001 1.414467e-015
         vertex 4.716978e+001 1.621394e+001 1.414467e-015
         vertex 4.666988e+001 1.550000e+001 1.414467e-015
      endloop
   endfacet
   facet normal 0.000000e+000 0.000000e+000 -1.000000e+000
      outer loop
         vertex 4.000000e+001 1.800000e+001 1.414467e-015
         vertex 4.666988e+001 1.550000e+001 1.414467e-015
         vertex 4.630154e+001 1.471010e+001 1.414467e-015
      endloop
   endfacet
   facet normal 0.000000e+000 0.000000e+000 -1.000000e+000
      outer loop
         vertex 4.630154e+001 1.471010e+001 1.000000e+001
         vertex 4.666988e+001 1.550000e+001 1.000000e+001
         vertex 5.100000e+001 1.800000e+001 1.000000e+001
      endloop
   endfacet
   facet normal 0.000000e+000 0.000000e+000 -1.000000e+000
      outer loop
         vertex 4.300000e+001 0.000000e+000 1.000000e+001
         vertex 4.300000e+001 1.000000e+001 1.000000e+001
         vertex 6.400000e+001 0.000000e+000 1.000000e+001
      endloop
   endfacet
   facet normal 0.000000e+000 0.000000e+000 -1.000000e+000
      outer loop
         vertex 6.400000e+001 0.000000e+000 1.000000e+001
         vertex 4.300000e+001 1.000000e+001 1.000000e+001
         vertex 4.600000e+001 1.000000e+001 1.000000e+001
      endloop
   endfacet
   facet normal 0.000000e+000 0.000000e+000 -1.000000e+000
      outer loop
         vertex 6.400000e+001 0.000000e+000 1.000000e+001
         vertex 4.600000e+001 1.000000e+001 1.000000e+001
         vertex 6.400000e+001 1.800000e+001 1.000000e+001
      endloop
   endfacet
   facet normal 0.000000e+000 0.000000e+000 -1.000000e+000
      outer loop
         vertex 6.400000e+001 1.800000e+001 1.000000e+001
         vertex 4.600000e+001 1.000000e+001 1.000000e+001
         vertex 4.600000e+001 1.300000e+001 1.000000e+001
      endloop
   endfacet
   facet normal 0.000000e+000 0.000000e+000 -1.000000e+000
      outer loop
         vertex 6.400000e+001 1.800000e+001 1.000000e+001
         vertex 4.600000e+001 1.300000e+001 1.000000e+001
         vertex 5.100000e+001 1.800000e+001 1.000000e+001
      endloop
   endfacet
   facet normal 0.000000e+000 0.000000e+000 -1.000000e+000
      outer loop
         vertex 5.100000e+001 1.800000e+001 1.000000e+001
         vertex 4.600000e+001 1.300000e+001 1.000000e+001
         vertex 4.607596e+001 1.386824e+001 1.000000e+001
      endloop
   endfacet
   facet normal 0.000000e+000 0.000000e+000 -1.000000e+000
      outer loop
         vertex 5.100000e+001 1.800000e+001 1.000000e+001
         vertex 4.607596e+001 1.386824e+001 1.000000e+001
         vertex 4.630154e+001 1.471010e+001 1.000000e+001
      endloop
   endfacet
   facet normal 0.000000e+000 0.000000e+000 -1.000000e+000
      outer loop
         vertex 5.100000e+001 1.800000e+001 1.000000e+001
         vertex 4.850000e+001 1.733013e+001 1.000000e+001
         vertex 5.013176e+001 1.792404e+001 1.000000e+001
      endloop
   endfacet
   facet normal 0.000000e+000 0.000000e+000 -1.000000e+000
      outer loop
         vertex 5.013176e+001 1.792404e+001 1.000000e+001
         vertex 4.850000e+001 1.733013e+001 1.000000e+001
         vertex 4.928990e+001 1.769846e+001 1.000000e+001
      endloop
   endfacet
   facet normal 0.000000e+000 0.000000e+000 -1.000000e+000
      outer loop
         vertex 4.666988e+001 1.550000e+001 1.000000e+001
         vertex 4.716978e+001 1.621394e+001 1.000000e+001
         vertex 5.100000e+001 1.800000e+001 1.000000e+001
      endloop
   endfacet
   facet normal 0.000000e+000 0.000000e+000 -1.000000e+000
      outer loop
         vertex 5.100000e+001 1.800000e+001 1.000000e+001
         vertex 4.716978e+001 1.621394e+001 1.000000e+001
         vertex 4.778606e+001 1.683022e+001 1.000000e+001
      endloop
   endfacet
   facet normal 0.000000e+000 0.000000e+000 -1.000000e+000
      outer loop
         vertex 5.100000e+001 1.800000e+001 1.000000e+001
         vertex 4.778606e+001 1.683022e+001 1.000000e+001
         vertex 4.850000e+001 1.733013e+001 1.000000e+001
      endloop
   endfacet
   facet normal 0.000000e+000 -1.000000e+000 0.000000e+000
      outer loop
         vertex 5.520187e+001 1.800000e+001 6.928363e+000
         vertex 5.100000e+001 1.800000e+001 1.000000e+001
         vertex 5.490192e+001 1.800000e+001 6.500000e+000
      endloop
   endfacet
   facet normal 0.000000e+000 -1.000000e+000 0.000000e+000
      outer loop
         vertex 5.490192e+001 1.800000e+001 6.500000e+000
         vertex 5.100000e+001 1.800000e+001 1.000000e+001
         vertex 5.468092e+001 1.800000e+001 6.026060e+000
      endloop
   endfacet
   facet normal 0.000000e+000 -1.000000e+000 0.000000e+000
      outer loop
         vertex 5.100000e+001 1.800000e+001 -3.202564e-016
         vertex 5.490192e+001 1.800000e+001 3.500000e+000
         vertex 5.468092e+001 1.800000e+001 3.973939e+000
      endloop
   endfacet
   facet normal 0.000000e+000 -1.000000e+000 0.000000e+000
      outer loop
         vertex 5.802095e+001 1.800000e+001 2.045577e+000
         vertex 5.750000e+001 1.800000e+001 2.000000e+000
         vertex 5.900000e+001 1.800000e+001 1.414467e-015
      endloop
   endfacet
   facet normal 0.000000e+000 -1.000000e+000 0.000000e+000
      outer loop
         vertex 5.900000e+001 1.800000e+001 1.414467e-015
         vertex 5.750000e+001 1.800000e+001 2.000000e+000
         vertex 5.697906e+001 1.800000e+001 2.045577e+000
      endloop
   endfacet
   facet normal 0.000000e+000 -1.000000e+000 0.000000e+000
      outer loop
         vertex 5.900000e+001 1.800000e+001 1.414467e-015
         vertex 5.697906e+001 1.800000e+001 2.045577e+000
         vertex 5.100000e+001 1.800000e+001 -3.202564e-016
      endloop
   endfacet
   facet normal 0.000000e+000 -1.000000e+000 0.000000e+000
      outer loop
         vertex 5.100000e+001 1.800000e+001 -3.202564e-016
         vertex 5.697906e+001 1.800000e+001 2.045577e+000
         vertex 5.647394e+001 1.800000e+001 2.180922e+000
      endloop
   endfacet
   facet normal 0.000000e+000 -1.000000e+000 0.000000e+000
      outer loop
         vertex 5.100000e+001 1.800000e+001 -3.202564e-016
         vertex 5.647394e+001 1.800000e+001 2.180922e+000
         vertex 5.600000e+001 1.800000e+001 2.401924e+000
      endloop
   endfacet
   facet normal 0.000000e+000 -1.000000e+000 0.000000e+000
      outer loop
         vertex 5.600000e+001 1.800000e+001 2.401924e+000
         vertex 5.557164e+001 1.800000e+001 2.701867e+000
         vertex 5.100000e+001 1.800000e+001 -3.202564e-016
      endloop
   endfacet
   facet normal 0.000000e+000 -1.000000e+000 0.000000e+000
      outer loop
         vertex 5.100000e+001 1.800000e+001 -3.202564e-016
         vertex 5.557164e+001 1.800000e+001 2.701867e+000
         vertex 5.520187e+001 1.800000e+001 3.071637e+000
      endloop
   endfacet
   facet normal 0.000000e+000 -1.000000e+000 0.000000e+000
      outer loop
         vertex 5.100000e+001 1.800000e+001 -3.202564e-016
         vertex 5.520187e+001 1.800000e+001 3.071637e+000
         vertex 5.490192e+001 1.800000e+001 3.500000e+000
      endloop
   endfacet
   facet normal 0.000000e+000 -1.000000e+000 0.000000e+000
      outer loop
         vertex 5.468092e+001 1.800000e+001 3.973939e+000
         vertex 5.454558e+001 1.800000e+001 4.479055e+000
         vertex 5.100000e+001 1.800000e+001 -3.202564e-016
      endloop
   endfacet
   facet normal 0.000000e+000 -1.000000e+000 0.000000e+000
      outer loop
         vertex 5.100000e+001 1.800000e+001 -3.202564e-016
         vertex 5.454558e+001 1.800000e+001 4.479055e+000
         vertex 5.450000e+001 1.800000e+001 5.000000e+000
      endloop
   endfacet
   facet normal 0.000000e+000 -1.000000e+000 0.000000e+000
      outer loop
         vertex 5.100000e+001 1.800000e+001 -3.202564e-016
         vertex 5.450000e+001 1.800000e+001 5.000000e+000
         vertex 5.100000e+001 1.800000e+001 1.000000e+001
      endloop
   endfacet
   facet normal 0.000000e+000 -1.000000e+000 0.000000e+000
      outer loop
         vertex 5.100000e+001 1.800000e+001 1.000000e+001
         vertex 5.450000e+001 1.800000e+001 5.000000e+000
         vertex 5.454558e+001 1.800000e+001 5.520945e+000
      endloop
   endfacet
   facet normal 0.000000e+000 -1.000000e+000 0.000000e+000
      outer loop
         vertex 5.100000e+001 1.800000e+001 1.000000e+001
         vertex 5.454558e+001 1.800000e+001 5.520945e+000
         vertex 5.468092e+001 1.800000e+001 6.026060e+000
      endloop
   endfacet
   facet normal 0.000000e+000 -1.000000e+000 0.000000e+000
      outer loop
         vertex 5.520187e+001 1.800000e+001 6.928363e+000
         vertex 5.557164e+001 1.800000e+001 7.298133e+000
         vertex 5.100000e+001 1.800000e+001 1.000000e+001
      endloop
   endfacet
   facet normal 0.000000e+000 -1.000000e+000 0.000000e+000
      outer loop
         vertex 5.100000e+001 1.800000e+001 1.000000e+001
         vertex 5.557164e+001 1.800000e+001 7.298133e+000
         vertex 5.600000e+001 1.800000e+001 7.598076e+000
      endloop
   endfacet
   facet normal 0.000000e+000 -1.000000e+000 0.000000e+000
      outer loop
         vertex 5.100000e+001 1.800000e+001 1.000000e+001
         vertex 5.600000e+001 1.800000e+001 7.598076e+000
         vertex 5.647394e+001 1.800000e+001 7.819078e+000
      endloop
   endfacet
   facet normal 0.000000e+000 -1.000000e+000 0.000000e+000
      outer loop
         vertex 5.852606e+001 1.800000e+001 7.819078e+000
         vertex 5.900000e+001 1.800000e+001 7.598076e+000
         vertex 6.400000e+001 1.800000e+001 1.000000e+001
      endloop
   endfacet
   facet normal 0.000000e+000 -1.000000e+000 0.000000e+000
      outer loop
         vertex 6.400000e+001 1.800000e+001 1.000000e+001
         vertex 5.900000e+001 1.800000e+001 7.598076e+000
         vertex 5.942836e+001 1.800000e+001 7.298133e+000
      endloop
   endfacet
   facet normal 0.000000e+000 -1.000000e+000 0.000000e+000
      outer loop
         vertex 6.400000e+001 1.800000e+001 5.000000e+000
         vertex 6.400000e+001 1.800000e+001 1.000000e+001
         vertex 6.031908e+001 1.800000e+001 6.026060e+000
      endloop
   endfacet
   facet normal 0.000000e+000 -1.000000e+000 0.000000e+000
      outer loop
         vertex 5.802095e+001 1.800000e+001 2.045577e+000
         vertex 5.900000e+001 1.800000e+001 1.414467e-015
         vertex 5.852606e+001 1.800000e+001 2.180922e+000
      endloop
   endfacet
   facet normal 0.000000e+000 -1.000000e+000 0.000000e+000
      outer loop
         vertex 5.852606e+001 1.800000e+001 2.180922e+000
         vertex 5.900000e+001 1.800000e+001 1.414467e-015
         vertex 5.986824e+001 1.800000e+001 7.596124e-002
      endloop
   endfacet
   facet normal 0.000000e+000 -1.000000e+000 0.000000e+000
      outer loop
         vertex 5.852606e+001 1.800000e+001 2.180922e+000
         vertex 5.986824e+001 1.800000e+001 7.596124e-002
         vertex 5.900000e+001 1.800000e+001 2.401924e+000
      endloop
   endfacet
   facet normal 0.000000e+000 -1.000000e+000 0.000000e+000
      outer loop
         vertex 5.900000e+001 1.800000e+001 2.401924e+000
         vertex 5.986824e+001 1.800000e+001 7.596124e-002
         vertex 6.071010e+001 1.800000e+001 3.015369e-001
      endloop
   endfacet
   facet normal 0.000000e+000 -1.000000e+000 0.000000e+000
      outer loop
         vertex 5.900000e+001 1.800000e+001 2.401924e+000
         vertex 6.071010e+001 1.800000e+001 3.015369e-001
         vertex 5.942836e+001 1.800000e+001 2.701867e+000
      endloop
   endfacet
   facet normal 0.000000e+000 -1.000000e+000 0.000000e+000
      outer loop
         vertex 5.942836e+001 1.800000e+001 2.701867e+000
         vertex 6.071010e+001 1.800000e+001 3.015369e-001
         vertex 6.150000e+001 1.800000e+001 6.698730e-001
      endloop
   endfacet
   facet normal 0.000000e+000 -1.000000e+000 0.000000e+000
      outer loop
         vertex 5.942836e+001 1.800000e+001 2.701867e+000
         vertex 6.150000e+001 1.800000e+001 6.698730e-001
         vertex 5.979813e+001 1.800000e+001 3.071637e+000
      endloop
   endfacet
   facet normal 0.000000e+000 -1.000000e+000 0.000000e+000
      outer loop
         vertex 5.979813e+001 1.800000e+001 3.071637e+000
         vertex 6.150000e+001 1.800000e+001 6.698730e-001
         vertex 6.221394e+001 1.800000e+001 1.169778e+000
      endloop
   endfacet
   facet normal 0.000000e+000 -1.000000e+000 0.000000e+000
      outer loop
         vertex 5.979813e+001 1.800000e+001 3.071637e+000
         vertex 6.221394e+001 1.800000e+001 1.169778e+000
         vertex 6.009808e+001 1.800000e+001 3.500000e+000
      endloop
   endfacet
   facet normal 0.000000e+000 -1.000000e+000 0.000000e+000
      outer loop
         vertex 6.009808e+001 1.800000e+001 3.500000e+000
         vertex 6.221394e+001 1.800000e+001 1.169778e+000
         vertex 6.283022e+001 1.800000e+001 1.786062e+000
      endloop
   endfacet
   facet normal 0.000000e+000 -1.000000e+000 0.000000e+000
      outer loop
         vertex 6.009808e+001 1.800000e+001 3.500000e+000
         vertex 6.283022e+001 1.800000e+001 1.786062e+000
         vertex 6.031908e+001 1.800000e+001 3.973939e+000
      endloop
   endfacet
   facet normal 0.000000e+000 -1.000000e+000 0.000000e+000
      outer loop
         vertex 5.647394e+001 1.800000e+001 7.819078e+000
         vertex 5.697906e+001 1.800000e+001 7.954423e+000
         vertex 5.100000e+001 1.800000e+001 1.000000e+001
      endloop
   endfacet
   facet normal 0.000000e+000 -1.000000e+000 0.000000e+000
      outer loop
         vertex 5.100000e+001 1.800000e+001 1.000000e+001
         vertex 5.697906e+001 1.800000e+001 7.954423e+000
         vertex 5.750000e+001 1.800000e+001 8.000000e+000
      endloop
   endfacet
   facet normal 0.000000e+000 -1.000000e+000 0.000000e+000
      outer loop
         vertex 5.100000e+001 1.800000e+001 1.000000e+001
         vertex 5.750000e+001 1.800000e+001 8.000000e+000
         vertex 6.400000e+001 1.800000e+001 1.000000e+001
      endloop
   endfacet
   facet normal 0.000000e+000 -1.000000e+000 0.000000e+000
      outer loop
         vertex 6.400000e+001 1.800000e+001 1.000000e+001
         vertex 5.750000e+001 1.800000e+001 8.000000e+000
         vertex 5.802095e+001 1.800000e+001 7.954423e+000
      endloop
   endfacet
   facet normal 0.000000e+000 -1.000000e+000 0.000000e+000
      outer loop
         vertex 6.400000e+001 1.800000e+001 1.000000e+001
         vertex 5.802095e+001 1.800000e+001 7.954423e+000
         vertex 5.852606e+001 1.800000e+001 7.819078e+000
      endloop
   endfacet
   facet normal 0.000000e+000 -1.000000e+000 0.000000e+000
      outer loop
         vertex 5.942836e+001 1.800000e+001 7.298133e+000
         vertex 5.979813e+001 1.800000e+001 6.928363e+000
         vertex 6.400000e+001 1.800000e+001 1.000000e+001
      endloop
   endfacet
   facet normal 0.000000e+000 -1.000000e+000 0.000000e+000
      outer loop
         vertex 6.400000e+001 1.800000e+001 1.000000e+001
         vertex 5.979813e+001 1.800000e+001 6.928363e+000
         vertex 6.009808e+001 1.800000e+001 6.500000e+000
      endloop
   endfacet
   facet normal 0.000000e+000 -1.000000e+000 0.000000e+000
      outer loop
         vertex 6.400000e+001 1.800000e+001 1.000000e+001
         vertex 6.009808e+001 1.800000e+001 6.500000e+000
         vertex 6.031908e+001 1.800000e+001 6.026060e+000
      endloop
   endfacet
   facet normal 0.000000e+000 -1.000000e+000 0.000000e+000
      outer loop
         vertex 6.283022e+001 1.800000e+001 1.786062e+000
         vertex 6.333013e+001 1.800000e+001 2.500000e+000
         vertex 6.031908e+001 1.800000e+001 3.973939e+000
      endloop
   endfacet
   facet normal 0.000000e+000 -1.000000e+000 0.000000e+000
      outer loop
         vertex 6.031908e+001 1.800000e+001 3.973939e+000
         vertex 6.333013e+001 1.800000e+001 2.500000e+000
         vertex 6.369846e+001 1.800000e+001 3.289899e+000
      endloop
   endfacet
   facet normal 0.000000e+000 -1.000000e+000 0.000000e+000
      outer loop
         vertex 6.031908e+001 1.800000e+001 3.973939e+000
         vertex 6.369846e+001 1.800000e+001 3.289899e+000
         vertex 6.045443e+001 1.800000e+001 4.479055e+000
      endloop
   endfacet
   facet normal 0.000000e+000 -1.000000e+000 0.000000e+000
      outer loop
         vertex 6.045443e+001 1.800000e+001 4.479055e+000
         vertex 6.369846e+001 1.800000e+001 3.289899e+000
         vertex 6.392404e+001 1.800000e+001 4.131759e+000
      endloop
   endfacet
   facet normal 0.000000e+000 -1.000000e+000 0.000000e+000
      outer loop
         vertex 6.045443e+001 1.800000e+001 4.479055e+000
         vertex 6.392404e+001 1.800000e+001 4.131759e+000
         vertex 6.050000e+001 1.800000e+001 5.000000e+000
      endloop
   endfacet
   facet normal 0.000000e+000 -1.000000e+000 0.000000e+000
      outer loop
         vertex 6.050000e+001 1.800000e+001 5.000000e+000
         vertex 6.392404e+001 1.800000e+001 4.131759e+000
         vertex 6.400000e+001 1.800000e+001 5.000000e+000
      endloop
   endfacet
   facet normal 0.000000e+000 -1.000000e+000 0.000000e+000
      outer loop
         vertex 6.050000e+001 1.800000e+001 5.000000e+000
         vertex 6.400000e+001 1.800000e+001 5.000000e+000
         vertex 6.045443e+001 1.800000e+001 5.520945e+000
      endloop
   endfacet
   facet normal 0.000000e+000 -1.000000e+000 0.000000e+000
      outer loop
         vertex 6.045443e+001 1.800000e+001 5.520945e+000
         vertex 6.400000e+001 1.800000e+001 5.000000e+000
         vertex 6.031908e+001 1.800000e+001 6.026060e+000
      endloop
   endfacet
   facet normal 1.000000e+000 0.000000e+000 0.000000e+000
      outer loop
         vertex 4.600000e+001 1.000000e+001 1.414467e-015
         vertex 4.600000e+001 1.300000e+001 1.414467e-015
         vertex 4.600000e+001 1.000000e+001 1.000000e+001
      endloop
   endfacet
   facet normal 1.000000e+000 0.000000e+000 0.000000e+000
      outer loop
         vertex 4.600000e+001 1.000000e+001 1.000000e+001
         vertex 4.600000e+001 1.300000e+001 1.414467e-015
         vertex 4.600000e+001 1.300000e+001 1.000000e+001
      endloop
   endfacet
   facet normal 1.652118e-016 -1.000000e+000 0.000000e+000
      outer loop
         vertex 4.600000e+001 1.000000e+001 1.000000e+001
         vertex 4.300000e+001 1.000000e+001 1.000000e+001
         vertex 4.600000e+001 1.000000e+001 1.414467e-015
      endloop
   endfacet
   facet normal 1.652118e-016 -1.000000e+000 0.000000e+000
      outer loop
         vertex 4.600000e+001 1.000000e+001 1.414467e-015
         vertex 4.300000e+001 1.000000e+001 1.000000e+001
         vertex 4.300000e+001 1.000000e+001 1.414467e-015
      endloop
   endfacet
   facet normal 1.000000e+000 1.734723e-016 0.000000e+000
      outer loop
         vertex 4.300000e+001 0.000000e+000 1.000000e+001
         vertex 4.300000e+001 0.000000e+000 1.414467e-015
         vertex 4.300000e+001 1.000000e+001 1.000000e+001
      endloop
   endfacet
   facet normal 1.000000e+000 1.734723e-016 0.000000e+000
      outer loop
         vertex 4.300000e+001 1.000000e+001 1.000000e+001
         vertex 4.300000e+001 0.000000e+000 1.414467e-015
         vertex 4.300000e+001 1.000000e+001 1.414467e-015
      endloop
   endfacet
   facet normal -5.807913e-002 0.000000e+000 -9.983119e-001
      outer loop
         vertex 5.750000e+001 1.800000e+001 8.000000e+000
         vertex 5.750000e+001 2.400000e+001 8.000000e+000
         vertex 5.802095e+001 1.800000e+001 7.954423e+000
      endloop
   endfacet
   facet normal -1.161583e-001 0.000000e+000 -9.932307e-001
      outer loop
         vertex 5.802095e+001 1.800000e+001 7.954423e+000
         vertex 5.750000e+001 2.400000e+001 8.000000e+000
         vertex 5.802095e+001 2.400000e+001 7.954423e+000
      endloop
   endfacet
   facet normal -2.305519e-001 0.000000e+000 -9.730600e-001
      outer loop
         vertex 5.802095e+001 1.800000e+001 7.954423e+000
         vertex 5.802095e+001 2.400000e+001 7.954423e+000
         vertex 5.852606e+001 1.800000e+001 7.819078e+000
      endloop
   endfacet
   facet normal -2.868663e-001 0.000000e+000 -9.579706e-001
      outer loop
         vertex 5.852606e+001 1.800000e+001 7.819078e+000
         vertex 5.802095e+001 2.400000e+001 7.954423e+000
         vertex 5.852606e+001 2.400000e+001 7.819078e+000
      endloop
   endfacet
   facet normal -3.960194e-001 0.000000e+000 -9.182422e-001
      outer loop
         vertex 5.852606e+001 1.800000e+001 7.819078e+000
         vertex 5.852606e+001 2.400000e+001 7.819078e+000
         vertex 5.900000e+001 1.800000e+001 7.598076e+000
      endloop
   endfacet
   facet normal -4.488580e-001 0.000000e+000 -8.936031e-001
      outer loop
         vertex 5.900000e+001 1.800000e+001 7.598076e+000
         vertex 5.852606e+001 2.400000e+001 7.819078e+000
         vertex 5.900000e+001 2.400000e+001 7.598076e+000
      endloop
   endfacet
   facet normal -5.494540e-001 0.000000e+000 -8.355240e-001
      outer loop
         vertex 5.900000e+001 1.800000e+001 7.598076e+000
         vertex 5.900000e+001 2.400000e+001 7.598076e+000
         vertex 5.942836e+001 1.800000e+001 7.298133e+000
      endloop
   endfacet
   facet normal -5.972114e-001 0.000000e+000 -8.020838e-001
      outer loop
         vertex 5.942836e+001 1.800000e+001 7.298133e+000
         vertex 5.900000e+001 2.400000e+001 7.598076e+000
         vertex 5.942836e+001 2.400000e+001 7.298133e+000
      endloop
   endfacet
   facet normal -6.861938e-001 0.000000e+000 -7.274188e-001
      outer loop
         vertex 5.942836e+001 1.800000e+001 7.298133e+000
         vertex 5.942836e+001 2.400000e+001 7.298133e+000
         vertex 5.979813e+001 1.800000e+001 6.928363e+000
      endloop
   endfacet
   facet normal -7.274188e-001 0.000000e+000 -6.861938e-001
      outer loop
         vertex 5.979813e+001 1.800000e+001 6.928363e+000
         vertex 5.942836e+001 2.400000e+001 7.298133e+000
         vertex 5.979813e+001 2.400000e+001 6.928363e+000
      endloop
   endfacet
   facet normal -8.020838e-001 0.000000e+000 -5.972114e-001
      outer loop
         vertex 5.979813e+001 1.800000e+001 6.928363e+000
         vertex 5.979813e+001 2.400000e+001 6.928363e+000
         vertex 6.009808e+001 1.800000e+001 6.500000e+000
      endloop
   endfacet
   facet normal -8.355240e-001 0.000000e+000 -5.494540e-001
      outer loop
         vertex 6.009808e+001 1.800000e+001 6.500000e+000
         vertex 5.979813e+001 2.400000e+001 6.928363e+000
         vertex 6.009808e+001 2.400000e+001 6.500000e+000
      endloop
   endfacet
   facet normal -8.936031e-001 0.000000e+000 -4.488580e-001
      outer loop
         vertex 6.009808e+001 1.800000e+001 6.500000e+000
         vertex 6.009808e+001 2.400000e+001 6.500000e+000
         vertex 6.031908e+001 1.800000e+001 6.026060e+000
      endloop
   endfacet
   facet normal -9.182422e-001 0.000000e+000 -3.960194e-001
      outer loop
         vertex 6.031908e+001 1.800000e+001 6.026060e+000
         vertex 6.009808e+001 2.400000e+001 6.500000e+000
         vertex 6.031908e+001 2.400000e+001 6.026060e+000
      endloop
   endfacet
   facet normal -9.579706e-001 0.000000e+000 -2.868663e-001
      outer loop
         vertex 6.031908e+001 1.800000e+001 6.026060e+000
         vertex 6.031908e+001 2.400000e+001 6.026060e+000
         vertex 6.045443e+001 1.800000e+001 5.520945e+000
      endloop
   endfacet
   facet normal -9.730600e-001 0.000000e+000 -2.305519e-001
      outer loop
         vertex 6.045443e+001 1.800000e+001 5.520945e+000
         vertex 6.031908e+001 2.400000e+001 6.026060e+000
         vertex 6.045443e+001 2.400000e+001 5.520945e+000
      endloop
   endfacet
   facet normal -9.932307e-001 0.000000e+000 -1.161583e-001
      outer loop
         vertex 6.045443e+001 1.800000e+001 5.520945e+000
         vertex 6.045443e+001 2.400000e+001 5.520945e+000
         vertex 6.050000e+001 1.800000e+001 5.000000e+000
      endloop
   endfacet
   facet normal -9.983119e-001 0.000000e+000 -5.807913e-002
      outer loop
         vertex 6.050000e+001 1.800000e+001 5.000000e+000
         vertex 6.045443e+001 2.400000e+001 5.520945e+000
         vertex 6.050000e+001 2.400000e+001 5.000000e+000
      endloop
   endfacet
   facet normal -9.983119e-001 0.000000e+000 5.807913e-002
      outer loop
         vertex 6.050000e+001 1.800000e+001 5.000000e+000
         vertex 6.050000e+001 2.400000e+001 5.000000e+000
         vertex 6.045443e+001 1.800000e+001 4.479055e+000
      endloop
   endfacet
   facet normal -9.932307e-001 0.000000e+000 1.161583e-001
      outer loop
         vertex 6.045443e+001 1.800000e+001 4.479055e+000
         vertex 6.050000e+001 2.400000e+001 5.000000e+000
         vertex 6.045443e+001 2.400000e+001 4.479055e+000
      endloop
   endfacet
   facet normal -9.730600e-001 0.000000e+000 2.305519e-001
      outer loop
         vertex 6.045443e+001 1.800000e+001 4.479055e+000
         vertex 6.045443e+001 2.400000e+001 4.479055e+000
         vertex 6.031908e+001 1.800000e+001 3.973939e+000
      endloop
   endfacet
   facet normal -9.579706e-001 0.000000e+000 2.868663e-001
      outer loop
         vertex 6.031908e+001 1.800000e+001 3.973939e+000
         vertex 6.045443e+001 2.400000e+001 4.479055e+000
         vertex 6.031908e+001 2.400000e+001 3.973939e+000
      endloop
   endfacet
   facet normal -9.182422e-001 0.000000e+000 3.960194e-001
      outer loop
         vertex 6.031908e+001 1.800000e+001 3.973939e+000
         vertex 6.031908e+001 2.400000e+001 3.973939e+000
         vertex 6.009808e+001 1.800000e+001 3.500000e+000
      endloop
   endfacet
   facet normal -8.936031e-001 0.000000e+000 4.488580e-001
      outer loop
         vertex 6.009808e+001 1.800000e+001 3.500000e+000
         vertex 6.031908e+001 2.400000e+001 3.973939e+000
         vertex 6.009808e+001 2.400000e+001 3.500000e+000
      endloop
   endfacet
   facet normal -8.355240e-001 0.000000e+000 5.494540e-001
      outer loop
         vertex 6.009808e+001 1.800000e+001 3.500000e+000
         vertex 6.009808e+001 2.400000e+001 3.500000e+000
         vertex 5.979813e+001 1.800000e+001 3.071637e+000
      endloop
   endfacet
   facet normal -8.020838e-001 0.000000e+000 5.972114e-001
      outer loop
         vertex 5.979813e+001 1.800000e+001 3.071637e+000
         vertex 6.009808e+001 2.400000e+001 3.500000e+000
         vertex 5.979813e+001 2.400000e+001 3.071637e+000
      endloop
   endfacet
   facet normal -7.274188e-001 0.000000e+000 6.861938e-001
      outer loop
         vertex 5.979813e+001 1.800000e+001 3.071637e+000
         vertex 5.979813e+001 2.400000e+001 3.071637e+000
         vertex 5.942836e+001 1.800000e+001 2.701867e+000
      endloop
   endfacet
   facet normal -6.861938e-001 0.000000e+000 7.274188e-001
      outer loop
         vertex 5.942836e+001 1.800000e+001 2.701867e+000
         vertex 5.979813e+001 2.400000e+001 3.071637e+000
         vertex 5.942836e+001 2.400000e+001 2.701867e+000
      endloop
   endfacet
   facet normal -5.972114e-001 0.000000e+000 8.020838e-001
      outer loop
         vertex 5.942836e+001 1.800000e+001 2.701867e+000
         vertex 5.942836e+001 2.400000e+001 2.701867e+000
         vertex 5.900000e+001 1.800000e+001 2.401924e+000
      endloop
   endfacet
   facet normal -5.494540e-001 0.000000e+000 8.355240e-001
      outer loop
         vertex 5.900000e+001 1.800000e+001 2.401924e+000
         vertex 5.942836e+001 2.400000e+001 2.701867e+000
         vertex 5.900000e+001 2.400000e+001 2.401924e+000
      endloop
   endfacet
   facet normal -4.488580e-001 0.000000e+000 8.936031e-001
      outer loop
         vertex 5.900000e+001 1.800000e+001 2.401924e+000
         vertex 5.900000e+001 2.400000e+001 2.401924e+000
         vertex 5.852606e+001 1.800000e+001 2.180922e+000
      endloop
   endfacet
   facet normal -3.960194e-001 0.000000e+000 9.182422e-001
      outer loop
         vertex 5.852606e+001 1.800000e+001 2.180922e+000
         vertex 5.900000e+001 2.400000e+001 2.401924e+000
         vertex 5.852606e+001 2.400000e+001 2.180922e+000
      endloop
   endfacet
   facet normal -2.868663e-001 0.000000e+000 9.579706e-001
      outer loop
         vertex 5.852606e+001 1.800000e+001 2.180922e+000
         vertex 5.852606e+001 2.400000e+001 2.180922e+000
         vertex 5.802095e+001 1.800000e+001 2.045577e+000
      endloop
   endfacet
   facet normal -2.305519e-001 0.000000e+000 9.730600e-001
      outer loop
         vertex 5.802095e+001 1.800000e+001 2.045577e+000
         vertex 5.852606e+001 2.400000e+001 2.180922e+000
         vertex 5.802095e+001 2.400000e+001 2.045577e+000
      endloop
   endfacet
   facet normal -1.161583e-001 0.000000e+000 9.932307e-001
      outer loop
         vertex 5.802095e+001 1.800000e+001 2.045577e+000
         vertex 5.802095e+001 2.400000e+001 2.045577e+000
         vertex 5.750000e+001 1.800000e+001 2.000000e+000
      endloop
   endfacet
   facet normal -5.807913e-002 0.000000e+000 9.983119e-001
      outer loop
         vertex 5.750000e+001 1.800000e+001 2.000000e+000
         vertex 5.802095e+001 2.400000e+001 2.045577e+000
         vertex 5.750000e+001 2.400000e+001 2.000000e+000
      endloop
   endfacet
   facet normal 5.807913e-002 0.000000e+000 9.983119e-001
      outer loop
         vertex 5.750000e+001 1.800000e+001 2.000000e+000
         vertex 5.750000e+001 2.400000e+001 2.000000e+000
         vertex 5.697906e+001 1.800000e+001 2.045577e+000
      endloop
   endfacet
   facet normal 1.161583e-001 0.000000e+000 9.932307e-001
      outer loop
         vertex 5.697906e+001 1.800000e+001 2.045577e+000
         vertex 5.750000e+001 2.400000e+001 2.000000e+000
         vertex 5.697906e+001 2.400000e+001 2.045577e+000
      endloop
   endfacet
   facet normal 2.305519e-001 0.000000e+000 9.730600e-001
      outer loop
         vertex 5.697906e+001 1.800000e+001 2.045577e+000
         vertex 5.697906e+001 2.400000e+001 2.045577e+000
         vertex 5.647394e+001 1.800000e+001 2.180922e+000
      endloop
   endfacet
   facet normal 2.868663e-001 0.000000e+000 9.579706e-001
      outer loop
         vertex 5.647394e+001 1.800000e+001 2.180922e+000
         vertex 5.697906e+001 2.400000e+001 2.045577e+000
         vertex 5.647394e+001 2.400000e+001 2.180922e+000
      endloop
   endfacet
   facet normal 3.960194e-001 0.000000e+000 9.182422e-001
      outer loop
         vertex 5.647394e+001 1.800000e+001 2.180922e+000
         vertex 5.647394e+001 2.400000e+001 2.180922e+000
         vertex 5.600000e+001 1.800000e+001 2.401924e+000
      endloop
   endfacet
   facet normal 4.488580e-001 0.000000e+000 8.936031e-001
      outer loop
         vertex 5.600000e+001 1.800000e+001 2.401924e+000
         vertex 5.647394e+001 2.400000e+001 2.180922e+000
         vertex 5.600000e+001 2.400000e+001 2.401924e+000
      endloop
   endfacet
   facet normal 5.494540e-001 0.000000e+000 8.355240e-001
      outer loop
         vertex 5.600000e+001 1.800000e+001 2.401924e+000
         vertex 5.600000e+001 2.400000e+001 2.401924e+000
         vertex 5.557164e+001 1.800000e+001 2.701867e+000
      endloop
   endfacet
   facet normal 5.972114e-001 0.000000e+000 8.020838e-001
      outer loop
         vertex 5.557164e+001 1.800000e+001 2.701867e+000
         vertex 5.600000e+001 2.400000e+001 2.401924e+000
         vertex 5.557164e+001 2.400000e+001 2.701867e+000
      endloop
   endfacet
   facet normal 6.861938e-001 0.000000e+000 7.274188e-001
      outer loop
         vertex 5.557164e+001 1.800000e+001 2.701867e+000
         vertex 5.557164e+001 2.400000e+001 2.701867e+000
         vertex 5.520187e+001 1.800000e+001 3.071637e+000
      endloop
   endfacet
   facet normal 7.274188e-001 0.000000e+000 6.861938e-001
      outer loop
         vertex 5.520187e+001 1.800000e+001 3.071637e+000
         vertex 5.557164e+001 2.400000e+001 2.701867e+000
         vertex 5.520187e+001 2.400000e+001 3.071637e+000
      endloop
   endfacet
   facet normal 8.020838e-001 0.000000e+000 5.972114e-001
      outer loop
         vertex 5.520187e+001 1.800000e+001 3.071637e+000
         vertex 5.520187e+001 2.400000e+001 3.071637e+000
         vertex 5.490192e+001 1.800000e+001 3.500000e+000
      endloop
   endfacet
   facet normal 8.355240e-001 0.000000e+000 5.494540e-001
      outer loop
         vertex 5.490192e+001 1.800000e+001 3.500000e+000
         vertex 5.520187e+001 2.400000e+001 3.071637e+000
         vertex 5.490192e+001 2.400000e+001 3.500000e+000
      endloop
   endfacet
   facet normal 8.936031e-001 0.000000e+000 4.488580e-001
      outer loop
         vertex 5.490192e+001 1.800000e+001 3.500000e+000
         vertex 5.490192e+001 2.400000e+001 3.500000e+000
         vertex 5.468092e+001 1.800000e+001 3.973939e+000
      endloop
   endfacet
   facet normal 9.182422e-001 0.000000e+000 3.960194e-001
      outer loop
         vertex 5.468092e+001 1.800000e+001 3.973939e+000
         vertex 5.490192e+001 2.400000e+001 3.500000e+000
         vertex 5.468092e+001 2.400000e+001 3.973939e+000
      endloop
   endfacet
   facet normal 9.579706e-001 0.000000e+000 2.868663e-001
      outer loop
         vertex 5.468092e+001 1.800000e+001 3.973939e+000
         vertex 5.468092e+001 2.400000e+001 3.973939e+000
         vertex 5.454558e+001 1.800000e+001 4.479055e+000
      endloop
   endfacet
   facet normal 9.730600e-001 0.000000e+000 2.305519e-001
      outer loop
         vertex 5.454558e+001 1.800000e+001 4.479055e+000
         vertex 5.468092e+001 2.400000e+001 3.973939e+000
         vertex 5.454558e+001 2.400000e+001 4.479055e+000
      endloop
   endfacet
   facet normal 9.932307e-001 0.000000e+000 1.161583e-001
      outer loop
         vertex 5.454558e+001 1.800000e+001 4.479055e+000
         vertex 5.454558e+001 2.400000e+001 4.479055e+000
         vertex 5.450000e+001 1.800000e+001 5.000000e+000
      endloop
   endfacet
   facet normal 9.983119e-001 0.000000e+000 5.807913e-002
      outer loop
         vertex 5.450000e+001 1.800000e+001 5.000000e+000
         vertex 5.454558e+001 2.400000e+001 4.479055e+000
         vertex 5.450000e+001 2.400000e+001 5.000000e+000
      endloop
   endfacet
   facet normal 9.983119e-001 0.000000e+000 -5.807913e-002
      outer loop
         vertex 5.450000e+001 1.800000e+001 5.000000e+000
         vertex 5.450000e+001 2.400000e+001 5.000000e+000
         vertex 5.454558e+001 1.800000e+001 5.520945e+000
      endloop
   endfacet
   facet normal 9.932307e-001 0.000000e+000 -1.161583e-001
      outer loop
         vertex 5.454558e+001 1.800000e+001 5.520945e+000
         vertex 5.450000e+001 2.400000e+001 5.000000e+000
         vertex 5.454558e+001 2.400000e+001 5.520945e+000
      endloop
   endfacet
   facet normal 9.730600e-001 0.000000e+000 -2.305519e-001
      outer loop
         vertex 5.454558e+001 1.800000e+001 5.520945e+000
         vertex 5.454558e+001 2.400000e+001 5.520945e+000
         vertex 5.468092e+001 1.800000e+001 6.026060e+000
      endloop
   endfacet
   facet normal 9.579706e-001 0.000000e+000 -2.868663e-001
      outer loop
         vertex 5.468092e+001 1.800000e+001 6.026060e+000
         vertex 5.454558e+001 2.400000e+001 5.520945e+000
         vertex 5.468092e+001 2.400000e+001 6.026060e+000
      endloop
   endfacet
   facet normal 9.182422e-001 0.000000e+000 -3.960194e-001
      outer loop
         vertex 5.468092e+001 1.800000e+001 6.026060e+000
         vertex 5.468092e+001 2.400000e+001 6.026060e+000
         vertex 5.490192e+001 1.800000e+001 6.500000e+000
      endloop
   endfacet
   facet normal 8.936031e-001 0.000000e+000 -4.488580e-001
      outer loop
         vertex 5.490192e+001 1.800000e+001 6.500000e+000
         vertex 5.468092e+001 2.400000e+001 6.026060e+000
         vertex 5.490192e+001 2.400000e+001 6.500000e+000
      endloop
   endfacet
   facet normal 8.355240e-001 0.000000e+000 -5.494540e-001
      outer loop
         vertex 5.490192e+001 1.800000e+001 6.500000e+000
         vertex 5.490192e+001 2.400000e+001 6.500000e+000
         vertex 5.520187e+001 1.800000e+001 6.928363e+000
      endloop
   endfacet
   facet normal 8.020838e-001 0.000000e+000 -5.972114e-001
      outer loop
         vertex 5.520187e+001 1.800000e+001 6.928363e+000
         vertex 5.490192e+001 2.400000e+001 6.500000e+000
         vertex 5.520187e+001 2.400000e+001 6.928363e+000
      endloop
   endfacet
   facet normal 7.274188e-001 0.000000e+000 -6.861938e-001
      outer loop
         vertex 5.520187e+001 1.800000e+001 6.928363e+000
         vertex 5.520187e+001 2.400000e+001 6.928363e+000
         vertex 5.557164e+001 1.800000e+001 7.298133e+000
      endloop
   endfacet
   facet normal 6.861938e-001 0.000000e+000 -7.274188e-001
      outer loop
         vertex 5.557164e+001 1.800000e+001 7.298133e+000
         vertex 5.520187e+001 2.400000e+001 6.928363e+000
         vertex 5.557164e+001 2.400000e+001 7.298133e+000
      endloop
   endfacet
   facet normal 5.972114e-001 0.000000e+000 -8.020838e-001
      outer loop
         vertex 5.557164e+001 1.800000e+001 7.298133e+000
         vertex 5.557164e+001 2.400000e+001 7.298133e+000
         vertex 5.600000e+001 1.800000e+001 7.598076e+000
      endloop
   endfacet
   facet normal 5.494540e-001 0.000000e+000 -8.355240e-001
      outer loop
         vertex 5.600000e+001 1.800000e+001 7.598076e+000
         vertex 5.557164e+001 2.400000e+001 7.298133e+000
         vertex 5.600000e+001 2.400000e+001 7.598076e+000
      endloop
   endfacet
   facet normal 4.488580e-001 0.000000e+000 -8.936031e-001
      outer loop
         vertex 5.600000e+001 1.800000e+001 7.598076e+000
         vertex 5.600000e+001 2.400000e+001 7.598076e+000
         vertex 5.647394e+001 1.800000e+001 7.819078e+000
      endloop
   endfacet
   facet normal 3.960194e-001 0.000000e+000 -9.182422e-001
      outer loop
         vertex 5.647394e+001 1.800000e+001 7.819078e+000
         vertex 5.600000e+001 2.400000e+001 7.598076e+000
         vertex 5.647394e+001 2.400000e+001 7.819078e+000
      endloop
   endfacet
   facet normal 2.868663e-001 0.000000e+000 -9.579706e-001
      outer loop
         vertex 5.647394e+001 1.800000e+001 7.819078e+000
         vertex 5.647394e+001 2.400000e+001 7.819078e+000
         vertex 5.697906e+001 1.800000e+001 7.954423e+000
      endloop
   endfacet
   facet normal 2.305519e-001 0.000000e+000 -9.730600e-001
      outer loop
         vertex 5.697906e+001 1.800000e+001 7.954423e+000
         vertex 5.647394e+001 2.400000e+001 7.819078e+000
         vertex 5.697906e+001 2.400000e+001 7.954423e+000
      endloop
   endfacet
   facet normal 1.161583e-001 0.000000e+000 -9.932307e-001
      outer loop
         vertex 5.697906e+001 1.800000e+001 7.954423e+000
         vertex 5.697906e+001 2.400000e+001 7.954423e+000
         vertex 5.750000e+001 1.800000e+001 8.000000e+000
      endloop
   endfacet
   facet normal 5.807913e-002 0.000000e+000 -9.983119e-001
      outer loop
         vertex 5.750000e+001 1.800000e+001 8.000000e+000
         vertex 5.697906e+001 2.400000e+001 7.954423e+000
         vertex 5.750000e+001 2.400000e+001 8.000000e+000
      endloop
   endfacet
   facet normal 9.983119e-001 -5.807913e-002 0.000000e+000
      outer loop
         vertex 4.600000e+001 1.300000e+001 1.000000e+001
         vertex 4.600000e+001 1.300000e+001 1.414467e-015
         vertex 4.607596e+001 1.386824e+001 1.000000e+001
      endloop
   endfacet
   facet normal 9.932307e-001 -1.161583e-001 0.000000e+000
      outer loop
         vertex 4.607596e+001 1.386824e+001 1.000000e+001
         vertex 4.600000e+001 1.300000e+001 1.414467e-015
         vertex 4.607596e+001 1.386824e+001 1.414467e-015
      endloop
   endfacet
   facet normal 9.730600e-001 -2.305519e-001 0.000000e+000
      outer loop
         vertex 4.607596e+001 1.386824e+001 1.000000e+001
         vertex 4.607596e+001 1.386824e+001 1.414467e-015
         vertex 4.630154e+001 1.471010e+001 1.000000e+001
      endloop
   endfacet
   facet normal 9.579706e-001 -2.868663e-001 0.000000e+000
      outer loop
         vertex 4.630154e+001 1.471010e+001 1.000000e+001
         vertex 4.607596e+001 1.386824e+001 1.414467e-015
         vertex 4.630154e+001 1.471010e+001 1.414467e-015
      endloop
   endfacet
   facet normal 9.182422e-001 -3.960194e-001 0.000000e+000
      outer loop
         vertex 4.630154e+001 1.471010e+001 1.000000e+001
         vertex 4.630154e+001 1.471010e+001 1.414467e-015
         vertex 4.666988e+001 1.550000e+001 1.000000e+001
      endloop
   endfacet
   facet normal 8.936031e-001 -4.488580e-001 0.000000e+000
      outer loop
         vertex 4.666988e+001 1.550000e+001 1.000000e+001
         vertex 4.630154e+001 1.471010e+001 1.414467e-015
         vertex 4.666988e+001 1.550000e+001 1.414467e-015
      endloop
   endfacet
   facet normal 8.355240e-001 -5.494540e-001 0.000000e+000
      outer loop
         vertex 4.666988e+001 1.550000e+001 1.000000e+001
         vertex 4.666988e+001 1.550000e+001 1.414467e-015
         vertex 4.716978e+001 1.621394e+001 1.000000e+001
      endloop
   endfacet
   facet normal 8.020838e-001 -5.972114e-001 0.000000e+000
      outer loop
         vertex 4.716978e+001 1.621394e+001 1.000000e+001
         vertex 4.666988e+001 1.550000e+001 1.414467e-015
         vertex 4.716978e+001 1.621394e+001 1.414467e-015
      endloop
   endfacet
   facet normal 7.274188e-001 -6.861938e-001 0.000000e+000
      outer loop
         vertex 4.716978e+001 1.621394e+001 1.000000e+001
         vertex 4.716978e+001 1.621394e+001 1.414467e-015
         vertex 4.778606e+001 1.683022e+001 1.000000e+001
      endloop
   endfacet
   facet normal 6.861938e-001 -7.274188e-001 0.000000e+000
      outer loop
         vertex 4.778606e+001 1.683022e+001 1.000000e+001
         vertex 4.716978e+001 1.621394e+001 1.414467e-015
         vertex 4.778606e+001 1.683022e+001 1.414467e-015
      endloop
   endfacet
   facet normal 5.972114e-001 -8.020838e-001 0.000000e+000
      outer loop
         vertex 4.778606e+001 1.683022e+001 1.000000e+001
         vertex 4.778606e+001 1.683022e+001 1.414467e-015
         vertex 4.850000e+001 1.733013e+001 1.000000e+001
      endloop
   endfacet
   facet normal 5.494540e-001 -8.355240e-001 0.000000e+000
      outer loop
         vertex 4.850000e+001 1.733013e+001 1.000000e+001
         vertex 4.778606e+001 1.683022e+001 1.414467e-015
         vertex 4.850000e+001 1.733013e+001 1.414467e-015
      endloop
   endfacet
   facet normal 4.488580e-001 -8.936031e-001 0.000000e+000
      outer loop
         vertex 4.850000e+001 1.733013e+001 1.000000e+001
         vertex 4.850000e+001 1.733013e+001 1.414467e-015
         vertex 4.928990e+001 1.769846e+001 1.000000e+001
      endloop
   endfacet
   facet normal 3.960194e-001 -9.182422e-001 0.000000e+000
      outer loop
         vertex 4.928990e+001 1.769846e+001 1.000000e+001
         vertex 4.850000e+001 1.733013e+001 1.414467e-015
         vertex 4.928990e+001 1.769846e+001 1.414467e-015
      endloop
   endfacet
   facet normal 2.868663e-001 -9.579706e-001 0.000000e+000
      outer loop
         vertex 4.928990e+001 1.769846e+001 1.000000e+001
         vertex 4.928990e+001 1.769846e+001 1.414467e-015
         vertex 5.013176e+001 1.792404e+001 1.000000e+001
      endloop
   endfacet
   facet normal 2.305519e-001 -9.730600e-001 0.000000e+000
      outer loop
         vertex 5.013176e+001 1.792404e+001 1.000000e+001
         vertex 4.928990e+001 1.769846e+001 1.414467e-015
         vertex 5.013176e+001 1.792404e+001 1.414467e-015
      endloop
   endfacet
   facet normal 1.161583e-001 -9.932307e-001 0.000000e+000
      outer loop
         vertex 5.013176e+001 1.792404e+001 1.000000e+001
         vertex 5.013176e+001 1.792404e+001 1.414467e-015
         vertex 5.100000e+001 1.800000e+001 1.000000e+001
      endloop
   endfacet
   facet normal 5.807913e-002 -9.983119e-001 0.000000e+000
      outer loop
         vertex 5.100000e+001 1.800000e+001 1.000000e+001
         vertex 5.013176e+001 1.792404e+001 1.414467e-015
         vertex 5.100000e+001 1.800000e+001 1.414467e-015
      endloop
   endfacet
   facet normal 9.983119e-001 0.000000e+000 -5.807913e-002
      outer loop
         vertex 6.400000e+001 2.400000e+001 5.000000e+000
         vertex 6.400000e+001 1.800000e+001 5.000000e+000
         vertex 6.392404e+001 1.800000e+001 4.131759e+000
      endloop
   endfacet
   facet normal 9.932307e-001 0.000000e+000 -1.161583e-001
      outer loop
         vertex 6.400000e+001 2.400000e+001 5.000000e+000
         vertex 6.392404e+001 1.800000e+001 4.131759e+000
         vertex 6.392404e+001 2.400000e+001 4.131759e+000
      endloop
   endfacet
   facet normal 9.730600e-001 0.000000e+000 -2.305519e-001
      outer loop
         vertex 6.392404e+001 2.400000e+001 4.131759e+000
         vertex 6.392404e+001 1.800000e+001 4.131759e+000
         vertex 6.369846e+001 1.800000e+001 3.289899e+000
      endloop
   endfacet
   facet normal 9.579706e-001 0.000000e+000 -2.868663e-001
      outer loop
         vertex 6.392404e+001 2.400000e+001 4.131759e+000
         vertex 6.369846e+001 1.800000e+001 3.289899e+000
         vertex 6.369846e+001 2.400000e+001 3.289899e+000
      endloop
   endfacet
   facet normal 9.182422e-001 0.000000e+000 -3.960194e-001
      outer loop
         vertex 6.369846e+001 2.400000e+001 3.289899e+000
         vertex 6.369846e+001 1.800000e+001 3.289899e+000
         vertex 6.333013e+001 1.800000e+001 2.500000e+000
      endloop
   endfacet
   facet normal 8.936031e-001 0.000000e+000 -4.488580e-001
      outer loop
         vertex 6.369846e+001 2.400000e+001 3.289899e+000
         vertex 6.333013e+001 1.800000e+001 2.500000e+000
         vertex 6.333013e+001 2.400000e+001 2.500000e+000
      endloop
   endfacet
   facet normal 8.355240e-001 0.000000e+000 -5.494540e-001
      outer loop
         vertex 6.333013e+001 2.400000e+001 2.500000e+000
         vertex 6.333013e+001 1.800000e+001 2.500000e+000
         vertex 6.283022e+001 1.800000e+001 1.786062e+000
      endloop
   endfacet
   facet normal 8.020838e-001 0.000000e+000 -5.972114e-001
      outer loop
         vertex 6.333013e+001 2.400000e+001 2.500000e+000
         vertex 6.283022e+001 1.800000e+001 1.786062e+000
         vertex 6.283022e+001 2.400000e+001 1.786062e+000
      endloop
   endfacet
   facet normal 7.274188e-001 0.000000e+000 -6.861938e-001
      outer loop
         vertex 6.283022e+001 2.400000e+001 1.786062e+000
         vertex 6.283022e+001 1.800000e+001 1.786062e+000
         vertex 6.221394e+001 1.800000e+001 1.169778e+000
      endloop
   endfacet
   facet normal 6.861938e-001 0.000000e+000 -7.274188e-001
      outer loop
         vertex 6.283022e+001 2.400000e+001 1.786062e+000
         vertex 6.221394e+001 1.800000e+001 1.169778e+000
         vertex 6.221394e+001 2.400000e+001 1.169778e+000
      endloop
   endfacet
   facet normal 5.972114e-001 0.000000e+000 -8.020838e-001
      outer loop
         vertex 6.221394e+001 2.400000e+001 1.169778e+000
         vertex 6.221394e+001 1.800000e+001 1.169778e+000
         vertex 6.150000e+001 1.800000e+001 6.698730e-001
      endloop
   endfacet
   facet normal 5.494540e-001 0.000000e+000 -8.355240e-001
      outer loop
         vertex 6.221394e+001 2.400000e+001 1.169778e+000
         vertex 6.150000e+001 1.800000e+001 6.698730e-001
         vertex 6.150000e+001 2.400000e+001 6.698730e-001
      endloop
   endfacet
   facet normal 4.488580e-001 0.000000e+000 -8.936031e-001
      outer loop
         vertex 6.150000e+001 2.400000e+001 6.698730e-001
         vertex 6.150000e+001 1.800000e+001 6.698730e-001
         vertex 6.071010e+001 1.800000e+001 3.015369e-001
      endloop
   endfacet
   facet normal 3.960194e-001 0.000000e+000 -9.182422e-001
      outer loop
         vertex 6.150000e+001 2.400000e+001 6.698730e-001
         vertex 6.071010e+001 1.800000e+001 3.015369e-001
         vertex 6.071010e+001 2.400000e+001 3.015369e-001
      endloop
   endfacet
   facet normal 2.868663e-001 0.000000e+000 -9.579706e-001
      outer loop
         vertex 6.071010e+001 2.400000e+001 3.015369e-001
         vertex 6.071010e+001 1.800000e+001 3.015369e-001
         vertex 5.986824e+001 1.800000e+001 7.596124e-002
      endloop
   endfacet
   facet normal 2.305519e-001 0.000000e+000 -9.730600e-001
      outer loop
         vertex 6.071010e+001 2.400000e+001 3.015369e-001
         vertex 5.986824e+001 1.800000e+001 7.596124e-002
         vertex 5.986824e+001 2.400000e+001 7.596124e-002
      endloop
   endfacet
   facet normal 1.161583e-001 0.000000e+000 -9.932307e-001
      outer loop
         vertex 5.986824e+001 2.400000e+001 7.596124e-002
         vertex 5.986824e+001 1.800000e+001 7.596124e-002
         vertex 5.900000e+001 1.800000e+001 2.281829e-015
      endloop
   endfacet
   facet normal 5.807913e-002 0.000000e+000 -9.983119e-001
      outer loop
         vertex 5.986824e+001 2.400000e+001 7.596124e-002
         vertex 5.900000e+001 1.800000e+001 2.281829e-015
         vertex 5.900000e+001 2.400000e+001 2.281829e-015
      endloop
   endfacet
   facet normal 1.000000e+000 0.000000e+000 0.000000e+000
      outer loop
         vertex 4.600000e+001 0.000000e+000 2.200000e+001
         vertex 4.600000e+001 0.000000e+000 1.800000e+001
         vertex 4.600000e+001 2.400000e+001 2.200000e+001
      endloop
   endfacet
   facet normal 1.000000e+000 0.000000e+000 0.000000e+000
      outer loop
         vertex 4.600000e+001 2.400000e+001 2.200000e+001
         vertex 4.600000e+001 0.000000e+000 1.800000e+001
         vertex 4.600000e+001 2.400000e+001 1.800000e+001
      endloop
   endfacet
   facet normal 0.000000e+000 0.000000e+000 1.000000e+000
      outer loop
         vertex 6.400000e+001 2.400000e+001 1.500000e+001
         vertex 4.900000e+001 2.400000e+001 1.500000e+001
         vertex 6.400000e+001 0.000000e+000 1.500000e+001
      endloop
   endfacet
   facet normal 0.000000e+000 0.000000e+000 1.000000e+000
      outer loop
         vertex 6.400000e+001 0.000000e+000 1.500000e+001
         vertex 4.900000e+001 2.400000e+001 1.500000e+001
         vertex 4.900000e+001 0.000000e+000 1.500000e+001
      endloop
   endfacet
   facet normal 5.807913e-002 0.000000e+000 9.983119e-001
      outer loop
         vertex 4.900000e+001 0.000000e+000 1.500000e+001
         vertex 4.900000e+001 2.400000e+001 1.500000e+001
         vertex 4.847905e+001 0.000000e+000 1.504558e+001
      endloop
   endfacet
   facet normal 1.161583e-001 0.000000e+000 9.932307e-001
      outer loop
         vertex 4.847905e+001 0.000000e+000 1.504558e+001
         vertex 4.900000e+001 2.400000e+001 1.500000e+001
         vertex 4.847905e+001 2.400000e+001 1.504558e+001
      endloop
   endfacet
   facet normal 2.305519e-001 0.000000e+000 9.730600e-001
      outer loop
         vertex 4.847905e+001 0.000000e+000 1.504558e+001
         vertex 4.847905e+001 2.400000e+001 1.504558e+001
         vertex 4.797394e+001 0.000000e+000 1.518092e+001
      endloop
   endfacet
   facet normal 2.868663e-001 0.000000e+000 9.579706e-001
      outer loop
         vertex 4.797394e+001 0.000000e+000 1.518092e+001
         vertex 4.847905e+001 2.400000e+001 1.504558e+001
         vertex 4.797394e+001 2.400000e+001 1.518092e+001
      endloop
   endfacet
   facet normal 3.960194e-001 0.000000e+000 9.182422e-001
      outer loop
         vertex 4.797394e+001 0.000000e+000 1.518092e+001
         vertex 4.797394e+001 2.400000e+001 1.518092e+001
         vertex 4.750000e+001 0.000000e+000 1.540192e+001
      endloop
   endfacet
   facet normal 4.488580e-001 0.000000e+000 8.936031e-001
      outer loop
         vertex 4.750000e+001 0.000000e+000 1.540192e+001
         vertex 4.797394e+001 2.400000e+001 1.518092e+001
         vertex 4.750000e+001 2.400000e+001 1.540192e+001
      endloop
   endfacet
   facet normal 5.494540e-001 0.000000e+000 8.355240e-001
      outer loop
         vertex 4.750000e+001 0.000000e+000 1.540192e+001
         vertex 4.750000e+001 2.400000e+001 1.540192e+001
         vertex 4.707164e+001 0.000000e+000 1.570187e+001
      endloop
   endfacet
   facet normal 5.972114e-001 0.000000e+000 8.020838e-001
      outer loop
         vertex 4.707164e+001 0.000000e+000 1.570187e+001
         vertex 4.750000e+001 2.400000e+001 1.540192e+001
         vertex 4.707164e+001 2.400000e+001 1.570187e+001
      endloop
   endfacet
   facet normal 6.861938e-001 0.000000e+000 7.274188e-001
      outer loop
         vertex 4.707164e+001 0.000000e+000 1.570187e+001
         vertex 4.707164e+001 2.400000e+001 1.570187e+001
         vertex 4.670187e+001 0.000000e+000 1.607164e+001
      endloop
   endfacet
   facet normal 7.274188e-001 0.000000e+000 6.861938e-001
      outer loop
         vertex 4.670187e+001 0.000000e+000 1.607164e+001
         vertex 4.707164e+001 2.400000e+001 1.570187e+001
         vertex 4.670187e+001 2.400000e+001 1.607164e+001
      endloop
   endfacet
   facet normal 8.020838e-001 0.000000e+000 5.972114e-001
      outer loop
         vertex 4.670187e+001 0.000000e+000 1.607164e+001
         vertex 4.670187e+001 2.400000e+001 1.607164e+001
         vertex 4.640192e+001 0.000000e+000 1.650000e+001
      endloop
   endfacet
   facet normal 8.355240e-001 0.000000e+000 5.494540e-001
      outer loop
         vertex 4.640192e+001 0.000000e+000 1.650000e+001
         vertex 4.670187e+001 2.400000e+001 1.607164e+001
         vertex 4.640192e+001 2.400000e+001 1.650000e+001
      endloop
   endfacet
   facet normal 8.936031e-001 0.000000e+000 4.488580e-001
      outer loop
         vertex 4.640192e+001 0.000000e+000 1.650000e+001
         vertex 4.640192e+001 2.400000e+001 1.650000e+001
         vertex 4.618092e+001 0.000000e+000 1.697394e+001
      endloop
   endfacet
   facet normal 9.182422e-001 0.000000e+000 3.960194e-001
      outer loop
         vertex 4.618092e+001 0.000000e+000 1.697394e+001
         vertex 4.640192e+001 2.400000e+001 1.650000e+001
         vertex 4.618092e+001 2.400000e+001 1.697394e+001
      endloop
   endfacet
   facet normal 9.579706e-001 0.000000e+000 2.868663e-001
      outer loop
         vertex 4.618092e+001 0.000000e+000 1.697394e+001
         vertex 4.618092e+001 2.400000e+001 1.697394e+001
         vertex 4.604557e+001 0.000000e+000 1.747906e+001
      endloop
   endfacet
   facet normal 9.730600e-001 0.000000e+000 2.305519e-001
      outer loop
         vertex 4.604557e+001 0.000000e+000 1.747906e+001
         vertex 4.618092e+001 2.400000e+001 1.697394e+001
         vertex 4.604557e+001 2.400000e+001 1.747906e+001
      endloop
   endfacet
   facet normal 9.932307e-001 0.000000e+000 1.161583e-001
      outer loop
         vertex 4.604557e+001 0.000000e+000 1.747906e+001
         vertex 4.604557e+001 2.400000e+001 1.747906e+001
         vertex 4.600000e+001 0.000000e+000 1.800000e+001
      endloop
   endfacet
   facet normal 9.983119e-001 0.000000e+000 5.807913e-002
      outer loop
         vertex 4.600000e+001 0.000000e+000 1.800000e+001
         vertex 4.604557e+001 2.400000e+001 1.747906e+001
         vertex 4.600000e+001 2.400000e+001 1.800000e+001
      endloop
   endfacet
endsolid