solid Electron-Central-Hub
   facet normal 0.000000e+000 0.000000e+000 1.000000e+000
      outer loop
         vertex 1.359627e+001 1.285673e+001 8.000000e+001
         vertex 1.589440e+001 1.478509e+001 8.000000e+001
         vertex 1.285673e+001 1.359627e+001 8.000000e+001
      endloop
   endfacet
   facet normal 0.000000e+000 0.000000e+000 1.000000e+000
      outer loop
         vertex 1.285673e+001 1.359627e+001 8.000000e+001
         vertex 1.589440e+001 1.478509e+001 8.000000e+001
         vertex 1.478509e+001 1.589440e+001 8.000000e+001
      endloop
   endfacet
   facet normal 0.000000e+000 0.000000e+000 1.000000e+000
      outer loop
         vertex 1.285673e+001 1.359627e+001 8.000000e+001
         vertex 1.478509e+001 1.589440e+001 8.000000e+001
         vertex 1.200000e+001 1.419615e+001 8.000000e+001
      endloop
   endfacet
   facet normal 0.000000e+000 0.000000e+000 1.000000e+000
      outer loop
         vertex 1.200000e+001 1.419615e+001 8.000000e+001
         vertex 1.478509e+001 1.589440e+001 8.000000e+001
         vertex 1.350000e+001 1.679423e+001 8.000000e+001
      endloop
   endfacet
   facet normal 0.000000e+000 0.000000e+000 1.000000e+000
      outer loop
         vertex 1.200000e+001 1.419615e+001 8.000000e+001
         vertex 1.350000e+001 1.679423e+001 8.000000e+001
         vertex 1.105212e+001 1.463816e+001 8.000000e+001
      endloop
   endfacet
   facet normal 0.000000e+000 0.000000e+000 1.000000e+000
      outer loop
         vertex 1.105212e+001 1.463816e+001 8.000000e+001
         vertex 1.350000e+001 1.679423e+001 8.000000e+001
         vertex 1.207818e+001 1.745723e+001 8.000000e+001
      endloop
   endfacet
   facet normal 0.000000e+000 0.000000e+000 1.000000e+000
      outer loop
         vertex 1.105212e+001 1.463816e+001 8.000000e+001
         vertex 1.207818e+001 1.745723e+001 8.000000e+001
         vertex 1.004189e+001 1.490885e+001 8.000000e+001
      endloop
   endfacet
   facet normal 0.000000e+000 0.000000e+000 1.000000e+000
      outer loop
         vertex 1.004189e+001 1.490885e+001 8.000000e+001
         vertex 1.207818e+001 1.745723e+001 8.000000e+001
         vertex 1.056283e+001 1.786327e+001 8.000000e+001
      endloop
   endfacet
   facet normal 0.000000e+000 0.000000e+000 1.000000e+000
      outer loop
         vertex 1.004189e+001 1.490885e+001 8.000000e+001
         vertex 1.056283e+001 1.786327e+001 8.000000e+001
         vertex 9.000000e+000 1.500000e+001 8.000000e+001
      endloop
   endfacet
   facet normal 0.000000e+000 0.000000e+000 1.000000e+000
      outer loop
         vertex 9.000000e+000 1.500000e+001 8.000000e+001
         vertex 1.056283e+001 1.786327e+001 8.000000e+001
         vertex 9.000000e+000 1.800000e+001 8.000000e+001
      endloop
   endfacet
   facet normal 0.000000e+000 0.000000e+000 1.000000e+000
      outer loop
         vertex 9.000000e+000 1.500000e+001 8.000000e+001
         vertex 9.000000e+000 1.800000e+001 8.000000e+001
         vertex 7.958110e+000 1.490885e+001 8.000000e+001
      endloop
   endfacet
   facet normal 0.000000e+000 0.000000e+000 1.000000e+000
      outer loop
         vertex 7.958110e+000 1.490885e+001 8.000000e+001
         vertex 9.000000e+000 1.800000e+001 8.000000e+001
         vertex 7.437166e+000 1.786327e+001 8.000000e+001
      endloop
   endfacet
   facet normal 0.000000e+000 0.000000e+000 1.000000e+000
      outer loop
         vertex 7.958110e+000 1.490885e+001 8.000000e+001
         vertex 7.437166e+000 1.786327e+001 8.000000e+001
         vertex 6.947879e+000 1.463816e+001 8.000000e+001
      endloop
   endfacet
   facet normal 0.000000e+000 0.000000e+000 1.000000e+000
      outer loop
         vertex 6.947879e+000 1.463816e+001 8.000000e+001
         vertex 7.437166e+000 1.786327e+001 8.000000e+001
         vertex 5.921818e+000 1.745723e+001 8.000000e+001
      endloop
   endfacet
   facet normal 0.000000e+000 0.000000e+000 1.000000e+000
      outer loop
         vertex 6.947879e+000 1.463816e+001 8.000000e+001
         vertex 5.921818e+000 1.745723e+001 8.000000e+001
         vertex 6.000000e+000 1.419615e+001 8.000000e+001
      endloop
   endfacet
   facet normal 0.000000e+000 0.000000e+000 1.000000e+000
      outer loop
         vertex 6.000000e+000 1.419615e+001 8.000000e+001
         vertex 5.921818e+000 1.745723e+001 8.000000e+001
         vertex 4.500000e+000 1.679423e+001 8.000000e+001
      endloop
   endfacet
   facet normal 0.000000e+000 0.000000e+000 1.000000e+000
      outer loop
         vertex 6.000000e+000 1.419615e+001 8.000000e+001
         vertex 4.500000e+000 1.679423e+001 8.000000e+001
         vertex 5.143274e+000 1.359627e+001 8.000000e+001
      endloop
   endfacet
   facet normal 0.000000e+000 0.000000e+000 1.000000e+000
      outer loop
         vertex 5.143274e+000 1.359627e+001 8.000000e+001
         vertex 4.500000e+000 1.679423e+001 8.000000e+001
         vertex 3.214911e+000 1.589440e+001 8.000000e+001
      endloop
   endfacet
   facet normal 0.000000e+000 0.000000e+000 1.000000e+000
      outer loop
         vertex 5.143274e+000 1.359627e+001 8.000000e+001
         vertex 3.214911e+000 1.589440e+001 8.000000e+001
         vertex 4.403733e+000 1.285673e+001 8.000000e+001
      endloop
   endfacet
   facet normal 0.000000e+000 0.000000e+000 1.000000e+000
      outer loop
         vertex 4.403733e+000 1.285673e+001 8.000000e+001
         vertex 3.214911e+000 1.589440e+001 8.000000e+001
         vertex 2.105600e+000 1.478509e+001 8.000000e+001
      endloop
   endfacet
   facet normal 0.000000e+000 0.000000e+000 1.000000e+000
      outer loop
         vertex 4.403733e+000 1.285673e+001 8.000000e+001
         vertex 2.105600e+000 1.478509e+001 8.000000e+001
         vertex 3.803847e+000 1.200000e+001 8.000000e+001
      endloop
   endfacet
   facet normal 0.000000e+000 0.000000e+000 1.000000e+000
      outer loop
         vertex 3.803847e+000 1.200000e+001 8.000000e+001
         vertex 2.105600e+000 1.478509e+001 8.000000e+001
         vertex 1.205771e+000 1.350000e+001 8.000000e+001
      endloop
   endfacet
   facet normal 0.000000e+000 0.000000e+000 1.000000e+000
      outer loop
         vertex 3.803847e+000 1.200000e+001 8.000000e+001
         vertex 1.205771e+000 1.350000e+001 8.000000e+001
         vertex 3.361844e+000 1.105212e+001 8.000000e+001
      endloop
   endfacet
   facet normal 0.000000e+000 0.000000e+000 1.000000e+000
      outer loop
         vertex 3.361844e+000 1.105212e+001 8.000000e+001
         vertex 1.205771e+000 1.350000e+001 8.000000e+001
         vertex 5.427664e-001 1.207818e+001 8.000000e+001
      endloop
   endfacet
   facet normal 0.000000e+000 0.000000e+000 1.000000e+000
      outer loop
         vertex 3.361844e+000 1.105212e+001 8.000000e+001
         vertex 5.427664e-001 1.207818e+001 8.000000e+001
         vertex 3.091153e+000 1.004189e+001 8.000000e+001
      endloop
   endfacet
   facet normal 0.000000e+000 0.000000e+000 1.000000e+000
      outer loop
         vertex 3.091153e+000 1.004189e+001 8.000000e+001
         vertex 5.427664e-001 1.207818e+001 8.000000e+001
         vertex 1.367303e-001 1.056283e+001 8.000000e+001
      endloop
   endfacet
   facet normal 0.000000e+000 0.000000e+000 1.000000e+000
      outer loop
         vertex 3.091153e+000 1.004189e+001 8.000000e+001
         vertex 1.367303e-001 1.056283e+001 8.000000e+001
         vertex 3.000000e+000 9.000000e+000 8.000000e+001
      endloop
   endfacet
   facet normal 0.000000e+000 0.000000e+000 1.000000e+000
      outer loop
         vertex 3.000000e+000 9.000000e+000 8.000000e+001
         vertex 1.367303e-001 1.056283e+001 8.000000e+001
         vertex 0.000000e+000 9.000000e+000 8.000000e+001
      endloop
   endfacet
   facet normal 0.000000e+000 0.000000e+000 1.000000e+000
      outer loop
         vertex 3.000000e+000 9.000000e+000 8.000000e+001
         vertex 0.000000e+000 9.000000e+000 8.000000e+001
         vertex 3.091153e+000 7.958110e+000 8.000000e+001
      endloop
   endfacet
   facet normal 0.000000e+000 0.000000e+000 1.000000e+000
      outer loop
         vertex 3.091153e+000 7.958110e+000 8.000000e+001
         vertex 0.000000e+000 9.000000e+000 8.000000e+001
         vertex 1.367303e-001 7.437166e+000 8.000000e+001
      endloop
   endfacet
   facet normal 0.000000e+000 0.000000e+000 1.000000e+000
      outer loop
         vertex 3.091153e+000 7.958110e+000 8.000000e+001
         vertex 1.367303e-001 7.437166e+000 8.000000e+001
         vertex 3.361844e+000 6.947879e+000 8.000000e+001
      endloop
   endfacet
   facet normal 0.000000e+000 0.000000e+000 1.000000e+000
      outer loop
         vertex 3.361844e+000 6.947879e+000 8.000000e+001
         vertex 1.367303e-001 7.437166e+000 8.000000e+001
         vertex 5.427664e-001 5.921818e+000 8.000000e+001
      endloop
   endfacet
   facet normal 0.000000e+000 0.000000e+000 1.000000e+000
      outer loop
         vertex 3.361844e+000 6.947879e+000 8.000000e+001
         vertex 5.427664e-001 5.921818e+000 8.000000e+001
         vertex 3.803847e+000 6.000000e+000 8.000000e+001
      endloop
   endfacet
   facet normal 0.000000e+000 0.000000e+000 1.000000e+000
      outer loop
         vertex 3.803847e+000 6.000000e+000 8.000000e+001
         vertex 5.427664e-001 5.921818e+000 8.000000e+001
         vertex 1.205771e+000 4.500000e+000 8.000000e+001
      endloop
   endfacet
   facet normal 0.000000e+000 0.000000e+000 1.000000e+000
      outer loop
         vertex 3.803847e+000 6.000000e+000 8.000000e+001
         vertex 1.205771e+000 4.500000e+000 8.000000e+001
         vertex 4.403733e+000 5.143274e+000 8.000000e+001
      endloop
   endfacet
   facet normal 0.000000e+000 0.000000e+000 1.000000e+000
      outer loop
         vertex 4.403733e+000 5.143274e+000 8.000000e+001
         vertex 1.205771e+000 4.500000e+000 8.000000e+001
         vertex 2.105600e+000 3.214911e+000 8.000000e+001
      endloop
   endfacet
   facet normal 0.000000e+000 0.000000e+000 1.000000e+000
      outer loop
         vertex 4.403733e+000 5.143274e+000 8.000000e+001
         vertex 2.105600e+000 3.214911e+000 8.000000e+001
         vertex 5.143274e+000 4.403733e+000 8.000000e+001
      endloop
   endfacet
   facet normal 0.000000e+000 0.000000e+000 1.000000e+000
      outer loop
         vertex 5.143274e+000 4.403733e+000 8.000000e+001
         vertex 2.105600e+000 3.214911e+000 8.000000e+001
         vertex 3.214911e+000 2.105600e+000 8.000000e+001
      endloop
   endfacet
   facet normal 0.000000e+000 0.000000e+000 1.000000e+000
      outer loop
         vertex 5.143274e+000 4.403733e+000 8.000000e+001
         vertex 3.214911e+000 2.105600e+000 8.000000e+001
         vertex 6.000000e+000 3.803847e+000 8.000000e+001
      endloop
   endfacet
   facet normal 0.000000e+000 0.000000e+000 1.000000e+000
      outer loop
         vertex 6.000000e+000 3.803847e+000 8.000000e+001
         vertex 3.214911e+000 2.105600e+000 8.000000e+001
         vertex 4.500000e+000 1.205771e+000 8.000000e+001
      endloop
   endfacet
   facet normal 0.000000e+000 0.000000e+000 1.000000e+000
      outer loop
         vertex 6.000000e+000 3.803847e+000 8.000000e+001
         vertex 4.500000e+000 1.205771e+000 8.000000e+001
         vertex 6.947879e+000 3.361844e+000 8.000000e+001
      endloop
   endfacet
   facet normal 0.000000e+000 0.000000e+000 1.000000e+000
      outer loop
         vertex 6.947879e+000 3.361844e+000 8.000000e+001
         vertex 4.500000e+000 1.205771e+000 8.000000e+001
         vertex 5.921818e+000 5.427664e-001 8.000000e+001
      endloop
   endfacet
   facet normal 0.000000e+000 0.000000e+000 1.000000e+000
      outer loop
         vertex 6.947879e+000 3.361844e+000 8.000000e+001
         vertex 5.921818e+000 5.427664e-001 8.000000e+001
         vertex 7.958110e+000 3.091153e+000 8.000000e+001
      endloop
   endfacet
   facet normal 0.000000e+000 0.000000e+000 1.000000e+000
      outer loop
         vertex 7.958110e+000 3.091153e+000 8.000000e+001
         vertex 5.921818e+000 5.427664e-001 8.000000e+001
         vertex 7.437166e+000 1.367303e-001 8.000000e+001
      endloop
   endfacet
   facet normal 0.000000e+000 0.000000e+000 1.000000e+000
      outer loop
         vertex 7.958110e+000 3.091153e+000 8.000000e+001
         vertex 7.437166e+000 1.367303e-001 8.000000e+001
         vertex 9.000000e+000 3.000000e+000 8.000000e+001
      endloop
   endfacet
   facet normal 0.000000e+000 0.000000e+000 1.000000e+000
      outer loop
         vertex 9.000000e+000 3.000000e+000 8.000000e+001
         vertex 7.437166e+000 1.367303e-001 8.000000e+001
         vertex 9.000000e+000 0.000000e+000 8.000000e+001
      endloop
   endfacet
   facet normal 0.000000e+000 0.000000e+000 1.000000e+000
      outer loop
         vertex 9.000000e+000 3.000000e+000 8.000000e+001
         vertex 9.000000e+000 0.000000e+000 8.000000e+001
         vertex 1.004189e+001 3.091153e+000 8.000000e+001
      endloop
   endfacet
   facet normal 0.000000e+000 0.000000e+000 1.000000e+000
      outer loop
         vertex 1.004189e+001 3.091153e+000 8.000000e+001
         vertex 9.000000e+000 0.000000e+000 8.000000e+001
         vertex 1.056283e+001 1.367303e-001 8.000000e+001
      endloop
   endfacet
   facet normal 0.000000e+000 0.000000e+000 1.000000e+000
      outer loop
         vertex 1.004189e+001 3.091153e+000 8.000000e+001
         vertex 1.056283e+001 1.367303e-001 8.000000e+001
         vertex 1.105212e+001 3.361844e+000 8.000000e+001
      endloop
   endfacet
   facet normal 0.000000e+000 0.000000e+000 1.000000e+000
      outer loop
         vertex 1.105212e+001 3.361844e+000 8.000000e+001
         vertex 1.056283e+001 1.367303e-001 8.000000e+001
         vertex 1.207818e+001 5.427664e-001 8.000000e+001
      endloop
   endfacet
   facet normal 0.000000e+000 0.000000e+000 1.000000e+000
      outer loop
         vertex 1.105212e+001 3.361844e+000 8.000000e+001
         vertex 1.207818e+001 5.427664e-001 8.000000e+001
         vertex 1.200000e+001 3.803847e+000 8.000000e+001
      endloop
   endfacet
   facet normal 0.000000e+000 0.000000e+000 1.000000e+000
      outer loop
         vertex 1.200000e+001 3.803847e+000 8.000000e+001
         vertex 1.207818e+001 5.427664e-001 8.000000e+001
         vertex 1.350000e+001 1.205771e+000 8.000000e+001
      endloop
   endfacet
   facet normal 0.000000e+000 0.000000e+000 1.000000e+000
      outer loop
         vertex 1.200000e+001 3.803847e+000 8.000000e+001
         vertex 1.350000e+001 1.205771e+000 8.000000e+001
         vertex 1.285673e+001 4.403733e+000 8.000000e+001
      endloop
   endfacet
   facet normal 0.000000e+000 0.000000e+000 1.000000e+000
      outer loop
         vertex 1.285673e+001 4.403733e+000 8.000000e+001
         vertex 1.350000e+001 1.205771e+000 8.000000e+001
         vertex 1.478509e+001 2.105600e+000 8.000000e+001
      endloop
   endfacet
   facet normal 0.000000e+000 0.000000e+000 1.000000e+000
      outer loop
         vertex 1.285673e+001 4.403733e+000 8.000000e+001
         vertex 1.478509e+001 2.105600e+000 8.000000e+001
         vertex 1.359627e+001 5.143274e+000 8.000000e+001
      endloop
   endfacet
   facet normal 0.000000e+000 0.000000e+000 1.000000e+000
      outer loop
         vertex 1.359627e+001 5.143274e+000 8.000000e+001
         vertex 1.478509e+001 2.105600e+000 8.000000e+001
         vertex 1.589440e+001 3.214911e+000 8.000000e+001
      endloop
   endfacet
   facet normal 0.000000e+000 0.000000e+000 1.000000e+000
      outer loop
         vertex 1.359627e+001 5.143274e+000 8.000000e+001
         vertex 1.589440e+001 3.214911e+000 8.000000e+001
         vertex 1.419615e+001 6.000000e+000 8.000000e+001
      endloop
   endfacet
   facet normal 0.000000e+000 0.000000e+000 1.000000e+000
      outer loop
         vertex 1.419615e+001 6.000000e+000 8.000000e+001
         vertex 1.589440e+001 3.214911e+000 8.000000e+001
         vertex 1.679423e+001 4.500000e+000 8.000000e+001
      endloop
   endfacet
   facet normal 0.000000e+000 0.000000e+000 1.000000e+000
      outer loop
         vertex 1.419615e+001 6.000000e+000 8.000000e+001
         vertex 1.679423e+001 4.500000e+000 8.000000e+001
         vertex 1.463816e+001 6.947879e+000 8.000000e+001
      endloop
   endfacet
   facet normal 0.000000e+000 0.000000e+000 1.000000e+000
      outer loop
         vertex 1.463816e+001 6.947879e+000 8.000000e+001
         vertex 1.679423e+001 4.500000e+000 8.000000e+001
         vertex 1.745723e+001 5.921818e+000 8.000000e+001
      endloop
   endfacet
   facet normal 0.000000e+000 0.000000e+000 1.000000e+000
      outer loop
         vertex 1.463816e+001 6.947879e+000 8.000000e+001
         vertex 1.745723e+001 5.921818e+000 8.000000e+001
         vertex 1.490885e+001 7.958110e+000 8.000000e+001
      endloop
   endfacet
   facet normal 0.000000e+000 0.000000e+000 1.000000e+000
      outer loop
         vertex 1.490885e+001 7.958110e+000 8.000000e+001
         vertex 1.745723e+001 5.921818e+000 8.000000e+001
         vertex 1.786327e+001 7.437166e+000 8.000000e+001
      endloop
   endfacet
   facet normal 0.000000e+000 0.000000e+000 1.000000e+000
      outer loop
         vertex 1.490885e+001 7.958110e+000 8.000000e+001
         vertex 1.786327e+001 7.437166e+000 8.000000e+001
         vertex 1.500000e+001 9.000000e+000 8.000000e+001
      endloop
   endfacet
   facet normal 0.000000e+000 0.000000e+000 1.000000e+000
      outer loop
         vertex 1.500000e+001 9.000000e+000 8.000000e+001
         vertex 1.786327e+001 7.437166e+000 8.000000e+001
         vertex 1.800000e+001 9.000000e+000 8.000000e+001
      endloop
   endfacet
   facet normal 0.000000e+000 0.000000e+000 1.000000e+000
      outer loop
         vertex 1.500000e+001 9.000000e+000 8.000000e+001
         vertex 1.800000e+001 9.000000e+000 8.000000e+001
         vertex 1.490885e+001 1.004189e+001 8.000000e+001
      endloop
   endfacet
   facet normal 0.000000e+000 0.000000e+000 1.000000e+000
      outer loop
         vertex 1.490885e+001 1.004189e+001 8.000000e+001
         vertex 1.800000e+001 9.000000e+000 8.000000e+001
         vertex 1.786327e+001 1.056283e+001 8.000000e+001
      endloop
   endfacet
   facet normal 0.000000e+000 0.000000e+000 1.000000e+000
      outer loop
         vertex 1.490885e+001 1.004189e+001 8.000000e+001
         vertex 1.786327e+001 1.056283e+001 8.000000e+001
         vertex 1.463816e+001 1.105212e+001 8.000000e+001
      endloop
   endfacet
   facet normal 0.000000e+000 0.000000e+000 1.000000e+000
      outer loop
         vertex 1.463816e+001 1.105212e+001 8.000000e+001
         vertex 1.786327e+001 1.056283e+001 8.000000e+001
         vertex 1.745723e+001 1.207818e+001 8.000000e+001
      endloop
   endfacet
   facet normal 0.000000e+000 0.000000e+000 1.000000e+000
      outer loop
         vertex 1.463816e+001 1.105212e+001 8.000000e+001
         vertex 1.745723e+001 1.207818e+001 8.000000e+001
         vertex 1.419615e+001 1.200000e+001 8.000000e+001
      endloop
   endfacet
   facet normal 0.000000e+000 0.000000e+000 1.000000e+000
      outer loop
         vertex 1.419615e+001 1.200000e+001 8.000000e+001
         vertex 1.745723e+001 1.207818e+001 8.000000e+001
         vertex 1.679423e+001 1.350000e+001 8.000000e+001
      endloop
   endfacet
   facet normal 0.000000e+000 0.000000e+000 1.000000e+000
      outer loop
         vertex 1.419615e+001 1.200000e+001 8.000000e+001
         vertex 1.679423e+001 1.350000e+001 8.000000e+001
         vertex 1.359627e+001 1.285673e+001 8.000000e+001
      endloop
   endfacet
   facet normal 0.000000e+000 0.000000e+000 1.000000e+000
      outer loop
         vertex 1.359627e+001 1.285673e+001 8.000000e+001
         vertex 1.679423e+001 1.350000e+001 8.000000e+001
         vertex 1.589440e+001 1.478509e+001 8.000000e+001
      endloop
   endfacet
   facet normal 0.000000e+000 0.000000e+000 -1.000000e+000
      outer loop
         vertex 1.500000e+001 9.000000e+000 0.000000e+000
         vertex 1.800000e+001 9.000000e+000 0.000000e+000
         vertex 1.490885e+001 7.958110e+000 0.000000e+000
      endloop
   endfacet
   facet normal 0.000000e+000 0.000000e+000 -1.000000e+000
      outer loop
         vertex 1.490885e+001 7.958110e+000 0.000000e+000
         vertex 1.800000e+001 9.000000e+000 0.000000e+000
         vertex 1.786327e+001 7.437166e+000 0.000000e+000
      endloop
   endfacet
   facet normal 0.000000e+000 0.000000e+000 -1.000000e+000
      outer loop
         vertex 1.490885e+001 7.958110e+000 0.000000e+000
         vertex 1.786327e+001 7.437166e+000 0.000000e+000
         vertex 1.463816e+001 6.947879e+000 0.000000e+000
      endloop
   endfacet
   facet normal 0.000000e+000 0.000000e+000 -1.000000e+000
      outer loop
         vertex 1.463816e+001 6.947879e+000 0.000000e+000
         vertex 1.786327e+001 7.437166e+000 0.000000e+000
         vertex 1.745723e+001 5.921818e+000 0.000000e+000
      endloop
   endfacet
   facet normal 0.000000e+000 0.000000e+000 -1.000000e+000
      outer loop
         vertex 1.463816e+001 6.947879e+000 0.000000e+000
         vertex 1.745723e+001 5.921818e+000 0.000000e+000
         vertex 1.419615e+001 6.000000e+000 0.000000e+000
      endloop
   endfacet
   facet normal 0.000000e+000 0.000000e+000 -1.000000e+000
      outer loop
         vertex 1.419615e+001 6.000000e+000 0.000000e+000
         vertex 1.745723e+001 5.921818e+000 0.000000e+000
         vertex 1.679423e+001 4.500000e+000 0.000000e+000
      endloop
   endfacet
   facet normal 0.000000e+000 0.000000e+000 -1.000000e+000
      outer loop
         vertex 1.419615e+001 6.000000e+000 0.000000e+000
         vertex 1.679423e+001 4.500000e+000 0.000000e+000
         vertex 1.359627e+001 5.143274e+000 0.000000e+000
      endloop
   endfacet
   facet normal 0.000000e+000 0.000000e+000 -1.000000e+000
      outer loop
         vertex 1.359627e+001 5.143274e+000 0.000000e+000
         vertex 1.679423e+001 4.500000e+000 0.000000e+000
         vertex 1.589440e+001 3.214911e+000 0.000000e+000
      endloop
   endfacet
   facet normal 0.000000e+000 0.000000e+000 -1.000000e+000
      outer loop
         vertex 1.359627e+001 5.143274e+000 0.000000e+000
         vertex 1.589440e+001 3.214911e+000 0.000000e+000
         vertex 1.285673e+001 4.403733e+000 0.000000e+000
      endloop
   endfacet
   facet normal 0.000000e+000 0.000000e+000 -1.000000e+000
      outer loop
         vertex 1.285673e+001 4.403733e+000 0.000000e+000
         vertex 1.589440e+001 3.214911e+000 0.000000e+000
         vertex 1.478509e+001 2.105600e+000 0.000000e+000
      endloop
   endfacet
   facet normal 0.000000e+000 0.000000e+000 -1.000000e+000
      outer loop
         vertex 1.285673e+001 4.403733e+000 0.000000e+000
         vertex 1.478509e+001 2.105600e+000 0.000000e+000
         vertex 1.200000e+001 3.803847e+000 0.000000e+000
      endloop
   endfacet
   facet normal 0.000000e+000 0.000000e+000 -1.000000e+000
      outer loop
         vertex 1.200000e+001 3.803847e+000 0.000000e+000
         vertex 1.478509e+001 2.105600e+000 0.000000e+000
         vertex 1.350000e+001 1.205771e+000 0.000000e+000
      endloop
   endfacet
   facet normal 0.000000e+000 0.000000e+000 -1.000000e+000
      outer loop
         vertex 1.200000e+001 3.803847e+000 0.000000e+000
         vertex 1.350000e+001 1.205771e+000 0.000000e+000
         vertex 1.105212e+001 3.361844e+000 0.000000e+000
      endloop
   endfacet
   facet normal 0.000000e+000 0.000000e+000 -1.000000e+000
      outer loop
         vertex 1.105212e+001 3.361844e+000 0.000000e+000
         vertex 1.350000e+001 1.205771e+000 0.000000e+000
         vertex 1.207818e+001 5.427664e-001 0.000000e+000
      endloop
   endfacet
   facet normal 0.000000e+000 0.000000e+000 -1.000000e+000
      outer loop
         vertex 1.105212e+001 3.361844e+000 0.000000e+000
         vertex 1.207818e+001 5.427664e-001 0.000000e+000
         vertex 1.004189e+001 3.091153e+000 0.000000e+000
      endloop
   endfacet
   facet normal 0.000000e+000 0.000000e+000 -1.000000e+000
      outer loop
         vertex 1.004189e+001 3.091153e+000 0.000000e+000
         vertex 1.207818e+001 5.427664e-001 0.000000e+000
         vertex 1.056283e+001 1.367303e-001 0.000000e+000
      endloop
   endfacet
   facet normal 0.000000e+000 0.000000e+000 -1.000000e+000
      outer loop
         vertex 1.004189e+001 3.091153e+000 0.000000e+000
         vertex 1.056283e+001 1.367303e-001 0.000000e+000
         vertex 9.000000e+000 3.000000e+000 0.000000e+000
      endloop
   endfacet
   facet normal 0.000000e+000 0.000000e+000 -1.000000e+000
      outer loop
         vertex 9.000000e+000 3.000000e+000 0.000000e+000
         vertex 1.056283e+001 1.367303e-001 0.000000e+000
         vertex 9.000000e+000 0.000000e+000 0.000000e+000
      endloop
   endfacet
   facet normal 0.000000e+000 0.000000e+000 -1.000000e+000
      outer loop
         vertex 9.000000e+000 3.000000e+000 0.000000e+000
         vertex 9.000000e+000 0.000000e+000 0.000000e+000
         vertex 7.958110e+000 3.091153e+000 0.000000e+000
      endloop
   endfacet
   facet normal 0.000000e+000 0.000000e+000 -1.000000e+000
      outer loop
         vertex 7.958110e+000 3.091153e+000 0.000000e+000
         vertex 9.000000e+000 0.000000e+000 0.000000e+000
         vertex 7.437166e+000 1.367303e-001 0.000000e+000
      endloop
   endfacet
   facet normal 0.000000e+000 0.000000e+000 -1.000000e+000
      outer loop
         vertex 7.958110e+000 3.091153e+000 0.000000e+000
         vertex 7.437166e+000 1.367303e-001 0.000000e+000
         vertex 6.947879e+000 3.361844e+000 0.000000e+000
      endloop
   endfacet
   facet normal 0.000000e+000 0.000000e+000 -1.000000e+000
      outer loop
         vertex 6.947879e+000 3.361844e+000 0.000000e+000
         vertex 7.437166e+000 1.367303e-001 0.000000e+000
         vertex 5.921818e+000 5.427664e-001 0.000000e+000
      endloop
   endfacet
   facet normal 0.000000e+000 0.000000e+000 -1.000000e+000
      outer loop
         vertex 6.947879e+000 3.361844e+000 0.000000e+000
         vertex 5.921818e+000 5.427664e-001 0.000000e+000
         vertex 6.000000e+000 3.803847e+000 0.000000e+000
      endloop
   endfacet
   facet normal 0.000000e+000 0.000000e+000 -1.000000e+000
      outer loop
         vertex 6.000000e+000 3.803847e+000 0.000000e+000
         vertex 5.921818e+000 5.427664e-001 0.000000e+000
         vertex 4.500000e+000 1.205771e+000 0.000000e+000
      endloop
   endfacet
   facet normal 0.000000e+000 0.000000e+000 -1.000000e+000
      outer loop
         vertex 6.000000e+000 3.803847e+000 0.000000e+000
         vertex 4.500000e+000 1.205771e+000 0.000000e+000
         vertex 5.143274e+000 4.403733e+000 0.000000e+000
      endloop
   endfacet
   facet normal 0.000000e+000 0.000000e+000 -1.000000e+000
      outer loop
         vertex 5.143274e+000 4.403733e+000 0.000000e+000
         vertex 4.500000e+000 1.205771e+000 0.000000e+000
         vertex 3.214911e+000 2.105600e+000 0.000000e+000
      endloop
   endfacet
   facet normal 0.000000e+000 0.000000e+000 -1.000000e+000
      outer loop
         vertex 5.143274e+000 4.403733e+000 0.000000e+000
         vertex 3.214911e+000 2.105600e+000 0.000000e+000
         vertex 4.403733e+000 5.143274e+000 0.000000e+000
      endloop
   endfacet
   facet normal 0.000000e+000 0.000000e+000 -1.000000e+000
      outer loop
         vertex 4.403733e+000 5.143274e+000 0.000000e+000
         vertex 3.214911e+000 2.105600e+000 0.000000e+000
         vertex 2.105600e+000 3.214911e+000 0.000000e+000
      endloop
   endfacet
   facet normal 0.000000e+000 0.000000e+000 -1.000000e+000
      outer loop
         vertex 4.403733e+000 5.143274e+000 0.000000e+000
         vertex 2.105600e+000 3.214911e+000 0.000000e+000
         vertex 3.803847e+000 6.000000e+000 0.000000e+000
      endloop
   endfacet
   facet normal 0.000000e+000 0.000000e+000 -1.000000e+000
      outer loop
         vertex 3.803847e+000 6.000000e+000 0.000000e+000
         vertex 2.105600e+000 3.214911e+000 0.000000e+000
         vertex 1.205771e+000 4.500000e+000 0.000000e+000
      endloop
   endfacet
   facet normal 0.000000e+000 0.000000e+000 -1.000000e+000
      outer loop
         vertex 3.803847e+000 6.000000e+000 0.000000e+000
         vertex 1.205771e+000 4.500000e+000 0.000000e+000
         vertex 3.361844e+000 6.947879e+000 0.000000e+000
      endloop
   endfacet
   facet normal 0.000000e+000 0.000000e+000 -1.000000e+000
      outer loop
         vertex 3.361844e+000 6.947879e+000 0.000000e+000
         vertex 1.205771e+000 4.500000e+000 0.000000e+000
         vertex 5.427664e-001 5.921818e+000 0.000000e+000
      endloop
   endfacet
   facet normal 0.000000e+000 0.000000e+000 -1.000000e+000
      outer loop
         vertex 3.361844e+000 6.947879e+000 0.000000e+000
         vertex 5.427664e-001 5.921818e+000 0.000000e+000
         vertex 3.091153e+000 7.958110e+000 0.000000e+000
      endloop
   endfacet
   facet normal 0.000000e+000 0.000000e+000 -1.000000e+000
      outer loop
         vertex 3.091153e+000 7.958110e+000 0.000000e+000
         vertex 5.427664e-001 5.921818e+000 0.000000e+000
         vertex 1.367303e-001 7.437166e+000 0.000000e+000
      endloop
   endfacet
   facet normal 0.000000e+000 0.000000e+000 -1.000000e+000
      outer loop
         vertex 3.091153e+000 7.958110e+000 0.000000e+000
         vertex 1.367303e-001 7.437166e+000 0.000000e+000
         vertex 3.000000e+000 9.000000e+000 0.000000e+000
      endloop
   endfacet
   facet normal 0.000000e+000 0.000000e+000 -1.000000e+000
      outer loop
         vertex 3.000000e+000 9.000000e+000 0.000000e+000
         vertex 1.367303e-001 7.437166e+000 0.000000e+000
         vertex 0.000000e+000 9.000000e+000 0.000000e+000
      endloop
   endfacet
   facet normal 0.000000e+000 0.000000e+000 -1.000000e+000
      outer loop
         vertex 3.000000e+000 9.000000e+000 0.000000e+000
         vertex 0.000000e+000 9.000000e+000 0.000000e+000
         vertex 3.091153e+000 1.004189e+001 0.000000e+000
      endloop
   endfacet
   facet normal 0.000000e+000 0.000000e+000 -1.000000e+000
      outer loop
         vertex 3.091153e+000 1.004189e+001 0.000000e+000
         vertex 0.000000e+000 9.000000e+000 0.000000e+000
         vertex 1.367303e-001 1.056283e+001 0.000000e+000
      endloop
   endfacet
   facet normal 0.000000e+000 0.000000e+000 -1.000000e+000
      outer loop
         vertex 3.091153e+000 1.004189e+001 0.000000e+000
         vertex 1.367303e-001 1.056283e+001 0.000000e+000
         vertex 3.361844e+000 1.105212e+001 0.000000e+000
      endloop
   endfacet
   facet normal 0.000000e+000 0.000000e+000 -1.000000e+000
      outer loop
         vertex 3.361844e+000 1.105212e+001 0.000000e+000
         vertex 1.367303e-001 1.056283e+001 0.000000e+000
         vertex 5.427664e-001 1.207818e+001 0.000000e+000
      endloop
   endfacet
   facet normal 0.000000e+000 0.000000e+000 -1.000000e+000
      outer loop
         vertex 3.361844e+000 1.105212e+001 0.000000e+000
         vertex 5.427664e-001 1.207818e+001 0.000000e+000
         vertex 3.803847e+000 1.200000e+001 0.000000e+000
      endloop
   endfacet
   facet normal 0.000000e+000 0.000000e+000 -1.000000e+000
      outer loop
         vertex 3.803847e+000 1.200000e+001 0.000000e+000
         vertex 5.427664e-001 1.207818e+001 0.000000e+000
         vertex 1.205771e+000 1.350000e+001 0.000000e+000
      endloop
   endfacet
   facet normal 0.000000e+000 0.000000e+000 -1.000000e+000
      outer loop
         vertex 3.803847e+000 1.200000e+001 0.000000e+000
         vertex 1.205771e+000 1.350000e+001 0.000000e+000
         vertex 4.403733e+000 1.285673e+001 0.000000e+000
      endloop
   endfacet
   facet normal 0.000000e+000 0.000000e+000 -1.000000e+000
      outer loop
         vertex 4.403733e+000 1.285673e+001 0.000000e+000
         vertex 1.205771e+000 1.350000e+001 0.000000e+000
         vertex 2.105600e+000 1.478509e+001 0.000000e+000
      endloop
   endfacet
   facet normal 0.000000e+000 0.000000e+000 -1.000000e+000
      outer loop
         vertex 4.403733e+000 1.285673e+001 0.000000e+000
         vertex 2.105600e+000 1.478509e+001 0.000000e+000
         vertex 5.143274e+000 1.359627e+001 0.000000e+000
      endloop
   endfacet
   facet normal 0.000000e+000 0.000000e+000 -1.000000e+000
      outer loop
         vertex 5.143274e+000 1.359627e+001 0.000000e+000
         vertex 2.105600e+000 1.478509e+001 0.000000e+000
         vertex 3.214911e+000 1.589440e+001 0.000000e+000
      endloop
   endfacet
   facet normal 0.000000e+000 0.000000e+000 -1.000000e+000
      outer loop
         vertex 5.143274e+000 1.359627e+001 0.000000e+000
         vertex 3.214911e+000 1.589440e+001 0.000000e+000
         vertex 6.000000e+000 1.419615e+001 0.000000e+000
      endloop
   endfacet
   facet normal 0.000000e+000 0.000000e+000 -1.000000e+000
      outer loop
         vertex 6.000000e+000 1.419615e+001 0.000000e+000
         vertex 3.214911e+000 1.589440e+001 0.000000e+000
         vertex 4.500000e+000 1.679423e+001 0.000000e+000
      endloop
   endfacet
   facet normal 0.000000e+000 0.000000e+000 -1.000000e+000
      outer loop
         vertex 6.000000e+000 1.419615e+001 0.000000e+000
         vertex 4.500000e+000 1.679423e+001 0.000000e+000
         vertex 6.947879e+000 1.463816e+001 0.000000e+000
      endloop
   endfacet
   facet normal 0.000000e+000 0.000000e+000 -1.000000e+000
      outer loop
         vertex 6.947879e+000 1.463816e+001 0.000000e+000
         vertex 4.500000e+000 1.679423e+001 0.000000e+000
         vertex 5.921818e+000 1.745723e+001 0.000000e+000
      endloop
   endfacet
   facet normal 0.000000e+000 0.000000e+000 -1.000000e+000
      outer loop
         vertex 6.947879e+000 1.463816e+001 0.000000e+000
         vertex 5.921818e+000 1.745723e+001 0.000000e+000
         vertex 7.958110e+000 1.490885e+001 0.000000e+000
      endloop
   endfacet
   facet normal 0.000000e+000 0.000000e+000 -1.000000e+000
      outer loop
         vertex 7.958110e+000 1.490885e+001 0.000000e+000
         vertex 5.921818e+000 1.745723e+001 0.000000e+000
         vertex 7.437166e+000 1.786327e+001 0.000000e+000
      endloop
   endfacet
   facet normal 0.000000e+000 0.000000e+000 -1.000000e+000
      outer loop
         vertex 7.958110e+000 1.490885e+001 0.000000e+000
         vertex 7.437166e+000 1.786327e+001 0.000000e+000
         vertex 9.000000e+000 1.500000e+001 0.000000e+000
      endloop
   endfacet
   facet normal 0.000000e+000 0.000000e+000 -1.000000e+000
      outer loop
         vertex 9.000000e+000 1.500000e+001 0.000000e+000
         vertex 7.437166e+000 1.786327e+001 0.000000e+000
         vertex 9.000000e+000 1.800000e+001 0.000000e+000
      endloop
   endfacet
   facet normal 0.000000e+000 0.000000e+000 -1.000000e+000
      outer loop
         vertex 9.000000e+000 1.500000e+001 0.000000e+000
         vertex 9.000000e+000 1.800000e+001 0.000000e+000
         vertex 1.004189e+001 1.490885e+001 0.000000e+000
      endloop
   endfacet
   facet normal 0.000000e+000 0.000000e+000 -1.000000e+000
      outer loop
         vertex 1.004189e+001 1.490885e+001 0.000000e+000
         vertex 9.000000e+000 1.800000e+001 0.000000e+000
         vertex 1.056283e+001 1.786327e+001 0.000000e+000
      endloop
   endfacet
   facet normal 0.000000e+000 0.000000e+000 -1.000000e+000
      outer loop
         vertex 1.004189e+001 1.490885e+001 0.000000e+000
         vertex 1.056283e+001 1.786327e+001 0.000000e+000
         vertex 1.105212e+001 1.463816e+001 0.000000e+000
      endloop
   endfacet
   facet normal 0.000000e+000 0.000000e+000 -1.000000e+000
      outer loop
         vertex 1.105212e+001 1.463816e+001 0.000000e+000
         vertex 1.056283e+001 1.786327e+001 0.000000e+000
         vertex 1.207818e+001 1.745723e+001 0.000000e+000
      endloop
   endfacet
   facet normal 0.000000e+000 0.000000e+000 -1.000000e+000
      outer loop
         vertex 1.105212e+001 1.463816e+001 0.000000e+000
         vertex 1.207818e+001 1.745723e+001 0.000000e+000
         vertex 1.200000e+001 1.419615e+001 0.000000e+000
      endloop
   endfacet
   facet normal 0.000000e+000 0.000000e+000 -1.000000e+000
      outer loop
         vertex 1.200000e+001 1.419615e+001 0.000000e+000
         vertex 1.207818e+001 1.745723e+001 0.000000e+000
         vertex 1.350000e+001 1.679423e+001 0.000000e+000
      endloop
   endfacet
   facet normal 0.000000e+000 0.000000e+000 -1.000000e+000
      outer loop
         vertex 1.200000e+001 1.419615e+001 0.000000e+000
         vertex 1.350000e+001 1.679423e+001 0.000000e+000
         vertex 1.285673e+001 1.359627e+001 0.000000e+000
      endloop
   endfacet
   facet normal 0.000000e+000 0.000000e+000 -1.000000e+000
      outer loop
         vertex 1.285673e+001 1.359627e+001 0.000000e+000
         vertex 1.350000e+001 1.679423e+001 0.000000e+000
         vertex 1.478509e+001 1.589440e+001 0.000000e+000
      endloop
   endfacet
   facet normal 0.000000e+000 0.000000e+000 -1.000000e+000
      outer loop
         vertex 1.285673e+001 1.359627e+001 0.000000e+000
         vertex 1.478509e+001 1.589440e+001 0.000000e+000
         vertex 1.359627e+001 1.285673e+001 0.000000e+000
      endloop
   endfacet
   facet normal 0.000000e+000 0.000000e+000 -1.000000e+000
      outer loop
         vertex 1.359627e+001 1.285673e+001 0.000000e+000
         vertex 1.478509e+001 1.589440e+001 0.000000e+000
         vertex 1.589440e+001 1.478509e+001 0.000000e+000
      endloop
   endfacet
   facet normal 0.000000e+000 0.000000e+000 -1.000000e+000
      outer loop
         vertex 1.359627e+001 1.285673e+001 0.000000e+000
         vertex 1.589440e+001 1.478509e+001 0.000000e+000
         vertex 1.419615e+001 1.200000e+001 0.000000e+000
      endloop
   endfacet
   facet normal 0.000000e+000 0.000000e+000 -1.000000e+000
      outer loop
         vertex 1.419615e+001 1.200000e+001 0.000000e+000
         vertex 1.589440e+001 1.478509e+001 0.000000e+000
         vertex 1.679423e+001 1.350000e+001 0.000000e+000
      endloop
   endfacet
   facet normal 0.000000e+000 0.000000e+000 -1.000000e+000
      outer loop
         vertex 1.419615e+001 1.200000e+001 0.000000e+000
         vertex 1.679423e+001 1.350000e+001 0.000000e+000
         vertex 1.463816e+001 1.105212e+001 0.000000e+000
      endloop
   endfacet
   facet normal 0.000000e+000 0.000000e+000 -1.000000e+000
      outer loop
         vertex 1.463816e+001 1.105212e+001 0.000000e+000
         vertex 1.679423e+001 1.350000e+001 0.000000e+000
         vertex 1.745723e+001 1.207818e+001 0.000000e+000
      endloop
   endfacet
   facet normal 0.000000e+000 0.000000e+000 -1.000000e+000
      outer loop
         vertex 1.463816e+001 1.105212e+001 0.000000e+000
         vertex 1.745723e+001 1.207818e+001 0.000000e+000
         vertex 1.490885e+001 1.004189e+001 0.000000e+000
      endloop
   endfacet
   facet normal 0.000000e+000 0.000000e+000 -1.000000e+000
      outer loop
         vertex 1.490885e+001 1.004189e+001 0.000000e+000
         vertex 1.745723e+001 1.207818e+001 0.000000e+000
         vertex 1.786327e+001 1.056283e+001 0.000000e+000
      endloop
   endfacet
   facet normal 0.000000e+000 0.000000e+000 -1.000000e+000
      outer loop
         vertex 1.490885e+001 1.004189e+001 0.000000e+000
         vertex 1.786327e+001 1.056283e+001 0.000000e+000
         vertex 1.500000e+001 9.000000e+000 0.000000e+000
      endloop
   endfacet
   facet normal 0.000000e+000 0.000000e+000 -1.000000e+000
      outer loop
         vertex 1.500000e+001 9.000000e+000 0.000000e+000
         vertex 1.786327e+001 1.056283e+001 0.000000e+000
         vertex 1.800000e+001 9.000000e+000 0.000000e+000
      endloop
   endfacet
   facet normal -9.932307e-001 1.161583e-001 0.000000e+000
      outer loop
         vertex 0.000000e+000 9.000000e+000 0.000000e+000
         vertex 1.367303e-001 1.056283e+001 8.000000e+001
         vertex 1.367303e-001 1.056283e+001 0.000000e+000
      endloop
   endfacet
   facet normal -9.730600e-001 2.305519e-001 0.000000e+000
      outer loop
         vertex 1.367303e-001 1.056283e+001 0.000000e+000
         vertex 1.367303e-001 1.056283e+001 8.000000e+001
         vertex 5.427664e-001 1.207818e+001 8.000000e+001
      endloop
   endfacet
   facet normal -9.579706e-001 2.868663e-001 0.000000e+000
      outer loop
         vertex 1.367303e-001 1.056283e+001 0.000000e+000
         vertex 5.427664e-001 1.207818e+001 8.000000e+001
         vertex 5.427664e-001 1.207818e+001 0.000000e+000
      endloop
   endfacet
   facet normal -9.182422e-001 3.960194e-001 0.000000e+000
      outer loop
         vertex 5.427664e-001 1.207818e+001 0.000000e+000
         vertex 5.427664e-001 1.207818e+001 8.000000e+001
         vertex 1.205771e+000 1.350000e+001 8.000000e+001
      endloop
   endfacet
   facet normal -8.936031e-001 4.488580e-001 0.000000e+000
      outer loop
         vertex 5.427664e-001 1.207818e+001 0.000000e+000
         vertex 1.205771e+000 1.350000e+001 8.000000e+001
         vertex 1.205771e+000 1.350000e+001 0.000000e+000
      endloop
   endfacet
   facet normal -8.355240e-001 5.494540e-001 0.000000e+000
      outer loop
         vertex 1.205771e+000 1.350000e+001 0.000000e+000
         vertex 1.205771e+000 1.350000e+001 8.000000e+001
         vertex 2.105600e+000 1.478509e+001 8.000000e+001
      endloop
   endfacet
   facet normal -8.020838e-001 5.972114e-001 0.000000e+000
      outer loop
         vertex 1.205771e+000 1.350000e+001 0.000000e+000
         vertex 2.105600e+000 1.478509e+001 8.000000e+001
         vertex 2.105600e+000 1.478509e+001 0.000000e+000
      endloop
   endfacet
   facet normal -7.274188e-001 6.861938e-001 0.000000e+000
      outer loop
         vertex 2.105600e+000 1.478509e+001 0.000000e+000
         vertex 2.105600e+000 1.478509e+001 8.000000e+001
         vertex 3.214911e+000 1.589440e+001 8.000000e+001
      endloop
   endfacet
   facet normal -6.861938e-001 7.274188e-001 0.000000e+000
      outer loop
         vertex 2.105600e+000 1.478509e+001 0.000000e+000
         vertex 3.214911e+000 1.589440e+001 8.000000e+001
         vertex 3.214911e+000 1.589440e+001 0.000000e+000
      endloop
   endfacet
   facet normal -5.972114e-001 8.020838e-001 0.000000e+000
      outer loop
         vertex 3.214911e+000 1.589440e+001 0.000000e+000
         vertex 3.214911e+000 1.589440e+001 8.000000e+001
         vertex 4.500000e+000 1.679423e+001 8.000000e+001
      endloop
   endfacet
   facet normal -5.494540e-001 8.355240e-001 0.000000e+000
      outer loop
         vertex 3.214911e+000 1.589440e+001 0.000000e+000
         vertex 4.500000e+000 1.679423e+001 8.000000e+001
         vertex 4.500000e+000 1.679423e+001 0.000000e+000
      endloop
   endfacet
   facet normal -4.488580e-001 8.936031e-001 0.000000e+000
      outer loop
         vertex 4.500000e+000 1.679423e+001 0.000000e+000
         vertex 4.500000e+000 1.679423e+001 8.000000e+001
         vertex 5.921818e+000 1.745723e+001 8.000000e+001
      endloop
   endfacet
   facet normal -3.960194e-001 9.182422e-001 0.000000e+000
      outer loop
         vertex 4.500000e+000 1.679423e+001 0.000000e+000
         vertex 5.921818e+000 1.745723e+001 8.000000e+001
         vertex 5.921818e+000 1.745723e+001 0.000000e+000
      endloop
   endfacet
   facet normal -2.868663e-001 9.579706e-001 0.000000e+000
      outer loop
         vertex 5.921818e+000 1.745723e+001 0.000000e+000
         vertex 5.921818e+000 1.745723e+001 8.000000e+001
         vertex 7.437166e+000 1.786327e+001 8.000000e+001
      endloop
   endfacet
   facet normal -2.305519e-001 9.730600e-001 0.000000e+000
      outer loop
         vertex 5.921818e+000 1.745723e+001 0.000000e+000
         vertex 7.437166e+000 1.786327e+001 8.000000e+001
         vertex 7.437166e+000 1.786327e+001 0.000000e+000
      endloop
   endfacet
   facet normal -1.161583e-001 9.932307e-001 0.000000e+000
      outer loop
         vertex 7.437166e+000 1.786327e+001 0.000000e+000
         vertex 7.437166e+000 1.786327e+001 8.000000e+001
         vertex 9.000000e+000 1.800000e+001 8.000000e+001
      endloop
   endfacet
   facet normal -5.807913e-002 9.983119e-001 0.000000e+000
      outer loop
         vertex 7.437166e+000 1.786327e+001 0.000000e+000
         vertex 9.000000e+000 1.800000e+001 8.000000e+001
         vertex 9.000000e+000 1.800000e+001 0.000000e+000
      endloop
   endfacet
   facet normal 5.807913e-002 9.983119e-001 0.000000e+000
      outer loop
         vertex 9.000000e+000 1.800000e+001 0.000000e+000
         vertex 9.000000e+000 1.800000e+001 8.000000e+001
         vertex 1.056283e+001 1.786327e+001 8.000000e+001
      endloop
   endfacet
   facet normal 1.161583e-001 9.932307e-001 0.000000e+000
      outer loop
         vertex 9.000000e+000 1.800000e+001 0.000000e+000
         vertex 1.056283e+001 1.786327e+001 8.000000e+001
         vertex 1.056283e+001 1.786327e+001 0.000000e+000
      endloop
   endfacet
   facet normal 2.305519e-001 9.730600e-001 0.000000e+000
      outer loop
         vertex 1.056283e+001 1.786327e+001 0.000000e+000
         vertex 1.056283e+001 1.786327e+001 8.000000e+001
         vertex 1.207818e+001 1.745723e+001 8.000000e+001
      endloop
   endfacet
   facet normal 2.868663e-001 9.579706e-001 0.000000e+000
      outer loop
         vertex 1.056283e+001 1.786327e+001 0.000000e+000
         vertex 1.207818e+001 1.745723e+001 8.000000e+001
         vertex 1.207818e+001 1.745723e+001 0.000000e+000
      endloop
   endfacet
   facet normal 3.960194e-001 9.182422e-001 0.000000e+000
      outer loop
         vertex 1.207818e+001 1.745723e+001 0.000000e+000
         vertex 1.207818e+001 1.745723e+001 8.000000e+001
         vertex 1.350000e+001 1.679423e+001 8.000000e+001
      endloop
   endfacet
   facet normal 4.488580e-001 8.936031e-001 0.000000e+000
      outer loop
         vertex 1.207818e+001 1.745723e+001 0.000000e+000
         vertex 1.350000e+001 1.679423e+001 8.000000e+001
         vertex 1.350000e+001 1.679423e+001 0.000000e+000
      endloop
   endfacet
   facet normal 5.494540e-001 8.355240e-001 0.000000e+000
      outer loop
         vertex 1.350000e+001 1.679423e+001 0.000000e+000
         vertex 1.350000e+001 1.679423e+001 8.000000e+001
         vertex 1.478509e+001 1.589440e+001 8.000000e+001
      endloop
   endfacet
   facet normal 5.972114e-001 8.020838e-001 0.000000e+000
      outer loop
         vertex 1.350000e+001 1.679423e+001 0.000000e+000
         vertex 1.478509e+001 1.589440e+001 8.000000e+001
         vertex 1.478509e+001 1.589440e+001 0.000000e+000
      endloop
   endfacet
   facet normal 6.861938e-001 7.274188e-001 0.000000e+000
      outer loop
         vertex 1.478509e+001 1.589440e+001 0.000000e+000
         vertex 1.478509e+001 1.589440e+001 8.000000e+001
         vertex 1.589440e+001 1.478509e+001 8.000000e+001
      endloop
   endfacet
   facet normal 7.274188e-001 6.861938e-001 0.000000e+000
      outer loop
         vertex 1.478509e+001 1.589440e+001 0.000000e+000
         vertex 1.589440e+001 1.478509e+001 8.000000e+001
         vertex 1.589440e+001 1.478509e+001 0.000000e+000
      endloop
   endfacet
   facet normal 8.020838e-001 5.972114e-001 0.000000e+000
      outer loop
         vertex 1.589440e+001 1.478509e+001 0.000000e+000
         vertex 1.589440e+001 1.478509e+001 8.000000e+001
         vertex 1.679423e+001 1.350000e+001 8.000000e+001
      endloop
   endfacet
   facet normal 8.355240e-001 5.494540e-001 0.000000e+000
      outer loop
         vertex 1.589440e+001 1.478509e+001 0.000000e+000
         vertex 1.679423e+001 1.350000e+001 8.000000e+001
         vertex 1.679423e+001 1.350000e+001 0.000000e+000
      endloop
   endfacet
   facet normal 8.936031e-001 4.488580e-001 0.000000e+000
      outer loop
         vertex 1.679423e+001 1.350000e+001 0.000000e+000
         vertex 1.679423e+001 1.350000e+001 8.000000e+001
         vertex 1.745723e+001 1.207818e+001 8.000000e+001
      endloop
   endfacet
   facet normal 9.182422e-001 3.960194e-001 0.000000e+000
      outer loop
         vertex 1.679423e+001 1.350000e+001 0.000000e+000
         vertex 1.745723e+001 1.207818e+001 8.000000e+001
         vertex 1.745723e+001 1.207818e+001 0.000000e+000
      endloop
   endfacet
   facet normal 9.579706e-001 2.868663e-001 0.000000e+000
      outer loop
         vertex 1.745723e+001 1.207818e+001 0.000000e+000
         vertex 1.745723e+001 1.207818e+001 8.000000e+001
         vertex 1.786327e+001 1.056283e+001 8.000000e+001
      endloop
   endfacet
   facet normal 9.730600e-001 2.305519e-001 0.000000e+000
      outer loop
         vertex 1.745723e+001 1.207818e+001 0.000000e+000
         vertex 1.786327e+001 1.056283e+001 8.000000e+001
         vertex 1.786327e+001 1.056283e+001 0.000000e+000
      endloop
   endfacet
   facet normal 9.932307e-001 1.161583e-001 0.000000e+000
      outer loop
         vertex 1.786327e+001 1.056283e+001 0.000000e+000
         vertex 1.786327e+001 1.056283e+001 8.000000e+001
         vertex 1.800000e+001 9.000000e+000 8.000000e+001
      endloop
   endfacet
   facet normal 9.983119e-001 5.807913e-002 0.000000e+000
      outer loop
         vertex 1.786327e+001 1.056283e+001 0.000000e+000
         vertex 1.800000e+001 9.000000e+000 8.000000e+001
         vertex 1.800000e+001 9.000000e+000 0.000000e+000
      endloop
   endfacet
   facet normal 9.983119e-001 -5.807913e-002 0.000000e+000
      outer loop
         vertex 1.800000e+001 9.000000e+000 0.000000e+000
         vertex 1.800000e+001 9.000000e+000 8.000000e+001
         vertex 1.786327e+001 7.437166e+000 8.000000e+001
      endloop
   endfacet
   facet normal 9.932307e-001 -1.161583e-001 0.000000e+000
      outer loop
         vertex 1.800000e+001 9.000000e+000 0.000000e+000
         vertex 1.786327e+001 7.437166e+000 8.000000e+001
         vertex 1.786327e+001 7.437166e+000 0.000000e+000
      endloop
   endfacet
   facet normal 9.730600e-001 -2.305519e-001 0.000000e+000
      outer loop
         vertex 1.786327e+001 7.437166e+000 0.000000e+000
         vertex 1.786327e+001 7.437166e+000 8.000000e+001
         vertex 1.745723e+001 5.921818e+000 8.000000e+001
      endloop
   endfacet
   facet normal 9.579706e-001 -2.868663e-001 0.000000e+000
      outer loop
         vertex 1.786327e+001 7.437166e+000 0.000000e+000
         vertex 1.745723e+001 5.921818e+000 8.000000e+001
         vertex 1.745723e+001 5.921818e+000 0.000000e+000
      endloop
   endfacet
   facet normal 9.182422e-001 -3.960194e-001 0.000000e+000
      outer loop
         vertex 1.745723e+001 5.921818e+000 0.000000e+000
         vertex 1.745723e+001 5.921818e+000 8.000000e+001
         vertex 1.679423e+001 4.500000e+000 8.000000e+001
      endloop
   endfacet
   facet normal 8.936031e-001 -4.488580e-001 0.000000e+000
      outer loop
         vertex 1.745723e+001 5.921818e+000 0.000000e+000
         vertex 1.679423e+001 4.500000e+000 8.000000e+001
         vertex 1.679423e+001 4.500000e+000 0.000000e+000
      endloop
   endfacet
   facet normal 8.355240e-001 -5.494540e-001 0.000000e+000
      outer loop
         vertex 1.679423e+001 4.500000e+000 0.000000e+000
         vertex 1.679423e+001 4.500000e+000 8.000000e+001
         vertex 1.589440e+001 3.214911e+000 8.000000e+001
      endloop
   endfacet
   facet normal 8.020838e-001 -5.972114e-001 0.000000e+000
      outer loop
         vertex 1.679423e+001 4.500000e+000 0.000000e+000
         vertex 1.589440e+001 3.214911e+000 8.000000e+001
         vertex 1.589440e+001 3.214911e+000 0.000000e+000
      endloop
   endfacet
   facet normal 7.274188e-001 -6.861938e-001 0.000000e+000
      outer loop
         vertex 1.589440e+001 3.214911e+000 0.000000e+000
         vertex 1.589440e+001 3.214911e+000 8.000000e+001
         vertex 1.478509e+001 2.105600e+000 8.000000e+001
      endloop
   endfacet
   facet normal 6.861938e-001 -7.274188e-001 0.000000e+000
      outer loop
         vertex 1.589440e+001 3.214911e+000 0.000000e+000
         vertex 1.478509e+001 2.105600e+000 8.000000e+001
         vertex 1.478509e+001 2.105600e+000 0.000000e+000
      endloop
   endfacet
   facet normal 5.972114e-001 -8.020838e-001 0.000000e+000
      outer loop
         vertex 1.478509e+001 2.105600e+000 0.000000e+000
         vertex 1.478509e+001 2.105600e+000 8.000000e+001
         vertex 1.350000e+001 1.205771e+000 8.000000e+001
      endloop
   endfacet
   facet normal 5.494540e-001 -8.355240e-001 0.000000e+000
      outer loop
         vertex 1.478509e+001 2.105600e+000 0.000000e+000
         vertex 1.350000e+001 1.205771e+000 8.000000e+001
         vertex 1.350000e+001 1.205771e+000 0.000000e+000
      endloop
   endfacet
   facet normal 4.488580e-001 -8.936031e-001 0.000000e+000
      outer loop
         vertex 1.350000e+001 1.205771e+000 0.000000e+000
         vertex 1.350000e+001 1.205771e+000 8.000000e+001
         vertex 1.207818e+001 5.427664e-001 8.000000e+001
      endloop
   endfacet
   facet normal 3.960194e-001 -9.182422e-001 0.000000e+000
      outer loop
         vertex 1.350000e+001 1.205771e+000 0.000000e+000
         vertex 1.207818e+001 5.427664e-001 8.000000e+001
         vertex 1.207818e+001 5.427664e-001 0.000000e+000
      endloop
   endfacet
   facet normal 2.868663e-001 -9.579706e-001 0.000000e+000
      outer loop
         vertex 1.207818e+001 5.427664e-001 0.000000e+000
         vertex 1.207818e+001 5.427664e-001 8.000000e+001
         vertex 1.056283e+001 1.367303e-001 8.000000e+001
      endloop
   endfacet
   facet normal 2.305519e-001 -9.730600e-001 0.000000e+000
      outer loop
         vertex 1.207818e+001 5.427664e-001 0.000000e+000
         vertex 1.056283e+001 1.367303e-001 8.000000e+001
         vertex 1.056283e+001 1.367303e-001 0.000000e+000
      endloop
   endfacet
   facet normal 1.161583e-001 -9.932307e-001 0.000000e+000
      outer loop
         vertex 1.056283e+001 1.367303e-001 0.000000e+000
         vertex 1.056283e+001 1.367303e-001 8.000000e+001
         vertex 9.000000e+000 0.000000e+000 8.000000e+001
      endloop
   endfacet
   facet normal 5.807913e-002 -9.983119e-001 0.000000e+000
      outer loop
         vertex 1.056283e+001 1.367303e-001 0.000000e+000
         vertex 9.000000e+000 0.000000e+000 8.000000e+001
         vertex 9.000000e+000 0.000000e+000 0.000000e+000
      endloop
   endfacet
   facet normal -5.807913e-002 -9.983119e-001 0.000000e+000
      outer loop
         vertex 9.000000e+000 0.000000e+000 0.000000e+000
         vertex 9.000000e+000 0.000000e+000 8.000000e+001
         vertex 7.437166e+000 1.367303e-001 8.000000e+001
      endloop
   endfacet
   facet normal -1.161583e-001 -9.932307e-001 0.000000e+000
      outer loop
         vertex 9.000000e+000 0.000000e+000 0.000000e+000
         vertex 7.437166e+000 1.367303e-001 8.000000e+001
         vertex 7.437166e+000 1.367303e-001 0.000000e+000
      endloop
   endfacet
   facet normal -2.305519e-001 -9.730600e-001 0.000000e+000
      outer loop
         vertex 7.437166e+000 1.367303e-001 0.000000e+000
         vertex 7.437166e+000 1.367303e-001 8.000000e+001
         vertex 5.921818e+000 5.427664e-001 8.000000e+001
      endloop
   endfacet
   facet normal -2.868663e-001 -9.579706e-001 0.000000e+000
      outer loop
         vertex 7.437166e+000 1.367303e-001 0.000000e+000
         vertex 5.921818e+000 5.427664e-001 8.000000e+001
         vertex 5.921818e+000 5.427664e-001 0.000000e+000
      endloop
   endfacet
   facet normal -3.960194e-001 -9.182422e-001 0.000000e+000
      outer loop
         vertex 5.921818e+000 5.427664e-001 0.000000e+000
         vertex 5.921818e+000 5.427664e-001 8.000000e+001
         vertex 4.500000e+000 1.205771e+000 8.000000e+001
      endloop
   endfacet
   facet normal -4.488580e-001 -8.936031e-001 0.000000e+000
      outer loop
         vertex 5.921818e+000 5.427664e-001 0.000000e+000
         vertex 4.500000e+000 1.205771e+000 8.000000e+001
         vertex 4.500000e+000 1.205771e+000 0.000000e+000
      endloop
   endfacet
   facet normal -5.494540e-001 -8.355240e-001 0.000000e+000
      outer loop
         vertex 4.500000e+000 1.205771e+000 0.000000e+000
         vertex 4.500000e+000 1.205771e+000 8.000000e+001
         vertex 3.214911e+000 2.105600e+000 8.000000e+001
      endloop
   endfacet
   facet normal -5.972114e-001 -8.020838e-001 0.000000e+000
      outer loop
         vertex 4.500000e+000 1.205771e+000 0.000000e+000
         vertex 3.214911e+000 2.105600e+000 8.000000e+001
         vertex 3.214911e+000 2.105600e+000 0.000000e+000
      endloop
   endfacet
   facet normal -6.861938e-001 -7.274188e-001 0.000000e+000
      outer loop
         vertex 3.214911e+000 2.105600e+000 0.000000e+000
         vertex 3.214911e+000 2.105600e+000 8.000000e+001
         vertex 2.105600e+000 3.214911e+000 8.000000e+001
      endloop
   endfacet
   facet normal -7.274188e-001 -6.861938e-001 0.000000e+000
      outer loop
         vertex 3.214911e+000 2.105600e+000 0.000000e+000
         vertex 2.105600e+000 3.214911e+000 8.000000e+001
         vertex 2.105600e+000 3.214911e+000 0.000000e+000
      endloop
   endfacet
   facet normal -8.020838e-001 -5.972114e-001 0.000000e+000
      outer loop
         vertex 2.105600e+000 3.214911e+000 0.000000e+000
         vertex 2.105600e+000 3.214911e+000 8.000000e+001
         vertex 1.205771e+000 4.500000e+000 8.000000e+001
      endloop
   endfacet
   facet normal -8.355240e-001 -5.494540e-001 0.000000e+000
      outer loop
         vertex 2.105600e+000 3.214911e+000 0.000000e+000
         vertex 1.205771e+000 4.500000e+000 8.000000e+001
         vertex 1.205771e+000 4.500000e+000 0.000000e+000
      endloop
   endfacet
   facet normal -8.936031e-001 -4.488580e-001 0.000000e+000
      outer loop
         vertex 1.205771e+000 4.500000e+000 0.000000e+000
         vertex 1.205771e+000 4.500000e+000 8.000000e+001
         vertex 5.427664e-001 5.921818e+000 8.000000e+001
      endloop
   endfacet
   facet normal -9.182422e-001 -3.960194e-001 0.000000e+000
      outer loop
         vertex 1.205771e+000 4.500000e+000 0.000000e+000
         vertex 5.427664e-001 5.921818e+000 8.000000e+001
         vertex 5.427664e-001 5.921818e+000 0.000000e+000
      endloop
   endfacet
   facet normal -9.579706e-001 -2.868663e-001 0.000000e+000
      outer loop
         vertex 5.427664e-001 5.921818e+000 0.000000e+000
         vertex 5.427664e-001 5.921818e+000 8.000000e+001
         vertex 1.367303e-001 7.437166e+000 8.000000e+001
      endloop
   endfacet
   facet normal -9.730600e-001 -2.305519e-001 0.000000e+000
      outer loop
         vertex 5.427664e-001 5.921818e+000 0.000000e+000
         vertex 1.367303e-001 7.437166e+000 8.000000e+001
         vertex 1.367303e-001 7.437166e+000 0.000000e+000
      endloop
   endfacet
   facet normal -9.932307e-001 -1.161583e-001 0.000000e+000
      outer loop
         vertex 1.367303e-001 7.437166e+000 0.000000e+000
         vertex 1.367303e-001 7.437166e+000 8.000000e+001
         vertex 0.000000e+000 9.000000e+000 8.000000e+001
      endloop
   endfacet
   facet normal -9.983119e-001 -5.807913e-002 0.000000e+000
      outer loop
         vertex 1.367303e-001 7.437166e+000 0.000000e+000
         vertex 0.000000e+000 9.000000e+000 8.000000e+001
         vertex 0.000000e+000 9.000000e+000 0.000000e+000
      endloop
   endfacet
   facet normal -9.983119e-001 5.807913e-002 0.000000e+000
      outer loop
         vertex 0.000000e+000 9.000000e+000 0.000000e+000
         vertex 0.000000e+000 9.000000e+000 8.000000e+001
         vertex 1.367303e-001 1.056283e+001 8.000000e+001
      endloop
   endfacet
   facet normal 9.983119e-001 -5.807913e-002 0.000000e+000
      outer loop
         vertex 3.000000e+000 9.000000e+000 8.000000e+001
         vertex 3.000000e+000 9.000000e+000 0.000000e+000
         vertex 3.091153e+000 1.004189e+001 8.000000e+001
      endloop
   endfacet
   facet normal 9.932307e-001 -1.161583e-001 0.000000e+000
      outer loop
         vertex 3.091153e+000 1.004189e+001 8.000000e+001
         vertex 3.000000e+000 9.000000e+000 0.000000e+000
         vertex 3.091153e+000 1.004189e+001 0.000000e+000
      endloop
   endfacet
   facet normal 9.730600e-001 -2.305519e-001 0.000000e+000
      outer loop
         vertex 3.091153e+000 1.004189e+001 8.000000e+001
         vertex 3.091153e+000 1.004189e+001 0.000000e+000
         vertex 3.361844e+000 1.105212e+001 8.000000e+001
      endloop
   endfacet
   facet normal 9.579706e-001 -2.868663e-001 0.000000e+000
      outer loop
         vertex 3.361844e+000 1.105212e+001 8.000000e+001
         vertex 3.091153e+000 1.004189e+001 0.000000e+000
         vertex 3.361844e+000 1.105212e+001 0.000000e+000
      endloop
   endfacet
   facet normal 9.182422e-001 -3.960194e-001 0.000000e+000
      outer loop
         vertex 3.361844e+000 1.105212e+001 8.000000e+001
         vertex 3.361844e+000 1.105212e+001 0.000000e+000
         vertex 3.803847e+000 1.200000e+001 8.000000e+001
      endloop
   endfacet
   facet normal 8.936031e-001 -4.488580e-001 0.000000e+000
      outer loop
         vertex 3.803847e+000 1.200000e+001 8.000000e+001
         vertex 3.361844e+000 1.105212e+001 0.000000e+000
         vertex 3.803847e+000 1.200000e+001 0.000000e+000
      endloop
   endfacet
   facet normal 8.355240e-001 -5.494540e-001 0.000000e+000
      outer loop
         vertex 3.803847e+000 1.200000e+001 8.000000e+001
         vertex 3.803847e+000 1.200000e+001 0.000000e+000
         vertex 4.403733e+000 1.285673e+001 8.000000e+001
      endloop
   endfacet
   facet normal 8.020838e-001 -5.972114e-001 0.000000e+000
      outer loop
         vertex 4.403733e+000 1.285673e+001 8.000000e+001
         vertex 3.803847e+000 1.200000e+001 0.000000e+000
         vertex 4.403733e+000 1.285673e+001 0.000000e+000
      endloop
   endfacet
   facet normal 7.274188e-001 -6.861938e-001 0.000000e+000
      outer loop
         vertex 4.403733e+000 1.285673e+001 8.000000e+001
         vertex 4.403733e+000 1.285673e+001 0.000000e+000
         vertex 5.143274e+000 1.359627e+001 8.000000e+001
      endloop
   endfacet
   facet normal 6.861938e-001 -7.274188e-001 0.000000e+000
      outer loop
         vertex 5.143274e+000 1.359627e+001 8.000000e+001
         vertex 4.403733e+000 1.285673e+001 0.000000e+000
         vertex 5.143274e+000 1.359627e+001 0.000000e+000
      endloop
   endfacet
   facet normal 5.972114e-001 -8.020838e-001 0.000000e+000
      outer loop
         vertex 5.143274e+000 1.359627e+001 8.000000e+001
         vertex 5.143274e+000 1.359627e+001 0.000000e+000
         vertex 6.000000e+000 1.419615e+001 8.000000e+001
      endloop
   endfacet
   facet normal 5.494540e-001 -8.355240e-001 0.000000e+000
      outer loop
         vertex 6.000000e+000 1.419615e+001 8.000000e+001
         vertex 5.143274e+000 1.359627e+001 0.000000e+000
         vertex 6.000000e+000 1.419615e+001 0.000000e+000
      endloop
   endfacet
   facet normal 4.488580e-001 -8.936031e-001 0.000000e+000
      outer loop
         vertex 6.000000e+000 1.419615e+001 8.000000e+001
         vertex 6.000000e+000 1.419615e+001 0.000000e+000
         vertex 6.947879e+000 1.463816e+001 8.000000e+001
      endloop
   endfacet
   facet normal 3.960194e-001 -9.182422e-001 0.000000e+000
      outer loop
         vertex 6.947879e+000 1.463816e+001 8.000000e+001
         vertex 6.000000e+000 1.419615e+001 0.000000e+000
         vertex 6.947879e+000 1.463816e+001 0.000000e+000
      endloop
   endfacet
   facet normal 2.868663e-001 -9.579706e-001 0.000000e+000
      outer loop
         vertex 6.947879e+000 1.463816e+001 8.000000e+001
         vertex 6.947879e+000 1.463816e+001 0.000000e+000
         vertex 7.958110e+000 1.490885e+001 8.000000e+001
      endloop
   endfacet
   facet normal 2.305519e-001 -9.730600e-001 0.000000e+000
      outer loop
         vertex 7.958110e+000 1.490885e+001 8.000000e+001
         vertex 6.947879e+000 1.463816e+001 0.000000e+000
         vertex 7.958110e+000 1.490885e+001 0.000000e+000
      endloop
   endfacet
   facet normal 1.161583e-001 -9.932307e-001 0.000000e+000
      outer loop
         vertex 7.958110e+000 1.490885e+001 8.000000e+001
         vertex 7.958110e+000 1.490885e+001 0.000000e+000
         vertex 9.000000e+000 1.500000e+001 8.000000e+001
      endloop
   endfacet
   facet normal 5.807913e-002 -9.983119e-001 0.000000e+000
      outer loop
         vertex 9.000000e+000 1.500000e+001 8.000000e+001
         vertex 7.958110e+000 1.490885e+001 0.000000e+000
         vertex 9.000000e+000 1.500000e+001 0.000000e+000
      endloop
   endfacet
   facet normal -5.807913e-002 -9.983119e-001 0.000000e+000
      outer loop
         vertex 9.000000e+000 1.500000e+001 8.000000e+001
         vertex 9.000000e+000 1.500000e+001 0.000000e+000
         vertex 1.004189e+001 1.490885e+001 8.000000e+001
      endloop
   endfacet
   facet normal -1.161583e-001 -9.932307e-001 0.000000e+000
      outer loop
         vertex 1.004189e+001 1.490885e+001 8.000000e+001
         vertex 9.000000e+000 1.500000e+001 0.000000e+000
         vertex 1.004189e+001 1.490885e+001 0.000000e+000
      endloop
   endfacet
   facet normal -2.305519e-001 -9.730600e-001 0.000000e+000
      outer loop
         vertex 1.004189e+001 1.490885e+001 8.000000e+001
         vertex 1.004189e+001 1.490885e+001 0.000000e+000
         vertex 1.105212e+001 1.463816e+001 8.000000e+001
      endloop
   endfacet
   facet normal -2.868663e-001 -9.579706e-001 0.000000e+000
      outer loop
         vertex 1.105212e+001 1.463816e+001 8.000000e+001
         vertex 1.004189e+001 1.490885e+001 0.000000e+000
         vertex 1.105212e+001 1.463816e+001 0.000000e+000
      endloop
   endfacet
   facet normal -3.960194e-001 -9.182422e-001 0.000000e+000
      outer loop
         vertex 1.105212e+001 1.463816e+001 8.000000e+001
         vertex 1.105212e+001 1.463816e+001 0.000000e+000
         vertex 1.200000e+001 1.419615e+001 8.000000e+001
      endloop
   endfacet
   facet normal -4.488580e-001 -8.936031e-001 0.000000e+000
      outer loop
         vertex 1.200000e+001 1.419615e+001 8.000000e+001
         vertex 1.105212e+001 1.463816e+001 0.000000e+000
         vertex 1.200000e+001 1.419615e+001 0.000000e+000
      endloop
   endfacet
   facet normal -5.494540e-001 -8.355240e-001 0.000000e+000
      outer loop
         vertex 1.200000e+001 1.419615e+001 8.000000e+001
         vertex 1.200000e+001 1.419615e+001 0.000000e+000
         vertex 1.285673e+001 1.359627e+001 8.000000e+001
      endloop
   endfacet
   facet normal -5.972114e-001 -8.020838e-001 0.000000e+000
      outer loop
         vertex 1.285673e+001 1.359627e+001 8.000000e+001
         vertex 1.200000e+001 1.419615e+001 0.000000e+000
         vertex 1.285673e+001 1.359627e+001 0.000000e+000
      endloop
   endfacet
   facet normal -6.861938e-001 -7.274188e-001 0.000000e+000
      outer loop
         vertex 1.285673e+001 1.359627e+001 8.000000e+001
         vertex 1.285673e+001 1.359627e+001 0.000000e+000
         vertex 1.359627e+001 1.285673e+001 8.000000e+001
      endloop
   endfacet
   facet normal -7.274188e-001 -6.861938e-001 0.000000e+000
      outer loop
         vertex 1.359627e+001 1.285673e+001 8.000000e+001
         vertex 1.285673e+001 1.359627e+001 0.000000e+000
         vertex 1.359627e+001 1.285673e+001 0.000000e+000
      endloop
   endfacet
   facet normal -8.020838e-001 -5.972114e-001 0.000000e+000
      outer loop
         vertex 1.359627e+001 1.285673e+001 8.000000e+001
         vertex 1.359627e+001 1.285673e+001 0.000000e+000
         vertex 1.419615e+001 1.200000e+001 8.000000e+001
      endloop
   endfacet
   facet normal -8.355240e-001 -5.494540e-001 0.000000e+000
      outer loop
         vertex 1.419615e+001 1.200000e+001 8.000000e+001
         vertex 1.359627e+001 1.285673e+001 0.000000e+000
         vertex 1.419615e+001 1.200000e+001 0.000000e+000
      endloop
   endfacet
   facet normal -8.936031e-001 -4.488580e-001 0.000000e+000
      outer loop
         vertex 1.419615e+001 1.200000e+001 8.000000e+001
         vertex 1.419615e+001 1.200000e+001 0.000000e+000
         vertex 1.463816e+001 1.105212e+001 8.000000e+001
      endloop
   endfacet
   facet normal -9.182422e-001 -3.960194e-001 0.000000e+000
      outer loop
         vertex 1.463816e+001 1.105212e+001 8.000000e+001
         vertex 1.419615e+001 1.200000e+001 0.000000e+000
         vertex 1.463816e+001 1.105212e+001 0.000000e+000
      endloop
   endfacet
   facet normal -9.579706e-001 -2.868663e-001 0.000000e+000
      outer loop
         vertex 1.463816e+001 1.105212e+001 8.000000e+001
         vertex 1.463816e+001 1.105212e+001 0.000000e+000
         vertex 1.490885e+001 1.004189e+001 8.000000e+001
      endloop
   endfacet
   facet normal -9.730600e-001 -2.305519e-001 0.000000e+000
      outer loop
         vertex 1.490885e+001 1.004189e+001 8.000000e+001
         vertex 1.463816e+001 1.105212e+001 0.000000e+000
         vertex 1.490885e+001 1.004189e+001 0.000000e+000
      endloop
   endfacet
   facet normal -9.932307e-001 -1.161583e-001 0.000000e+000
      outer loop
         vertex 1.490885e+001 1.004189e+001 8.000000e+001
         vertex 1.490885e+001 1.004189e+001 0.000000e+000
         vertex 1.500000e+001 9.000000e+000 8.000000e+001
      endloop
   endfacet
   facet normal -9.983119e-001 -5.807913e-002 0.000000e+000
      outer loop
         vertex 1.500000e+001 9.000000e+000 8.000000e+001
         vertex 1.490885e+001 1.004189e+001 0.000000e+000
         vertex 1.500000e+001 9.000000e+000 0.000000e+000
      endloop
   endfacet
   facet normal -9.983119e-001 5.807913e-002 0.000000e+000
      outer loop
         vertex 1.500000e+001 9.000000e+000 8.000000e+001
         vertex 1.500000e+001 9.000000e+000 0.000000e+000
         vertex 1.490885e+001 7.958110e+000 8.000000e+001
      endloop
   endfacet
   facet normal -9.932307e-001 1.161583e-001 0.000000e+000
      outer loop
         vertex 1.490885e+001 7.958110e+000 8.000000e+001
         vertex 1.500000e+001 9.000000e+000 0.000000e+000
         vertex 1.490885e+001 7.958110e+000 0.000000e+000
      endloop
   endfacet
   facet normal -9.730600e-001 2.305519e-001 0.000000e+000
      outer loop
         vertex 1.490885e+001 7.958110e+000 8.000000e+001
         vertex 1.490885e+001 7.958110e+000 0.000000e+000
         vertex 1.463816e+001 6.947879e+000 8.000000e+001
      endloop
   endfacet
   facet normal -9.579706e-001 2.868663e-001 0.000000e+000
      outer loop
         vertex 1.463816e+001 6.947879e+000 8.000000e+001
         vertex 1.490885e+001 7.958110e+000 0.000000e+000
         vertex 1.463816e+001 6.947879e+000 0.000000e+000
      endloop
   endfacet
   facet normal -9.182422e-001 3.960194e-001 0.000000e+000
      outer loop
         vertex 1.463816e+001 6.947879e+000 8.000000e+001
         vertex 1.463816e+001 6.947879e+000 0.000000e+000
         vertex 1.419615e+001 6.000000e+000 8.000000e+001
      endloop
   endfacet
   facet normal -8.936031e-001 4.488580e-001 0.000000e+000
      outer loop
         vertex 1.419615e+001 6.000000e+000 8.000000e+001
         vertex 1.463816e+001 6.947879e+000 0.000000e+000
         vertex 1.419615e+001 6.000000e+000 0.000000e+000
      endloop
   endfacet
   facet normal -8.355240e-001 5.494540e-001 0.000000e+000
      outer loop
         vertex 1.419615e+001 6.000000e+000 8.000000e+001
         vertex 1.419615e+001 6.000000e+000 0.000000e+000
         vertex 1.359627e+001 5.143274e+000 8.000000e+001
      endloop
   endfacet
   facet normal -8.020838e-001 5.972114e-001 0.000000e+000
      outer loop
         vertex 1.359627e+001 5.143274e+000 8.000000e+001
         vertex 1.419615e+001 6.000000e+000 0.000000e+000
         vertex 1.359627e+001 5.143274e+000 0.000000e+000
      endloop
   endfacet
   facet normal -7.274188e-001 6.861938e-001 0.000000e+000
      outer loop
         vertex 1.359627e+001 5.143274e+000 8.000000e+001
         vertex 1.359627e+001 5.143274e+000 0.000000e+000
         vertex 1.285673e+001 4.403733e+000 8.000000e+001
      endloop
   endfacet
   facet normal -6.861938e-001 7.274188e-001 0.000000e+000
      outer loop
         vertex 1.285673e+001 4.403733e+000 8.000000e+001
         vertex 1.359627e+001 5.143274e+000 0.000000e+000
         vertex 1.285673e+001 4.403733e+000 0.000000e+000
      endloop
   endfacet
   facet normal -5.972114e-001 8.020838e-001 0.000000e+000
      outer loop
         vertex 1.285673e+001 4.403733e+000 8.000000e+001
         vertex 1.285673e+001 4.403733e+000 0.000000e+000
         vertex 1.200000e+001 3.803847e+000 8.000000e+001
      endloop
   endfacet
   facet normal -5.494540e-001 8.355240e-001 0.000000e+000
      outer loop
         vertex 1.200000e+001 3.803847e+000 8.000000e+001
         vertex 1.285673e+001 4.403733e+000 0.000000e+000
         vertex 1.200000e+001 3.803847e+000 0.000000e+000
      endloop
   endfacet
   facet normal -4.488580e-001 8.936031e-001 0.000000e+000
      outer loop
         vertex 1.200000e+001 3.803847e+000 8.000000e+001
         vertex 1.200000e+001 3.803847e+000 0.000000e+000
         vertex 1.105212e+001 3.361844e+000 8.000000e+001
      endloop
   endfacet
   facet normal -3.960194e-001 9.182422e-001 0.000000e+000
      outer loop
         vertex 1.105212e+001 3.361844e+000 8.000000e+001
         vertex 1.200000e+001 3.803847e+000 0.000000e+000
         vertex 1.105212e+001 3.361844e+000 0.000000e+000
      endloop
   endfacet
   facet normal -2.868663e-001 9.579706e-001 0.000000e+000
      outer loop
         vertex 1.105212e+001 3.361844e+000 8.000000e+001
         vertex 1.105212e+001 3.361844e+000 0.000000e+000
         vertex 1.004189e+001 3.091153e+000 8.000000e+001
      endloop
   endfacet
   facet normal -2.305519e-001 9.730600e-001 0.000000e+000
      outer loop
         vertex 1.004189e+001 3.091153e+000 8.000000e+001
         vertex 1.105212e+001 3.361844e+000 0.000000e+000
         vertex 1.004189e+001 3.091153e+000 0.000000e+000
      endloop
   endfacet
   facet normal -1.161583e-001 9.932307e-001 0.000000e+000
      outer loop
         vertex 1.004189e+001 3.091153e+000 8.000000e+001
         vertex 1.004189e+001 3.091153e+000 0.000000e+000
         vertex 9.000000e+000 3.000000e+000 8.000000e+001
      endloop
   endfacet
   facet normal -5.807913e-002 9.983119e-001 0.000000e+000
      outer loop
         vertex 9.000000e+000 3.000000e+000 8.000000e+001
         vertex 1.004189e+001 3.091153e+000 0.000000e+000
         vertex 9.000000e+000 3.000000e+000 0.000000e+000
      endloop
   endfacet
   facet normal 5.807913e-002 9.983119e-001 0.000000e+000
      outer loop
         vertex 9.000000e+000 3.000000e+000 8.000000e+001
         vertex 9.000000e+000 3.000000e+000 0.000000e+000
         vertex 7.958110e+000 3.091153e+000 8.000000e+001
      endloop
   endfacet
   facet normal 1.161583e-001 9.932307e-001 0.000000e+000
      outer loop
         vertex 7.958110e+000 3.091153e+000 8.000000e+001
         vertex 9.000000e+000 3.000000e+000 0.000000e+000
         vertex 7.958110e+000 3.091153e+000 0.000000e+000
      endloop
   endfacet
   facet normal 2.305519e-001 9.730600e-001 0.000000e+000
      outer loop
         vertex 7.958110e+000 3.091153e+000 8.000000e+001
         vertex 7.958110e+000 3.091153e+000 0.000000e+000
         vertex 6.947879e+000 3.361844e+000 8.000000e+001
      endloop
   endfacet
   facet normal 2.868663e-001 9.579706e-001 0.000000e+000
      outer loop
         vertex 6.947879e+000 3.361844e+000 8.000000e+001
         vertex 7.958110e+000 3.091153e+000 0.000000e+000
         vertex 6.947879e+000 3.361844e+000 0.000000e+000
      endloop
   endfacet
   facet normal 3.960194e-001 9.182422e-001 0.000000e+000
      outer loop
         vertex 6.947879e+000 3.361844e+000 8.000000e+001
         vertex 6.947879e+000 3.361844e+000 0.000000e+000
         vertex 6.000000e+000 3.803847e+000 8.000000e+001
      endloop
   endfacet
   facet normal 4.488580e-001 8.936031e-001 0.000000e+000
      outer loop
         vertex 6.000000e+000 3.803847e+000 8.000000e+001
         vertex 6.947879e+000 3.361844e+000 0.000000e+000
         vertex 6.000000e+000 3.803847e+000 0.000000e+000
      endloop
   endfacet
   facet normal 5.494540e-001 8.355240e-001 0.000000e+000
      outer loop
         vertex 6.000000e+000 3.803847e+000 8.000000e+001
         vertex 6.000000e+000 3.803847e+000 0.000000e+000
         vertex 5.143274e+000 4.403733e+000 8.000000e+001
      endloop
   endfacet
   facet normal 5.972114e-001 8.020838e-001 0.000000e+000
      outer loop
         vertex 5.143274e+000 4.403733e+000 8.000000e+001
         vertex 6.000000e+000 3.803847e+000 0.000000e+000
         vertex 5.143274e+000 4.403733e+000 0.000000e+000
      endloop
   endfacet
   facet normal 6.861938e-001 7.274188e-001 0.000000e+000
      outer loop
         vertex 5.143274e+000 4.403733e+000 8.000000e+001
         vertex 5.143274e+000 4.403733e+000 0.000000e+000
         vertex 4.403733e+000 5.143274e+000 8.000000e+001
      endloop
   endfacet
   facet normal 7.274188e-001 6.861938e-001 0.000000e+000
      outer loop
         vertex 4.403733e+000 5.143274e+000 8.000000e+001
         vertex 5.143274e+000 4.403733e+000 0.000000e+000
         vertex 4.403733e+000 5.143274e+000 0.000000e+000
      endloop
   endfacet
   facet normal 8.020838e-001 5.972114e-001 0.000000e+000
      outer loop
         vertex 4.403733e+000 5.143274e+000 8.000000e+001
         vertex 4.403733e+000 5.143274e+000 0.000000e+000
         vertex 3.803847e+000 6.000000e+000 8.000000e+001
      endloop
   endfacet
   facet normal 8.355240e-001 5.494540e-001 0.000000e+000
      outer loop
         vertex 3.803847e+000 6.000000e+000 8.000000e+001
         vertex 4.403733e+000 5.143274e+000 0.000000e+000
         vertex 3.803847e+000 6.000000e+000 0.000000e+000
      endloop
   endfacet
   facet normal 8.936031e-001 4.488580e-001 0.000000e+000
      outer loop
         vertex 3.803847e+000 6.000000e+000 8.000000e+001
         vertex 3.803847e+000 6.000000e+000 0.000000e+000
         vertex 3.361844e+000 6.947879e+000 8.000000e+001
      endloop
   endfacet
   facet normal 9.182422e-001 3.960194e-001 0.000000e+000
      outer loop
         vertex 3.361844e+000 6.947879e+000 8.000000e+001
         vertex 3.803847e+000 6.000000e+000 0.000000e+000
         vertex 3.361844e+000 6.947879e+000 0.000000e+000
      endloop
   endfacet
   facet normal 9.579706e-001 2.868663e-001 0.000000e+000
      outer loop
         vertex 3.361844e+000 6.947879e+000 8.000000e+001
         vertex 3.361844e+000 6.947879e+000 0.000000e+000
         vertex 3.091153e+000 7.958110e+000 8.000000e+001
      endloop
   endfacet
   facet normal 9.730600e-001 2.305519e-001 0.000000e+000
      outer loop
         vertex 3.091153e+000 7.958110e+000 8.000000e+001
         vertex 3.361844e+000 6.947879e+000 0.000000e+000
         vertex 3.091153e+000 7.958110e+000 0.000000e+000
      endloop
   endfacet
   facet normal 9.932307e-001 1.161583e-001 0.000000e+000
      outer loop
         vertex 3.091153e+000 7.958110e+000 8.000000e+001
         vertex 3.091153e+000 7.958110e+000 0.000000e+000
         vertex 3.000000e+000 9.000000e+000 8.000000e+001
      endloop
   endfacet
   facet normal 9.983119e-001 5.807913e-002 0.000000e+000
      outer loop
         vertex 3.000000e+000 9.000000e+000 8.000000e+001
         vertex 3.091153e+000 7.958110e+000 0.000000e+000
         vertex 3.000000e+000 9.000000e+000 0.000000e+000
      endloop
   endfacet
endsolid