solid ElectronicalToMechanicalTopFixation
   facet normal 0.000000e+000 -1.000000e+000 0.000000e+000
      outer loop
         vertex 2.000000e+001 2.050000e+001 1.000000e+001
         vertex 0.000000e+000 2.050000e+001 1.000000e+001
         vertex 2.000000e+001 2.050000e+001 7.000000e+000
      endloop
   endfacet
   facet normal 0.000000e+000 -1.000000e+000 0.000000e+000
      outer loop
         vertex 2.000000e+001 2.050000e+001 7.000000e+000
         vertex 0.000000e+000 2.050000e+001 1.000000e+001
         vertex 0.000000e+000 2.050000e+001 7.000000e+000
      endloop
   endfacet
   facet normal 0.000000e+000 -1.000000e+000 0.000000e+000
      outer loop
         vertex 0.000000e+000 2.050000e+001 1.999999e+000
         vertex 2.000000e+001 2.050000e+001 1.999999e+000
         vertex 0.000000e+000 2.050000e+001 5.000000e+000
      endloop
   endfacet
   facet normal 0.000000e+000 -1.000000e+000 0.000000e+000
      outer loop
         vertex 0.000000e+000 2.050000e+001 5.000000e+000
         vertex 2.000000e+001 2.050000e+001 1.999999e+000
         vertex 2.000000e+001 2.050000e+001 5.000000e+000
      endloop
   endfacet
   facet normal 0.000000e+000 -1.000000e+000 0.000000e+000
      outer loop
         vertex 9.323612e+000 3.549999e+000 1.000000e+001
         vertex 0.000000e+000 3.549999e+000 1.000000e+001
         vertex 9.323612e+000 3.549999e+000 9.000000e+000
      endloop
   endfacet
   facet normal 0.000000e+000 -1.000000e+000 0.000000e+000
      outer loop
         vertex 9.323612e+000 3.549999e+000 9.000000e+000
         vertex 0.000000e+000 3.549999e+000 1.000000e+001
         vertex 0.000000e+000 3.549999e+000 9.000000e+000
      endloop
   endfacet
   facet normal 3.469447e-016 1.000000e+000 0.000000e+000
      outer loop
         vertex 1.067639e+001 6.450000e+000 1.000000e+001
         vertex 2.000000e+001 6.450000e+000 1.000000e+001
         vertex 1.067639e+001 6.450000e+000 9.000000e+000
      endloop
   endfacet
   facet normal 3.469447e-016 1.000000e+000 0.000000e+000
      outer loop
         vertex 1.067639e+001 6.450000e+000 9.000000e+000
         vertex 2.000000e+001 6.450000e+000 1.000000e+001
         vertex 2.000000e+001 6.450000e+000 9.000000e+000
      endloop
   endfacet
   facet normal 0.000000e+000 0.000000e+000 -1.000000e+000
      outer loop
         vertex 8.971539e+000 6.225671e+000 9.000000e+000
         vertex 0.000000e+000 6.450000e+000 9.000000e+000
         vertex 9.200000e+000 6.385641e+000 9.000000e+000
      endloop
   endfacet
   facet normal 0.000000e+000 0.000000e+000 -1.000000e+000
      outer loop
         vertex 9.200000e+000 6.385641e+000 9.000000e+000
         vertex 0.000000e+000 6.450000e+000 9.000000e+000
         vertex 9.323612e+000 6.450000e+000 9.000000e+000
      endloop
   endfacet
   facet normal 0.000000e+000 0.000000e+000 -1.000000e+000
      outer loop
         vertex 9.323612e+000 3.549999e+000 9.000000e+000
         vertex 0.000000e+000 3.549999e+000 9.000000e+000
         vertex 9.200000e+000 3.614360e+000 9.000000e+000
      endloop
   endfacet
   facet normal 0.000000e+000 0.000000e+000 -1.000000e+000
      outer loop
         vertex 9.200000e+000 3.614360e+000 9.000000e+000
         vertex 0.000000e+000 3.549999e+000 9.000000e+000
         vertex 8.971539e+000 3.774329e+000 9.000000e+000
      endloop
   endfacet
   facet normal 0.000000e+000 0.000000e+000 -1.000000e+000
      outer loop
         vertex 8.496491e+000 4.452768e+000 9.000000e+000
         vertex 8.614360e+000 4.200000e+000 9.000000e+000
         vertex 0.000000e+000 3.549999e+000 9.000000e+000
      endloop
   endfacet
   facet normal 0.000000e+000 0.000000e+000 -1.000000e+000
      outer loop
         vertex 0.000000e+000 3.549999e+000 9.000000e+000
         vertex 8.614360e+000 4.200000e+000 9.000000e+000
         vertex 8.774329e+000 3.971539e+000 9.000000e+000
      endloop
   endfacet
   facet normal 0.000000e+000 0.000000e+000 -1.000000e+000
      outer loop
         vertex 0.000000e+000 3.549999e+000 9.000000e+000
         vertex 8.774329e+000 3.971539e+000 9.000000e+000
         vertex 8.971539e+000 3.774329e+000 9.000000e+000
      endloop
   endfacet
   facet normal 0.000000e+000 0.000000e+000 -1.000000e+000
      outer loop
         vertex 8.971539e+000 6.225671e+000 9.000000e+000
         vertex 8.774329e+000 6.028460e+000 9.000000e+000
         vertex 0.000000e+000 6.450000e+000 9.000000e+000
      endloop
   endfacet
   facet normal 0.000000e+000 0.000000e+000 -1.000000e+000
      outer loop
         vertex 0.000000e+000 6.450000e+000 9.000000e+000
         vertex 8.774329e+000 6.028460e+000 9.000000e+000
         vertex 8.614360e+000 5.799999e+000 9.000000e+000
      endloop
   endfacet
   facet normal 0.000000e+000 0.000000e+000 -1.000000e+000
      outer loop
         vertex 0.000000e+000 6.450000e+000 9.000000e+000
         vertex 8.614360e+000 5.799999e+000 9.000000e+000
         vertex 8.496491e+000 5.547232e+000 9.000000e+000
      endloop
   endfacet
   facet normal 0.000000e+000 0.000000e+000 -1.000000e+000
      outer loop
         vertex 8.496491e+000 5.547232e+000 9.000000e+000
         vertex 8.424307e+000 5.277837e+000 9.000000e+000
         vertex 0.000000e+000 6.450000e+000 9.000000e+000
      endloop
   endfacet
   facet normal 0.000000e+000 0.000000e+000 -1.000000e+000
      outer loop
         vertex 0.000000e+000 6.450000e+000 9.000000e+000
         vertex 8.424307e+000 5.277837e+000 9.000000e+000
         vertex 8.400000e+000 5.000000e+000 9.000000e+000
      endloop
   endfacet
   facet normal 0.000000e+000 0.000000e+000 -1.000000e+000
      outer loop
         vertex 0.000000e+000 6.450000e+000 9.000000e+000
         vertex 8.400000e+000 5.000000e+000 9.000000e+000
         vertex 0.000000e+000 3.549999e+000 9.000000e+000
      endloop
   endfacet
   facet normal 0.000000e+000 0.000000e+000 -1.000000e+000
      outer loop
         vertex 0.000000e+000 3.549999e+000 9.000000e+000
         vertex 8.400000e+000 5.000000e+000 9.000000e+000
         vertex 8.424307e+000 4.722163e+000 9.000000e+000
      endloop
   endfacet
   facet normal 0.000000e+000 0.000000e+000 -1.000000e+000
      outer loop
         vertex 0.000000e+000 3.549999e+000 9.000000e+000
         vertex 8.424307e+000 4.722163e+000 9.000000e+000
         vertex 8.496491e+000 4.452768e+000 9.000000e+000
      endloop
   endfacet
   facet normal 0.000000e+000 0.000000e+000 -1.000000e+000
      outer loop
         vertex 0.000000e+000 3.549999e+000 1.000000e+001
         vertex 9.323612e+000 3.549999e+000 1.000000e+001
         vertex 0.000000e+000 0.000000e+000 1.000000e+001
      endloop
   endfacet
   facet normal 0.000000e+000 0.000000e+000 -1.000000e+000
      outer loop
         vertex 0.000000e+000 0.000000e+000 1.000000e+001
         vertex 9.323612e+000 3.549999e+000 1.000000e+001
         vertex 9.452767e+000 3.496491e+000 1.000000e+001
      endloop
   endfacet
   facet normal 0.000000e+000 0.000000e+000 -1.000000e+000
      outer loop
         vertex 9.452767e+000 3.496491e+000 1.000000e+001
         vertex 9.722163e+000 3.424307e+000 1.000000e+001
         vertex 0.000000e+000 0.000000e+000 1.000000e+001
      endloop
   endfacet
   facet normal 0.000000e+000 0.000000e+000 -1.000000e+000
      outer loop
         vertex 0.000000e+000 0.000000e+000 1.000000e+001
         vertex 9.722163e+000 3.424307e+000 1.000000e+001
         vertex 1.000000e+001 3.400000e+000 1.000000e+001
      endloop
   endfacet
   facet normal 0.000000e+000 0.000000e+000 -1.000000e+000
      outer loop
         vertex 0.000000e+000 0.000000e+000 1.000000e+001
         vertex 1.000000e+001 3.400000e+000 1.000000e+001
         vertex 2.000000e+001 0.000000e+000 1.000000e+001
      endloop
   endfacet
   facet normal 0.000000e+000 0.000000e+000 -1.000000e+000
      outer loop
         vertex 1.067639e+001 3.549999e+000 1.000000e+001
         vertex 2.000000e+001 3.549999e+000 1.000000e+001
         vertex 1.054723e+001 3.496491e+000 1.000000e+001
      endloop
   endfacet
   facet normal 0.000000e+000 0.000000e+000 -1.000000e+000
      outer loop
         vertex 1.054723e+001 3.496491e+000 1.000000e+001
         vertex 2.000000e+001 3.549999e+000 1.000000e+001
         vertex 2.000000e+001 0.000000e+000 1.000000e+001
      endloop
   endfacet
   facet normal 0.000000e+000 0.000000e+000 -1.000000e+000
      outer loop
         vertex 1.054723e+001 3.496491e+000 1.000000e+001
         vertex 2.000000e+001 0.000000e+000 1.000000e+001
         vertex 1.027784e+001 3.424307e+000 1.000000e+001
      endloop
   endfacet
   facet normal 0.000000e+000 0.000000e+000 -1.000000e+000
      outer loop
         vertex 1.027784e+001 3.424307e+000 1.000000e+001
         vertex 2.000000e+001 0.000000e+000 1.000000e+001
         vertex 1.000000e+001 3.400000e+000 1.000000e+001
      endloop
   endfacet
   facet normal 0.000000e+000 0.000000e+000 -1.000000e+000
      outer loop
         vertex 1.027784e+001 6.575693e+000 1.000000e+001
         vertex 1.000000e+001 6.600000e+000 1.000000e+001
         vertex 2.000000e+001 2.050000e+001 1.000000e+001
      endloop
   endfacet
   facet normal 0.000000e+000 0.000000e+000 -1.000000e+000
      outer loop
         vertex 2.000000e+001 2.050000e+001 1.000000e+001
         vertex 1.000000e+001 6.600000e+000 1.000000e+001
         vertex 0.000000e+000 2.050000e+001 1.000000e+001
      endloop
   endfacet
   facet normal 0.000000e+000 0.000000e+000 -1.000000e+000
      outer loop
         vertex 2.000000e+001 6.450000e+000 1.000000e+001
         vertex 1.067639e+001 6.450000e+000 1.000000e+001
         vertex 2.000000e+001 2.050000e+001 1.000000e+001
      endloop
   endfacet
   facet normal 0.000000e+000 0.000000e+000 -1.000000e+000
      outer loop
         vertex 2.000000e+001 2.050000e+001 1.000000e+001
         vertex 1.067639e+001 6.450000e+000 1.000000e+001
         vertex 1.054723e+001 6.503508e+000 1.000000e+001
      endloop
   endfacet
   facet normal 0.000000e+000 0.000000e+000 -1.000000e+000
      outer loop
         vertex 2.000000e+001 2.050000e+001 1.000000e+001
         vertex 1.054723e+001 6.503508e+000 1.000000e+001
         vertex 1.027784e+001 6.575693e+000 1.000000e+001
      endloop
   endfacet
   facet normal 0.000000e+000 0.000000e+000 -1.000000e+000
      outer loop
         vertex 9.323612e+000 6.450000e+000 1.000000e+001
         vertex 0.000000e+000 6.450000e+000 1.000000e+001
         vertex 9.452767e+000 6.503508e+000 1.000000e+001
      endloop
   endfacet
   facet normal 0.000000e+000 0.000000e+000 -1.000000e+000
      outer loop
         vertex 9.452767e+000 6.503508e+000 1.000000e+001
         vertex 0.000000e+000 6.450000e+000 1.000000e+001
         vertex 0.000000e+000 2.050000e+001 1.000000e+001
      endloop
   endfacet
   facet normal 0.000000e+000 0.000000e+000 -1.000000e+000
      outer loop
         vertex 9.452767e+000 6.503508e+000 1.000000e+001
         vertex 0.000000e+000 2.050000e+001 1.000000e+001
         vertex 9.722163e+000 6.575693e+000 1.000000e+001
      endloop
   endfacet
   facet normal 0.000000e+000 0.000000e+000 -1.000000e+000
      outer loop
         vertex 9.722163e+000 6.575693e+000 1.000000e+001
         vertex 0.000000e+000 2.050000e+001 1.000000e+001
         vertex 1.000000e+001 6.600000e+000 1.000000e+001
      endloop
   endfacet
   facet normal -1.000000e+000 0.000000e+000 0.000000e+000
      outer loop
         vertex 0.000000e+000 3.549999e+000 1.000000e+001
         vertex 0.000000e+000 0.000000e+000 1.000000e+001
         vertex 0.000000e+000 0.000000e+000 1.600000e+001
      endloop
   endfacet
   facet normal -1.000000e+000 0.000000e+000 0.000000e+000
      outer loop
         vertex 0.000000e+000 2.750000e+001 1.600000e+001
         vertex 0.000000e+000 2.750000e+001 0.000000e+000
         vertex 0.000000e+000 2.250000e+001 0.000000e+000
      endloop
   endfacet
   facet normal -1.000000e+000 0.000000e+000 0.000000e+000
      outer loop
         vertex 0.000000e+000 6.450000e+000 1.000000e+001
         vertex 0.000000e+000 6.450000e+000 9.000000e+000
         vertex 0.000000e+000 3.549999e+000 9.000000e+000
      endloop
   endfacet
   facet normal -1.000000e+000 0.000000e+000 0.000000e+000
      outer loop
         vertex 0.000000e+000 3.549999e+000 9.000000e+000
         vertex 0.000000e+000 3.549999e+000 1.000000e+001
         vertex 0.000000e+000 6.450000e+000 1.000000e+001
      endloop
   endfacet
   facet normal -1.000000e+000 0.000000e+000 0.000000e+000
      outer loop
         vertex 0.000000e+000 6.450000e+000 1.000000e+001
         vertex 0.000000e+000 3.549999e+000 1.000000e+001
         vertex 0.000000e+000 0.000000e+000 1.600000e+001
      endloop
   endfacet
   facet normal -1.000000e+000 0.000000e+000 0.000000e+000
      outer loop
         vertex 0.000000e+000 6.450000e+000 1.000000e+001
         vertex 0.000000e+000 0.000000e+000 1.600000e+001
         vertex 0.000000e+000 2.050000e+001 1.000000e+001
      endloop
   endfacet
   facet normal -1.000000e+000 0.000000e+000 0.000000e+000
      outer loop
         vertex 0.000000e+000 2.050000e+001 1.000000e+001
         vertex 0.000000e+000 0.000000e+000 1.600000e+001
         vertex 0.000000e+000 2.750000e+001 1.600000e+001
      endloop
   endfacet
   facet normal -1.000000e+000 0.000000e+000 0.000000e+000
      outer loop
         vertex 0.000000e+000 2.050000e+001 1.000000e+001
         vertex 0.000000e+000 2.750000e+001 1.600000e+001
         vertex 0.000000e+000 2.050000e+001 7.000000e+000
      endloop
   endfacet
   facet normal -1.000000e+000 0.000000e+000 0.000000e+000
      outer loop
         vertex 0.000000e+000 2.250000e+001 0.000000e+000
         vertex 0.000000e+000 2.050000e+001 1.999999e+000
         vertex 0.000000e+000 2.750000e+001 1.600000e+001
      endloop
   endfacet
   facet normal -1.000000e+000 0.000000e+000 0.000000e+000
      outer loop
         vertex 0.000000e+000 2.750000e+001 1.600000e+001
         vertex 0.000000e+000 2.050000e+001 1.999999e+000
         vertex 0.000000e+000 2.050000e+001 5.000000e+000
      endloop
   endfacet
   facet normal -1.000000e+000 0.000000e+000 0.000000e+000
      outer loop
         vertex 0.000000e+000 2.750000e+001 1.600000e+001
         vertex 0.000000e+000 2.050000e+001 5.000000e+000
         vertex 0.000000e+000 2.050000e+001 7.000000e+000
      endloop
   endfacet
   facet normal -1.000000e+000 0.000000e+000 0.000000e+000
      outer loop
         vertex 0.000000e+000 2.003523e+001 5.479928e+000
         vertex 0.000000e+000 2.000886e+001 5.592159e+000
         vertex 0.000000e+000 2.029756e+001 5.108945e+000
      endloop
   endfacet
   facet normal -1.000000e+000 0.000000e+000 0.000000e+000
      outer loop
         vertex 0.000000e+000 2.029756e+001 5.108945e+000
         vertex 0.000000e+000 2.000886e+001 5.592159e+000
         vertex 0.000000e+000 2.000000e+001 5.707107e+000
      endloop
   endfacet
   facet normal -1.000000e+000 0.000000e+000 0.000000e+000
      outer loop
         vertex 0.000000e+000 2.029756e+001 5.108945e+000
         vertex 0.000000e+000 2.000000e+001 5.707107e+000
         vertex 0.000000e+000 2.039458e+001 5.046670e+000
      endloop
   endfacet
   facet normal -1.000000e+000 0.000000e+000 0.000000e+000
      outer loop
         vertex 0.000000e+000 2.029756e+001 6.891054e+000
         vertex 0.000000e+000 2.039458e+001 6.953330e+000
         vertex 0.000000e+000 2.000000e+001 6.292893e+000
      endloop
   endfacet
   facet normal -1.000000e+000 0.000000e+000 0.000000e+000
      outer loop
         vertex 0.000000e+000 2.000000e+001 6.292893e+000
         vertex 0.000000e+000 2.039458e+001 6.953330e+000
         vertex 0.000000e+000 2.050000e+001 7.000000e+000
      endloop
   endfacet
   facet normal -1.000000e+000 0.000000e+000 0.000000e+000
      outer loop
         vertex 0.000000e+000 2.000000e+001 6.292893e+000
         vertex 0.000000e+000 2.050000e+001 7.000000e+000
         vertex 0.000000e+000 2.000000e+001 5.707107e+000
      endloop
   endfacet
   facet normal -1.000000e+000 0.000000e+000 0.000000e+000
      outer loop
         vertex 0.000000e+000 2.000000e+001 5.707107e+000
         vertex 0.000000e+000 2.050000e+001 7.000000e+000
         vertex 0.000000e+000 2.050000e+001 5.000000e+000
      endloop
   endfacet
   facet normal -1.000000e+000 0.000000e+000 0.000000e+000
      outer loop
         vertex 0.000000e+000 2.000000e+001 5.707107e+000
         vertex 0.000000e+000 2.050000e+001 5.000000e+000
         vertex 0.000000e+000 2.039458e+001 5.046670e+000
      endloop
   endfacet
   facet normal -1.000000e+000 0.000000e+000 0.000000e+000
      outer loop
         vertex 0.000000e+000 2.250000e+001 0.000000e+000
         vertex 0.000000e+000 2.215270e+001 3.038440e-002
         vertex 0.000000e+000 2.050000e+001 1.999999e+000
      endloop
   endfacet
   facet normal -1.000000e+000 0.000000e+000 0.000000e+000
      outer loop
         vertex 0.000000e+000 2.050000e+001 1.999999e+000
         vertex 0.000000e+000 2.215270e+001 3.038440e-002
         vertex 0.000000e+000 2.181596e+001 1.206147e-001
      endloop
   endfacet
   facet normal -1.000000e+000 0.000000e+000 0.000000e+000
      outer loop
         vertex 0.000000e+000 2.050000e+001 1.999999e+000
         vertex 0.000000e+000 2.181596e+001 1.206147e-001
         vertex 0.000000e+000 2.053038e+001 1.652704e+000
      endloop
   endfacet
   facet normal -1.000000e+000 0.000000e+000 0.000000e+000
      outer loop
         vertex 0.000000e+000 2.053038e+001 1.652704e+000
         vertex 0.000000e+000 2.181596e+001 1.206147e-001
         vertex 0.000000e+000 2.150000e+001 2.679490e-001
      endloop
   endfacet
   facet normal -1.000000e+000 0.000000e+000 0.000000e+000
      outer loop
         vertex 0.000000e+000 2.053038e+001 1.652704e+000
         vertex 0.000000e+000 2.150000e+001 2.679490e-001
         vertex 0.000000e+000 2.121443e+001 4.679104e-001
      endloop
   endfacet
   facet normal -1.000000e+000 0.000000e+000 0.000000e+000
      outer loop
         vertex 0.000000e+000 2.003523e+001 5.479928e+000
         vertex 0.000000e+000 2.029756e+001 5.108945e+000
         vertex 0.000000e+000 2.007850e+001 5.373064e+000
      endloop
   endfacet
   facet normal -1.000000e+000 0.000000e+000 0.000000e+000
      outer loop
         vertex 0.000000e+000 2.007850e+001 5.373064e+000
         vertex 0.000000e+000 2.029756e+001 5.108945e+000
         vertex 0.000000e+000 2.021123e+001 5.185356e+000
      endloop
   endfacet
   facet normal -1.000000e+000 0.000000e+000 0.000000e+000
      outer loop
         vertex 0.000000e+000 2.007850e+001 5.373064e+000
         vertex 0.000000e+000 2.021123e+001 5.185356e+000
         vertex 0.000000e+000 2.013763e+001 5.274094e+000
      endloop
   endfacet
   facet normal -1.000000e+000 0.000000e+000 0.000000e+000
      outer loop
         vertex 0.000000e+000 2.007850e+001 6.626935e+000
         vertex 0.000000e+000 2.013763e+001 6.725905e+000
         vertex 0.000000e+000 2.003523e+001 6.520072e+000
      endloop
   endfacet
   facet normal -1.000000e+000 0.000000e+000 0.000000e+000
      outer loop
         vertex 0.000000e+000 2.003523e+001 6.520072e+000
         vertex 0.000000e+000 2.013763e+001 6.725905e+000
         vertex 0.000000e+000 2.000886e+001 6.407841e+000
      endloop
   endfacet
   facet normal -1.000000e+000 0.000000e+000 0.000000e+000
      outer loop
         vertex 0.000000e+000 2.121443e+001 4.679104e-001
         vertex 0.000000e+000 2.096791e+001 7.144250e-001
         vertex 0.000000e+000 2.053038e+001 1.652704e+000
      endloop
   endfacet
   facet normal -1.000000e+000 0.000000e+000 0.000000e+000
      outer loop
         vertex 0.000000e+000 2.053038e+001 1.652704e+000
         vertex 0.000000e+000 2.096791e+001 7.144250e-001
         vertex 0.000000e+000 2.076795e+001 1.000000e+000
      endloop
   endfacet
   facet normal -1.000000e+000 0.000000e+000 0.000000e+000
      outer loop
         vertex 0.000000e+000 2.053038e+001 1.652704e+000
         vertex 0.000000e+000 2.076795e+001 1.000000e+000
         vertex 0.000000e+000 2.062062e+001 1.315960e+000
      endloop
   endfacet
   facet normal -1.000000e+000 0.000000e+000 0.000000e+000
      outer loop
         vertex 0.000000e+000 2.000886e+001 6.407841e+000
         vertex 0.000000e+000 2.013763e+001 6.725905e+000
         vertex 0.000000e+000 2.000000e+001 6.292893e+000
      endloop
   endfacet
   facet normal -1.000000e+000 0.000000e+000 0.000000e+000
      outer loop
         vertex 0.000000e+000 2.000000e+001 6.292893e+000
         vertex 0.000000e+000 2.013763e+001 6.725905e+000
         vertex 0.000000e+000 2.021123e+001 6.814644e+000
      endloop
   endfacet
   facet normal -1.000000e+000 0.000000e+000 0.000000e+000
      outer loop
         vertex 0.000000e+000 2.000000e+001 6.292893e+000
         vertex 0.000000e+000 2.021123e+001 6.814644e+000
         vertex 0.000000e+000 2.029756e+001 6.891054e+000
      endloop
   endfacet
   facet normal 0.000000e+000 -1.000000e+000 0.000000e+000
      outer loop
         vertex 2.000000e+001 0.000000e+000 1.600000e+001
         vertex 0.000000e+000 0.000000e+000 1.600000e+001
         vertex 2.000000e+001 0.000000e+000 1.000000e+001
      endloop
   endfacet
   facet normal 0.000000e+000 -1.000000e+000 0.000000e+000
      outer loop
         vertex 2.000000e+001 0.000000e+000 1.000000e+001
         vertex 0.000000e+000 0.000000e+000 1.600000e+001
         vertex 0.000000e+000 0.000000e+000 1.000000e+001
      endloop
   endfacet
   facet normal 1.000000e+000 0.000000e+000 0.000000e+000
      outer loop
         vertex 2.000000e+001 2.250000e+001 0.000000e+000
         vertex 2.000000e+001 2.750000e+001 0.000000e+000
         vertex 2.000000e+001 2.750000e+001 1.600000e+001
      endloop
   endfacet
   facet normal 1.000000e+000 0.000000e+000 0.000000e+000
      outer loop
         vertex 2.000000e+001 2.750000e+001 1.600000e+001
         vertex 2.000000e+001 0.000000e+000 1.600000e+001
         vertex 2.000000e+001 3.549999e+000 1.000000e+001
      endloop
   endfacet
   facet normal 1.000000e+000 0.000000e+000 0.000000e+000
      outer loop
         vertex 2.000000e+001 3.549999e+000 1.000000e+001
         vertex 2.000000e+001 0.000000e+000 1.600000e+001
         vertex 2.000000e+001 0.000000e+000 1.000000e+001
      endloop
   endfacet
   facet normal 1.000000e+000 0.000000e+000 0.000000e+000
      outer loop
         vertex 2.000000e+001 2.050000e+001 1.000000e+001
         vertex 2.000000e+001 2.750000e+001 1.600000e+001
         vertex 2.000000e+001 6.450000e+000 1.000000e+001
      endloop
   endfacet
   facet normal 1.000000e+000 0.000000e+000 0.000000e+000
      outer loop
         vertex 2.000000e+001 6.450000e+000 1.000000e+001
         vertex 2.000000e+001 2.750000e+001 1.600000e+001
         vertex 2.000000e+001 3.549999e+000 1.000000e+001
      endloop
   endfacet
   facet normal 1.000000e+000 0.000000e+000 0.000000e+000
      outer loop
         vertex 2.000000e+001 6.450000e+000 1.000000e+001
         vertex 2.000000e+001 3.549999e+000 1.000000e+001
         vertex 2.000000e+001 6.450000e+000 9.000000e+000
      endloop
   endfacet
   facet normal 1.000000e+000 0.000000e+000 0.000000e+000
      outer loop
         vertex 2.000000e+001 6.450000e+000 9.000000e+000
         vertex 2.000000e+001 3.549999e+000 1.000000e+001
         vertex 2.000000e+001 3.549999e+000 9.000000e+000
      endloop
   endfacet
   facet normal 1.000000e+000 0.000000e+000 0.000000e+000
      outer loop
         vertex 2.000000e+001 2.000000e+001 6.292893e+000
         vertex 2.000000e+001 2.050000e+001 7.000000e+000
         vertex 2.000000e+001 2.039458e+001 6.953330e+000
      endloop
   endfacet
   facet normal 1.000000e+000 0.000000e+000 0.000000e+000
      outer loop
         vertex 2.000000e+001 2.050000e+001 1.000000e+001
         vertex 2.000000e+001 2.050000e+001 7.000000e+000
         vertex 2.000000e+001 2.750000e+001 1.600000e+001
      endloop
   endfacet
   facet normal 1.000000e+000 0.000000e+000 0.000000e+000
      outer loop
         vertex 2.000000e+001 2.750000e+001 1.600000e+001
         vertex 2.000000e+001 2.050000e+001 7.000000e+000
         vertex 2.000000e+001 2.050000e+001 5.000000e+000
      endloop
   endfacet
   facet normal 1.000000e+000 0.000000e+000 0.000000e+000
      outer loop
         vertex 2.000000e+001 2.750000e+001 1.600000e+001
         vertex 2.000000e+001 2.050000e+001 5.000000e+000
         vertex 2.000000e+001 2.250000e+001 0.000000e+000
      endloop
   endfacet
   facet normal 1.000000e+000 0.000000e+000 0.000000e+000
      outer loop
         vertex 2.000000e+001 2.250000e+001 0.000000e+000
         vertex 2.000000e+001 2.050000e+001 5.000000e+000
         vertex 2.000000e+001 2.050000e+001 1.999999e+000
      endloop
   endfacet
   facet normal 1.000000e+000 0.000000e+000 0.000000e+000
      outer loop
         vertex 2.000000e+001 2.250000e+001 0.000000e+000
         vertex 2.000000e+001 2.050000e+001 1.999999e+000
         vertex 2.000000e+001 2.215270e+001 3.038440e-002
      endloop
   endfacet
   facet normal 1.000000e+000 0.000000e+000 0.000000e+000
      outer loop
         vertex 2.000000e+001 2.062062e+001 1.315960e+000
         vertex 2.000000e+001 2.076795e+001 1.000000e+000
         vertex 2.000000e+001 2.181596e+001 1.206147e-001
      endloop
   endfacet
   facet normal 1.000000e+000 0.000000e+000 0.000000e+000
      outer loop
         vertex 2.000000e+001 2.039458e+001 6.953330e+000
         vertex 2.000000e+001 2.029756e+001 6.891054e+000
         vertex 2.000000e+001 2.000000e+001 6.292893e+000
      endloop
   endfacet
   facet normal 1.000000e+000 0.000000e+000 0.000000e+000
      outer loop
         vertex 2.000000e+001 2.000000e+001 6.292893e+000
         vertex 2.000000e+001 2.029756e+001 6.891054e+000
         vertex 2.000000e+001 2.021123e+001 6.814644e+000
      endloop
   endfacet
   facet normal 1.000000e+000 0.000000e+000 0.000000e+000
      outer loop
         vertex 2.000000e+001 2.000000e+001 6.292893e+000
         vertex 2.000000e+001 2.021123e+001 6.814644e+000
         vertex 2.000000e+001 2.013763e+001 6.725905e+000
      endloop
   endfacet
   facet normal 1.000000e+000 0.000000e+000 0.000000e+000
      outer loop
         vertex 2.000000e+001 2.013763e+001 6.725905e+000
         vertex 2.000000e+001 2.007850e+001 6.626935e+000
         vertex 2.000000e+001 2.000000e+001 6.292893e+000
      endloop
   endfacet
   facet normal 1.000000e+000 0.000000e+000 0.000000e+000
      outer loop
         vertex 2.000000e+001 2.000000e+001 6.292893e+000
         vertex 2.000000e+001 2.007850e+001 6.626935e+000
         vertex 2.000000e+001 2.003523e+001 6.520072e+000
      endloop
   endfacet
   facet normal 1.000000e+000 0.000000e+000 0.000000e+000
      outer loop
         vertex 2.000000e+001 2.000000e+001 6.292893e+000
         vertex 2.000000e+001 2.003523e+001 6.520072e+000
         vertex 2.000000e+001 2.000886e+001 6.407841e+000
      endloop
   endfacet
   facet normal 1.000000e+000 0.000000e+000 0.000000e+000
      outer loop
         vertex 2.000000e+001 2.000886e+001 5.592159e+000
         vertex 2.000000e+001 2.003523e+001 5.479928e+000
         vertex 2.000000e+001 2.050000e+001 5.000000e+000
      endloop
   endfacet
   facet normal 1.000000e+000 0.000000e+000 0.000000e+000
      outer loop
         vertex 2.000000e+001 2.003523e+001 5.479928e+000
         vertex 2.000000e+001 2.007850e+001 5.373064e+000
         vertex 2.000000e+001 2.050000e+001 5.000000e+000
      endloop
   endfacet
   facet normal 1.000000e+000 0.000000e+000 0.000000e+000
      outer loop
         vertex 2.000000e+001 2.050000e+001 5.000000e+000
         vertex 2.000000e+001 2.007850e+001 5.373064e+000
         vertex 2.000000e+001 2.013763e+001 5.274094e+000
      endloop
   endfacet
   facet normal 1.000000e+000 0.000000e+000 0.000000e+000
      outer loop
         vertex 2.000000e+001 2.050000e+001 5.000000e+000
         vertex 2.000000e+001 2.013763e+001 5.274094e+000
         vertex 2.000000e+001 2.039458e+001 5.046670e+000
      endloop
   endfacet
   facet normal 1.000000e+000 0.000000e+000 0.000000e+000
      outer loop
         vertex 2.000000e+001 2.039458e+001 5.046670e+000
         vertex 2.000000e+001 2.013763e+001 5.274094e+000
         vertex 2.000000e+001 2.021123e+001 5.185356e+000
      endloop
   endfacet
   facet normal 1.000000e+000 0.000000e+000 0.000000e+000
      outer loop
         vertex 2.000000e+001 2.039458e+001 5.046670e+000
         vertex 2.000000e+001 2.021123e+001 5.185356e+000
         vertex 2.000000e+001 2.029756e+001 5.108945e+000
      endloop
   endfacet
   facet normal 1.000000e+000 0.000000e+000 0.000000e+000
      outer loop
         vertex 2.000000e+001 2.215270e+001 3.038440e-002
         vertex 2.000000e+001 2.050000e+001 1.999999e+000
         vertex 2.000000e+001 2.181596e+001 1.206147e-001
      endloop
   endfacet
   facet normal 1.000000e+000 0.000000e+000 0.000000e+000
      outer loop
         vertex 2.000000e+001 2.181596e+001 1.206147e-001
         vertex 2.000000e+001 2.050000e+001 1.999999e+000
         vertex 2.000000e+001 2.053038e+001 1.652704e+000
      endloop
   endfacet
   facet normal 1.000000e+000 0.000000e+000 0.000000e+000
      outer loop
         vertex 2.000000e+001 2.181596e+001 1.206147e-001
         vertex 2.000000e+001 2.053038e+001 1.652704e+000
         vertex 2.000000e+001 2.062062e+001 1.315960e+000
      endloop
   endfacet
   facet normal 1.000000e+000 0.000000e+000 0.000000e+000
      outer loop
         vertex 2.000000e+001 2.076795e+001 1.000000e+000
         vertex 2.000000e+001 2.096791e+001 7.144250e-001
         vertex 2.000000e+001 2.181596e+001 1.206147e-001
      endloop
   endfacet
   facet normal 1.000000e+000 0.000000e+000 0.000000e+000
      outer loop
         vertex 2.000000e+001 2.181596e+001 1.206147e-001
         vertex 2.000000e+001 2.096791e+001 7.144250e-001
         vertex 2.000000e+001 2.121443e+001 4.679104e-001
      endloop
   endfacet
   facet normal 1.000000e+000 0.000000e+000 0.000000e+000
      outer loop
         vertex 2.000000e+001 2.181596e+001 1.206147e-001
         vertex 2.000000e+001 2.121443e+001 4.679104e-001
         vertex 2.000000e+001 2.150000e+001 2.679490e-001
      endloop
   endfacet
   facet normal 1.000000e+000 0.000000e+000 0.000000e+000
      outer loop
         vertex 2.000000e+001 2.050000e+001 7.000000e+000
         vertex 2.000000e+001 2.000000e+001 6.292893e+000
         vertex 2.000000e+001 2.050000e+001 5.000000e+000
      endloop
   endfacet
   facet normal 1.000000e+000 0.000000e+000 0.000000e+000
      outer loop
         vertex 2.000000e+001 2.050000e+001 5.000000e+000
         vertex 2.000000e+001 2.000000e+001 6.292893e+000
         vertex 2.000000e+001 2.000000e+001 5.707107e+000
      endloop
   endfacet
   facet normal 1.000000e+000 0.000000e+000 0.000000e+000
      outer loop
         vertex 2.000000e+001 2.050000e+001 5.000000e+000
         vertex 2.000000e+001 2.000000e+001 5.707107e+000
         vertex 2.000000e+001 2.000886e+001 5.592159e+000
      endloop
   endfacet
   facet normal 0.000000e+000 1.000000e+000 0.000000e+000
      outer loop
         vertex 0.000000e+000 2.750000e+001 0.000000e+000
         vertex 0.000000e+000 2.750000e+001 1.600000e+001
         vertex 2.000000e+001 2.750000e+001 0.000000e+000
      endloop
   endfacet
   facet normal 0.000000e+000 1.000000e+000 0.000000e+000
      outer loop
         vertex 2.000000e+001 2.750000e+001 0.000000e+000
         vertex 0.000000e+000 2.750000e+001 1.600000e+001
         vertex 2.000000e+001 2.750000e+001 1.600000e+001
      endloop
   endfacet
   facet normal 0.000000e+000 0.000000e+000 1.000000e+000
      outer loop
         vertex 8.971539e+000 3.774329e+000 1.600000e+001
         vertex 8.774329e+000 3.971539e+000 1.600000e+001
         vertex 0.000000e+000 0.000000e+000 1.600000e+001
      endloop
   endfacet
   facet normal 0.000000e+000 0.000000e+000 1.000000e+000
      outer loop
         vertex 9.200000e+000 6.385641e+000 1.600000e+001
         vertex 9.452767e+000 6.503508e+000 1.600000e+001
         vertex 0.000000e+000 2.750000e+001 1.600000e+001
      endloop
   endfacet
   facet normal 0.000000e+000 0.000000e+000 1.000000e+000
      outer loop
         vertex 1.150351e+001 4.452768e+000 1.600000e+001
         vertex 2.000000e+001 0.000000e+000 1.600000e+001
         vertex 1.157569e+001 4.722163e+000 1.600000e+001
      endloop
   endfacet
   facet normal 0.000000e+000 0.000000e+000 1.000000e+000
      outer loop
         vertex 1.157569e+001 4.722163e+000 1.600000e+001
         vertex 2.000000e+001 0.000000e+000 1.600000e+001
         vertex 1.160000e+001 5.000000e+000 1.600000e+001
      endloop
   endfacet
   facet normal 0.000000e+000 0.000000e+000 1.000000e+000
      outer loop
         vertex 9.452767e+000 6.503508e+000 1.600000e+001
         vertex 9.722163e+000 6.575693e+000 1.600000e+001
         vertex 0.000000e+000 2.750000e+001 1.600000e+001
      endloop
   endfacet
   facet normal 0.000000e+000 0.000000e+000 1.000000e+000
      outer loop
         vertex 0.000000e+000 2.750000e+001 1.600000e+001
         vertex 9.722163e+000 6.575693e+000 1.600000e+001
         vertex 1.000000e+001 6.600000e+000 1.600000e+001
      endloop
   endfacet
   facet normal 0.000000e+000 0.000000e+000 1.000000e+000
      outer loop
         vertex 0.000000e+000 2.750000e+001 1.600000e+001
         vertex 1.000000e+001 6.600000e+000 1.600000e+001
         vertex 2.000000e+001 2.750000e+001 1.600000e+001
      endloop
   endfacet
   facet normal 0.000000e+000 0.000000e+000 1.000000e+000
      outer loop
         vertex 2.000000e+001 2.750000e+001 1.600000e+001
         vertex 1.000000e+001 6.600000e+000 1.600000e+001
         vertex 1.027784e+001 6.575693e+000 1.600000e+001
      endloop
   endfacet
   facet normal 0.000000e+000 0.000000e+000 1.000000e+000
      outer loop
         vertex 2.000000e+001 2.750000e+001 1.600000e+001
         vertex 1.027784e+001 6.575693e+000 1.600000e+001
         vertex 1.054723e+001 6.503508e+000 1.600000e+001
      endloop
   endfacet
   facet normal 0.000000e+000 0.000000e+000 1.000000e+000
      outer loop
         vertex 1.150351e+001 4.452768e+000 1.600000e+001
         vertex 1.138564e+001 4.200000e+000 1.600000e+001
         vertex 2.000000e+001 0.000000e+000 1.600000e+001
      endloop
   endfacet
   facet normal 0.000000e+000 0.000000e+000 1.000000e+000
      outer loop
         vertex 2.000000e+001 0.000000e+000 1.600000e+001
         vertex 1.138564e+001 4.200000e+000 1.600000e+001
         vertex 1.122567e+001 3.971539e+000 1.600000e+001
      endloop
   endfacet
   facet normal 0.000000e+000 0.000000e+000 1.000000e+000
      outer loop
         vertex 2.000000e+001 0.000000e+000 1.600000e+001
         vertex 1.122567e+001 3.971539e+000 1.600000e+001
         vertex 1.102846e+001 3.774329e+000 1.600000e+001
      endloop
   endfacet
   facet normal 0.000000e+000 0.000000e+000 1.000000e+000
      outer loop
         vertex 9.722163e+000 3.424307e+000 1.600000e+001
         vertex 9.452767e+000 3.496491e+000 1.600000e+001
         vertex 0.000000e+000 0.000000e+000 1.600000e+001
      endloop
   endfacet
   facet normal 0.000000e+000 0.000000e+000 1.000000e+000
      outer loop
         vertex 0.000000e+000 0.000000e+000 1.600000e+001
         vertex 9.452767e+000 3.496491e+000 1.600000e+001
         vertex 9.200000e+000 3.614360e+000 1.600000e+001
      endloop
   endfacet
   facet normal 0.000000e+000 0.000000e+000 1.000000e+000
      outer loop
         vertex 0.000000e+000 0.000000e+000 1.600000e+001
         vertex 9.200000e+000 3.614360e+000 1.600000e+001
         vertex 8.971539e+000 3.774329e+000 1.600000e+001
      endloop
   endfacet
   facet normal 0.000000e+000 0.000000e+000 1.000000e+000
      outer loop
         vertex 8.774329e+000 3.971539e+000 1.600000e+001
         vertex 8.614360e+000 4.200000e+000 1.600000e+001
         vertex 0.000000e+000 0.000000e+000 1.600000e+001
      endloop
   endfacet
   facet normal 0.000000e+000 0.000000e+000 1.000000e+000
      outer loop
         vertex 0.000000e+000 0.000000e+000 1.600000e+001
         vertex 8.614360e+000 4.200000e+000 1.600000e+001
         vertex 8.496491e+000 4.452768e+000 1.600000e+001
      endloop
   endfacet
   facet normal 0.000000e+000 0.000000e+000 1.000000e+000
      outer loop
         vertex 0.000000e+000 0.000000e+000 1.600000e+001
         vertex 8.496491e+000 4.452768e+000 1.600000e+001
         vertex 8.424307e+000 4.722163e+000 1.600000e+001
      endloop
   endfacet
   facet normal 0.000000e+000 0.000000e+000 1.000000e+000
      outer loop
         vertex 9.722163e+000 3.424307e+000 1.600000e+001
         vertex 0.000000e+000 0.000000e+000 1.600000e+001
         vertex 1.000000e+001 3.400000e+000 1.600000e+001
      endloop
   endfacet
   facet normal 0.000000e+000 0.000000e+000 1.000000e+000
      outer loop
         vertex 1.000000e+001 3.400000e+000 1.600000e+001
         vertex 0.000000e+000 0.000000e+000 1.600000e+001
         vertex 2.000000e+001 0.000000e+000 1.600000e+001
      endloop
   endfacet
   facet normal 0.000000e+000 0.000000e+000 1.000000e+000
      outer loop
         vertex 1.000000e+001 3.400000e+000 1.600000e+001
         vertex 2.000000e+001 0.000000e+000 1.600000e+001
         vertex 1.027784e+001 3.424307e+000 1.600000e+001
      endloop
   endfacet
   facet normal 0.000000e+000 0.000000e+000 1.000000e+000
      outer loop
         vertex 8.614360e+000 5.799999e+000 1.600000e+001
         vertex 8.774329e+000 6.028460e+000 1.600000e+001
         vertex 0.000000e+000 2.750000e+001 1.600000e+001
      endloop
   endfacet
   facet normal 0.000000e+000 0.000000e+000 1.000000e+000
      outer loop
         vertex 0.000000e+000 2.750000e+001 1.600000e+001
         vertex 8.774329e+000 6.028460e+000 1.600000e+001
         vertex 8.971539e+000 6.225671e+000 1.600000e+001
      endloop
   endfacet
   facet normal 0.000000e+000 0.000000e+000 1.000000e+000
      outer loop
         vertex 0.000000e+000 2.750000e+001 1.600000e+001
         vertex 8.971539e+000 6.225671e+000 1.600000e+001
         vertex 9.200000e+000 6.385641e+000 1.600000e+001
      endloop
   endfacet
   facet normal 0.000000e+000 0.000000e+000 1.000000e+000
      outer loop
         vertex 1.054723e+001 6.503508e+000 1.600000e+001
         vertex 1.080000e+001 6.385641e+000 1.600000e+001
         vertex 2.000000e+001 2.750000e+001 1.600000e+001
      endloop
   endfacet
   facet normal 0.000000e+000 0.000000e+000 1.000000e+000
      outer loop
         vertex 2.000000e+001 2.750000e+001 1.600000e+001
         vertex 1.080000e+001 6.385641e+000 1.600000e+001
         vertex 1.102846e+001 6.225671e+000 1.600000e+001
      endloop
   endfacet
   facet normal 0.000000e+000 0.000000e+000 1.000000e+000
      outer loop
         vertex 2.000000e+001 2.750000e+001 1.600000e+001
         vertex 1.102846e+001 6.225671e+000 1.600000e+001
         vertex 1.122567e+001 6.028460e+000 1.600000e+001
      endloop
   endfacet
   facet normal 0.000000e+000 0.000000e+000 1.000000e+000
      outer loop
         vertex 1.102846e+001 3.774329e+000 1.600000e+001
         vertex 1.080000e+001 3.614360e+000 1.600000e+001
         vertex 2.000000e+001 0.000000e+000 1.600000e+001
      endloop
   endfacet
   facet normal 0.000000e+000 0.000000e+000 1.000000e+000
      outer loop
         vertex 2.000000e+001 0.000000e+000 1.600000e+001
         vertex 1.080000e+001 3.614360e+000 1.600000e+001
         vertex 1.054723e+001 3.496491e+000 1.600000e+001
      endloop
   endfacet
   facet normal 0.000000e+000 0.000000e+000 1.000000e+000
      outer loop
         vertex 2.000000e+001 0.000000e+000 1.600000e+001
         vertex 1.054723e+001 3.496491e+000 1.600000e+001
         vertex 1.027784e+001 3.424307e+000 1.600000e+001
      endloop
   endfacet
   facet normal 0.000000e+000 0.000000e+000 1.000000e+000
      outer loop
         vertex 1.122567e+001 6.028460e+000 1.600000e+001
         vertex 1.138564e+001 5.799999e+000 1.600000e+001
         vertex 2.000000e+001 2.750000e+001 1.600000e+001
      endloop
   endfacet
   facet normal 0.000000e+000 0.000000e+000 1.000000e+000
      outer loop
         vertex 2.000000e+001 2.750000e+001 1.600000e+001
         vertex 1.138564e+001 5.799999e+000 1.600000e+001
         vertex 1.150351e+001 5.547232e+000 1.600000e+001
      endloop
   endfacet
   facet normal 0.000000e+000 0.000000e+000 1.000000e+000
      outer loop
         vertex 2.000000e+001 2.750000e+001 1.600000e+001
         vertex 1.150351e+001 5.547232e+000 1.600000e+001
         vertex 2.000000e+001 0.000000e+000 1.600000e+001
      endloop
   endfacet
   facet normal 0.000000e+000 0.000000e+000 1.000000e+000
      outer loop
         vertex 2.000000e+001 0.000000e+000 1.600000e+001
         vertex 1.150351e+001 5.547232e+000 1.600000e+001
         vertex 1.157569e+001 5.277837e+000 1.600000e+001
      endloop
   endfacet
   facet normal 0.000000e+000 0.000000e+000 1.000000e+000
      outer loop
         vertex 2.000000e+001 0.000000e+000 1.600000e+001
         vertex 1.157569e+001 5.277837e+000 1.600000e+001
         vertex 1.160000e+001 5.000000e+000 1.600000e+001
      endloop
   endfacet
   facet normal 0.000000e+000 0.000000e+000 1.000000e+000
      outer loop
         vertex 8.424307e+000 4.722163e+000 1.600000e+001
         vertex 8.400000e+000 5.000000e+000 1.600000e+001
         vertex 0.000000e+000 0.000000e+000 1.600000e+001
      endloop
   endfacet
   facet normal 0.000000e+000 0.000000e+000 1.000000e+000
      outer loop
         vertex 0.000000e+000 0.000000e+000 1.600000e+001
         vertex 8.400000e+000 5.000000e+000 1.600000e+001
         vertex 8.424307e+000 5.277837e+000 1.600000e+001
      endloop
   endfacet
   facet normal 0.000000e+000 0.000000e+000 1.000000e+000
      outer loop
         vertex 0.000000e+000 0.000000e+000 1.600000e+001
         vertex 8.424307e+000 5.277837e+000 1.600000e+001
         vertex 0.000000e+000 2.750000e+001 1.600000e+001
      endloop
   endfacet
   facet normal 0.000000e+000 0.000000e+000 1.000000e+000
      outer loop
         vertex 0.000000e+000 2.750000e+001 1.600000e+001
         vertex 8.424307e+000 5.277837e+000 1.600000e+001
         vertex 8.496491e+000 5.547232e+000 1.600000e+001
      endloop
   endfacet
   facet normal 0.000000e+000 0.000000e+000 1.000000e+000
      outer loop
         vertex 0.000000e+000 2.750000e+001 1.600000e+001
         vertex 8.496491e+000 5.547232e+000 1.600000e+001
         vertex 8.614360e+000 5.799999e+000 1.600000e+001
      endloop
   endfacet
   facet normal 0.000000e+000 0.000000e+000 -1.000000e+000
      outer loop
         vertex 0.000000e+000 2.250000e+001 0.000000e+000
         vertex 0.000000e+000 2.750000e+001 0.000000e+000
         vertex 2.000000e+001 2.250000e+001 0.000000e+000
      endloop
   endfacet
   facet normal 0.000000e+000 0.000000e+000 -1.000000e+000
      outer loop
         vertex 2.000000e+001 2.250000e+001 0.000000e+000
         vertex 0.000000e+000 2.750000e+001 0.000000e+000
         vertex 2.000000e+001 2.750000e+001 0.000000e+000
      endloop
   endfacet
   facet normal 0.000000e+000 -5.807913e-002 -9.983119e-001
      outer loop
         vertex 0.000000e+000 2.250000e+001 0.000000e+000
         vertex 2.000000e+001 2.250000e+001 0.000000e+000
         vertex 2.000000e+001 2.215270e+001 3.038440e-002
      endloop
   endfacet
   facet normal 0.000000e+000 -1.161583e-001 -9.932307e-001
      outer loop
         vertex 0.000000e+000 2.250000e+001 0.000000e+000
         vertex 2.000000e+001 2.215270e+001 3.038440e-002
         vertex 0.000000e+000 2.215270e+001 3.038440e-002
      endloop
   endfacet
   facet normal 0.000000e+000 -2.305519e-001 -9.730600e-001
      outer loop
         vertex 0.000000e+000 2.215270e+001 3.038440e-002
         vertex 2.000000e+001 2.215270e+001 3.038440e-002
         vertex 2.000000e+001 2.181596e+001 1.206147e-001
      endloop
   endfacet
   facet normal 0.000000e+000 -2.868663e-001 -9.579706e-001
      outer loop
         vertex 0.000000e+000 2.215270e+001 3.038440e-002
         vertex 2.000000e+001 2.181596e+001 1.206147e-001
         vertex 0.000000e+000 2.181596e+001 1.206147e-001
      endloop
   endfacet
   facet normal 0.000000e+000 -3.960194e-001 -9.182422e-001
      outer loop
         vertex 0.000000e+000 2.181596e+001 1.206147e-001
         vertex 2.000000e+001 2.181596e+001 1.206147e-001
         vertex 2.000000e+001 2.150000e+001 2.679490e-001
      endloop
   endfacet
   facet normal 0.000000e+000 -4.488580e-001 -8.936031e-001
      outer loop
         vertex 0.000000e+000 2.181596e+001 1.206147e-001
         vertex 2.000000e+001 2.150000e+001 2.679490e-001
         vertex 0.000000e+000 2.150000e+001 2.679490e-001
      endloop
   endfacet
   facet normal 0.000000e+000 -5.494540e-001 -8.355240e-001
      outer loop
         vertex 0.000000e+000 2.150000e+001 2.679490e-001
         vertex 2.000000e+001 2.150000e+001 2.679490e-001
         vertex 2.000000e+001 2.121443e+001 4.679104e-001
      endloop
   endfacet
   facet normal 0.000000e+000 -5.972114e-001 -8.020838e-001
      outer loop
         vertex 0.000000e+000 2.150000e+001 2.679490e-001
         vertex 2.000000e+001 2.121443e+001 4.679104e-001
         vertex 0.000000e+000 2.121443e+001 4.679104e-001
      endloop
   endfacet
   facet normal 0.000000e+000 -6.861938e-001 -7.274188e-001
      outer loop
         vertex 0.000000e+000 2.121443e+001 4.679104e-001
         vertex 2.000000e+001 2.121443e+001 4.679104e-001
         vertex 2.000000e+001 2.096791e+001 7.144250e-001
      endloop
   endfacet
   facet normal 0.000000e+000 -7.274188e-001 -6.861938e-001
      outer loop
         vertex 0.000000e+000 2.121443e+001 4.679104e-001
         vertex 2.000000e+001 2.096791e+001 7.144250e-001
         vertex 0.000000e+000 2.096791e+001 7.144250e-001
      endloop
   endfacet
   facet normal 0.000000e+000 -8.020838e-001 -5.972114e-001
      outer loop
         vertex 0.000000e+000 2.096791e+001 7.144250e-001
         vertex 2.000000e+001 2.096791e+001 7.144250e-001
         vertex 2.000000e+001 2.076795e+001 1.000000e+000
      endloop
   endfacet
   facet normal 0.000000e+000 -8.355240e-001 -5.494540e-001
      outer loop
         vertex 0.000000e+000 2.096791e+001 7.144250e-001
         vertex 2.000000e+001 2.076795e+001 1.000000e+000
         vertex 0.000000e+000 2.076795e+001 1.000000e+000
      endloop
   endfacet
   facet normal 0.000000e+000 -8.936031e-001 -4.488580e-001
      outer loop
         vertex 0.000000e+000 2.076795e+001 1.000000e+000
         vertex 2.000000e+001 2.076795e+001 1.000000e+000
         vertex 2.000000e+001 2.062062e+001 1.315960e+000
      endloop
   endfacet
   facet normal 0.000000e+000 -9.182422e-001 -3.960194e-001
      outer loop
         vertex 0.000000e+000 2.076795e+001 1.000000e+000
         vertex 2.000000e+001 2.062062e+001 1.315960e+000
         vertex 0.000000e+000 2.062062e+001 1.315960e+000
      endloop
   endfacet
   facet normal 0.000000e+000 -9.579706e-001 -2.868663e-001
      outer loop
         vertex 0.000000e+000 2.062062e+001 1.315960e+000
         vertex 2.000000e+001 2.062062e+001 1.315960e+000
         vertex 2.000000e+001 2.053038e+001 1.652704e+000
      endloop
   endfacet
   facet normal 0.000000e+000 -9.730600e-001 -2.305519e-001
      outer loop
         vertex 0.000000e+000 2.062062e+001 1.315960e+000
         vertex 2.000000e+001 2.053038e+001 1.652704e+000
         vertex 0.000000e+000 2.053038e+001 1.652704e+000
      endloop
   endfacet
   facet normal 0.000000e+000 -9.932307e-001 -1.161583e-001
      outer loop
         vertex 0.000000e+000 2.053038e+001 1.652704e+000
         vertex 2.000000e+001 2.053038e+001 1.652704e+000
         vertex 2.000000e+001 2.050000e+001 1.999999e+000
      endloop
   endfacet
   facet normal 0.000000e+000 -9.983119e-001 -5.807913e-002
      outer loop
         vertex 0.000000e+000 2.053038e+001 1.652704e+000
         vertex 2.000000e+001 2.050000e+001 1.999999e+000
         vertex 0.000000e+000 2.050000e+001 1.999999e+000
      endloop
   endfacet
   facet normal 0.000000e+000 -1.000000e+000 0.000000e+000
      outer loop
         vertex 1.067639e+001 3.549999e+000 9.000000e+000
         vertex 2.000000e+001 3.549999e+000 9.000000e+000
         vertex 1.067639e+001 3.549999e+000 1.000000e+001
      endloop
   endfacet
   facet normal 0.000000e+000 -1.000000e+000 0.000000e+000
      outer loop
         vertex 1.067639e+001 3.549999e+000 1.000000e+001
         vertex 2.000000e+001 3.549999e+000 9.000000e+000
         vertex 2.000000e+001 3.549999e+000 1.000000e+001
      endloop
   endfacet
   facet normal 3.469447e-016 1.000000e+000 0.000000e+000
      outer loop
         vertex 9.323612e+000 6.450000e+000 9.000000e+000
         vertex 0.000000e+000 6.450000e+000 9.000000e+000
         vertex 9.323612e+000 6.450000e+000 1.000000e+001
      endloop
   endfacet
   facet normal 3.469447e-016 1.000000e+000 0.000000e+000
      outer loop
         vertex 9.323612e+000 6.450000e+000 1.000000e+001
         vertex 0.000000e+000 6.450000e+000 9.000000e+000
         vertex 0.000000e+000 6.450000e+000 1.000000e+001
      endloop
   endfacet
   facet normal 0.000000e+000 0.000000e+000 -1.000000e+000
      outer loop
         vertex 1.150351e+001 4.452768e+000 9.000000e+000
         vertex 2.000000e+001 3.549999e+000 9.000000e+000
         vertex 1.138564e+001 4.200000e+000 9.000000e+000
      endloop
   endfacet
   facet normal 0.000000e+000 0.000000e+000 -1.000000e+000
      outer loop
         vertex 1.138564e+001 4.200000e+000 9.000000e+000
         vertex 2.000000e+001 3.549999e+000 9.000000e+000
         vertex 1.122567e+001 3.971539e+000 9.000000e+000
      endloop
   endfacet
   facet normal 0.000000e+000 0.000000e+000 -1.000000e+000
      outer loop
         vertex 1.138564e+001 5.799999e+000 9.000000e+000
         vertex 1.122567e+001 6.028460e+000 9.000000e+000
         vertex 2.000000e+001 6.450000e+000 9.000000e+000
      endloop
   endfacet
   facet normal 0.000000e+000 0.000000e+000 -1.000000e+000
      outer loop
         vertex 1.067639e+001 3.549999e+000 9.000000e+000
         vertex 1.080000e+001 3.614360e+000 9.000000e+000
         vertex 2.000000e+001 3.549999e+000 9.000000e+000
      endloop
   endfacet
   facet normal 0.000000e+000 0.000000e+000 -1.000000e+000
      outer loop
         vertex 2.000000e+001 3.549999e+000 9.000000e+000
         vertex 1.080000e+001 3.614360e+000 9.000000e+000
         vertex 1.102846e+001 3.774329e+000 9.000000e+000
      endloop
   endfacet
   facet normal 0.000000e+000 0.000000e+000 -1.000000e+000
      outer loop
         vertex 2.000000e+001 3.549999e+000 9.000000e+000
         vertex 1.102846e+001 3.774329e+000 9.000000e+000
         vertex 1.122567e+001 3.971539e+000 9.000000e+000
      endloop
   endfacet
   facet normal 0.000000e+000 0.000000e+000 -1.000000e+000
      outer loop
         vertex 1.138564e+001 5.799999e+000 9.000000e+000
         vertex 2.000000e+001 6.450000e+000 9.000000e+000
         vertex 1.150351e+001 5.547232e+000 9.000000e+000
      endloop
   endfacet
   facet normal 0.000000e+000 0.000000e+000 -1.000000e+000
      outer loop
         vertex 1.150351e+001 4.452768e+000 9.000000e+000
         vertex 1.157569e+001 4.722163e+000 9.000000e+000
         vertex 2.000000e+001 3.549999e+000 9.000000e+000
      endloop
   endfacet
   facet normal 0.000000e+000 0.000000e+000 -1.000000e+000
      outer loop
         vertex 2.000000e+001 3.549999e+000 9.000000e+000
         vertex 1.157569e+001 4.722163e+000 9.000000e+000
         vertex 1.160000e+001 5.000000e+000 9.000000e+000
      endloop
   endfacet
   facet normal 0.000000e+000 0.000000e+000 -1.000000e+000
      outer loop
         vertex 2.000000e+001 3.549999e+000 9.000000e+000
         vertex 1.160000e+001 5.000000e+000 9.000000e+000
         vertex 2.000000e+001 6.450000e+000 9.000000e+000
      endloop
   endfacet
   facet normal 0.000000e+000 0.000000e+000 -1.000000e+000
      outer loop
         vertex 2.000000e+001 6.450000e+000 9.000000e+000
         vertex 1.160000e+001 5.000000e+000 9.000000e+000
         vertex 1.157569e+001 5.277837e+000 9.000000e+000
      endloop
   endfacet
   facet normal 0.000000e+000 0.000000e+000 -1.000000e+000
      outer loop
         vertex 2.000000e+001 6.450000e+000 9.000000e+000
         vertex 1.157569e+001 5.277837e+000 9.000000e+000
         vertex 1.150351e+001 5.547232e+000 9.000000e+000
      endloop
   endfacet
   facet normal 0.000000e+000 0.000000e+000 -1.000000e+000
      outer loop
         vertex 1.122567e+001 6.028460e+000 9.000000e+000
         vertex 1.102846e+001 6.225671e+000 9.000000e+000
         vertex 2.000000e+001 6.450000e+000 9.000000e+000
      endloop
   endfacet
   facet normal 0.000000e+000 0.000000e+000 -1.000000e+000
      outer loop
         vertex 2.000000e+001 6.450000e+000 9.000000e+000
         vertex 1.102846e+001 6.225671e+000 9.000000e+000
         vertex 1.080000e+001 6.385641e+000 9.000000e+000
      endloop
   endfacet
   facet normal 0.000000e+000 0.000000e+000 -1.000000e+000
      outer loop
         vertex 2.000000e+001 6.450000e+000 9.000000e+000
         vertex 1.080000e+001 6.385641e+000 9.000000e+000
         vertex 1.067639e+001 6.450000e+000 9.000000e+000
      endloop
   endfacet
   facet normal -4.488733e-001 -8.935954e-001 0.000000e+000
      outer loop
         vertex 1.067639e+001 6.450000e+000 1.000000e+001
         vertex 1.067639e+001 6.450000e+000 9.000000e+000
         vertex 1.080000e+001 6.385641e+000 9.000000e+000
      endloop
   endfacet
   facet normal 4.488733e-001 8.935954e-001 0.000000e+000
      outer loop
         vertex 9.323612e+000 3.549999e+000 1.000000e+001
         vertex 9.323612e+000 3.549999e+000 9.000000e+000
         vertex 9.200000e+000 3.614360e+000 9.000000e+000
      endloop
   endfacet
   facet normal -4.226597e-001 9.062884e-001 0.000000e+000
      outer loop
         vertex 1.080000e+001 3.614360e+000 1.600000e+001
         vertex 1.067639e+001 3.549999e+000 1.000000e+001
         vertex 1.054723e+001 3.496491e+000 1.600000e+001
      endloop
   endfacet
   facet normal -3.692409e-001 9.293337e-001 0.000000e+000
      outer loop
         vertex 1.054723e+001 3.496491e+000 1.600000e+001
         vertex 1.067639e+001 3.549999e+000 1.000000e+001
         vertex 1.054723e+001 3.496491e+000 1.000000e+001
      endloop
   endfacet
   facet normal -2.868663e-001 9.579706e-001 0.000000e+000
      outer loop
         vertex 1.054723e+001 3.496491e+000 1.600000e+001
         vertex 1.054723e+001 3.496491e+000 1.000000e+001
         vertex 1.027784e+001 3.424307e+000 1.600000e+001
      endloop
   endfacet
   facet normal -2.305519e-001 9.730600e-001 0.000000e+000
      outer loop
         vertex 1.027784e+001 3.424307e+000 1.600000e+001
         vertex 1.054723e+001 3.496491e+000 1.000000e+001
         vertex 1.027784e+001 3.424307e+000 1.000000e+001
      endloop
   endfacet
   facet normal -1.161583e-001 9.932307e-001 0.000000e+000
      outer loop
         vertex 1.027784e+001 3.424307e+000 1.600000e+001
         vertex 1.027784e+001 3.424307e+000 1.000000e+001
         vertex 1.000000e+001 3.400000e+000 1.600000e+001
      endloop
   endfacet
   facet normal -5.807913e-002 9.983119e-001 0.000000e+000
      outer loop
         vertex 1.000000e+001 3.400000e+000 1.600000e+001
         vertex 1.027784e+001 3.424307e+000 1.000000e+001
         vertex 1.000000e+001 3.400000e+000 1.000000e+001
      endloop
   endfacet
   facet normal 5.807913e-002 9.983119e-001 0.000000e+000
      outer loop
         vertex 1.000000e+001 3.400000e+000 1.600000e+001
         vertex 1.000000e+001 3.400000e+000 1.000000e+001
         vertex 9.722163e+000 3.424307e+000 1.600000e+001
      endloop
   endfacet
   facet normal 1.161583e-001 9.932307e-001 0.000000e+000
      outer loop
         vertex 9.722163e+000 3.424307e+000 1.600000e+001
         vertex 1.000000e+001 3.400000e+000 1.000000e+001
         vertex 9.722163e+000 3.424307e+000 1.000000e+001
      endloop
   endfacet
   facet normal 2.305519e-001 9.730600e-001 0.000000e+000
      outer loop
         vertex 9.722163e+000 3.424307e+000 1.600000e+001
         vertex 9.722163e+000 3.424307e+000 1.000000e+001
         vertex 9.452767e+000 3.496491e+000 1.600000e+001
      endloop
   endfacet
   facet normal 2.868663e-001 9.579706e-001 0.000000e+000
      outer loop
         vertex 9.452767e+000 3.496491e+000 1.600000e+001
         vertex 9.722163e+000 3.424307e+000 1.000000e+001
         vertex 9.452767e+000 3.496491e+000 1.000000e+001
      endloop
   endfacet
   facet normal 3.960194e-001 9.182422e-001 0.000000e+000
      outer loop
         vertex 9.452767e+000 3.496491e+000 1.600000e+001
         vertex 9.452767e+000 3.496491e+000 1.000000e+001
         vertex 9.200000e+000 3.614360e+000 1.600000e+001
      endloop
   endfacet
   facet normal 4.226597e-001 -9.062884e-001 0.000000e+000
      outer loop
         vertex 9.200000e+000 6.385641e+000 1.600000e+001
         vertex 9.323612e+000 6.450000e+000 1.000000e+001
         vertex 9.452767e+000 6.503508e+000 1.600000e+001
      endloop
   endfacet
   facet normal 3.692409e-001 -9.293337e-001 0.000000e+000
      outer loop
         vertex 9.452767e+000 6.503508e+000 1.600000e+001
         vertex 9.323612e+000 6.450000e+000 1.000000e+001
         vertex 9.452767e+000 6.503508e+000 1.000000e+001
      endloop
   endfacet
   facet normal 2.868663e-001 -9.579706e-001 0.000000e+000
      outer loop
         vertex 9.452767e+000 6.503508e+000 1.600000e+001
         vertex 9.452767e+000 6.503508e+000 1.000000e+001
         vertex 9.722163e+000 6.575693e+000 1.600000e+001
      endloop
   endfacet
   facet normal 2.305519e-001 -9.730600e-001 0.000000e+000
      outer loop
         vertex 9.722163e+000 6.575693e+000 1.600000e+001
         vertex 9.452767e+000 6.503508e+000 1.000000e+001
         vertex 9.722163e+000 6.575693e+000 1.000000e+001
      endloop
   endfacet
   facet normal 1.161583e-001 -9.932307e-001 0.000000e+000
      outer loop
         vertex 9.722163e+000 6.575693e+000 1.600000e+001
         vertex 9.722163e+000 6.575693e+000 1.000000e+001
         vertex 1.000000e+001 6.600000e+000 1.600000e+001
      endloop
   endfacet
   facet normal 5.807913e-002 -9.983119e-001 0.000000e+000
      outer loop
         vertex 1.000000e+001 6.600000e+000 1.600000e+001
         vertex 9.722163e+000 6.575693e+000 1.000000e+001
         vertex 1.000000e+001 6.600000e+000 1.000000e+001
      endloop
   endfacet
   facet normal -5.807913e-002 -9.983119e-001 0.000000e+000
      outer loop
         vertex 1.000000e+001 6.600000e+000 1.600000e+001
         vertex 1.000000e+001 6.600000e+000 1.000000e+001
         vertex 1.027784e+001 6.575693e+000 1.600000e+001
      endloop
   endfacet
   facet normal -1.161583e-001 -9.932307e-001 0.000000e+000
      outer loop
         vertex 1.027784e+001 6.575693e+000 1.600000e+001
         vertex 1.000000e+001 6.600000e+000 1.000000e+001
         vertex 1.027784e+001 6.575693e+000 1.000000e+001
      endloop
   endfacet
   facet normal -2.305519e-001 -9.730600e-001 0.000000e+000
      outer loop
         vertex 1.027784e+001 6.575693e+000 1.600000e+001
         vertex 1.027784e+001 6.575693e+000 1.000000e+001
         vertex 1.054723e+001 6.503508e+000 1.600000e+001
      endloop
   endfacet
   facet normal -2.868663e-001 -9.579706e-001 0.000000e+000
      outer loop
         vertex 1.054723e+001 6.503508e+000 1.600000e+001
         vertex 1.027784e+001 6.575693e+000 1.000000e+001
         vertex 1.054723e+001 6.503508e+000 1.000000e+001
      endloop
   endfacet
   facet normal -3.960194e-001 -9.182422e-001 0.000000e+000
      outer loop
         vertex 1.054723e+001 6.503508e+000 1.600000e+001
         vertex 1.054723e+001 6.503508e+000 1.000000e+001
         vertex 1.080000e+001 6.385641e+000 1.600000e+001
      endloop
   endfacet
   facet normal 4.488733e-001 -8.935954e-001 0.000000e+000
      outer loop
         vertex 9.323612e+000 6.450000e+000 9.000000e+000
         vertex 9.323612e+000 6.450000e+000 1.000000e+001
         vertex 9.200000e+000 6.385641e+000 9.000000e+000
      endloop
   endfacet
   facet normal 4.746476e-001 -8.801759e-001 0.000000e+000
      outer loop
         vertex 9.200000e+000 6.385641e+000 9.000000e+000
         vertex 9.323612e+000 6.450000e+000 1.000000e+001
         vertex 9.200000e+000 6.385641e+000 1.600000e+001
      endloop
   endfacet
   facet normal 5.494540e-001 -8.355240e-001 0.000000e+000
      outer loop
         vertex 9.200000e+000 6.385641e+000 9.000000e+000
         vertex 9.200000e+000 6.385641e+000 1.600000e+001
         vertex 8.971539e+000 6.225671e+000 9.000000e+000
      endloop
   endfacet
   facet normal 5.972114e-001 -8.020838e-001 0.000000e+000
      outer loop
         vertex 8.971539e+000 6.225671e+000 9.000000e+000
         vertex 9.200000e+000 6.385641e+000 1.600000e+001
         vertex 8.971539e+000 6.225671e+000 1.600000e+001
      endloop
   endfacet
   facet normal 6.861938e-001 -7.274188e-001 0.000000e+000
      outer loop
         vertex 8.971539e+000 6.225671e+000 9.000000e+000
         vertex 8.971539e+000 6.225671e+000 1.600000e+001
         vertex 8.774329e+000 6.028460e+000 9.000000e+000
      endloop
   endfacet
   facet normal 7.274188e-001 -6.861938e-001 0.000000e+000
      outer loop
         vertex 8.774329e+000 6.028460e+000 9.000000e+000
         vertex 8.971539e+000 6.225671e+000 1.600000e+001
         vertex 8.774329e+000 6.028460e+000 1.600000e+001
      endloop
   endfacet
   facet normal 8.020838e-001 -5.972114e-001 0.000000e+000
      outer loop
         vertex 8.774329e+000 6.028460e+000 9.000000e+000
         vertex 8.774329e+000 6.028460e+000 1.600000e+001
         vertex 8.614360e+000 5.799999e+000 9.000000e+000
      endloop
   endfacet
   facet normal 8.355240e-001 -5.494540e-001 0.000000e+000
      outer loop
         vertex 8.614360e+000 5.799999e+000 9.000000e+000
         vertex 8.774329e+000 6.028460e+000 1.600000e+001
         vertex 8.614360e+000 5.799999e+000 1.600000e+001
      endloop
   endfacet
   facet normal 8.936031e-001 -4.488580e-001 0.000000e+000
      outer loop
         vertex 8.614360e+000 5.799999e+000 9.000000e+000
         vertex 8.614360e+000 5.799999e+000 1.600000e+001
         vertex 8.496491e+000 5.547232e+000 9.000000e+000
      endloop
   endfacet
   facet normal 9.182422e-001 -3.960194e-001 0.000000e+000
      outer loop
         vertex 8.496491e+000 5.547232e+000 9.000000e+000
         vertex 8.614360e+000 5.799999e+000 1.600000e+001
         vertex 8.496491e+000 5.547232e+000 1.600000e+001
      endloop
   endfacet
   facet normal 9.579706e-001 -2.868663e-001 0.000000e+000
      outer loop
         vertex 8.496491e+000 5.547232e+000 9.000000e+000
         vertex 8.496491e+000 5.547232e+000 1.600000e+001
         vertex 8.424307e+000 5.277837e+000 9.000000e+000
      endloop
   endfacet
   facet normal 9.730600e-001 -2.305519e-001 0.000000e+000
      outer loop
         vertex 8.424307e+000 5.277837e+000 9.000000e+000
         vertex 8.496491e+000 5.547232e+000 1.600000e+001
         vertex 8.424307e+000 5.277837e+000 1.600000e+001
      endloop
   endfacet
   facet normal 9.932307e-001 -1.161583e-001 0.000000e+000
      outer loop
         vertex 8.424307e+000 5.277837e+000 9.000000e+000
         vertex 8.424307e+000 5.277837e+000 1.600000e+001
         vertex 8.400000e+000 5.000000e+000 9.000000e+000
      endloop
   endfacet
   facet normal 9.983119e-001 -5.807913e-002 0.000000e+000
      outer loop
         vertex 8.400000e+000 5.000000e+000 9.000000e+000
         vertex 8.424307e+000 5.277837e+000 1.600000e+001
         vertex 8.400000e+000 5.000000e+000 1.600000e+001
      endloop
   endfacet
   facet normal 9.983119e-001 5.807913e-002 0.000000e+000
      outer loop
         vertex 8.400000e+000 5.000000e+000 9.000000e+000
         vertex 8.400000e+000 5.000000e+000 1.600000e+001
         vertex 8.424307e+000 4.722163e+000 9.000000e+000
      endloop
   endfacet
   facet normal 9.932307e-001 1.161583e-001 0.000000e+000
      outer loop
         vertex 8.424307e+000 4.722163e+000 9.000000e+000
         vertex 8.400000e+000 5.000000e+000 1.600000e+001
         vertex 8.424307e+000 4.722163e+000 1.600000e+001
      endloop
   endfacet
   facet normal 9.730600e-001 2.305519e-001 0.000000e+000
      outer loop
         vertex 8.424307e+000 4.722163e+000 9.000000e+000
         vertex 8.424307e+000 4.722163e+000 1.600000e+001
         vertex 8.496491e+000 4.452768e+000 9.000000e+000
      endloop
   endfacet
   facet normal 9.579706e-001 2.868663e-001 0.000000e+000
      outer loop
         vertex 8.496491e+000 4.452768e+000 9.000000e+000
         vertex 8.424307e+000 4.722163e+000 1.600000e+001
         vertex 8.496491e+000 4.452768e+000 1.600000e+001
      endloop
   endfacet
   facet normal 9.182422e-001 3.960194e-001 0.000000e+000
      outer loop
         vertex 8.496491e+000 4.452768e+000 9.000000e+000
         vertex 8.496491e+000 4.452768e+000 1.600000e+001
         vertex 8.614360e+000 4.200000e+000 9.000000e+000
      endloop
   endfacet
   facet normal 8.936031e-001 4.488580e-001 0.000000e+000
      outer loop
         vertex 8.614360e+000 4.200000e+000 9.000000e+000
         vertex 8.496491e+000 4.452768e+000 1.600000e+001
         vertex 8.614360e+000 4.200000e+000 1.600000e+001
      endloop
   endfacet
   facet normal 8.355240e-001 5.494540e-001 0.000000e+000
      outer loop
         vertex 8.614360e+000 4.200000e+000 9.000000e+000
         vertex 8.614360e+000 4.200000e+000 1.600000e+001
         vertex 8.774329e+000 3.971539e+000 9.000000e+000
      endloop
   endfacet
   facet normal 8.020838e-001 5.972114e-001 0.000000e+000
      outer loop
         vertex 8.774329e+000 3.971539e+000 9.000000e+000
         vertex 8.614360e+000 4.200000e+000 1.600000e+001
         vertex 8.774329e+000 3.971539e+000 1.600000e+001
      endloop
   endfacet
   facet normal 7.274188e-001 6.861938e-001 0.000000e+000
      outer loop
         vertex 8.774329e+000 3.971539e+000 9.000000e+000
         vertex 8.774329e+000 3.971539e+000 1.600000e+001
         vertex 8.971539e+000 3.774329e+000 9.000000e+000
      endloop
   endfacet
   facet normal 6.861938e-001 7.274188e-001 0.000000e+000
      outer loop
         vertex 8.971539e+000 3.774329e+000 9.000000e+000
         vertex 8.774329e+000 3.971539e+000 1.600000e+001
         vertex 8.971539e+000 3.774329e+000 1.600000e+001
      endloop
   endfacet
   facet normal 5.972114e-001 8.020838e-001 0.000000e+000
      outer loop
         vertex 8.971539e+000 3.774329e+000 9.000000e+000
         vertex 8.971539e+000 3.774329e+000 1.600000e+001
         vertex 9.200000e+000 3.614360e+000 9.000000e+000
      endloop
   endfacet
   facet normal 5.494540e-001 8.355240e-001 0.000000e+000
      outer loop
         vertex 9.200000e+000 3.614360e+000 9.000000e+000
         vertex 8.971539e+000 3.774329e+000 1.600000e+001
         vertex 9.200000e+000 3.614360e+000 1.600000e+001
      endloop
   endfacet
   facet normal 4.746476e-001 8.801759e-001 0.000000e+000
      outer loop
         vertex 9.200000e+000 3.614360e+000 9.000000e+000
         vertex 9.200000e+000 3.614360e+000 1.600000e+001
         vertex 9.323612e+000 3.549999e+000 1.000000e+001
      endloop
   endfacet
   facet normal 4.226597e-001 9.062884e-001 0.000000e+000
      outer loop
         vertex 9.323612e+000 3.549999e+000 1.000000e+001
         vertex 9.200000e+000 3.614360e+000 1.600000e+001
         vertex 9.452767e+000 3.496491e+000 1.000000e+001
      endloop
   endfacet
   facet normal -4.488733e-001 8.935954e-001 0.000000e+000
      outer loop
         vertex 1.067639e+001 3.549999e+000 9.000000e+000
         vertex 1.067639e+001 3.549999e+000 1.000000e+001
         vertex 1.080000e+001 3.614360e+000 9.000000e+000
      endloop
   endfacet
   facet normal -4.746476e-001 8.801759e-001 0.000000e+000
      outer loop
         vertex 1.080000e+001 3.614360e+000 9.000000e+000
         vertex 1.067639e+001 3.549999e+000 1.000000e+001
         vertex 1.080000e+001 3.614360e+000 1.600000e+001
      endloop
   endfacet
   facet normal -5.494540e-001 8.355240e-001 0.000000e+000
      outer loop
         vertex 1.080000e+001 3.614360e+000 9.000000e+000
         vertex 1.080000e+001 3.614360e+000 1.600000e+001
         vertex 1.102846e+001 3.774329e+000 9.000000e+000
      endloop
   endfacet
   facet normal -5.972114e-001 8.020838e-001 0.000000e+000
      outer loop
         vertex 1.102846e+001 3.774329e+000 9.000000e+000
         vertex 1.080000e+001 3.614360e+000 1.600000e+001
         vertex 1.102846e+001 3.774329e+000 1.600000e+001
      endloop
   endfacet
   facet normal -6.861938e-001 7.274188e-001 0.000000e+000
      outer loop
         vertex 1.102846e+001 3.774329e+000 9.000000e+000
         vertex 1.102846e+001 3.774329e+000 1.600000e+001
         vertex 1.122567e+001 3.971539e+000 9.000000e+000
      endloop
   endfacet
   facet normal -7.274188e-001 6.861938e-001 0.000000e+000
      outer loop
         vertex 1.122567e+001 3.971539e+000 9.000000e+000
         vertex 1.102846e+001 3.774329e+000 1.600000e+001
         vertex 1.122567e+001 3.971539e+000 1.600000e+001
      endloop
   endfacet
   facet normal -8.020838e-001 5.972114e-001 0.000000e+000
      outer loop
         vertex 1.122567e+001 3.971539e+000 9.000000e+000
         vertex 1.122567e+001 3.971539e+000 1.600000e+001
         vertex 1.138564e+001 4.200000e+000 9.000000e+000
      endloop
   endfacet
   facet normal -8.355240e-001 5.494540e-001 0.000000e+000
      outer loop
         vertex 1.138564e+001 4.200000e+000 9.000000e+000
         vertex 1.122567e+001 3.971539e+000 1.600000e+001
         vertex 1.138564e+001 4.200000e+000 1.600000e+001
      endloop
   endfacet
   facet normal -8.936031e-001 4.488580e-001 0.000000e+000
      outer loop
         vertex 1.138564e+001 4.200000e+000 9.000000e+000
         vertex 1.138564e+001 4.200000e+000 1.600000e+001
         vertex 1.150351e+001 4.452768e+000 9.000000e+000
      endloop
   endfacet
   facet normal -9.182422e-001 3.960194e-001 0.000000e+000
      outer loop
         vertex 1.150351e+001 4.452768e+000 9.000000e+000
         vertex 1.138564e+001 4.200000e+000 1.600000e+001
         vertex 1.150351e+001 4.452768e+000 1.600000e+001
      endloop
   endfacet
   facet normal -9.579706e-001 2.868663e-001 0.000000e+000
      outer loop
         vertex 1.150351e+001 4.452768e+000 9.000000e+000
         vertex 1.150351e+001 4.452768e+000 1.600000e+001
         vertex 1.157569e+001 4.722163e+000 9.000000e+000
      endloop
   endfacet
   facet normal -9.730600e-001 2.305519e-001 0.000000e+000
      outer loop
         vertex 1.157569e+001 4.722163e+000 9.000000e+000
         vertex 1.150351e+001 4.452768e+000 1.600000e+001
         vertex 1.157569e+001 4.722163e+000 1.600000e+001
      endloop
   endfacet
   facet normal -9.932307e-001 1.161583e-001 0.000000e+000
      outer loop
         vertex 1.157569e+001 4.722163e+000 9.000000e+000
         vertex 1.157569e+001 4.722163e+000 1.600000e+001
         vertex 1.160000e+001 5.000000e+000 9.000000e+000
      endloop
   endfacet
   facet normal -9.983119e-001 5.807913e-002 0.000000e+000
      outer loop
         vertex 1.160000e+001 5.000000e+000 9.000000e+000
         vertex 1.157569e+001 4.722163e+000 1.600000e+001
         vertex 1.160000e+001 5.000000e+000 1.600000e+001
      endloop
   endfacet
   facet normal -9.983119e-001 -5.807913e-002 0.000000e+000
      outer loop
         vertex 1.160000e+001 5.000000e+000 9.000000e+000
         vertex 1.160000e+001 5.000000e+000 1.600000e+001
         vertex 1.157569e+001 5.277837e+000 9.000000e+000
      endloop
   endfacet
   facet normal -9.932307e-001 -1.161583e-001 0.000000e+000
      outer loop
         vertex 1.157569e+001 5.277837e+000 9.000000e+000
         vertex 1.160000e+001 5.000000e+000 1.600000e+001
         vertex 1.157569e+001 5.277837e+000 1.600000e+001
      endloop
   endfacet
   facet normal -9.730600e-001 -2.305519e-001 0.000000e+000
      outer loop
         vertex 1.157569e+001 5.277837e+000 9.000000e+000
         vertex 1.157569e+001 5.277837e+000 1.600000e+001
         vertex 1.150351e+001 5.547232e+000 9.000000e+000
      endloop
   endfacet
   facet normal -9.579706e-001 -2.868663e-001 0.000000e+000
      outer loop
         vertex 1.150351e+001 5.547232e+000 9.000000e+000
         vertex 1.157569e+001 5.277837e+000 1.600000e+001
         vertex 1.150351e+001 5.547232e+000 1.600000e+001
      endloop
   endfacet
   facet normal -9.182422e-001 -3.960194e-001 0.000000e+000
      outer loop
         vertex 1.150351e+001 5.547232e+000 9.000000e+000
         vertex 1.150351e+001 5.547232e+000 1.600000e+001
         vertex 1.138564e+001 5.799999e+000 9.000000e+000
      endloop
   endfacet
   facet normal -8.936031e-001 -4.488580e-001 0.000000e+000
      outer loop
         vertex 1.138564e+001 5.799999e+000 9.000000e+000
         vertex 1.150351e+001 5.547232e+000 1.600000e+001
         vertex 1.138564e+001 5.799999e+000 1.600000e+001
      endloop
   endfacet
   facet normal -8.355240e-001 -5.494540e-001 0.000000e+000
      outer loop
         vertex 1.138564e+001 5.799999e+000 9.000000e+000
         vertex 1.138564e+001 5.799999e+000 1.600000e+001
         vertex 1.122567e+001 6.028460e+000 9.000000e+000
      endloop
   endfacet
   facet normal -8.020838e-001 -5.972114e-001 0.000000e+000
      outer loop
         vertex 1.122567e+001 6.028460e+000 9.000000e+000
         vertex 1.138564e+001 5.799999e+000 1.600000e+001
         vertex 1.122567e+001 6.028460e+000 1.600000e+001
      endloop
   endfacet
   facet normal -7.274188e-001 -6.861938e-001 0.000000e+000
      outer loop
         vertex 1.122567e+001 6.028460e+000 9.000000e+000
         vertex 1.122567e+001 6.028460e+000 1.600000e+001
         vertex 1.102846e+001 6.225671e+000 9.000000e+000
      endloop
   endfacet
   facet normal -6.861938e-001 -7.274188e-001 0.000000e+000
      outer loop
         vertex 1.102846e+001 6.225671e+000 9.000000e+000
         vertex 1.122567e+001 6.028460e+000 1.600000e+001
         vertex 1.102846e+001 6.225671e+000 1.600000e+001
      endloop
   endfacet
   facet normal -5.972114e-001 -8.020838e-001 0.000000e+000
      outer loop
         vertex 1.102846e+001 6.225671e+000 9.000000e+000
         vertex 1.102846e+001 6.225671e+000 1.600000e+001
         vertex 1.080000e+001 6.385641e+000 9.000000e+000
      endloop
   endfacet
   facet normal -5.494540e-001 -8.355240e-001 0.000000e+000
      outer loop
         vertex 1.080000e+001 6.385641e+000 9.000000e+000
         vertex 1.102846e+001 6.225671e+000 1.600000e+001
         vertex 1.080000e+001 6.385641e+000 1.600000e+001
      endloop
   endfacet
   facet normal -4.746476e-001 -8.801759e-001 0.000000e+000
      outer loop
         vertex 1.080000e+001 6.385641e+000 9.000000e+000
         vertex 1.080000e+001 6.385641e+000 1.600000e+001
         vertex 1.067639e+001 6.450000e+000 1.000000e+001
      endloop
   endfacet
   facet normal -4.226597e-001 -9.062884e-001 0.000000e+000
      outer loop
         vertex 1.067639e+001 6.450000e+000 1.000000e+001
         vertex 1.080000e+001 6.385641e+000 1.600000e+001
         vertex 1.054723e+001 6.503508e+000 1.000000e+001
      endloop
   endfacet
   facet normal 0.000000e+000 -1.000000e+000 0.000000e+000
      outer loop
         vertex 0.000000e+000 2.000000e+001 6.292893e+000
         vertex 0.000000e+000 2.000000e+001 5.707107e+000
         vertex 2.000000e+001 2.000000e+001 6.292893e+000
      endloop
   endfacet
   facet normal 0.000000e+000 -1.000000e+000 0.000000e+000
      outer loop
         vertex 2.000000e+001 2.000000e+001 6.292893e+000
         vertex 0.000000e+000 2.000000e+001 5.707107e+000
         vertex 2.000000e+001 2.000000e+001 5.707107e+000
      endloop
   endfacet
   facet normal -2.443563e-017 -9.986873e-001 5.122249e-002
      outer loop
         vertex 0.000000e+000 2.000000e+001 6.292893e+000
         vertex 2.000000e+001 2.000000e+001 6.292893e+000
         vertex 2.000000e+001 2.000886e+001 6.407841e+000
      endloop
   endfacet
   facet normal -4.887126e-017 -9.947386e-001 1.024450e-001
      outer loop
         vertex 0.000000e+000 2.000000e+001 6.292893e+000
         vertex 2.000000e+001 2.000886e+001 6.407841e+000
         vertex 0.000000e+000 2.000886e+001 6.407841e+000
      endloop
   endfacet
   facet normal -9.716513e-017 -9.790376e-001 2.036796e-001
      outer loop
         vertex 0.000000e+000 2.000886e+001 6.407841e+000
         vertex 2.000000e+001 2.000886e+001 6.407841e+000
         vertex 2.000000e+001 2.003523e+001 6.520072e+000
      endloop
   endfacet
   facet normal -1.210234e-016 -9.672851e-001 2.536917e-001
      outer loop
         vertex 0.000000e+000 2.000886e+001 6.407841e+000
         vertex 2.000000e+001 2.003523e+001 6.520072e+000
         vertex 0.000000e+000 2.003523e+001 6.520072e+000
      endloop
   endfacet
   facet normal -1.675987e-016 -9.362540e-001 3.513239e-001
      outer loop
         vertex 0.000000e+000 2.003523e+001 6.520072e+000
         vertex 2.000000e+001 2.003523e+001 6.520072e+000
         vertex 2.000000e+001 2.007850e+001 6.626935e+000
      endloop
   endfacet
   facet normal -1.903158e-016 -9.169753e-001 3.989439e-001
      outer loop
         vertex 0.000000e+000 2.003523e+001 6.520072e+000
         vertex 2.000000e+001 2.007850e+001 6.626935e+000
         vertex 0.000000e+000 2.007850e+001 6.626935e+000
      endloop
   endfacet
   facet normal -2.340720e-016 -8.713474e-001 4.906667e-001
      outer loop
         vertex 0.000000e+000 2.007850e+001 6.626935e+000
         vertex 2.000000e+001 2.007850e+001 6.626935e+000
         vertex 2.000000e+001 2.013763e+001 6.725905e+000
      endloop
   endfacet
   facet normal -2.551112e-016 -8.449980e-001 5.347694e-001
      outer loop
         vertex 0.000000e+000 2.007850e+001 6.626935e+000
         vertex 2.000000e+001 2.013763e+001 6.725905e+000
         vertex 0.000000e+000 2.013763e+001 6.725905e+000
      endloop
   endfacet
   facet normal -2.950144e-016 -7.858514e-001 6.184153e-001
      outer loop
         vertex 0.000000e+000 2.013763e+001 6.725905e+000
         vertex 2.000000e+001 2.013763e+001 6.725905e+000
         vertex 2.000000e+001 2.021123e+001 6.814644e+000
      endloop
   endfacet
   facet normal -3.138785e-016 -7.530541e-001 6.579586e-001
      outer loop
         vertex 0.000000e+000 2.013763e+001 6.725905e+000
         vertex 2.000000e+001 2.021123e+001 6.814644e+000
         vertex 0.000000e+000 2.021123e+001 6.814644e+000
      endloop
   endfacet
   facet normal -3.489858e-016 -6.817864e-001 7.315513e-001
      outer loop
         vertex 0.000000e+000 2.021123e+001 6.814644e+000
         vertex 2.000000e+001 2.021123e+001 6.814644e+000
         vertex 2.000000e+001 2.029756e+001 6.891054e+000
      endloop
   endfacet
   facet normal -3.652291e-016 -6.433160e-001 7.656007e-001
      outer loop
         vertex 0.000000e+000 2.021123e+001 6.814644e+000
         vertex 2.000000e+001 2.029756e+001 6.891054e+000
         vertex 0.000000e+000 2.029756e+001 6.891054e+000
      endloop
   endfacet
   facet normal -3.947109e-016 -5.616112e-001 8.274012e-001
      outer loop
         vertex 0.000000e+000 2.029756e+001 6.891054e+000
         vertex 2.000000e+001 2.029756e+001 6.891054e+000
         vertex 2.000000e+001 2.039458e+001 6.953330e+000
      endloop
   endfacet
   facet normal -4.079496e-016 -5.183768e-001 8.551523e-001
      outer loop
         vertex 0.000000e+000 2.029756e+001 6.891054e+000
         vertex 2.000000e+001 2.039458e+001 6.953330e+000
         vertex 0.000000e+000 2.039458e+001 6.953330e+000
      endloop
   endfacet
   facet normal -4.311093e-016 -4.281656e-001 9.037003e-001
      outer loop
         vertex 0.000000e+000 2.039458e+001 6.953330e+000
         vertex 2.000000e+001 2.039458e+001 6.953330e+000
         vertex 2.000000e+001 2.050000e+001 7.000000e+000
      endloop
   endfacet
   facet normal -4.410304e-016 -3.811888e-001 9.244972e-001
      outer loop
         vertex 0.000000e+000 2.039458e+001 6.953330e+000
         vertex 2.000000e+001 2.050000e+001 7.000000e+000
         vertex 0.000000e+000 2.050000e+001 7.000000e+000
      endloop
   endfacet
   facet normal 6.664263e-018 -9.986873e-001 -5.122249e-002
      outer loop
         vertex 2.000000e+001 2.000000e+001 5.707107e+000
         vertex 0.000000e+000 2.000000e+001 5.707107e+000
         vertex 0.000000e+000 2.000886e+001 5.592159e+000
      endloop
   endfacet
   facet normal 1.332853e-017 -9.947386e-001 -1.024450e-001
      outer loop
         vertex 2.000000e+001 2.000000e+001 5.707107e+000
         vertex 0.000000e+000 2.000886e+001 5.592159e+000
         vertex 2.000000e+001 2.000886e+001 5.592159e+000
      endloop
   endfacet
   facet normal 2.649958e-017 -9.790376e-001 -2.036796e-001
      outer loop
         vertex 2.000000e+001 2.000886e+001 5.592159e+000
         vertex 0.000000e+000 2.000886e+001 5.592159e+000
         vertex 0.000000e+000 2.003523e+001 5.479928e+000
      endloop
   endfacet
   facet normal 3.300638e-017 -9.672851e-001 -2.536917e-001
      outer loop
         vertex 2.000000e+001 2.000886e+001 5.592159e+000
         vertex 0.000000e+000 2.003523e+001 5.479928e+000
         vertex 2.000000e+001 2.003523e+001 5.479928e+000
      endloop
   endfacet
   facet normal 4.570874e-017 -9.362540e-001 -3.513239e-001
      outer loop
         vertex 2.000000e+001 2.003523e+001 5.479928e+000
         vertex 0.000000e+000 2.003523e+001 5.479928e+000
         vertex 0.000000e+000 2.007850e+001 5.373064e+000
      endloop
   endfacet
   facet normal 5.190430e-017 -9.169753e-001 -3.989439e-001
      outer loop
         vertex 2.000000e+001 2.003523e+001 5.479928e+000
         vertex 0.000000e+000 2.007850e+001 5.373064e+000
         vertex 2.000000e+001 2.007850e+001 5.373064e+000
      endloop
   endfacet
   facet normal 6.383782e-017 -8.713474e-001 -4.906667e-001
      outer loop
         vertex 2.000000e+001 2.007850e+001 5.373064e+000
         vertex 0.000000e+000 2.007850e+001 5.373064e+000
         vertex 0.000000e+000 2.013763e+001 5.274094e+000
      endloop
   endfacet
   facet normal 6.957577e-017 -8.449980e-001 -5.347694e-001
      outer loop
         vertex 2.000000e+001 2.007850e+001 5.373064e+000
         vertex 0.000000e+000 2.013763e+001 5.274094e+000
         vertex 2.000000e+001 2.013763e+001 5.274094e+000
      endloop
   endfacet
   facet normal 8.045846e-017 -7.858514e-001 -6.184153e-001
      outer loop
         vertex 2.000000e+001 2.013763e+001 5.274094e+000
         vertex 0.000000e+000 2.013763e+001 5.274094e+000
         vertex 0.000000e+000 2.021123e+001 5.185356e+000
      endloop
   endfacet
   facet normal 8.560321e-017 -7.530541e-001 -6.579586e-001
      outer loop
         vertex 2.000000e+001 2.013763e+001 5.274094e+000
         vertex 0.000000e+000 2.021123e+001 5.185356e+000
         vertex 2.000000e+001 2.021123e+001 5.185356e+000
      endloop
   endfacet
   facet normal 9.517794e-017 -6.817864e-001 -7.315513e-001
      outer loop
         vertex 2.000000e+001 2.021123e+001 5.185356e+000
         vertex 0.000000e+000 2.021123e+001 5.185356e+000
         vertex 0.000000e+000 2.029756e+001 5.108945e+000
      endloop
   endfacet
   facet normal 9.960792e-017 -6.433160e-001 -7.656007e-001
      outer loop
         vertex 2.000000e+001 2.021123e+001 5.185356e+000
         vertex 0.000000e+000 2.029756e+001 5.108945e+000
         vertex 2.000000e+001 2.029756e+001 5.108945e+000
      endloop
   endfacet
   facet normal 1.076484e-016 -5.616112e-001 -8.274012e-001
      outer loop
         vertex 2.000000e+001 2.029756e+001 5.108945e+000
         vertex 0.000000e+000 2.029756e+001 5.108945e+000
         vertex 0.000000e+000 2.039458e+001 5.046670e+000
      endloop
   endfacet
   facet normal 1.112590e-016 -5.183768e-001 -8.551523e-001
      outer loop
         vertex 2.000000e+001 2.029756e+001 5.108945e+000
         vertex 0.000000e+000 2.039458e+001 5.046670e+000
         vertex 2.000000e+001 2.039458e+001 5.046670e+000
      endloop
   endfacet
   facet normal 1.175753e-016 -4.281656e-001 -9.037003e-001
      outer loop
         vertex 2.000000e+001 2.039458e+001 5.046670e+000
         vertex 0.000000e+000 2.039458e+001 5.046670e+000
         vertex 0.000000e+000 2.050000e+001 5.000000e+000
      endloop
   endfacet
   facet normal 1.202810e-016 -3.811888e-001 -9.244972e-001
      outer loop
         vertex 2.000000e+001 2.039458e+001 5.046670e+000
         vertex 0.000000e+000 2.050000e+001 5.000000e+000
         vertex 2.000000e+001 2.050000e+001 5.000000e+000
      endloop
   endfacet
endsolid