solid Gear6mm
   facet normal 0.000000e+000 0.000000e+000 -1.000000e+000
      outer loop
         vertex 2.607051e+000 7.108666e+000 1.500000e+001
         vertex 2.258407e+000 6.756790e+000 1.500000e+001
         vertex 7.499999e-001 7.892160e+000 1.500000e+001
      endloop
   endfacet
   facet normal 0.000000e+000 0.000000e+000 -1.000000e+000
      outer loop
         vertex 7.499999e-001 7.892160e+000 1.500000e+001
         vertex 2.258407e+000 6.756790e+000 1.500000e+001
         vertex 1.958464e+000 6.328427e+000 1.500000e+001
      endloop
   endfacet
   facet normal 0.000000e+000 0.000000e+000 -1.000000e+000
      outer loop
         vertex 7.499999e-001 7.892160e+000 1.500000e+001
         vertex 1.958464e+000 6.328427e+000 1.500000e+001
         vertex 0.000000e+000 6.593121e+000 1.500000e+001
      endloop
   endfacet
   facet normal 0.000000e+000 0.000000e+000 -1.000000e+000
      outer loop
         vertex 0.000000e+000 6.593121e+000 1.500000e+001
         vertex 1.958464e+000 6.328427e+000 1.500000e+001
         vertex 1.737463e+000 5.854487e+000 1.500000e+001
      endloop
   endfacet
   facet normal 0.000000e+000 0.000000e+000 -1.000000e+000
      outer loop
         vertex 0.000000e+000 6.593121e+000 1.500000e+001
         vertex 1.737463e+000 5.854487e+000 1.500000e+001
         vertex 1.607051e+000 5.376615e+000 1.500000e+001
      endloop
   endfacet
   facet normal 0.000000e+000 0.000000e+000 -1.000000e+000
      outer loop
         vertex 3.556540e+000 7.656854e+000 1.500000e+001
         vertex 3.806540e+000 9.656854e+000 1.500000e+001
         vertex 4.035596e+000 7.782850e+000 1.500000e+001
      endloop
   endfacet
   facet normal 0.000000e+000 0.000000e+000 -1.000000e+000
      outer loop
         vertex 4.035596e+000 7.782850e+000 1.500000e+001
         vertex 3.806540e+000 9.656854e+000 1.500000e+001
         vertex 4.556540e+000 7.828427e+000 1.500000e+001
      endloop
   endfacet
   facet normal 0.000000e+000 0.000000e+000 -1.000000e+000
      outer loop
         vertex 4.556540e+000 7.828427e+000 1.500000e+001
         vertex 3.806540e+000 9.656854e+000 1.500000e+001
         vertex 5.077485e+000 7.782850e+000 1.500000e+001
      endloop
   endfacet
   facet normal 0.000000e+000 0.000000e+000 -1.000000e+000
      outer loop
         vertex 5.077485e+000 7.782850e+000 1.500000e+001
         vertex 3.806540e+000 9.656854e+000 1.500000e+001
         vertex 5.306540e+000 9.656854e+000 1.500000e+001
      endloop
   endfacet
   facet normal 0.000000e+000 0.000000e+000 -1.000000e+000
      outer loop
         vertex 5.077485e+000 7.782850e+000 1.500000e+001
         vertex 5.306540e+000 9.656854e+000 1.500000e+001
         vertex 5.556540e+000 7.656854e+000 1.500000e+001
      endloop
   endfacet
   facet normal 0.000000e+000 0.000000e+000 -1.000000e+000
      outer loop
         vertex 7.506030e+000 5.376615e+000 1.500000e+001
         vertex 7.375618e+000 5.854487e+000 1.500000e+001
         vertex 9.113081e+000 6.593121e+000 1.500000e+001
      endloop
   endfacet
   facet normal 0.000000e+000 0.000000e+000 -1.000000e+000
      outer loop
         vertex 9.113081e+000 6.593121e+000 1.500000e+001
         vertex 7.375618e+000 5.854487e+000 1.500000e+001
         vertex 7.154616e+000 6.328427e+000 1.500000e+001
      endloop
   endfacet
   facet normal 0.000000e+000 0.000000e+000 -1.000000e+000
      outer loop
         vertex 9.113081e+000 6.593121e+000 1.500000e+001
         vertex 7.154616e+000 6.328427e+000 1.500000e+001
         vertex 8.363081e+000 7.892160e+000 1.500000e+001
      endloop
   endfacet
   facet normal 0.000000e+000 0.000000e+000 -1.000000e+000
      outer loop
         vertex 8.363081e+000 7.892160e+000 1.500000e+001
         vertex 7.154616e+000 6.328427e+000 1.500000e+001
         vertex 6.854674e+000 6.756790e+000 1.500000e+001
      endloop
   endfacet
   facet normal 0.000000e+000 0.000000e+000 -1.000000e+000
      outer loop
         vertex 8.363081e+000 7.892160e+000 1.500000e+001
         vertex 6.854674e+000 6.756790e+000 1.500000e+001
         vertex 6.506030e+000 7.108666e+000 1.500000e+001
      endloop
   endfacet
   facet normal 0.000000e+000 0.000000e+000 -1.000000e+000
      outer loop
         vertex 6.506030e+000 2.548188e+000 1.500000e+001
         vertex 6.854674e+000 2.900064e+000 1.500000e+001
         vertex 8.363081e+000 1.764694e+000 1.500000e+001
      endloop
   endfacet
   facet normal 0.000000e+000 0.000000e+000 -1.000000e+000
      outer loop
         vertex 8.363081e+000 1.764694e+000 1.500000e+001
         vertex 6.854674e+000 2.900064e+000 1.500000e+001
         vertex 7.154616e+000 3.328427e+000 1.500000e+001
      endloop
   endfacet
   facet normal 0.000000e+000 0.000000e+000 -1.000000e+000
      outer loop
         vertex 8.363081e+000 1.764694e+000 1.500000e+001
         vertex 7.154616e+000 3.328427e+000 1.500000e+001
         vertex 9.113081e+000 3.063733e+000 1.500000e+001
      endloop
   endfacet
   facet normal 0.000000e+000 0.000000e+000 -1.000000e+000
      outer loop
         vertex 9.113081e+000 3.063733e+000 1.500000e+001
         vertex 7.154616e+000 3.328427e+000 1.500000e+001
         vertex 7.375618e+000 3.802366e+000 1.500000e+001
      endloop
   endfacet
   facet normal 0.000000e+000 0.000000e+000 -1.000000e+000
      outer loop
         vertex 9.113081e+000 3.063733e+000 1.500000e+001
         vertex 7.375618e+000 3.802366e+000 1.500000e+001
         vertex 7.506030e+000 4.280239e+000 1.500000e+001
      endloop
   endfacet
   facet normal 0.000000e+000 0.000000e+000 -1.000000e+000
      outer loop
         vertex 5.556540e+000 2.000000e+000 1.500000e+001
         vertex 5.306540e+000 0.000000e+000 1.500000e+001
         vertex 5.077485e+000 1.874004e+000 1.500000e+001
      endloop
   endfacet
   facet normal 0.000000e+000 0.000000e+000 -1.000000e+000
      outer loop
         vertex 5.077485e+000 1.874004e+000 1.500000e+001
         vertex 5.306540e+000 0.000000e+000 1.500000e+001
         vertex 4.556540e+000 1.828427e+000 1.500000e+001
      endloop
   endfacet
   facet normal 0.000000e+000 0.000000e+000 -1.000000e+000
      outer loop
         vertex 4.556540e+000 1.828427e+000 1.500000e+001
         vertex 5.306540e+000 0.000000e+000 1.500000e+001
         vertex 4.035596e+000 1.874004e+000 1.500000e+001
      endloop
   endfacet
   facet normal 0.000000e+000 0.000000e+000 -1.000000e+000
      outer loop
         vertex 4.035596e+000 1.874004e+000 1.500000e+001
         vertex 5.306540e+000 0.000000e+000 1.500000e+001
         vertex 3.806540e+000 0.000000e+000 1.500000e+001
      endloop
   endfacet
   facet normal 0.000000e+000 0.000000e+000 -1.000000e+000
      outer loop
         vertex 4.035596e+000 1.874004e+000 1.500000e+001
         vertex 3.806540e+000 0.000000e+000 1.500000e+001
         vertex 3.556540e+000 2.000000e+000 1.500000e+001
      endloop
   endfacet
   facet normal 0.000000e+000 0.000000e+000 -1.000000e+000
      outer loop
         vertex 1.607051e+000 4.280239e+000 1.500000e+001
         vertex 1.737463e+000 3.802366e+000 1.500000e+001
         vertex 0.000000e+000 3.063733e+000 1.500000e+001
      endloop
   endfacet
   facet normal 0.000000e+000 0.000000e+000 -1.000000e+000
      outer loop
         vertex 0.000000e+000 3.063733e+000 1.500000e+001
         vertex 1.737463e+000 3.802366e+000 1.500000e+001
         vertex 1.958464e+000 3.328427e+000 1.500000e+001
      endloop
   endfacet
   facet normal 0.000000e+000 0.000000e+000 -1.000000e+000
      outer loop
         vertex 0.000000e+000 3.063733e+000 1.500000e+001
         vertex 1.958464e+000 3.328427e+000 1.500000e+001
         vertex 7.499999e-001 1.764694e+000 1.500000e+001
      endloop
   endfacet
   facet normal 0.000000e+000 0.000000e+000 -1.000000e+000
      outer loop
         vertex 7.499999e-001 1.764694e+000 1.500000e+001
         vertex 1.958464e+000 3.328427e+000 1.500000e+001
         vertex 2.258407e+000 2.900064e+000 1.500000e+001
      endloop
   endfacet
   facet normal 0.000000e+000 0.000000e+000 -1.000000e+000
      outer loop
         vertex 7.499999e-001 1.764694e+000 1.500000e+001
         vertex 2.258407e+000 2.900064e+000 1.500000e+001
         vertex 2.607051e+000 2.548188e+000 1.500000e+001
      endloop
   endfacet
   facet normal 3.362321e-001 9.417791e-001 0.000000e+000
      outer loop
         vertex 5.556540e+000 7.656854e+000 1.500000e+001
         vertex 5.556540e+000 7.656854e+000 2.000000e+001
         vertex 5.582601e+000 7.647505e+000 2.000000e+001
      endloop
   endfacet
   facet normal 9.837207e-001 1.797040e-001 0.000000e+000
      outer loop
         vertex 7.506030e+000 5.376615e+000 1.500000e+001
         vertex 7.506030e+000 5.376615e+000 2.000000e+001
         vertex 7.510964e+000 5.349371e+000 2.000000e+001
      endloop
   endfacet
   facet normal 6.474885e-001 -7.620751e-001 0.000000e+000
      outer loop
         vertex 6.506030e+000 2.548188e+000 1.500000e+001
         vertex 6.506030e+000 2.548188e+000 2.000000e+001
         vertex 6.484903e+000 2.530294e+000 2.000000e+001
      endloop
   endfacet
   facet normal -3.362321e-001 -9.417791e-001 0.000000e+000
      outer loop
         vertex 3.556540e+000 2.000000e+000 1.500000e+001
         vertex 3.556540e+000 2.000000e+000 2.000000e+001
         vertex 3.530480e+000 2.009349e+000 2.000000e+001
      endloop
   endfacet
   facet normal -9.837207e-001 -1.797040e-001 0.000000e+000
      outer loop
         vertex 1.607051e+000 4.280239e+000 1.500000e+001
         vertex 1.607051e+000 4.280239e+000 2.000000e+001
         vertex 1.602117e+000 4.307482e+000 2.000000e+001
      endloop
   endfacet
   facet normal -6.474885e-001 7.620751e-001 0.000000e+000
      outer loop
         vertex 2.607051e+000 7.108666e+000 1.500000e+001
         vertex 2.607051e+000 7.108666e+000 2.000000e+001
         vertex 2.628177e+000 7.126560e+000 2.000000e+001
      endloop
   endfacet
   facet normal -6.884323e-001 7.253006e-001 0.000000e+000
      outer loop
         vertex 2.258407e+000 6.756790e+000 1.500000e+001
         vertex 2.607051e+000 7.108666e+000 1.500000e+001
         vertex 2.628177e+000 7.126560e+000 0.000000e+000
      endloop
   endfacet
   facet normal -8.936031e-001 4.488580e-001 0.000000e+000
      outer loop
         vertex 1.737463e+000 5.854487e+000 0.000000e+000
         vertex 1.958464e+000 6.328427e+000 1.500000e+001
         vertex 1.958464e+000 6.328427e+000 0.000000e+000
      endloop
   endfacet
   facet normal -8.355240e-001 5.494540e-001 0.000000e+000
      outer loop
         vertex 1.958464e+000 6.328427e+000 0.000000e+000
         vertex 1.958464e+000 6.328427e+000 1.500000e+001
         vertex 2.258407e+000 6.756790e+000 1.500000e+001
      endloop
   endfacet
   facet normal -8.020838e-001 5.972114e-001 0.000000e+000
      outer loop
         vertex 1.958464e+000 6.328427e+000 0.000000e+000
         vertex 2.258407e+000 6.756790e+000 1.500000e+001
         vertex 2.258407e+000 6.756790e+000 0.000000e+000
      endloop
   endfacet
   facet normal -7.274188e-001 6.861938e-001 0.000000e+000
      outer loop
         vertex 2.258407e+000 6.756790e+000 0.000000e+000
         vertex 2.258407e+000 6.756790e+000 1.500000e+001
         vertex 2.628177e+000 7.126560e+000 0.000000e+000
      endloop
   endfacet
   facet normal -9.837207e-001 1.797040e-001 0.000000e+000
      outer loop
         vertex 1.602117e+000 5.349371e+000 2.000000e+001
         vertex 1.607051e+000 5.376615e+000 2.000000e+001
         vertex 1.607051e+000 5.376615e+000 1.500000e+001
      endloop
   endfacet
   facet normal -9.723449e-001 -2.335495e-001 0.000000e+000
      outer loop
         vertex 1.737463e+000 3.802366e+000 1.500000e+001
         vertex 1.607051e+000 4.280239e+000 1.500000e+001
         vertex 1.602117e+000 4.307482e+000 0.000000e+000
      endloop
   endfacet
   facet normal -8.355240e-001 -5.494540e-001 0.000000e+000
      outer loop
         vertex 2.258407e+000 2.900064e+000 0.000000e+000
         vertex 1.958464e+000 3.328427e+000 1.500000e+001
         vertex 1.958464e+000 3.328427e+000 0.000000e+000
      endloop
   endfacet
   facet normal -8.936031e-001 -4.488580e-001 0.000000e+000
      outer loop
         vertex 1.958464e+000 3.328427e+000 0.000000e+000
         vertex 1.958464e+000 3.328427e+000 1.500000e+001
         vertex 1.737463e+000 3.802366e+000 1.500000e+001
      endloop
   endfacet
   facet normal -9.182422e-001 -3.960194e-001 0.000000e+000
      outer loop
         vertex 1.958464e+000 3.328427e+000 0.000000e+000
         vertex 1.737463e+000 3.802366e+000 1.500000e+001
         vertex 1.737463e+000 3.802366e+000 0.000000e+000
      endloop
   endfacet
   facet normal -9.579706e-001 -2.868663e-001 0.000000e+000
      outer loop
         vertex 1.737463e+000 3.802366e+000 0.000000e+000
         vertex 1.737463e+000 3.802366e+000 1.500000e+001
         vertex 1.602117e+000 4.307482e+000 0.000000e+000
      endloop
   endfacet
   facet normal -6.474885e-001 -7.620751e-001 0.000000e+000
      outer loop
         vertex 2.628177e+000 2.530294e+000 2.000000e+001
         vertex 2.607051e+000 2.548188e+000 2.000000e+001
         vertex 2.607051e+000 2.548188e+000 1.500000e+001
      endloop
   endfacet
   facet normal -2.839126e-001 -9.588501e-001 0.000000e+000
      outer loop
         vertex 4.035596e+000 1.874004e+000 1.500000e+001
         vertex 3.556540e+000 2.000000e+000 1.500000e+001
         vertex 3.530480e+000 2.009349e+000 0.000000e+000
      endloop
   endfacet
   facet normal 5.807913e-002 -9.983119e-001 0.000000e+000
      outer loop
         vertex 5.077485e+000 1.874004e+000 0.000000e+000
         vertex 4.556540e+000 1.828427e+000 1.500000e+001
         vertex 4.556540e+000 1.828427e+000 0.000000e+000
      endloop
   endfacet
   facet normal -5.807913e-002 -9.983119e-001 0.000000e+000
      outer loop
         vertex 4.556540e+000 1.828427e+000 0.000000e+000
         vertex 4.556540e+000 1.828427e+000 1.500000e+001
         vertex 4.035596e+000 1.874004e+000 1.500000e+001
      endloop
   endfacet
   facet normal -1.161583e-001 -9.932307e-001 0.000000e+000
      outer loop
         vertex 4.556540e+000 1.828427e+000 0.000000e+000
         vertex 4.035596e+000 1.874004e+000 1.500000e+001
         vertex 4.035596e+000 1.874004e+000 0.000000e+000
      endloop
   endfacet
   facet normal -2.305519e-001 -9.730600e-001 0.000000e+000
      outer loop
         vertex 4.035596e+000 1.874004e+000 0.000000e+000
         vertex 4.035596e+000 1.874004e+000 1.500000e+001
         vertex 3.530480e+000 2.009349e+000 0.000000e+000
      endloop
   endfacet
   facet normal 3.362321e-001 -9.417791e-001 0.000000e+000
      outer loop
         vertex 5.582601e+000 2.009349e+000 2.000000e+001
         vertex 5.556540e+000 2.000000e+000 2.000000e+001
         vertex 5.556540e+000 2.000000e+000 1.500000e+001
      endloop
   endfacet
   facet normal 6.884323e-001 -7.253006e-001 0.000000e+000
      outer loop
         vertex 6.854674e+000 2.900064e+000 1.500000e+001
         vertex 6.506030e+000 2.548188e+000 1.500000e+001
         vertex 6.484903e+000 2.530294e+000 0.000000e+000
      endloop
   endfacet
   facet normal 8.936031e-001 -4.488580e-001 0.000000e+000
      outer loop
         vertex 7.375618e+000 3.802366e+000 0.000000e+000
         vertex 7.154616e+000 3.328427e+000 1.500000e+001
         vertex 7.154616e+000 3.328427e+000 0.000000e+000
      endloop
   endfacet
   facet normal 8.355240e-001 -5.494540e-001 0.000000e+000
      outer loop
         vertex 7.154616e+000 3.328427e+000 0.000000e+000
         vertex 7.154616e+000 3.328427e+000 1.500000e+001
         vertex 6.854674e+000 2.900064e+000 1.500000e+001
      endloop
   endfacet
   facet normal 8.020838e-001 -5.972114e-001 0.000000e+000
      outer loop
         vertex 7.154616e+000 3.328427e+000 0.000000e+000
         vertex 6.854674e+000 2.900064e+000 1.500000e+001
         vertex 6.854674e+000 2.900064e+000 0.000000e+000
      endloop
   endfacet
   facet normal 7.274188e-001 -6.861938e-001 0.000000e+000
      outer loop
         vertex 6.854674e+000 2.900064e+000 0.000000e+000
         vertex 6.854674e+000 2.900064e+000 1.500000e+001
         vertex 6.484903e+000 2.530294e+000 0.000000e+000
      endloop
   endfacet
   facet normal 9.837207e-001 -1.797040e-001 0.000000e+000
      outer loop
         vertex 7.510964e+000 4.307482e+000 2.000000e+001
         vertex 7.506030e+000 4.280239e+000 2.000000e+001
         vertex 7.506030e+000 4.280239e+000 1.500000e+001
      endloop
   endfacet
   facet normal 9.723449e-001 2.335495e-001 0.000000e+000
      outer loop
         vertex 7.375618e+000 5.854487e+000 1.500000e+001
         vertex 7.506030e+000 5.376615e+000 1.500000e+001
         vertex 7.510964e+000 5.349371e+000 0.000000e+000
      endloop
   endfacet
   facet normal 8.355240e-001 5.494540e-001 0.000000e+000
      outer loop
         vertex 6.854674e+000 6.756790e+000 0.000000e+000
         vertex 7.154616e+000 6.328427e+000 1.500000e+001
         vertex 7.154616e+000 6.328427e+000 0.000000e+000
      endloop
   endfacet
   facet normal 8.936031e-001 4.488580e-001 0.000000e+000
      outer loop
         vertex 7.154616e+000 6.328427e+000 0.000000e+000
         vertex 7.154616e+000 6.328427e+000 1.500000e+001
         vertex 7.375618e+000 5.854487e+000 1.500000e+001
      endloop
   endfacet
   facet normal 9.182422e-001 3.960194e-001 0.000000e+000
      outer loop
         vertex 7.154616e+000 6.328427e+000 0.000000e+000
         vertex 7.375618e+000 5.854487e+000 1.500000e+001
         vertex 7.375618e+000 5.854487e+000 0.000000e+000
      endloop
   endfacet
   facet normal 9.579706e-001 2.868663e-001 0.000000e+000
      outer loop
         vertex 7.375618e+000 5.854487e+000 0.000000e+000
         vertex 7.375618e+000 5.854487e+000 1.500000e+001
         vertex 7.510964e+000 5.349371e+000 0.000000e+000
      endloop
   endfacet
   facet normal 6.474885e-001 7.620751e-001 0.000000e+000
      outer loop
         vertex 6.484903e+000 7.126560e+000 2.000000e+001
         vertex 6.506030e+000 7.108666e+000 2.000000e+001
         vertex 6.506030e+000 7.108666e+000 1.500000e+001
      endloop
   endfacet
   facet normal 2.839126e-001 9.588501e-001 0.000000e+000
      outer loop
         vertex 5.077485e+000 7.782850e+000 1.500000e+001
         vertex 5.556540e+000 7.656854e+000 1.500000e+001
         vertex 5.582601e+000 7.647505e+000 0.000000e+000
      endloop
   endfacet
   facet normal -5.807913e-002 9.983119e-001 0.000000e+000
      outer loop
         vertex 4.035596e+000 7.782850e+000 0.000000e+000
         vertex 4.556540e+000 7.828427e+000 1.500000e+001
         vertex 4.556540e+000 7.828427e+000 0.000000e+000
      endloop
   endfacet
   facet normal 5.807913e-002 9.983119e-001 0.000000e+000
      outer loop
         vertex 4.556540e+000 7.828427e+000 0.000000e+000
         vertex 4.556540e+000 7.828427e+000 1.500000e+001
         vertex 5.077485e+000 7.782850e+000 1.500000e+001
      endloop
   endfacet
   facet normal 1.161583e-001 9.932307e-001 0.000000e+000
      outer loop
         vertex 4.556540e+000 7.828427e+000 0.000000e+000
         vertex 5.077485e+000 7.782850e+000 1.500000e+001
         vertex 5.077485e+000 7.782850e+000 0.000000e+000
      endloop
   endfacet
   facet normal 2.305519e-001 9.730600e-001 0.000000e+000
      outer loop
         vertex 5.077485e+000 7.782850e+000 0.000000e+000
         vertex 5.077485e+000 7.782850e+000 1.500000e+001
         vertex 5.582601e+000 7.647505e+000 0.000000e+000
      endloop
   endfacet
   facet normal -3.362321e-001 9.417791e-001 0.000000e+000
      outer loop
         vertex 3.530480e+000 7.647505e+000 2.000000e+001
         vertex 3.556540e+000 7.656854e+000 2.000000e+001
         vertex 3.556540e+000 7.656854e+000 1.500000e+001
      endloop
   endfacet
   facet normal -3.391278e-001 -9.407403e-001 0.000000e+000
      outer loop
         vertex 3.556540e+000 2.000000e+000 1.500000e+001
         vertex 3.530480e+000 2.009349e+000 2.000000e+001
         vertex 3.530480e+000 2.009349e+000 0.000000e+000
      endloop
   endfacet
   facet normal -3.960194e-001 -9.182422e-001 0.000000e+000
      outer loop
         vertex 3.530480e+000 2.009349e+000 0.000000e+000
         vertex 3.530480e+000 2.009349e+000 2.000000e+001
         vertex 3.056540e+000 2.230351e+000 2.000000e+001
      endloop
   endfacet
   facet normal -4.488580e-001 -8.936031e-001 0.000000e+000
      outer loop
         vertex 3.530480e+000 2.009349e+000 0.000000e+000
         vertex 3.056540e+000 2.230351e+000 2.000000e+001
         vertex 3.056540e+000 2.230351e+000 0.000000e+000
      endloop
   endfacet
   facet normal -5.494540e-001 -8.355240e-001 0.000000e+000
      outer loop
         vertex 3.056540e+000 2.230351e+000 0.000000e+000
         vertex 3.056540e+000 2.230351e+000 2.000000e+001
         vertex 2.628177e+000 2.530294e+000 2.000000e+001
      endloop
   endfacet
   facet normal -5.972114e-001 -8.020838e-001 0.000000e+000
      outer loop
         vertex 3.056540e+000 2.230351e+000 0.000000e+000
         vertex 2.628177e+000 2.530294e+000 2.000000e+001
         vertex 2.628177e+000 2.530294e+000 0.000000e+000
      endloop
   endfacet
   facet normal -6.451412e-001 -7.640634e-001 0.000000e+000
      outer loop
         vertex 2.628177e+000 2.530294e+000 0.000000e+000
         vertex 2.628177e+000 2.530294e+000 2.000000e+001
         vertex 2.607051e+000 2.548188e+000 1.500000e+001
      endloop
   endfacet
   facet normal -6.884323e-001 -7.253006e-001 0.000000e+000
      outer loop
         vertex 2.628177e+000 2.530294e+000 0.000000e+000
         vertex 2.607051e+000 2.548188e+000 1.500000e+001
         vertex 2.258407e+000 2.900064e+000 0.000000e+000
      endloop
   endfacet
   facet normal -7.295195e-001 -6.839600e-001 0.000000e+000
      outer loop
         vertex 2.258407e+000 2.900064e+000 0.000000e+000
         vertex 2.607051e+000 2.548188e+000 1.500000e+001
         vertex 2.258407e+000 2.900064e+000 1.500000e+001
      endloop
   endfacet
   facet normal -8.020838e-001 -5.972114e-001 0.000000e+000
      outer loop
         vertex 2.258407e+000 2.900064e+000 0.000000e+000
         vertex 2.258407e+000 2.900064e+000 1.500000e+001
         vertex 1.958464e+000 3.328427e+000 1.500000e+001
      endloop
   endfacet
   facet normal 6.451412e-001 -7.640634e-001 0.000000e+000
      outer loop
         vertex 6.506030e+000 2.548188e+000 1.500000e+001
         vertex 6.484903e+000 2.530294e+000 2.000000e+001
         vertex 6.484903e+000 2.530294e+000 0.000000e+000
      endloop
   endfacet
   facet normal 5.972114e-001 -8.020838e-001 0.000000e+000
      outer loop
         vertex 6.484903e+000 2.530294e+000 0.000000e+000
         vertex 6.484903e+000 2.530294e+000 2.000000e+001
         vertex 6.056540e+000 2.230351e+000 2.000000e+001
      endloop
   endfacet
   facet normal 5.494540e-001 -8.355240e-001 0.000000e+000
      outer loop
         vertex 6.484903e+000 2.530294e+000 0.000000e+000
         vertex 6.056540e+000 2.230351e+000 2.000000e+001
         vertex 6.056540e+000 2.230351e+000 0.000000e+000
      endloop
   endfacet
   facet normal 4.488580e-001 -8.936031e-001 0.000000e+000
      outer loop
         vertex 6.056540e+000 2.230351e+000 0.000000e+000
         vertex 6.056540e+000 2.230351e+000 2.000000e+001
         vertex 5.582601e+000 2.009349e+000 2.000000e+001
      endloop
   endfacet
   facet normal 3.960194e-001 -9.182422e-001 0.000000e+000
      outer loop
         vertex 6.056540e+000 2.230351e+000 0.000000e+000
         vertex 5.582601e+000 2.009349e+000 2.000000e+001
         vertex 5.582601e+000 2.009349e+000 0.000000e+000
      endloop
   endfacet
   facet normal 3.391277e-001 -9.407403e-001 0.000000e+000
      outer loop
         vertex 5.582601e+000 2.009349e+000 0.000000e+000
         vertex 5.582601e+000 2.009349e+000 2.000000e+001
         vertex 5.556540e+000 2.000000e+000 1.500000e+001
      endloop
   endfacet
   facet normal 2.839127e-001 -9.588501e-001 0.000000e+000
      outer loop
         vertex 5.582601e+000 2.009349e+000 0.000000e+000
         vertex 5.556540e+000 2.000000e+000 1.500000e+001
         vertex 5.077485e+000 1.874004e+000 0.000000e+000
      endloop
   endfacet
   facet normal 2.275670e-001 -9.737625e-001 0.000000e+000
      outer loop
         vertex 5.077485e+000 1.874004e+000 0.000000e+000
         vertex 5.556540e+000 2.000000e+000 1.500000e+001
         vertex 5.077485e+000 1.874004e+000 1.500000e+001
      endloop
   endfacet
   facet normal 1.161583e-001 -9.932307e-001 0.000000e+000
      outer loop
         vertex 5.077485e+000 1.874004e+000 0.000000e+000
         vertex 5.077485e+000 1.874004e+000 1.500000e+001
         vertex 4.556540e+000 1.828427e+000 1.500000e+001
      endloop
   endfacet
   facet normal 9.842689e-001 1.766769e-001 0.000000e+000
      outer loop
         vertex 7.506030e+000 5.376615e+000 1.500000e+001
         vertex 7.510964e+000 5.349371e+000 2.000000e+001
         vertex 7.510964e+000 5.349371e+000 0.000000e+000
      endloop
   endfacet
   facet normal 9.932307e-001 1.161583e-001 0.000000e+000
      outer loop
         vertex 7.510964e+000 5.349371e+000 0.000000e+000
         vertex 7.510964e+000 5.349371e+000 2.000000e+001
         vertex 7.556540e+000 4.828427e+000 2.000000e+001
      endloop
   endfacet
   facet normal 9.983119e-001 5.807913e-002 0.000000e+000
      outer loop
         vertex 7.510964e+000 5.349371e+000 0.000000e+000
         vertex 7.556540e+000 4.828427e+000 2.000000e+001
         vertex 7.556540e+000 4.828427e+000 0.000000e+000
      endloop
   endfacet
   facet normal 9.983119e-001 -5.807913e-002 0.000000e+000
      outer loop
         vertex 7.556540e+000 4.828427e+000 0.000000e+000
         vertex 7.556540e+000 4.828427e+000 2.000000e+001
         vertex 7.510964e+000 4.307482e+000 2.000000e+001
      endloop
   endfacet
   facet normal 9.932307e-001 -1.161583e-001 0.000000e+000
      outer loop
         vertex 7.556540e+000 4.828427e+000 0.000000e+000
         vertex 7.510964e+000 4.307482e+000 2.000000e+001
         vertex 7.510964e+000 4.307482e+000 0.000000e+000
      endloop
   endfacet
   facet normal 9.842689e-001 -1.766769e-001 0.000000e+000
      outer loop
         vertex 7.510964e+000 4.307482e+000 0.000000e+000
         vertex 7.510964e+000 4.307482e+000 2.000000e+001
         vertex 7.506030e+000 4.280239e+000 1.500000e+001
      endloop
   endfacet
   facet normal 9.723449e-001 -2.335495e-001 0.000000e+000
      outer loop
         vertex 7.510964e+000 4.307482e+000 0.000000e+000
         vertex 7.506030e+000 4.280239e+000 1.500000e+001
         vertex 7.375618e+000 3.802366e+000 0.000000e+000
      endloop
   endfacet
   facet normal 9.570865e-001 -2.898025e-001 0.000000e+000
      outer loop
         vertex 7.375618e+000 3.802366e+000 0.000000e+000
         vertex 7.506030e+000 4.280239e+000 1.500000e+001
         vertex 7.375618e+000 3.802366e+000 1.500000e+001
      endloop
   endfacet
   facet normal 9.182422e-001 -3.960194e-001 0.000000e+000
      outer loop
         vertex 7.375618e+000 3.802366e+000 0.000000e+000
         vertex 7.375618e+000 3.802366e+000 1.500000e+001
         vertex 7.154616e+000 3.328427e+000 1.500000e+001
      endloop
   endfacet
   facet normal 3.391278e-001 9.407403e-001 0.000000e+000
      outer loop
         vertex 5.556540e+000 7.656854e+000 1.500000e+001
         vertex 5.582601e+000 7.647505e+000 2.000000e+001
         vertex 5.582601e+000 7.647505e+000 0.000000e+000
      endloop
   endfacet
   facet normal 3.960194e-001 9.182422e-001 0.000000e+000
      outer loop
         vertex 5.582601e+000 7.647505e+000 0.000000e+000
         vertex 5.582601e+000 7.647505e+000 2.000000e+001
         vertex 6.056540e+000 7.426503e+000 2.000000e+001
      endloop
   endfacet
   facet normal 4.488580e-001 8.936031e-001 0.000000e+000
      outer loop
         vertex 5.582601e+000 7.647505e+000 0.000000e+000
         vertex 6.056540e+000 7.426503e+000 2.000000e+001
         vertex 6.056540e+000 7.426503e+000 0.000000e+000
      endloop
   endfacet
   facet normal 5.494540e-001 8.355240e-001 0.000000e+000
      outer loop
         vertex 6.056540e+000 7.426503e+000 0.000000e+000
         vertex 6.056540e+000 7.426503e+000 2.000000e+001
         vertex 6.484903e+000 7.126560e+000 2.000000e+001
      endloop
   endfacet
   facet normal 5.972114e-001 8.020838e-001 0.000000e+000
      outer loop
         vertex 6.056540e+000 7.426503e+000 0.000000e+000
         vertex 6.484903e+000 7.126560e+000 2.000000e+001
         vertex 6.484903e+000 7.126560e+000 0.000000e+000
      endloop
   endfacet
   facet normal 6.451412e-001 7.640634e-001 0.000000e+000
      outer loop
         vertex 6.484903e+000 7.126560e+000 0.000000e+000
         vertex 6.484903e+000 7.126560e+000 2.000000e+001
         vertex 6.506030e+000 7.108666e+000 1.500000e+001
      endloop
   endfacet
   facet normal 6.884323e-001 7.253006e-001 0.000000e+000
      outer loop
         vertex 6.484903e+000 7.126560e+000 0.000000e+000
         vertex 6.506030e+000 7.108666e+000 1.500000e+001
         vertex 6.854674e+000 6.756790e+000 0.000000e+000
      endloop
   endfacet
   facet normal 7.295195e-001 6.839600e-001 0.000000e+000
      outer loop
         vertex 6.854674e+000 6.756790e+000 0.000000e+000
         vertex 6.506030e+000 7.108666e+000 1.500000e+001
         vertex 6.854674e+000 6.756790e+000 1.500000e+001
      endloop
   endfacet
   facet normal 8.020838e-001 5.972114e-001 0.000000e+000
      outer loop
         vertex 6.854674e+000 6.756790e+000 0.000000e+000
         vertex 6.854674e+000 6.756790e+000 1.500000e+001
         vertex 7.154616e+000 6.328427e+000 1.500000e+001
      endloop
   endfacet
   facet normal -6.451412e-001 7.640634e-001 0.000000e+000
      outer loop
         vertex 2.607051e+000 7.108666e+000 1.500000e+001
         vertex 2.628177e+000 7.126560e+000 2.000000e+001
         vertex 2.628177e+000 7.126560e+000 0.000000e+000
      endloop
   endfacet
   facet normal -5.972114e-001 8.020838e-001 0.000000e+000
      outer loop
         vertex 2.628177e+000 7.126560e+000 0.000000e+000
         vertex 2.628177e+000 7.126560e+000 2.000000e+001
         vertex 3.056540e+000 7.426503e+000 2.000000e+001
      endloop
   endfacet
   facet normal -5.494540e-001 8.355240e-001 0.000000e+000
      outer loop
         vertex 2.628177e+000 7.126560e+000 0.000000e+000
         vertex 3.056540e+000 7.426503e+000 2.000000e+001
         vertex 3.056540e+000 7.426503e+000 0.000000e+000
      endloop
   endfacet
   facet normal -4.488580e-001 8.936031e-001 0.000000e+000
      outer loop
         vertex 3.056540e+000 7.426503e+000 0.000000e+000
         vertex 3.056540e+000 7.426503e+000 2.000000e+001
         vertex 3.530480e+000 7.647505e+000 2.000000e+001
      endloop
   endfacet
   facet normal -3.960194e-001 9.182422e-001 0.000000e+000
      outer loop
         vertex 3.056540e+000 7.426503e+000 0.000000e+000
         vertex 3.530480e+000 7.647505e+000 2.000000e+001
         vertex 3.530480e+000 7.647505e+000 0.000000e+000
      endloop
   endfacet
   facet normal -3.391277e-001 9.407403e-001 0.000000e+000
      outer loop
         vertex 3.530480e+000 7.647505e+000 0.000000e+000
         vertex 3.530480e+000 7.647505e+000 2.000000e+001
         vertex 3.556540e+000 7.656854e+000 1.500000e+001
      endloop
   endfacet
   facet normal -2.839127e-001 9.588501e-001 0.000000e+000
      outer loop
         vertex 3.530480e+000 7.647505e+000 0.000000e+000
         vertex 3.556540e+000 7.656854e+000 1.500000e+001
         vertex 4.035596e+000 7.782850e+000 0.000000e+000
      endloop
   endfacet
   facet normal -2.275670e-001 9.737625e-001 0.000000e+000
      outer loop
         vertex 4.035596e+000 7.782850e+000 0.000000e+000
         vertex 3.556540e+000 7.656854e+000 1.500000e+001
         vertex 4.035596e+000 7.782850e+000 1.500000e+001
      endloop
   endfacet
   facet normal -1.161583e-001 9.932307e-001 0.000000e+000
      outer loop
         vertex 4.035596e+000 7.782850e+000 0.000000e+000
         vertex 4.035596e+000 7.782850e+000 1.500000e+001
         vertex 4.556540e+000 7.828427e+000 1.500000e+001
      endloop
   endfacet
   facet normal -9.842689e-001 -1.766769e-001 0.000000e+000
      outer loop
         vertex 1.607051e+000 4.280239e+000 1.500000e+001
         vertex 1.602117e+000 4.307482e+000 2.000000e+001
         vertex 1.602117e+000 4.307482e+000 0.000000e+000
      endloop
   endfacet
   facet normal -9.932307e-001 -1.161583e-001 0.000000e+000
      outer loop
         vertex 1.602117e+000 4.307482e+000 0.000000e+000
         vertex 1.602117e+000 4.307482e+000 2.000000e+001
         vertex 1.556540e+000 4.828427e+000 2.000000e+001
      endloop
   endfacet
   facet normal -9.983119e-001 -5.807913e-002 0.000000e+000
      outer loop
         vertex 1.602117e+000 4.307482e+000 0.000000e+000
         vertex 1.556540e+000 4.828427e+000 2.000000e+001
         vertex 1.556540e+000 4.828427e+000 0.000000e+000
      endloop
   endfacet
   facet normal -9.983119e-001 5.807913e-002 0.000000e+000
      outer loop
         vertex 1.556540e+000 4.828427e+000 0.000000e+000
         vertex 1.556540e+000 4.828427e+000 2.000000e+001
         vertex 1.602117e+000 5.349371e+000 2.000000e+001
      endloop
   endfacet
   facet normal -9.932307e-001 1.161583e-001 0.000000e+000
      outer loop
         vertex 1.556540e+000 4.828427e+000 0.000000e+000
         vertex 1.602117e+000 5.349371e+000 2.000000e+001
         vertex 1.602117e+000 5.349371e+000 0.000000e+000
      endloop
   endfacet
   facet normal -9.842689e-001 1.766769e-001 0.000000e+000
      outer loop
         vertex 1.602117e+000 5.349371e+000 0.000000e+000
         vertex 1.602117e+000 5.349371e+000 2.000000e+001
         vertex 1.607051e+000 5.376615e+000 1.500000e+001
      endloop
   endfacet
   facet normal -9.723449e-001 2.335495e-001 0.000000e+000
      outer loop
         vertex 1.602117e+000 5.349371e+000 0.000000e+000
         vertex 1.607051e+000 5.376615e+000 1.500000e+001
         vertex 1.737463e+000 5.854487e+000 0.000000e+000
      endloop
   endfacet
   facet normal -9.570865e-001 2.898025e-001 0.000000e+000
      outer loop
         vertex 1.737463e+000 5.854487e+000 0.000000e+000
         vertex 1.607051e+000 5.376615e+000 1.500000e+001
         vertex 1.737463e+000 5.854487e+000 1.500000e+001
      endloop
   endfacet
   facet normal -9.182422e-001 3.960194e-001 0.000000e+000
      outer loop
         vertex 1.737463e+000 5.854487e+000 0.000000e+000
         vertex 1.737463e+000 5.854487e+000 1.500000e+001
         vertex 1.958464e+000 6.328427e+000 1.500000e+001
      endloop
   endfacet
   facet normal 0.000000e+000 0.000000e+000 1.000000e+000
      outer loop
         vertex 7.556540e+000 4.828427e+000 2.000000e+001
         vertex 7.510964e+000 5.349371e+000 2.000000e+001
         vertex 1.602117e+000 4.307482e+000 2.000000e+001
      endloop
   endfacet
   facet normal 0.000000e+000 0.000000e+000 1.000000e+000
      outer loop
         vertex 7.506030e+000 5.376615e+000 2.000000e+001
         vertex 9.113081e+000 6.593121e+000 2.000000e+001
         vertex 8.363081e+000 7.892160e+000 2.000000e+001
      endloop
   endfacet
   facet normal 0.000000e+000 0.000000e+000 1.000000e+000
      outer loop
         vertex 3.806540e+000 0.000000e+000 2.000000e+001
         vertex 5.306540e+000 0.000000e+000 2.000000e+001
         vertex 3.556540e+000 2.000000e+000 2.000000e+001
      endloop
   endfacet
   facet normal 0.000000e+000 0.000000e+000 1.000000e+000
      outer loop
         vertex 3.556540e+000 2.000000e+000 2.000000e+001
         vertex 5.306540e+000 0.000000e+000 2.000000e+001
         vertex 5.556540e+000 2.000000e+000 2.000000e+001
      endloop
   endfacet
   facet normal 0.000000e+000 0.000000e+000 1.000000e+000
      outer loop
         vertex 3.556540e+000 2.000000e+000 2.000000e+001
         vertex 5.556540e+000 2.000000e+000 2.000000e+001
         vertex 3.530480e+000 2.009349e+000 2.000000e+001
      endloop
   endfacet
   facet normal 0.000000e+000 0.000000e+000 1.000000e+000
      outer loop
         vertex 3.530480e+000 2.009349e+000 2.000000e+001
         vertex 5.556540e+000 2.000000e+000 2.000000e+001
         vertex 3.056540e+000 2.230351e+000 2.000000e+001
      endloop
   endfacet
   facet normal 0.000000e+000 0.000000e+000 1.000000e+000
      outer loop
         vertex 1.607051e+000 5.376615e+000 2.000000e+001
         vertex 6.506030e+000 7.108666e+000 2.000000e+001
         vertex 6.484903e+000 7.126560e+000 2.000000e+001
      endloop
   endfacet
   facet normal 0.000000e+000 0.000000e+000 1.000000e+000
      outer loop
         vertex 1.602117e+000 4.307482e+000 2.000000e+001
         vertex 7.510964e+000 5.349371e+000 2.000000e+001
         vertex 1.556540e+000 4.828427e+000 2.000000e+001
      endloop
   endfacet
   facet normal 0.000000e+000 0.000000e+000 1.000000e+000
      outer loop
         vertex 1.607051e+000 4.280239e+000 2.000000e+001
         vertex 0.000000e+000 3.063733e+000 2.000000e+001
         vertex 7.499999e-001 1.764694e+000 2.000000e+001
      endloop
   endfacet
   facet normal 0.000000e+000 0.000000e+000 1.000000e+000
      outer loop
         vertex 8.363081e+000 1.764694e+000 2.000000e+001
         vertex 9.113081e+000 3.063733e+000 2.000000e+001
         vertex 6.506030e+000 2.548188e+000 2.000000e+001
      endloop
   endfacet
   facet normal 0.000000e+000 0.000000e+000 1.000000e+000
      outer loop
         vertex 6.506030e+000 2.548188e+000 2.000000e+001
         vertex 9.113081e+000 3.063733e+000 2.000000e+001
         vertex 7.506030e+000 4.280239e+000 2.000000e+001
      endloop
   endfacet
   facet normal 0.000000e+000 0.000000e+000 1.000000e+000
      outer loop
         vertex 6.506030e+000 2.548188e+000 2.000000e+001
         vertex 7.506030e+000 4.280239e+000 2.000000e+001
         vertex 6.484903e+000 2.530294e+000 2.000000e+001
      endloop
   endfacet
   facet normal 0.000000e+000 0.000000e+000 1.000000e+000
      outer loop
         vertex 6.484903e+000 2.530294e+000 2.000000e+001
         vertex 7.506030e+000 4.280239e+000 2.000000e+001
         vertex 2.607051e+000 2.548188e+000 2.000000e+001
      endloop
   endfacet
   facet normal 0.000000e+000 0.000000e+000 1.000000e+000
      outer loop
         vertex 6.484903e+000 2.530294e+000 2.000000e+001
         vertex 2.607051e+000 2.548188e+000 2.000000e+001
         vertex 6.056540e+000 2.230351e+000 2.000000e+001
      endloop
   endfacet
   facet normal 0.000000e+000 0.000000e+000 1.000000e+000
      outer loop
         vertex 6.056540e+000 2.230351e+000 2.000000e+001
         vertex 2.607051e+000 2.548188e+000 2.000000e+001
         vertex 5.582601e+000 2.009349e+000 2.000000e+001
      endloop
   endfacet
   facet normal 0.000000e+000 0.000000e+000 1.000000e+000
      outer loop
         vertex 5.582601e+000 2.009349e+000 2.000000e+001
         vertex 2.607051e+000 2.548188e+000 2.000000e+001
         vertex 5.556540e+000 2.000000e+000 2.000000e+001
      endloop
   endfacet
   facet normal 0.000000e+000 0.000000e+000 1.000000e+000
      outer loop
         vertex 5.556540e+000 2.000000e+000 2.000000e+001
         vertex 2.607051e+000 2.548188e+000 2.000000e+001
         vertex 2.628177e+000 2.530294e+000 2.000000e+001
      endloop
   endfacet
   facet normal 0.000000e+000 0.000000e+000 1.000000e+000
      outer loop
         vertex 5.556540e+000 2.000000e+000 2.000000e+001
         vertex 2.628177e+000 2.530294e+000 2.000000e+001
         vertex 3.056540e+000 2.230351e+000 2.000000e+001
      endloop
   endfacet
   facet normal 0.000000e+000 0.000000e+000 1.000000e+000
      outer loop
         vertex 6.484903e+000 7.126560e+000 2.000000e+001
         vertex 6.056540e+000 7.426503e+000 2.000000e+001
         vertex 1.607051e+000 5.376615e+000 2.000000e+001
      endloop
   endfacet
   facet normal 0.000000e+000 0.000000e+000 1.000000e+000
      outer loop
         vertex 1.607051e+000 5.376615e+000 2.000000e+001
         vertex 6.056540e+000 7.426503e+000 2.000000e+001
         vertex 5.582601e+000 7.647505e+000 2.000000e+001
      endloop
   endfacet
   facet normal 0.000000e+000 0.000000e+000 1.000000e+000
      outer loop
         vertex 1.607051e+000 5.376615e+000 2.000000e+001
         vertex 5.582601e+000 7.647505e+000 2.000000e+001
         vertex 5.556540e+000 7.656854e+000 2.000000e+001
      endloop
   endfacet
   facet normal 0.000000e+000 0.000000e+000 1.000000e+000
      outer loop
         vertex 7.499999e-001 7.892160e+000 2.000000e+001
         vertex 0.000000e+000 6.593121e+000 2.000000e+001
         vertex 2.607051e+000 7.108666e+000 2.000000e+001
      endloop
   endfacet
   facet normal 0.000000e+000 0.000000e+000 1.000000e+000
      outer loop
         vertex 2.607051e+000 7.108666e+000 2.000000e+001
         vertex 0.000000e+000 6.593121e+000 2.000000e+001
         vertex 1.607051e+000 5.376615e+000 2.000000e+001
      endloop
   endfacet
   facet normal 0.000000e+000 0.000000e+000 1.000000e+000
      outer loop
         vertex 2.607051e+000 7.108666e+000 2.000000e+001
         vertex 1.607051e+000 5.376615e+000 2.000000e+001
         vertex 2.628177e+000 7.126560e+000 2.000000e+001
      endloop
   endfacet
   facet normal 0.000000e+000 0.000000e+000 1.000000e+000
      outer loop
         vertex 2.628177e+000 7.126560e+000 2.000000e+001
         vertex 1.607051e+000 5.376615e+000 2.000000e+001
         vertex 3.056540e+000 7.426503e+000 2.000000e+001
      endloop
   endfacet
   facet normal 0.000000e+000 0.000000e+000 1.000000e+000
      outer loop
         vertex 8.363081e+000 7.892160e+000 2.000000e+001
         vertex 6.506030e+000 7.108666e+000 2.000000e+001
         vertex 7.506030e+000 5.376615e+000 2.000000e+001
      endloop
   endfacet
   facet normal 0.000000e+000 0.000000e+000 1.000000e+000
      outer loop
         vertex 7.506030e+000 5.376615e+000 2.000000e+001
         vertex 6.506030e+000 7.108666e+000 2.000000e+001
         vertex 1.607051e+000 5.376615e+000 2.000000e+001
      endloop
   endfacet
   facet normal 0.000000e+000 0.000000e+000 1.000000e+000
      outer loop
         vertex 7.506030e+000 5.376615e+000 2.000000e+001
         vertex 1.607051e+000 5.376615e+000 2.000000e+001
         vertex 7.510964e+000 5.349371e+000 2.000000e+001
      endloop
   endfacet
   facet normal 0.000000e+000 0.000000e+000 1.000000e+000
      outer loop
         vertex 7.510964e+000 5.349371e+000 2.000000e+001
         vertex 1.607051e+000 5.376615e+000 2.000000e+001
         vertex 1.602117e+000 5.349371e+000 2.000000e+001
      endloop
   endfacet
   facet normal 0.000000e+000 0.000000e+000 1.000000e+000
      outer loop
         vertex 7.510964e+000 5.349371e+000 2.000000e+001
         vertex 1.602117e+000 5.349371e+000 2.000000e+001
         vertex 1.556540e+000 4.828427e+000 2.000000e+001
      endloop
   endfacet
   facet normal 0.000000e+000 0.000000e+000 1.000000e+000
      outer loop
         vertex 7.499999e-001 1.764694e+000 2.000000e+001
         vertex 2.607051e+000 2.548188e+000 2.000000e+001
         vertex 1.607051e+000 4.280239e+000 2.000000e+001
      endloop
   endfacet
   facet normal 0.000000e+000 0.000000e+000 1.000000e+000
      outer loop
         vertex 1.607051e+000 4.280239e+000 2.000000e+001
         vertex 2.607051e+000 2.548188e+000 2.000000e+001
         vertex 7.506030e+000 4.280239e+000 2.000000e+001
      endloop
   endfacet
   facet normal 0.000000e+000 0.000000e+000 1.000000e+000
      outer loop
         vertex 1.607051e+000 4.280239e+000 2.000000e+001
         vertex 7.506030e+000 4.280239e+000 2.000000e+001
         vertex 1.602117e+000 4.307482e+000 2.000000e+001
      endloop
   endfacet
   facet normal 0.000000e+000 0.000000e+000 1.000000e+000
      outer loop
         vertex 1.602117e+000 4.307482e+000 2.000000e+001
         vertex 7.506030e+000 4.280239e+000 2.000000e+001
         vertex 7.510964e+000 4.307482e+000 2.000000e+001
      endloop
   endfacet
   facet normal 0.000000e+000 0.000000e+000 1.000000e+000
      outer loop
         vertex 1.602117e+000 4.307482e+000 2.000000e+001
         vertex 7.510964e+000 4.307482e+000 2.000000e+001
         vertex 7.556540e+000 4.828427e+000 2.000000e+001
      endloop
   endfacet
   facet normal 0.000000e+000 0.000000e+000 1.000000e+000
      outer loop
         vertex 5.306540e+000 9.656854e+000 2.000000e+001
         vertex 3.806540e+000 9.656854e+000 2.000000e+001
         vertex 5.556540e+000 7.656854e+000 2.000000e+001
      endloop
   endfacet
   facet normal 0.000000e+000 0.000000e+000 1.000000e+000
      outer loop
         vertex 5.556540e+000 7.656854e+000 2.000000e+001
         vertex 3.806540e+000 9.656854e+000 2.000000e+001
         vertex 3.556540e+000 7.656854e+000 2.000000e+001
      endloop
   endfacet
   facet normal 0.000000e+000 0.000000e+000 1.000000e+000
      outer loop
         vertex 5.556540e+000 7.656854e+000 2.000000e+001
         vertex 3.556540e+000 7.656854e+000 2.000000e+001
         vertex 1.607051e+000 5.376615e+000 2.000000e+001
      endloop
   endfacet
   facet normal 0.000000e+000 0.000000e+000 1.000000e+000
      outer loop
         vertex 1.607051e+000 5.376615e+000 2.000000e+001
         vertex 3.556540e+000 7.656854e+000 2.000000e+001
         vertex 3.530480e+000 7.647505e+000 2.000000e+001
      endloop
   endfacet
   facet normal 0.000000e+000 0.000000e+000 1.000000e+000
      outer loop
         vertex 1.607051e+000 5.376615e+000 2.000000e+001
         vertex 3.530480e+000 7.647505e+000 2.000000e+001
         vertex 3.056540e+000 7.426503e+000 2.000000e+001
      endloop
   endfacet
   facet normal -9.922779e-001 1.240347e-001 0.000000e+000
      outer loop
         vertex 3.556540e+000 7.656854e+000 2.000000e+001
         vertex 3.806540e+000 9.656854e+000 2.000000e+001
         vertex 3.556540e+000 7.656854e+000 1.500000e+001
      endloop
   endfacet
   facet normal -9.922779e-001 1.240347e-001 0.000000e+000
      outer loop
         vertex 3.556540e+000 7.656854e+000 1.500000e+001
         vertex 3.806540e+000 9.656854e+000 2.000000e+001
         vertex 3.806540e+000 9.656854e+000 1.500000e+001
      endloop
   endfacet
   facet normal 0.000000e+000 1.000000e+000 0.000000e+000
      outer loop
         vertex 3.806540e+000 9.656854e+000 2.000000e+001
         vertex 5.306540e+000 9.656854e+000 2.000000e+001
         vertex 3.806540e+000 9.656854e+000 1.500000e+001
      endloop
   endfacet
   facet normal 0.000000e+000 1.000000e+000 0.000000e+000
      outer loop
         vertex 3.806540e+000 9.656854e+000 1.500000e+001
         vertex 5.306540e+000 9.656854e+000 2.000000e+001
         vertex 5.306540e+000 9.656854e+000 1.500000e+001
      endloop
   endfacet
   facet normal 9.922779e-001 1.240347e-001 0.000000e+000
      outer loop
         vertex 5.306540e+000 9.656854e+000 2.000000e+001
         vertex 5.556540e+000 7.656854e+000 2.000000e+001
         vertex 5.306540e+000 9.656854e+000 1.500000e+001
      endloop
   endfacet
   facet normal 9.922779e-001 1.240347e-001 0.000000e+000
      outer loop
         vertex 5.306540e+000 9.656854e+000 1.500000e+001
         vertex 5.556540e+000 7.656854e+000 2.000000e+001
         vertex 5.556540e+000 7.656854e+000 1.500000e+001
      endloop
   endfacet
   facet normal -6.035562e-001 -7.973205e-001 0.000000e+000
      outer loop
         vertex 1.607051e+000 5.376615e+000 2.000000e+001
         vertex 0.000000e+000 6.593121e+000 2.000000e+001
         vertex 1.607051e+000 5.376615e+000 1.500000e+001
      endloop
   endfacet
   facet normal -6.035562e-001 -7.973205e-001 0.000000e+000
      outer loop
         vertex 1.607051e+000 5.376615e+000 1.500000e+001
         vertex 0.000000e+000 6.593121e+000 2.000000e+001
         vertex 0.000000e+000 6.593121e+000 1.500000e+001
      endloop
   endfacet
   facet normal -8.660254e-001 5.000000e-001 0.000000e+000
      outer loop
         vertex 0.000000e+000 6.593121e+000 2.000000e+001
         vertex 7.499999e-001 7.892160e+000 2.000000e+001
         vertex 0.000000e+000 6.593121e+000 1.500000e+001
      endloop
   endfacet
   facet normal -8.660254e-001 5.000000e-001 0.000000e+000
      outer loop
         vertex 0.000000e+000 6.593121e+000 1.500000e+001
         vertex 7.499999e-001 7.892160e+000 2.000000e+001
         vertex 7.499999e-001 7.892160e+000 1.500000e+001
      endloop
   endfacet
   facet normal 3.887217e-001 9.213552e-001 0.000000e+000
      outer loop
         vertex 7.499999e-001 7.892160e+000 2.000000e+001
         vertex 2.607051e+000 7.108666e+000 2.000000e+001
         vertex 7.499999e-001 7.892160e+000 1.500000e+001
      endloop
   endfacet
   facet normal 3.887217e-001 9.213552e-001 0.000000e+000
      outer loop
         vertex 7.499999e-001 7.892160e+000 1.500000e+001
         vertex 2.607051e+000 7.108666e+000 2.000000e+001
         vertex 2.607051e+000 7.108666e+000 1.500000e+001
      endloop
   endfacet
   facet normal 3.887217e-001 -9.213552e-001 0.000000e+000
      outer loop
         vertex 2.607051e+000 2.548188e+000 2.000000e+001
         vertex 7.499999e-001 1.764694e+000 2.000000e+001
         vertex 2.607051e+000 2.548188e+000 1.500000e+001
      endloop
   endfacet
   facet normal 3.887217e-001 -9.213552e-001 0.000000e+000
      outer loop
         vertex 2.607051e+000 2.548188e+000 1.500000e+001
         vertex 7.499999e-001 1.764694e+000 2.000000e+001
         vertex 7.499999e-001 1.764694e+000 1.500000e+001
      endloop
   endfacet
   facet normal -8.660254e-001 -5.000000e-001 0.000000e+000
      outer loop
         vertex 7.499999e-001 1.764694e+000 2.000000e+001
         vertex 0.000000e+000 3.063733e+000 2.000000e+001
         vertex 7.499999e-001 1.764694e+000 1.500000e+001
      endloop
   endfacet
   facet normal -8.660254e-001 -5.000000e-001 0.000000e+000
      outer loop
         vertex 7.499999e-001 1.764694e+000 1.500000e+001
         vertex 0.000000e+000 3.063733e+000 2.000000e+001
         vertex 0.000000e+000 3.063733e+000 1.500000e+001
      endloop
   endfacet
   facet normal -6.035562e-001 7.973205e-001 0.000000e+000
      outer loop
         vertex 0.000000e+000 3.063733e+000 2.000000e+001
         vertex 1.607051e+000 4.280239e+000 2.000000e+001
         vertex 0.000000e+000 3.063733e+000 1.500000e+001
      endloop
   endfacet
   facet normal -6.035562e-001 7.973205e-001 0.000000e+000
      outer loop
         vertex 0.000000e+000 3.063733e+000 1.500000e+001
         vertex 1.607051e+000 4.280239e+000 2.000000e+001
         vertex 1.607051e+000 4.280239e+000 1.500000e+001
      endloop
   endfacet
   facet normal 9.922779e-001 -1.240347e-001 0.000000e+000
      outer loop
         vertex 5.556540e+000 2.000000e+000 2.000000e+001
         vertex 5.306540e+000 0.000000e+000 2.000000e+001
         vertex 5.556540e+000 2.000000e+000 1.500000e+001
      endloop
   endfacet
   facet normal 9.922779e-001 -1.240347e-001 0.000000e+000
      outer loop
         vertex 5.556540e+000 2.000000e+000 1.500000e+001
         vertex 5.306540e+000 0.000000e+000 2.000000e+001
         vertex 5.306540e+000 0.000000e+000 1.500000e+001
      endloop
   endfacet
   facet normal 0.000000e+000 -1.000000e+000 0.000000e+000
      outer loop
         vertex 5.306540e+000 0.000000e+000 2.000000e+001
         vertex 3.806540e+000 0.000000e+000 2.000000e+001
         vertex 5.306540e+000 0.000000e+000 1.500000e+001
      endloop
   endfacet
   facet normal 0.000000e+000 -1.000000e+000 0.000000e+000
      outer loop
         vertex 5.306540e+000 0.000000e+000 1.500000e+001
         vertex 3.806540e+000 0.000000e+000 2.000000e+001
         vertex 3.806540e+000 0.000000e+000 1.500000e+001
      endloop
   endfacet
   facet normal -9.922779e-001 -1.240347e-001 0.000000e+000
      outer loop
         vertex 3.806540e+000 0.000000e+000 2.000000e+001
         vertex 3.556540e+000 2.000000e+000 2.000000e+001
         vertex 3.806540e+000 0.000000e+000 1.500000e+001
      endloop
   endfacet
   facet normal -9.922779e-001 -1.240347e-001 0.000000e+000
      outer loop
         vertex 3.806540e+000 0.000000e+000 1.500000e+001
         vertex 3.556540e+000 2.000000e+000 2.000000e+001
         vertex 3.556540e+000 2.000000e+000 1.500000e+001
      endloop
   endfacet
   facet normal 6.035562e-001 7.973205e-001 0.000000e+000
      outer loop
         vertex 7.506030e+000 4.280239e+000 2.000000e+001
         vertex 9.113081e+000 3.063733e+000 2.000000e+001
         vertex 7.506030e+000 4.280239e+000 1.500000e+001
      endloop
   endfacet
   facet normal 6.035562e-001 7.973205e-001 0.000000e+000
      outer loop
         vertex 7.506030e+000 4.280239e+000 1.500000e+001
         vertex 9.113081e+000 3.063733e+000 2.000000e+001
         vertex 9.113081e+000 3.063733e+000 1.500000e+001
      endloop
   endfacet
   facet normal 8.660254e-001 -5.000000e-001 0.000000e+000
      outer loop
         vertex 9.113081e+000 3.063733e+000 2.000000e+001
         vertex 8.363081e+000 1.764694e+000 2.000000e+001
         vertex 9.113081e+000 3.063733e+000 1.500000e+001
      endloop
   endfacet
   facet normal 8.660254e-001 -5.000000e-001 0.000000e+000
      outer loop
         vertex 9.113081e+000 3.063733e+000 1.500000e+001
         vertex 8.363081e+000 1.764694e+000 2.000000e+001
         vertex 8.363081e+000 1.764694e+000 1.500000e+001
      endloop
   endfacet
   facet normal -3.887217e-001 -9.213552e-001 0.000000e+000
      outer loop
         vertex 8.363081e+000 1.764694e+000 2.000000e+001
         vertex 6.506030e+000 2.548188e+000 2.000000e+001
         vertex 8.363081e+000 1.764694e+000 1.500000e+001
      endloop
   endfacet
   facet normal -3.887217e-001 -9.213552e-001 0.000000e+000
      outer loop
         vertex 8.363081e+000 1.764694e+000 1.500000e+001
         vertex 6.506030e+000 2.548188e+000 2.000000e+001
         vertex 6.506030e+000 2.548188e+000 1.500000e+001
      endloop
   endfacet
   facet normal -3.887217e-001 9.213552e-001 0.000000e+000
      outer loop
         vertex 6.506030e+000 7.108666e+000 2.000000e+001
         vertex 8.363081e+000 7.892160e+000 2.000000e+001
         vertex 6.506030e+000 7.108666e+000 1.500000e+001
      endloop
   endfacet
   facet normal -3.887217e-001 9.213552e-001 0.000000e+000
      outer loop
         vertex 6.506030e+000 7.108666e+000 1.500000e+001
         vertex 8.363081e+000 7.892160e+000 2.000000e+001
         vertex 8.363081e+000 7.892160e+000 1.500000e+001
      endloop
   endfacet
   facet normal 8.660254e-001 5.000000e-001 0.000000e+000
      outer loop
         vertex 8.363081e+000 7.892160e+000 2.000000e+001
         vertex 9.113081e+000 6.593121e+000 2.000000e+001
         vertex 8.363081e+000 7.892160e+000 1.500000e+001
      endloop
   endfacet
   facet normal 8.660254e-001 5.000000e-001 0.000000e+000
      outer loop
         vertex 8.363081e+000 7.892160e+000 1.500000e+001
         vertex 9.113081e+000 6.593121e+000 2.000000e+001
         vertex 9.113081e+000 6.593121e+000 1.500000e+001
      endloop
   endfacet
   facet normal 6.035562e-001 -7.973205e-001 0.000000e+000
      outer loop
         vertex 9.113081e+000 6.593121e+000 2.000000e+001
         vertex 7.506030e+000 5.376615e+000 2.000000e+001
         vertex 9.113081e+000 6.593121e+000 1.500000e+001
      endloop
   endfacet
   facet normal 6.035562e-001 -7.973205e-001 0.000000e+000
      outer loop
         vertex 9.113081e+000 6.593121e+000 1.500000e+001
         vertex 7.506030e+000 5.376615e+000 2.000000e+001
         vertex 7.506030e+000 5.376615e+000 1.500000e+001
      endloop
   endfacet
   facet normal 0.000000e+000 0.000000e+000 -1.000000e+000
      outer loop
         vertex 1.602117e+000 5.349371e+000 0.000000e+000
         vertex 1.737463e+000 5.854487e+000 0.000000e+000
         vertex 2.556540e+000 5.328427e+000 0.000000e+000
      endloop
   endfacet
   facet normal 0.000000e+000 0.000000e+000 -1.000000e+000
      outer loop
         vertex 2.258407e+000 6.756790e+000 0.000000e+000
         vertex 2.628177e+000 7.126560e+000 0.000000e+000
         vertex 6.556540e+000 5.328427e+000 0.000000e+000
      endloop
   endfacet
   facet normal 0.000000e+000 0.000000e+000 -1.000000e+000
      outer loop
         vertex 6.556540e+000 5.328427e+000 0.000000e+000
         vertex 2.628177e+000 7.126560e+000 0.000000e+000
         vertex 3.056540e+000 7.426503e+000 0.000000e+000
      endloop
   endfacet
   facet normal 0.000000e+000 0.000000e+000 -1.000000e+000
      outer loop
         vertex 2.556540e+000 5.328427e+000 0.000000e+000
         vertex 1.737463e+000 5.854487e+000 0.000000e+000
         vertex 6.556540e+000 5.328427e+000 0.000000e+000
      endloop
   endfacet
   facet normal 0.000000e+000 0.000000e+000 -1.000000e+000
      outer loop
         vertex 6.556540e+000 5.328427e+000 0.000000e+000
         vertex 1.737463e+000 5.854487e+000 0.000000e+000
         vertex 1.958464e+000 6.328427e+000 0.000000e+000
      endloop
   endfacet
   facet normal 0.000000e+000 0.000000e+000 -1.000000e+000
      outer loop
         vertex 6.556540e+000 5.328427e+000 0.000000e+000
         vertex 1.958464e+000 6.328427e+000 0.000000e+000
         vertex 2.258407e+000 6.756790e+000 0.000000e+000
      endloop
   endfacet
   facet normal 0.000000e+000 0.000000e+000 -1.000000e+000
      outer loop
         vertex 3.056540e+000 7.426503e+000 0.000000e+000
         vertex 3.530480e+000 7.647505e+000 0.000000e+000
         vertex 6.556540e+000 5.328427e+000 0.000000e+000
      endloop
   endfacet
   facet normal 0.000000e+000 0.000000e+000 -1.000000e+000
      outer loop
         vertex 6.556540e+000 5.328427e+000 0.000000e+000
         vertex 3.530480e+000 7.647505e+000 0.000000e+000
         vertex 4.035596e+000 7.782850e+000 0.000000e+000
      endloop
   endfacet
   facet normal 0.000000e+000 0.000000e+000 -1.000000e+000
      outer loop
         vertex 6.556540e+000 5.328427e+000 0.000000e+000
         vertex 4.035596e+000 7.782850e+000 0.000000e+000
         vertex 4.556540e+000 7.828427e+000 0.000000e+000
      endloop
   endfacet
   facet normal 0.000000e+000 0.000000e+000 -1.000000e+000
      outer loop
         vertex 1.602117e+000 5.349371e+000 0.000000e+000
         vertex 2.556540e+000 5.328427e+000 0.000000e+000
         vertex 1.556540e+000 4.828427e+000 0.000000e+000
      endloop
   endfacet
   facet normal 0.000000e+000 0.000000e+000 -1.000000e+000
      outer loop
         vertex 1.556540e+000 4.828427e+000 0.000000e+000
         vertex 2.556540e+000 5.328427e+000 0.000000e+000
         vertex 2.556540e+000 4.328427e+000 0.000000e+000
      endloop
   endfacet
   facet normal 0.000000e+000 0.000000e+000 -1.000000e+000
      outer loop
         vertex 1.556540e+000 4.828427e+000 0.000000e+000
         vertex 2.556540e+000 4.328427e+000 0.000000e+000
         vertex 1.602117e+000 4.307482e+000 0.000000e+000
      endloop
   endfacet
   facet normal 0.000000e+000 0.000000e+000 -1.000000e+000
      outer loop
         vertex 7.510964e+000 4.307482e+000 0.000000e+000
         vertex 7.375618e+000 3.802366e+000 0.000000e+000
         vertex 6.556540e+000 4.328427e+000 0.000000e+000
      endloop
   endfacet
   facet normal 0.000000e+000 0.000000e+000 -1.000000e+000
      outer loop
         vertex 6.556540e+000 4.328427e+000 0.000000e+000
         vertex 7.375618e+000 3.802366e+000 0.000000e+000
         vertex 7.154616e+000 3.328427e+000 0.000000e+000
      endloop
   endfacet
   facet normal 0.000000e+000 0.000000e+000 -1.000000e+000
      outer loop
         vertex 6.556540e+000 4.328427e+000 0.000000e+000
         vertex 1.958464e+000 3.328427e+000 0.000000e+000
         vertex 2.556540e+000 4.328427e+000 0.000000e+000
      endloop
   endfacet
   facet normal 0.000000e+000 0.000000e+000 -1.000000e+000
      outer loop
         vertex 2.556540e+000 4.328427e+000 0.000000e+000
         vertex 1.958464e+000 3.328427e+000 0.000000e+000
         vertex 1.737463e+000 3.802366e+000 0.000000e+000
      endloop
   endfacet
   facet normal 0.000000e+000 0.000000e+000 -1.000000e+000
      outer loop
         vertex 2.556540e+000 4.328427e+000 0.000000e+000
         vertex 1.737463e+000 3.802366e+000 0.000000e+000
         vertex 1.602117e+000 4.307482e+000 0.000000e+000
      endloop
   endfacet
   facet normal 0.000000e+000 0.000000e+000 -1.000000e+000
      outer loop
         vertex 7.154616e+000 6.328427e+000 0.000000e+000
         vertex 7.375618e+000 5.854487e+000 0.000000e+000
         vertex 6.556540e+000 5.328427e+000 0.000000e+000
      endloop
   endfacet
   facet normal 0.000000e+000 0.000000e+000 -1.000000e+000
      outer loop
         vertex 6.556540e+000 5.328427e+000 0.000000e+000
         vertex 7.375618e+000 5.854487e+000 0.000000e+000
         vertex 7.510964e+000 5.349371e+000 0.000000e+000
      endloop
   endfacet
   facet normal 0.000000e+000 0.000000e+000 -1.000000e+000
      outer loop
         vertex 6.556540e+000 5.328427e+000 0.000000e+000
         vertex 7.510964e+000 5.349371e+000 0.000000e+000
         vertex 6.556540e+000 4.328427e+000 0.000000e+000
      endloop
   endfacet
   facet normal 0.000000e+000 0.000000e+000 -1.000000e+000
      outer loop
         vertex 6.556540e+000 4.328427e+000 0.000000e+000
         vertex 7.510964e+000 5.349371e+000 0.000000e+000
         vertex 7.556540e+000 4.828427e+000 0.000000e+000
      endloop
   endfacet
   facet normal 0.000000e+000 0.000000e+000 -1.000000e+000
      outer loop
         vertex 6.556540e+000 4.328427e+000 0.000000e+000
         vertex 7.556540e+000 4.828427e+000 0.000000e+000
         vertex 7.510964e+000 4.307482e+000 0.000000e+000
      endloop
   endfacet
   facet normal 0.000000e+000 0.000000e+000 -1.000000e+000
      outer loop
         vertex 4.556540e+000 7.828427e+000 0.000000e+000
         vertex 5.077485e+000 7.782850e+000 0.000000e+000
         vertex 6.556540e+000 5.328427e+000 0.000000e+000
      endloop
   endfacet
   facet normal 0.000000e+000 0.000000e+000 -1.000000e+000
      outer loop
         vertex 6.556540e+000 5.328427e+000 0.000000e+000
         vertex 5.077485e+000 7.782850e+000 0.000000e+000
         vertex 5.582601e+000 7.647505e+000 0.000000e+000
      endloop
   endfacet
   facet normal 0.000000e+000 0.000000e+000 -1.000000e+000
      outer loop
         vertex 6.556540e+000 5.328427e+000 0.000000e+000
         vertex 5.582601e+000 7.647505e+000 0.000000e+000
         vertex 6.056540e+000 7.426503e+000 0.000000e+000
      endloop
   endfacet
   facet normal 0.000000e+000 0.000000e+000 -1.000000e+000
      outer loop
         vertex 6.056540e+000 7.426503e+000 0.000000e+000
         vertex 6.484903e+000 7.126560e+000 0.000000e+000
         vertex 6.556540e+000 5.328427e+000 0.000000e+000
      endloop
   endfacet
   facet normal 0.000000e+000 0.000000e+000 -1.000000e+000
      outer loop
         vertex 6.556540e+000 5.328427e+000 0.000000e+000
         vertex 6.484903e+000 7.126560e+000 0.000000e+000
         vertex 6.854674e+000 6.756790e+000 0.000000e+000
      endloop
   endfacet
   facet normal 0.000000e+000 0.000000e+000 -1.000000e+000
      outer loop
         vertex 6.556540e+000 5.328427e+000 0.000000e+000
         vertex 6.854674e+000 6.756790e+000 0.000000e+000
         vertex 7.154616e+000 6.328427e+000 0.000000e+000
      endloop
   endfacet
   facet normal 0.000000e+000 0.000000e+000 -1.000000e+000
      outer loop
         vertex 4.556540e+000 1.828427e+000 0.000000e+000
         vertex 4.035596e+000 1.874004e+000 0.000000e+000
         vertex 6.556540e+000 4.328427e+000 0.000000e+000
      endloop
   endfacet
   facet normal 0.000000e+000 0.000000e+000 -1.000000e+000
      outer loop
         vertex 6.556540e+000 4.328427e+000 0.000000e+000
         vertex 4.035596e+000 1.874004e+000 0.000000e+000
         vertex 3.530480e+000 2.009349e+000 0.000000e+000
      endloop
   endfacet
   facet normal 0.000000e+000 0.000000e+000 -1.000000e+000
      outer loop
         vertex 6.556540e+000 4.328427e+000 0.000000e+000
         vertex 3.530480e+000 2.009349e+000 0.000000e+000
         vertex 3.056540e+000 2.230351e+000 0.000000e+000
      endloop
   endfacet
   facet normal 0.000000e+000 0.000000e+000 -1.000000e+000
      outer loop
         vertex 3.056540e+000 2.230351e+000 0.000000e+000
         vertex 2.628177e+000 2.530294e+000 0.000000e+000
         vertex 6.556540e+000 4.328427e+000 0.000000e+000
      endloop
   endfacet
   facet normal 0.000000e+000 0.000000e+000 -1.000000e+000
      outer loop
         vertex 6.556540e+000 4.328427e+000 0.000000e+000
         vertex 2.628177e+000 2.530294e+000 0.000000e+000
         vertex 2.258407e+000 2.900064e+000 0.000000e+000
      endloop
   endfacet
   facet normal 0.000000e+000 0.000000e+000 -1.000000e+000
      outer loop
         vertex 6.556540e+000 4.328427e+000 0.000000e+000
         vertex 2.258407e+000 2.900064e+000 0.000000e+000
         vertex 1.958464e+000 3.328427e+000 0.000000e+000
      endloop
   endfacet
   facet normal 0.000000e+000 0.000000e+000 -1.000000e+000
      outer loop
         vertex 7.154616e+000 3.328427e+000 0.000000e+000
         vertex 6.854674e+000 2.900064e+000 0.000000e+000
         vertex 6.556540e+000 4.328427e+000 0.000000e+000
      endloop
   endfacet
   facet normal 0.000000e+000 0.000000e+000 -1.000000e+000
      outer loop
         vertex 6.556540e+000 4.328427e+000 0.000000e+000
         vertex 6.854674e+000 2.900064e+000 0.000000e+000
         vertex 6.484903e+000 2.530294e+000 0.000000e+000
      endloop
   endfacet
   facet normal 0.000000e+000 0.000000e+000 -1.000000e+000
      outer loop
         vertex 6.556540e+000 4.328427e+000 0.000000e+000
         vertex 6.484903e+000 2.530294e+000 0.000000e+000
         vertex 6.056540e+000 2.230351e+000 0.000000e+000
      endloop
   endfacet
   facet normal 0.000000e+000 0.000000e+000 -1.000000e+000
      outer loop
         vertex 6.056540e+000 2.230351e+000 0.000000e+000
         vertex 5.582601e+000 2.009349e+000 0.000000e+000
         vertex 6.556540e+000 4.328427e+000 0.000000e+000
      endloop
   endfacet
   facet normal 0.000000e+000 0.000000e+000 -1.000000e+000
      outer loop
         vertex 6.556540e+000 4.328427e+000 0.000000e+000
         vertex 5.582601e+000 2.009349e+000 0.000000e+000
         vertex 5.077485e+000 1.874004e+000 0.000000e+000
      endloop
   endfacet
   facet normal 0.000000e+000 0.000000e+000 -1.000000e+000
      outer loop
         vertex 6.556540e+000 4.328427e+000 0.000000e+000
         vertex 5.077485e+000 1.874004e+000 0.000000e+000
         vertex 4.556540e+000 1.828427e+000 0.000000e+000
      endloop
   endfacet
   facet normal -1.000000e+000 0.000000e+000 0.000000e+000
      outer loop
         vertex 6.556540e+000 4.328427e+000 3.000000e+000
         vertex 6.556540e+000 5.328427e+000 3.000000e+000
         vertex 6.556540e+000 4.328427e+000 0.000000e+000
      endloop
   endfacet
   facet normal -1.000000e+000 0.000000e+000 0.000000e+000
      outer loop
         vertex 6.556540e+000 4.328427e+000 0.000000e+000
         vertex 6.556540e+000 5.328427e+000 3.000000e+000
         vertex 6.556540e+000 5.328427e+000 0.000000e+000
      endloop
   endfacet
   facet normal 0.000000e+000 -1.000000e+000 0.000000e+000
      outer loop
         vertex 6.556540e+000 5.328427e+000 3.000000e+000
         vertex 2.556540e+000 5.328427e+000 3.000000e+000
         vertex 6.556540e+000 5.328427e+000 0.000000e+000
      endloop
   endfacet
   facet normal 0.000000e+000 -1.000000e+000 0.000000e+000
      outer loop
         vertex 6.556540e+000 5.328427e+000 0.000000e+000
         vertex 2.556540e+000 5.328427e+000 3.000000e+000
         vertex 2.556540e+000 5.328427e+000 0.000000e+000
      endloop
   endfacet
   facet normal 1.000000e+000 0.000000e+000 0.000000e+000
      outer loop
         vertex 2.556540e+000 5.328427e+000 3.000000e+000
         vertex 2.556540e+000 4.328427e+000 3.000000e+000
         vertex 2.556540e+000 5.328427e+000 0.000000e+000
      endloop
   endfacet
   facet normal 1.000000e+000 0.000000e+000 0.000000e+000
      outer loop
         vertex 2.556540e+000 5.328427e+000 0.000000e+000
         vertex 2.556540e+000 4.328427e+000 3.000000e+000
         vertex 2.556540e+000 4.328427e+000 0.000000e+000
      endloop
   endfacet
   facet normal 0.000000e+000 1.000000e+000 0.000000e+000
      outer loop
         vertex 2.556540e+000 4.328427e+000 3.000000e+000
         vertex 6.556540e+000 4.328427e+000 3.000000e+000
         vertex 2.556540e+000 4.328427e+000 0.000000e+000
      endloop
   endfacet
   facet normal 0.000000e+000 1.000000e+000 0.000000e+000
      outer loop
         vertex 2.556540e+000 4.328427e+000 0.000000e+000
         vertex 6.556540e+000 4.328427e+000 3.000000e+000
         vertex 6.556540e+000 4.328427e+000 0.000000e+000
      endloop
   endfacet
   facet normal 0.000000e+000 0.000000e+000 -1.000000e+000
      outer loop
         vertex 2.556540e+000 4.328427e+000 3.000000e+000
         vertex 2.556540e+000 5.328427e+000 3.000000e+000
         vertex 6.556540e+000 4.328427e+000 3.000000e+000
      endloop
   endfacet
   facet normal 0.000000e+000 0.000000e+000 -1.000000e+000
      outer loop
         vertex 6.556540e+000 4.328427e+000 3.000000e+000
         vertex 2.556540e+000 5.328427e+000 3.000000e+000
         vertex 6.556540e+000 5.328427e+000 3.000000e+000
      endloop
   endfacet
endsolid